<svg width="120" height="30" viewBox="0 0 120 30" fill="none" xmlns="http://www.w3.org/2000/svg"><rect x="0.4" y="0.4" width="119.2" height="29.2" rx="14.6" fill="url(#paint0_linear_610_72)" fill-opacity="0.2"/><rect x="0.4" y="0.4" width="119.2" height="29.2" rx="14.6" fill="url(#paint1_radial_610_72)" fill-opacity="0.3" style="mix-blend-mode:screen"/><rect x="0.4" y="0.4" width="119.2" height="29.2" rx="14.6" stroke="white" stroke-width="0.8" style="mix-blend-mode:soft-light"/><rect x="0.4" y="0.4" width="119.2" height="29.2" rx="14.6" stroke="url(#paint2_radial_610_72)" stroke-width="0.8" style="mix-blend-mode:plus-lighter"/><path d="M23.1779 10.2635V20H21.7089V10.2635H23.1779ZM26.357 15.6642V20H24.9355V12.6976H26.2999V13.8861H26.3902C26.5582 13.4995 26.8213 13.1889 27.1794 12.9543C27.5408 12.7198 27.9956 12.6025 28.5439 12.6025C29.0415 12.6025 29.4773 12.7071 29.8513 12.9163C30.2253 13.1223 30.5153 13.4297 30.7213 13.8386C30.9273 14.2474 31.0303 14.753 31.0303 15.3552V20H29.6088V15.5263C29.6088 14.997 29.471 14.5834 29.1952 14.2855C28.9195 13.9844 28.5407 13.8338 28.059 13.8338C27.7293 13.8338 27.4362 13.9051 27.1794 14.0478C26.9259 14.1904 26.7246 14.3996 26.5757 14.6753C26.4299 14.9479 26.357 15.2775 26.357 15.6642ZM32.7831 20V10.2635H34.2046V13.8814H34.2902C34.3726 13.7292 34.4914 13.5533 34.6467 13.3537C34.802 13.154 35.0176 12.9797 35.2933 12.8307C35.569 12.6786 35.9335 12.6025 36.3868 12.6025C36.9763 12.6025 37.5024 12.7515 37.9651 13.0494C38.4279 13.3473 38.7908 13.7768 39.0538 14.3378C39.3201 14.8988 39.4532 15.5739 39.4532 16.3631C39.4532 17.1522 39.3217 17.8289 39.0586 18.3931C38.7955 18.9541 38.4342 19.3867 37.9746 19.691C37.5151 19.9921 36.9905 20.1426 36.401 20.1426C35.9573 20.1426 35.5944 20.0681 35.3123 19.9192C35.0334 19.7702 34.8147 19.5959 34.6562 19.3962C34.4978 19.1965 34.3757 19.0191 34.2902 18.8638H34.1713V20H32.7831ZM34.1761 16.3488C34.1761 16.8622 34.2505 17.3123 34.3995 17.699C34.5485 18.0857 34.764 18.3883 35.0461 18.607C35.3282 18.8225 35.6736 18.9303 36.0825 18.9303C36.5072 18.9303 36.8622 18.8178 37.1474 18.5928C37.4327 18.3646 37.6482 18.0555 37.794 17.6657C37.943 17.2759 38.0174 16.8369 38.0174 16.3488C38.0174 15.867 37.9445 15.4344 37.7987 15.0509C37.6561 14.6674 37.4406 14.3647 37.1522 14.1429C36.8669 13.921 36.5104 13.8101 36.0825 13.8101C35.6705 13.8101 35.3218 13.9162 35.0366 14.1286C34.7545 14.3409 34.5405 14.6373 34.3948 15.0176C34.249 15.398 34.1761 15.8417 34.1761 16.3488ZM43.8576 20.1474C43.173 20.1474 42.5756 19.9905 42.0653 19.6767C41.555 19.3629 41.1588 18.924 40.8767 18.3598C40.5947 17.7956 40.4536 17.1364 40.4536 16.3821C40.4536 15.6246 40.5947 14.9622 40.8767 14.3948C41.1588 13.8275 41.555 13.3869 42.0653 13.0732C42.5756 12.7594 43.173 12.6025 43.8576 12.6025C44.5422 12.6025 45.1396 12.7594 45.6499 13.0732C46.1602 13.3869 46.5564 13.8275 46.8385 14.3948C47.1206 14.9622 47.2616 15.6246 47.2616 16.3821C47.2616 17.1364 47.1206 17.7956 46.8385 18.3598C46.5564 18.924 46.1602 19.3629 45.6499 19.6767C45.1396 19.9905 44.5422 20.1474 43.8576 20.1474ZM43.8624 18.9541C44.3061 18.9541 44.6737 18.8368 44.9653 18.6023C45.2569 18.3677 45.4724 18.0555 45.6119 17.6657C45.7545 17.2759 45.8258 16.8464 45.8258 16.3773C45.8258 15.9114 45.7545 15.4835 45.6119 15.0937C45.4724 14.7007 45.2569 14.3853 44.9653 14.1476C44.6737 13.9099 44.3061 13.791 43.8624 13.791C43.4155 13.791 43.0446 13.9099 42.7499 14.1476C42.4583 14.3853 42.2412 14.7007 42.0986 15.0937C41.9591 15.4835 41.8894 15.9114 41.8894 16.3773C41.8894 16.8464 41.9591 17.2759 42.0986 17.6657C42.2412 18.0555 42.4583 18.3677 42.7499 18.6023C43.0446 18.8368 43.4155 18.9541 43.8624 18.9541ZM49.4149 12.6976L51.0266 15.5406L52.6525 12.6976H54.2071L51.9299 16.3488L54.2261 20H52.6715L51.0266 17.2711L49.3864 20H47.827L50.0995 16.3488L47.8555 12.6976H49.4149ZM58.7883 20V10.2635H62.2588C63.0132 10.2635 63.6391 10.3934 64.1367 10.6533C64.6375 10.9132 65.0115 11.2729 65.2587 11.7325C65.5059 12.1889 65.6295 12.7166 65.6295 13.3156C65.6295 13.9115 65.5043 14.436 65.254 14.8893C65.0067 15.3393 64.6327 15.6895 64.132 15.9399C63.6344 16.1903 63.0084 16.3155 62.2541 16.3155H59.625V15.0509H62.121C62.5964 15.0509 62.983 14.9828 63.281 14.8465C63.5821 14.7102 63.8023 14.5121 63.9418 14.2522C64.0813 13.9923 64.151 13.6801 64.151 13.3156C64.151 12.948 64.0797 12.6294 63.937 12.36C63.7976 12.0906 63.5773 11.8846 63.2762 11.742C62.9783 11.5962 62.5869 11.5233 62.1019 11.5233H60.2573V20H58.7883ZM63.5947 15.6071L66.0004 20H64.3269L61.9688 15.6071H63.5947ZM70.091 20.1474C69.3715 20.1474 68.7519 19.9937 68.2321 19.6862C67.7155 19.3756 67.3161 18.9398 67.0341 18.3788C66.7552 17.8147 66.6157 17.1538 66.6157 16.3963C66.6157 15.6483 66.7552 14.9891 67.0341 14.4186C67.3161 13.8481 67.7092 13.4028 68.2131 13.0827C68.7202 12.7626 69.3129 12.6025 69.9912 12.6025C70.4032 12.6025 70.8025 12.6706 71.1892 12.8069C71.5759 12.9432 71.9229 13.1572 72.2304 13.4487C72.5378 13.7403 72.7803 14.1191 72.9578 14.585C73.1353 15.0477 73.224 15.6103 73.224 16.2727V16.7767H67.4192V15.7117H71.831C71.831 15.3377 71.755 15.0065 71.6028 14.7181C71.4507 14.4265 71.2368 14.1967 70.961 14.0288C70.6884 13.8608 70.3683 13.7768 70.0007 13.7768C69.6013 13.7768 69.2527 13.875 68.9547 14.0715C68.66 14.2649 68.4318 14.5184 68.2701 14.8322C68.1117 15.1428 68.0324 15.4804 68.0324 15.8449V16.6768C68.0324 17.1649 68.118 17.5801 68.2892 17.9224C68.4635 18.2647 68.7059 18.5262 69.0166 18.7069C69.3272 18.8844 69.6901 18.9731 70.1053 18.9731C70.3747 18.9731 70.6203 18.9351 70.8422 18.859C71.064 18.7798 71.2558 18.6625 71.4174 18.5072C71.5791 18.3519 71.7027 18.1601 71.7882 17.9319L73.1337 18.1744C73.0259 18.5706 72.8326 18.9176 72.5537 19.2156C72.2779 19.5103 71.9309 19.7401 71.5125 19.9049C71.0973 20.0666 70.6235 20.1474 70.091 20.1474ZM76.6586 20.1616C76.1958 20.1616 75.7774 20.0761 75.4035 19.9049C75.0295 19.7306 74.7331 19.4786 74.5144 19.149C74.2989 18.8194 74.1911 18.4153 74.1911 17.9367C74.1911 17.5247 74.2704 17.1855 74.4288 16.9193C74.5873 16.6531 74.8013 16.4423 75.0707 16.287C75.3401 16.1317 75.6412 16.0144 75.974 15.9352C76.3067 15.8559 76.6459 15.7957 76.9913 15.7545C77.4287 15.7038 77.7837 15.6626 78.0563 15.6309C78.3289 15.596 78.5269 15.5406 78.6506 15.4645C78.7742 15.3885 78.836 15.2648 78.836 15.0937V15.0604C78.836 14.6452 78.7187 14.3235 78.4842 14.0953C78.2528 13.8671 77.9073 13.753 77.4477 13.753C76.9692 13.753 76.592 13.8592 76.3163 14.0715C76.0437 14.2807 75.8551 14.5137 75.7505 14.7704L74.4146 14.4661C74.5731 14.0224 74.8044 13.6643 75.1087 13.3917C75.4161 13.116 75.7695 12.9163 76.1689 12.7927C76.5682 12.6659 76.9882 12.6025 77.4287 12.6025C77.7203 12.6025 78.0293 12.6374 78.3558 12.7071C78.6854 12.7737 78.9929 12.8973 79.2781 13.0779C79.5665 13.2586 79.8026 13.5169 79.9865 13.8529C80.1703 14.1856 80.2622 14.6183 80.2622 15.1507V20H78.874V19.0016H78.817C78.725 19.1855 78.5872 19.3661 78.4033 19.5436C78.2195 19.7211 77.9834 19.8685 77.695 19.9857C77.4065 20.103 77.0611 20.1616 76.6586 20.1616ZM76.9676 19.0206C77.3606 19.0206 77.6966 18.943 77.9755 18.7877C78.2575 18.6324 78.4715 18.4295 78.6173 18.1792C78.7662 17.9256 78.8407 17.6546 78.8407 17.3662V16.4249C78.79 16.4756 78.6918 16.5231 78.546 16.5675C78.4033 16.6087 78.2401 16.6451 78.0563 16.6768C77.8725 16.7054 77.6934 16.7323 77.5191 16.7577C77.3447 16.7798 77.1989 16.7989 77.0817 16.8147C76.8059 16.8496 76.554 16.9082 76.3258 16.9906C76.1007 17.073 75.9201 17.1919 75.7838 17.3472C75.6507 17.4993 75.5841 17.7021 75.5841 17.9557C75.5841 18.3075 75.7141 18.5737 75.974 18.7544C76.2338 18.9319 76.5651 19.0206 76.9676 19.0206ZM83.3093 10.2635V20H81.8878V10.2635H83.3093ZM84.9539 20V12.6976H86.3754V20H84.9539ZM85.6718 11.5708C85.4246 11.5708 85.2122 11.4884 85.0347 11.3236C84.8604 11.1557 84.7733 10.956 84.7733 10.7246C84.7733 10.4901 84.8604 10.2904 85.0347 10.1256C85.2122 9.9576 85.4246 9.87361 85.6718 9.87361C85.919 9.87361 86.1298 9.9576 86.3041 10.1256C86.4816 10.2904 86.5703 10.4901 86.5703 10.7246C86.5703 10.956 86.4816 11.1557 86.3041 11.3236C86.1298 11.4884 85.919 11.5708 85.6718 11.5708ZM91.4288 12.6976V13.8386H87.44V12.6976H91.4288ZM88.5097 10.9481H89.9312V17.8559C89.9312 18.1316 89.9724 18.3392 90.0548 18.4787C90.1372 18.615 90.2434 18.7084 90.3733 18.7592C90.5065 18.8067 90.6507 18.8305 90.806 18.8305C90.9201 18.8305 91.0199 18.8225 91.1055 18.8067C91.1911 18.7909 91.2576 18.7782 91.3052 18.7687L91.5619 19.9429C91.4795 19.9746 91.3622 20.0063 91.2101 20.038C91.0579 20.0729 90.8678 20.0919 90.6396 20.0951C90.2656 20.1014 89.9169 20.0349 89.5937 19.8954C89.2704 19.756 89.0089 19.5404 88.8092 19.2488C88.6095 18.9573 88.5097 18.5912 88.5097 18.1506V10.9481ZM93.632 22.7384C93.4197 22.7384 93.2263 22.721 93.052 22.6861C92.8777 22.6544 92.7477 22.6196 92.6622 22.5815L93.0045 21.4167C93.2643 21.4865 93.4957 21.5166 93.6986 21.5071C93.9014 21.4976 94.0805 21.4215 94.2358 21.2789C94.3943 21.1362 94.5337 20.9033 94.6542 20.58L94.8301 20.0951L92.1582 12.6976H93.6795L95.5289 18.3646H95.605L97.4544 12.6976H98.9805L95.9711 20.9746C95.8316 21.3549 95.6541 21.6766 95.4386 21.9397C95.2231 22.2059 94.9663 22.4056 94.6684 22.5387C94.3705 22.6718 94.025 22.7384 93.632 22.7384Z" fill="#DDD7F9"/><defs><linearGradient id="paint0_linear_610_72" x1="60" y1="7.08333" x2="60" y2="41.25" gradientUnits="userSpaceOnUse"><stop stop-color="#FF8C00"/><stop offset="1" stop-color="#BE7637"/></linearGradient><radialGradient id="paint1_radial_610_72" cx="0" cy="0" r="1" gradientUnits="userSpaceOnUse" gradientTransform="translate(18.72) scale(32.4 28.1624)"><stop stop-color="#A98A51"/><stop offset="1" stop-opacity="0"/></radialGradient><radialGradient id="paint2_radial_610_72" cx="0" cy="0" r="1" gradientTransform="matrix(124.8 56.6667 5.34219 40.0213 6 -3.75)" gradientUnits="userSpaceOnUse"><stop stop-color="#FF8C00"/><stop offset="1" stop-color="#F3E7B6" stop-opacity="0"/></radialGradient></defs></svg>