<svg width="100" height="30" viewBox="0 0 100 30" fill="none" xmlns="http://www.w3.org/2000/svg"><rect x="0.4" y="0.4" width="99.2" height="29.2" rx="14.6" fill="url(#paint0_linear_610_80)" fill-opacity="0.2"/><rect x="0.4" y="0.4" width="99.2" height="29.2" rx="14.6" fill="url(#paint1_radial_610_80)" fill-opacity="0.3" style="mix-blend-mode:screen"/><rect x="0.4" y="0.4" width="99.2" height="29.2" rx="14.6" stroke="white" stroke-width="0.8" style="mix-blend-mode:soft-light"/><rect x="0.4" y="0.4" width="99.2" height="29.2" rx="14.6" stroke="url(#paint2_radial_610_80)" stroke-width="0.8" style="mix-blend-mode:plus-lighter"/><path d="M31.1366 12.8212C31.0859 12.3711 30.8767 12.0225 30.5091 11.7753C30.1414 11.5249 29.6787 11.3997 29.1208 11.3997C28.7215 11.3997 28.376 11.4631 28.0844 11.5899C27.7928 11.7135 27.5662 11.8846 27.4046 12.1033C27.2461 12.3188 27.1669 12.5645 27.1669 12.8402C27.1669 13.0716 27.2207 13.2713 27.3285 13.4392C27.4394 13.6072 27.5836 13.7483 27.7611 13.8624C27.9418 13.9733 28.1351 14.0668 28.3411 14.1429C28.5472 14.2158 28.7453 14.276 28.9354 14.3235L29.8863 14.5707C30.1969 14.6468 30.5154 14.7498 30.8418 14.8798C31.1683 15.0097 31.471 15.1809 31.7499 15.3932C32.0288 15.6056 32.2538 15.8686 32.425 16.1824C32.5993 16.4962 32.6865 16.8718 32.6865 17.3091C32.6865 17.8606 32.5438 18.3503 32.2586 18.7782C31.9765 19.2061 31.5661 19.5436 31.0273 19.7908C30.4916 20.038 29.8435 20.1616 29.0828 20.1616C28.3538 20.1616 27.7231 20.046 27.1906 19.8146C26.6582 19.5832 26.2414 19.2552 25.9403 18.8305C25.6392 18.4026 25.4728 17.8955 25.4411 17.3091H26.9149C26.9434 17.6609 27.0575 17.9541 27.2572 18.1887C27.46 18.42 27.7184 18.5928 28.0321 18.7069C28.3491 18.8178 28.6961 18.8733 29.0733 18.8733C29.4885 18.8733 29.8577 18.8083 30.181 18.6783C30.5075 18.5452 30.7642 18.3614 30.9512 18.1269C31.1382 17.8891 31.2317 17.6118 31.2317 17.2949C31.2317 17.0065 31.1493 16.7703 30.9845 16.5865C30.8228 16.4027 30.6026 16.2505 30.3236 16.1301C30.0479 16.0097 29.7357 15.9035 29.3871 15.8116L28.2366 15.4978C27.4569 15.2854 26.8388 14.9733 26.3824 14.5612C25.9292 14.1492 25.7026 13.6041 25.7026 12.9258C25.7026 12.3648 25.8547 11.8751 26.159 11.4567C26.4632 11.0384 26.8753 10.7135 27.3951 10.4821C27.9149 10.2476 28.5012 10.1303 29.1541 10.1303C29.8134 10.1303 30.395 10.246 30.8989 10.4774C31.406 10.7088 31.8054 11.0273 32.0969 11.433C32.3885 11.8355 32.5407 12.2982 32.5533 12.8212H31.1366ZM37.136 20.1474C36.4514 20.1474 35.854 19.9905 35.3437 19.6767C34.8334 19.3629 34.4373 18.924 34.1552 18.3598C33.8731 17.7956 33.732 17.1364 33.732 16.3821C33.732 15.6246 33.8731 14.9622 34.1552 14.3948C34.4373 13.8275 34.8334 13.3869 35.3437 13.0732C35.854 12.7594 36.4514 12.6025 37.136 12.6025C37.8206 12.6025 38.4181 12.7594 38.9284 13.0732C39.4386 13.3869 39.8348 13.8275 40.1169 14.3948C40.399 14.9622 40.54 15.6246 40.54 16.3821C40.54 17.1364 40.399 17.7956 40.1169 18.3598C39.8348 18.924 39.4386 19.3629 38.9284 19.6767C38.4181 19.9905 37.8206 20.1474 37.136 20.1474ZM37.1408 18.9541C37.5845 18.9541 37.9522 18.8368 38.2438 18.6023C38.5353 18.3677 38.7509 18.0555 38.8903 17.6657C39.033 17.2759 39.1043 16.8464 39.1043 16.3773C39.1043 15.9114 39.033 15.4835 38.8903 15.0937C38.7509 14.7007 38.5353 14.3853 38.2438 14.1476C37.9522 13.9099 37.5845 13.791 37.1408 13.791C36.6939 13.791 36.3231 13.9099 36.0283 14.1476C35.7367 14.3853 35.5196 14.7007 35.377 15.0937C35.2375 15.4835 35.1678 15.9114 35.1678 16.3773C35.1678 16.8464 35.2375 17.2759 35.377 17.6657C35.5196 18.0555 35.7367 18.3677 36.0283 18.6023C36.3231 18.8368 36.6939 18.9541 37.1408 18.9541ZM43.2805 10.2635V20H41.859V10.2635H43.2805ZM49.5509 16.9716V12.6976H50.9771V20H49.5794V18.7354H49.5034C49.3354 19.1252 49.066 19.4501 48.6951 19.71C48.3275 19.9667 47.8695 20.0951 47.3212 20.0951C46.8521 20.0951 46.4369 19.9921 46.0756 19.7861C45.7174 19.5769 45.4354 19.2679 45.2294 18.859C45.0265 18.4501 44.9251 17.9446 44.9251 17.3424V12.6976H46.3466V17.1713C46.3466 17.6689 46.4845 18.0651 46.7602 18.3598C47.0359 18.6546 47.3941 18.8019 47.8346 18.8019C48.1009 18.8019 48.3655 18.7354 48.6286 18.6023C48.8948 18.4692 49.1151 18.2679 49.2894 17.9985C49.4669 17.7291 49.5541 17.3868 49.5509 16.9716ZM56.0281 12.6976V13.8386H52.0394V12.6976H56.0281ZM53.1091 10.9481H54.5306V17.8559C54.5306 18.1316 54.5718 18.3392 54.6542 18.4787C54.7366 18.615 54.8428 18.7084 54.9727 18.7592C55.1058 18.8067 55.25 18.8305 55.4053 18.8305C55.5194 18.8305 55.6193 18.8225 55.7048 18.8067C55.7904 18.7909 55.857 18.7782 55.9045 18.7687L56.1612 19.9429C56.0788 19.9746 55.9616 20.0063 55.8094 20.038C55.6573 20.0729 55.4671 20.0919 55.2389 20.0951C54.8649 20.1014 54.5163 20.0349 54.193 19.8954C53.8697 19.756 53.6083 19.5404 53.4086 19.2488C53.2089 18.9573 53.1091 18.5912 53.1091 18.1506V10.9481ZM57.3328 20V12.6976H58.7543V20H57.3328ZM58.0507 11.5708C57.8035 11.5708 57.5911 11.4884 57.4136 11.3236C57.2393 11.1557 57.1522 10.956 57.1522 10.7246C57.1522 10.4901 57.2393 10.2904 57.4136 10.1256C57.5911 9.9576 57.8035 9.87361 58.0507 9.87361C58.2979 9.87361 58.5087 9.9576 58.683 10.1256C58.8605 10.2904 58.9492 10.4901 58.9492 10.7246C58.9492 10.956 58.8605 11.1557 58.683 11.3236C58.5087 11.4884 58.2979 11.5708 58.0507 11.5708ZM63.4749 20.1474C62.7903 20.1474 62.1928 19.9905 61.6826 19.6767C61.1723 19.3629 60.7761 18.924 60.494 18.3598C60.2119 17.7956 60.0709 17.1364 60.0709 16.3821C60.0709 15.6246 60.2119 14.9622 60.494 14.3948C60.7761 13.8275 61.1723 13.3869 61.6826 13.0732C62.1928 12.7594 62.7903 12.6025 63.4749 12.6025C64.1595 12.6025 64.7569 12.7594 65.2672 13.0732C65.7775 13.3869 66.1737 13.8275 66.4557 14.3948C66.7378 14.9622 66.8789 15.6246 66.8789 16.3821C66.8789 17.1364 66.7378 17.7956 66.4557 18.3598C66.1737 18.924 65.7775 19.3629 65.2672 19.6767C64.7569 19.9905 64.1595 20.1474 63.4749 20.1474ZM63.4796 18.9541C63.9234 18.9541 64.291 18.8368 64.5826 18.6023C64.8742 18.3677 65.0897 18.0555 65.2292 17.6657C65.3718 17.2759 65.4431 16.8464 65.4431 16.3773C65.4431 15.9114 65.3718 15.4835 65.2292 15.0937C65.0897 14.7007 64.8742 14.3853 64.5826 14.1476C64.291 13.9099 63.9234 13.791 63.4796 13.791C63.0327 13.791 62.6619 13.9099 62.3672 14.1476C62.0756 14.3853 61.8585 14.7007 61.7158 15.0937C61.5764 15.4835 61.5066 15.9114 61.5066 16.3773C61.5066 16.8464 61.5764 17.2759 61.7158 17.6657C61.8585 18.0555 62.0756 18.3677 62.3672 18.6023C62.6619 18.8368 63.0327 18.9541 63.4796 18.9541ZM69.6193 15.6642V20H68.1978V12.6976H69.5623V13.8861H69.6526C69.8206 13.4995 70.0836 13.1889 70.4418 12.9543C70.8031 12.7198 71.2579 12.6025 71.8062 12.6025C72.3038 12.6025 72.7396 12.7071 73.1136 12.9163C73.4876 13.1223 73.7776 13.4297 73.9836 13.8386C74.1897 14.2474 74.2927 14.753 74.2927 15.3552V20H72.8712V15.5263C72.8712 14.997 72.7333 14.5834 72.4576 14.2855C72.1818 13.9844 71.8031 13.8338 71.3213 13.8338C70.9917 13.8338 70.6985 13.9051 70.4418 14.0478C70.1882 14.1904 69.987 14.3996 69.838 14.6753C69.6922 14.9479 69.6193 15.2775 69.6193 15.6642Z" fill="#DDD7F9"/><defs><linearGradient id="paint0_linear_610_80" x1="50" y1="7.08333" x2="50" y2="41.25" gradientUnits="userSpaceOnUse"><stop stop-color="#FF8C00"/><stop offset="1" stop-color="#BE7637"/></linearGradient><radialGradient id="paint1_radial_610_80" cx="0" cy="0" r="1" gradientUnits="userSpaceOnUse" gradientTransform="translate(15.6) scale(27 28.1624)"><stop stop-color="#A98A51"/><stop offset="1" stop-opacity="0"/></radialGradient><radialGradient id="paint2_radial_610_80" cx="0" cy="0" r="1" gradientTransform="matrix(104 56.6667 4.45182 40.0213 5 -3.75)" gradientUnits="userSpaceOnUse"><stop stop-color="#FF8C00"/><stop offset="1" stop-color="#F3E7B6" stop-opacity="0"/></radialGradient></defs></svg>