<svg width="221" height="30" viewBox="0 0 221 30" fill="none" xmlns="http://www.w3.org/2000/svg">
<rect x="0.4" y="0.4" width="220.2" height="29.2" rx="14.6" fill="url(#paint0_linear_610_68)" fill-opacity="0.2"/>
<rect x="0.4" y="0.4" width="220.2" height="29.2" rx="14.6" fill="url(#paint1_radial_610_68)" fill-opacity="0.3" style="mix-blend-mode:screen"/>
<rect x="0.4" y="0.4" width="220.2" height="29.2" rx="14.6" stroke="white" stroke-width="0.8" style="mix-blend-mode:soft-light"/>
<rect x="0.4" y="0.4" width="220.2" height="29.2" rx="14.6" stroke="url(#paint2_radial_610_68)" stroke-width="0.8" style="mix-blend-mode:plus-lighter"/>
<path d="M19.5649 11.5281V10.2635H27.1002V11.5281H24.0623V20H22.598V11.5281H19.5649ZM29.805 15.6642V20H28.3835V10.2635H29.786V13.8861H29.8763C30.0475 13.4931 30.309 13.1809 30.6608 12.9496C31.0126 12.7182 31.4722 12.6025 32.0395 12.6025C32.5403 12.6025 32.9776 12.7055 33.3516 12.9115C33.7288 13.1175 34.0204 13.425 34.2264 13.8338C34.4356 14.2395 34.5402 14.7466 34.5402 15.3552V20H33.1187V15.5263C33.1187 14.9907 32.9808 14.5755 32.7051 14.2807C32.4293 13.9828 32.0458 13.8338 31.5546 13.8338C31.2186 13.8338 30.9175 13.9051 30.6513 14.0478C30.3882 14.1904 30.1806 14.3996 30.0285 14.6753C29.8795 14.9479 29.805 15.2775 29.805 15.6642ZM39.3166 20.1474C38.5971 20.1474 37.9775 19.9937 37.4577 19.6862C36.9411 19.3756 36.5418 18.9398 36.2597 18.3788C35.9808 17.8147 35.8413 17.1538 35.8413 16.3963C35.8413 15.6483 35.9808 14.9891 36.2597 14.4186C36.5418 13.8481 36.9348 13.4028 37.4387 13.0827C37.9458 12.7626 38.5385 12.6025 39.2168 12.6025C39.6288 12.6025 40.0281 12.6706 40.4148 12.8069C40.8015 12.9432 41.1485 13.1572 41.456 13.4487C41.7634 13.7403 42.0059 14.1191 42.1834 14.585C42.3609 15.0477 42.4496 15.6103 42.4496 16.2727V16.7767H36.6448V15.7117H41.0566C41.0566 15.3377 40.9806 15.0065 40.8284 14.7181C40.6763 14.4265 40.4624 14.1967 40.1866 14.0288C39.914 13.8608 39.5939 13.7768 39.2263 13.7768C38.8269 13.7768 38.4783 13.875 38.1804 14.0715C37.8856 14.2649 37.6574 14.5184 37.4958 14.8322C37.3373 15.1428 37.258 15.4804 37.258 15.8449V16.6768C37.258 17.1649 37.3436 17.5801 37.5148 17.9224C37.6891 18.2647 37.9316 18.5262 38.2422 18.7069C38.5528 18.8844 38.9157 18.9731 39.3309 18.9731C39.6003 18.9731 39.8459 18.9351 40.0678 18.859C40.2896 18.7798 40.4814 18.6625 40.643 18.5072C40.8047 18.3519 40.9283 18.1601 41.0138 17.9319L42.3593 18.1744C42.2515 18.5706 42.0582 18.9176 41.7793 19.2156C41.5035 19.5103 41.1565 19.7401 40.7381 19.9049C40.3229 20.0666 39.8491 20.1474 39.3166 20.1474ZM47.1484 20V10.2635H50.619C51.3765 10.2635 52.004 10.4013 52.5016 10.6771C52.9992 10.9528 53.3717 11.33 53.6189 11.8086C53.8661 12.284 53.9897 12.8196 53.9897 13.4155C53.9897 14.0145 53.8645 14.5533 53.6141 15.0319C53.3669 15.5073 52.9929 15.8845 52.4921 16.1634C51.9945 16.4391 51.3686 16.577 50.6142 16.577H48.2276V15.3314H50.4811C50.9597 15.3314 51.348 15.249 51.6459 15.0842C51.9438 14.9162 52.1625 14.688 52.302 14.3996C52.4414 14.1112 52.5112 13.7831 52.5112 13.4155C52.5112 13.0478 52.4414 12.7214 52.302 12.4361C52.1625 12.1509 51.9422 11.9274 51.6411 11.7658C51.3432 11.6041 50.9502 11.5233 50.4621 11.5233H48.6175V20H47.1484ZM55.33 20V12.6976H56.704V13.8576H56.7801C56.9132 13.4646 57.1477 13.1556 57.4837 12.9305C57.8228 12.7023 58.2063 12.5882 58.6342 12.5882C58.7229 12.5882 58.8275 12.5914 58.948 12.5978C59.0716 12.6041 59.1682 12.612 59.238 12.6215V13.9812C59.1809 13.9654 59.0795 13.9479 58.9337 13.9289C58.7879 13.9067 58.6421 13.8956 58.4963 13.8956C58.1604 13.8956 57.8608 13.967 57.5978 14.1096C57.3379 14.249 57.1319 14.444 56.9797 14.6943C56.8276 14.9416 56.7515 15.2236 56.7515 15.5406V20H55.33ZM63.0148 20.1474C62.3302 20.1474 61.7328 19.9905 61.2225 19.6767C60.7122 19.3629 60.316 18.924 60.034 18.3598C59.7519 17.7956 59.6108 17.1364 59.6108 16.3821C59.6108 15.6246 59.7519 14.9622 60.034 14.3948C60.316 13.8275 60.7122 13.3869 61.2225 13.0732C61.7328 12.7594 62.3302 12.6025 63.0148 12.6025C63.6994 12.6025 64.2969 12.7594 64.8072 13.0732C65.3174 13.3869 65.7136 13.8275 65.9957 14.3948C66.2778 14.9622 66.4188 15.6246 66.4188 16.3821C66.4188 17.1364 66.2778 17.7956 65.9957 18.3598C65.7136 18.924 65.3174 19.3629 64.8072 19.6767C64.2969 19.9905 63.6994 20.1474 63.0148 20.1474ZM63.0196 18.9541C63.4633 18.9541 63.831 18.8368 64.1226 18.6023C64.4141 18.3677 64.6297 18.0555 64.7691 17.6657C64.9118 17.2759 64.9831 16.8464 64.9831 16.3773C64.9831 15.9114 64.9118 15.4835 64.7691 15.0937C64.6297 14.7007 64.4141 14.3853 64.1226 14.1476C63.831 13.9099 63.4633 13.791 63.0196 13.791C62.5727 13.791 62.2019 13.9099 61.9071 14.1476C61.6155 14.3853 61.3984 14.7007 61.2558 15.0937C61.1163 15.4835 61.0466 15.9114 61.0466 16.3773C61.0466 16.8464 61.1163 17.2759 61.2558 17.6657C61.3984 18.0555 61.6155 18.3677 61.9071 18.6023C62.2019 18.8368 62.5727 18.9541 63.0196 18.9541ZM67.8519 20V10.2635H69.2734V13.8814H69.3589C69.4414 13.7292 69.5602 13.5533 69.7155 13.3537C69.8708 13.154 70.0863 12.9797 70.3621 12.8307C70.6378 12.6786 71.0023 12.6025 71.4555 12.6025C72.0451 12.6025 72.5712 12.7515 73.0339 13.0494C73.4967 13.3473 73.8596 13.7768 74.1226 14.3378C74.3889 14.8988 74.522 15.5739 74.522 16.3631C74.522 17.1522 74.3904 17.8289 74.1274 18.3931C73.8643 18.9541 73.503 19.3867 73.0434 19.691C72.5839 19.9921 72.0593 20.1426 71.4698 20.1426C71.0261 20.1426 70.6632 20.0681 70.3811 19.9192C70.1022 19.7702 69.8835 19.5959 69.725 19.3962C69.5665 19.1965 69.4445 19.0191 69.3589 18.8638H69.2401V20H67.8519ZM69.2448 16.3488C69.2448 16.8622 69.3193 17.3123 69.4683 17.699C69.6173 18.0857 69.8328 18.3883 70.1149 18.607C70.3969 18.8225 70.7424 18.9303 71.1513 18.9303C71.576 18.9303 71.931 18.8178 72.2162 18.5928C72.5015 18.3646 72.717 18.0555 72.8628 17.6657C73.0117 17.2759 73.0862 16.8369 73.0862 16.3488C73.0862 15.867 73.0133 15.4344 72.8675 15.0509C72.7249 14.6674 72.5094 14.3647 72.221 14.1429C71.9357 13.921 71.5791 13.8101 71.1513 13.8101C70.7392 13.8101 70.3906 13.9162 70.1054 14.1286C69.8233 14.3409 69.6093 14.6373 69.4635 15.0176C69.3177 15.398 69.2448 15.8417 69.2448 16.3488ZM77.2719 10.2635V20H75.8504V10.2635H77.2719ZM82.0638 20.1474C81.3443 20.1474 80.7247 19.9937 80.2049 19.6862C79.6883 19.3756 79.289 18.9398 79.0069 18.3788C78.728 17.8147 78.5885 17.1538 78.5885 16.3963C78.5885 15.6483 78.728 14.9891 79.0069 14.4186C79.289 13.8481 79.682 13.4028 80.1859 13.0827C80.693 12.7626 81.2857 12.6025 81.964 12.6025C82.376 12.6025 82.7754 12.6706 83.162 12.8069C83.5487 12.9432 83.8958 13.1572 84.2032 13.4487C84.5106 13.7403 84.7531 14.1191 84.9306 14.585C85.1081 15.0477 85.1968 15.6103 85.1968 16.2727V16.7767H79.392V15.7117H83.8038C83.8038 15.3377 83.7278 15.0065 83.5756 14.7181C83.4235 14.4265 83.2096 14.1967 82.9338 14.0288C82.6613 13.8608 82.3411 13.7768 81.9735 13.7768C81.5741 13.7768 81.2255 13.875 80.9276 14.0715C80.6328 14.2649 80.4046 14.5184 80.243 14.8322C80.0845 15.1428 80.0053 15.4804 80.0053 15.8449V16.6768C80.0053 17.1649 80.0908 17.5801 80.262 17.9224C80.4363 18.2647 80.6788 18.5262 80.9894 18.7069C81.3 18.8844 81.6629 18.9731 82.0781 18.9731C82.3475 18.9731 82.5931 18.9351 82.815 18.859C83.0368 18.7798 83.2286 18.6625 83.3902 18.5072C83.5519 18.3519 83.6755 18.1601 83.761 17.9319L85.1065 18.1744C84.9987 18.5706 84.8054 18.9176 84.5265 19.2156C84.2507 19.5103 83.9037 19.7401 83.4853 19.9049C83.0701 20.0666 82.5963 20.1474 82.0638 20.1474ZM86.5063 20V12.6976H87.8707V13.8861H87.961C88.1132 13.4836 88.362 13.1698 88.7074 12.9448C89.0529 12.7166 89.4665 12.6025 89.9483 12.6025C90.4364 12.6025 90.8452 12.7166 91.1749 12.9448C91.5076 13.173 91.7533 13.4868 91.9118 13.8861H91.9878C92.1621 13.4963 92.4395 13.1857 92.8198 12.9543C93.2001 12.7198 93.6534 12.6025 94.1795 12.6025C94.8419 12.6025 95.3823 12.8101 95.8007 13.2253C96.2222 13.6405 96.433 14.2665 96.433 15.1032V20H95.0115V15.2363C95.0115 14.7419 94.8768 14.3837 94.6074 14.1619C94.338 13.94 94.0163 13.8291 93.6423 13.8291C93.1795 13.8291 92.8198 13.9717 92.5631 14.257C92.3063 14.539 92.178 14.9019 92.178 15.3457V20H90.7612V15.146C90.7612 14.7498 90.6376 14.4313 90.3904 14.1904C90.1432 13.9495 89.8215 13.8291 89.4253 13.8291C89.1559 13.8291 88.9071 13.9004 88.6789 14.043C88.4539 14.1825 88.2716 14.3774 88.1322 14.6278C87.9959 14.8782 87.9278 15.1682 87.9278 15.4978V20H86.5063ZM102.929 20L100.78 12.6976H102.249L103.68 18.0603H103.751L105.187 12.6976H106.656L108.082 18.0365H108.154L109.575 12.6976H111.044L108.9 20H107.45L105.967 14.7276H105.857L104.374 20H102.929ZM112.126 20V12.6976H113.547V20H112.126ZM112.843 11.5708C112.596 11.5708 112.384 11.4884 112.206 11.3236C112.032 11.1557 111.945 10.956 111.945 10.7246C111.945 10.4901 112.032 10.2904 112.206 10.1256C112.384 9.9576 112.596 9.87361 112.843 9.87361C113.091 9.87361 113.301 9.9576 113.476 10.1256C113.653 10.2904 113.742 10.4901 113.742 10.7246C113.742 10.956 113.653 11.1557 113.476 11.3236C113.301 11.4884 113.091 11.5708 112.843 11.5708ZM118.6 12.6976V13.8386H114.612V12.6976H118.6ZM115.681 10.9481H117.103V17.8559C117.103 18.1316 117.144 18.3392 117.226 18.4787C117.309 18.615 117.415 18.7084 117.545 18.7592C117.678 18.8067 117.822 18.8305 117.978 18.8305C118.092 18.8305 118.191 18.8225 118.277 18.8067C118.363 18.7909 118.429 18.7782 118.477 18.7687L118.733 19.9429C118.651 19.9746 118.534 20.0063 118.382 20.038C118.23 20.0729 118.039 20.0919 117.811 20.0951C117.437 20.1014 117.089 20.0349 116.765 19.8954C116.442 19.756 116.18 19.5404 115.981 19.2488C115.781 18.9573 115.681 18.5912 115.681 18.1506V10.9481ZM121.483 15.6642V20H120.062V10.2635H121.464V13.8861H121.555C121.726 13.4931 121.987 13.1809 122.339 12.9496C122.691 12.7182 123.151 12.6025 123.718 12.6025C124.219 12.6025 124.656 12.7055 125.03 12.9115C125.407 13.1175 125.699 13.425 125.905 13.8338C126.114 14.2395 126.219 14.7466 126.219 15.3552V20H124.797V15.5263C124.797 14.9907 124.659 14.5755 124.383 14.2807C124.108 13.9828 123.724 13.8338 123.233 13.8338C122.897 13.8338 122.596 13.9051 122.33 14.0478C122.067 14.1904 121.859 14.3996 121.707 14.6753C121.558 14.9479 121.483 15.2775 121.483 15.6642ZM139.324 13.4297H137.841C137.784 13.1128 137.677 12.8339 137.522 12.593C137.367 12.3521 137.177 12.1477 136.952 11.9797C136.727 11.8117 136.475 11.6849 136.196 11.5994C135.92 11.5138 135.627 11.471 135.316 11.471C134.755 11.471 134.253 11.6121 133.809 11.8941C133.369 12.1762 133.02 12.5898 132.763 13.135C132.51 13.6801 132.383 14.3457 132.383 15.1317C132.383 15.9241 132.51 16.5928 132.763 17.138C133.02 17.6831 133.37 18.0952 133.814 18.3741C134.258 18.653 134.757 18.7924 135.311 18.7924C135.619 18.7924 135.91 18.7512 136.186 18.6688C136.465 18.5833 136.717 18.4581 136.942 18.2933C137.167 18.1284 137.357 17.9272 137.513 17.6895C137.671 17.4486 137.78 17.1729 137.841 16.8622L139.324 16.867C139.245 17.3456 139.091 17.7861 138.863 18.1887C138.638 18.588 138.348 18.9335 137.993 19.2251C137.641 19.5135 137.238 19.7369 136.785 19.8954C136.332 20.0539 135.838 20.1331 135.302 20.1331C134.459 20.1331 133.708 19.9334 133.048 19.5341C132.389 19.1316 131.869 18.5563 131.489 17.8083C131.112 17.0603 130.923 16.1681 130.923 15.1317C130.923 14.0921 131.114 13.1999 131.494 12.4551C131.874 11.7071 132.394 11.1335 133.053 10.7341C133.712 10.3316 134.462 10.1303 135.302 10.1303C135.819 10.1303 136.3 10.2048 136.747 10.3538C137.197 10.4996 137.601 10.7151 137.96 11.0003C138.318 11.2824 138.614 11.6279 138.849 12.0368C139.083 12.4424 139.242 12.9068 139.324 13.4297ZM143.776 20.1474C143.091 20.1474 142.494 19.9905 141.984 19.6767C141.473 19.3629 141.077 18.924 140.795 18.3598C140.513 17.7956 140.372 17.1364 140.372 16.3821C140.372 15.6246 140.513 14.9622 140.795 14.3948C141.077 13.8275 141.473 13.3869 141.984 13.0732C142.494 12.7594 143.091 12.6025 143.776 12.6025C144.461 12.6025 145.058 12.7594 145.568 13.0732C146.079 13.3869 146.475 13.8275 146.757 14.3948C147.039 14.9622 147.18 15.6246 147.18 16.3821C147.18 17.1364 147.039 17.7956 146.757 18.3598C146.475 18.924 146.079 19.3629 145.568 19.6767C145.058 19.9905 144.461 20.1474 143.776 20.1474ZM143.781 18.9541C144.224 18.9541 144.592 18.8368 144.884 18.6023C145.175 18.3677 145.391 18.0555 145.53 17.6657C145.673 17.2759 145.744 16.8464 145.744 16.3773C145.744 15.9114 145.673 15.4835 145.53 15.0937C145.391 14.7007 145.175 14.3853 144.884 14.1476C144.592 13.9099 144.224 13.791 143.781 13.791C143.334 13.791 142.963 13.9099 142.668 14.1476C142.377 14.3853 142.16 14.7007 142.017 15.0937C141.877 15.4835 141.808 15.9114 141.808 16.3773C141.808 16.8464 141.877 17.2759 142.017 17.6657C142.16 18.0555 142.377 18.3677 142.668 18.6023C142.963 18.8368 143.334 18.9541 143.781 18.9541ZM149.92 10.2635V20H148.499V10.2635H149.92ZM154.299 20.1426C153.709 20.1426 153.183 19.9921 152.72 19.691C152.261 19.3867 151.899 18.9541 151.636 18.3931C151.376 17.8289 151.246 17.1522 151.246 16.3631C151.246 15.5739 151.378 14.8988 151.641 14.3378C151.907 13.7768 152.272 13.3473 152.735 13.0494C153.197 12.7515 153.722 12.6025 154.308 12.6025C154.761 12.6025 155.126 12.6786 155.402 12.8307C155.681 12.9797 155.896 13.154 156.048 13.3537C156.203 13.5533 156.324 13.7292 156.409 13.8814H156.495V10.2635H157.917V20H156.528V18.8638H156.409C156.324 19.0191 156.2 19.1965 156.039 19.3962C155.88 19.5959 155.662 19.7702 155.383 19.9192C155.104 20.0681 154.742 20.1426 154.299 20.1426ZM154.612 18.9303C155.021 18.9303 155.367 18.8225 155.649 18.607C155.934 18.3883 156.15 18.0857 156.295 17.699C156.444 17.3123 156.519 16.8622 156.519 16.3488C156.519 15.8417 156.446 15.398 156.3 15.0176C156.154 14.6373 155.94 14.3409 155.658 14.1286C155.376 13.9162 155.028 13.8101 154.612 13.8101C154.185 13.8101 153.828 13.921 153.543 14.1429C153.257 14.3647 153.042 14.6674 152.896 15.0509C152.754 15.4344 152.682 15.867 152.682 16.3488C152.682 16.8369 152.755 17.2759 152.901 17.6657C153.047 18.0555 153.262 18.3646 153.547 18.5928C153.836 18.8178 154.191 18.9303 154.612 18.9303ZM163.067 20V10.2635H169.171V11.5281H164.536V14.4947H168.853V15.7545H164.536V18.7354H169.228V20H163.067ZM170.752 20V12.6976H172.116V13.8861H172.207C172.359 13.4836 172.608 13.1698 172.953 12.9448C173.298 12.7166 173.712 12.6025 174.194 12.6025C174.682 12.6025 175.091 12.7166 175.42 12.9448C175.753 13.173 175.999 13.4868 176.157 13.8861H176.233C176.408 13.4963 176.685 13.1857 177.065 12.9543C177.446 12.7198 177.899 12.6025 178.425 12.6025C179.087 12.6025 179.628 12.8101 180.046 13.2253C180.468 13.6405 180.679 14.2665 180.679 15.1032V20H179.257V15.2363C179.257 14.7419 179.122 14.3837 178.853 14.1619C178.584 13.94 178.262 13.8291 177.888 13.8291C177.425 13.8291 177.065 13.9717 176.809 14.257C176.552 14.539 176.424 14.9019 176.424 15.3457V20H175.007V15.146C175.007 14.7498 174.883 14.4313 174.636 14.1904C174.389 13.9495 174.067 13.8291 173.671 13.8291C173.401 13.8291 173.153 13.9004 172.924 14.043C172.699 14.1825 172.517 14.3774 172.378 14.6278C172.241 14.8782 172.173 15.1682 172.173 15.4978V20H170.752ZM184.441 20.1616C183.978 20.1616 183.56 20.0761 183.186 19.9049C182.812 19.7306 182.516 19.4786 182.297 19.149C182.081 18.8194 181.974 18.4153 181.974 17.9367C181.974 17.5247 182.053 17.1855 182.211 16.9193C182.37 16.6531 182.584 16.4423 182.853 16.287C183.123 16.1317 183.424 16.0144 183.757 15.9352C184.089 15.8559 184.428 15.7957 184.774 15.7545C185.211 15.7038 185.566 15.6626 185.839 15.6309C186.111 15.596 186.31 15.5406 186.433 15.4645C186.557 15.3885 186.619 15.2648 186.619 15.0937V15.0604C186.619 14.6452 186.501 14.3235 186.267 14.0953C186.035 13.8671 185.69 13.753 185.23 13.753C184.752 13.753 184.375 13.8592 184.099 14.0715C183.826 14.2807 183.638 14.5137 183.533 14.7704L182.197 14.4661C182.356 14.0224 182.587 13.6643 182.891 13.3917C183.199 13.116 183.552 12.9163 183.951 12.7927C184.351 12.6659 184.771 12.6025 185.211 12.6025C185.503 12.6025 185.812 12.6374 186.138 12.7071C186.468 12.7737 186.775 12.8973 187.061 13.0779C187.349 13.2586 187.585 13.5169 187.769 13.8529C187.953 14.1856 188.045 14.6183 188.045 15.1507V20H186.657V19.0016H186.6C186.508 19.1855 186.37 19.3661 186.186 19.5436C186.002 19.7211 185.766 19.8685 185.478 19.9857C185.189 20.103 184.844 20.1616 184.441 20.1616ZM184.75 19.0206C185.143 19.0206 185.479 18.943 185.758 18.7877C186.04 18.6324 186.254 18.4295 186.4 18.1792C186.549 17.9256 186.623 17.6546 186.623 17.3662V16.4249C186.573 16.4756 186.474 16.5231 186.329 16.5675C186.186 16.6087 186.023 16.6451 185.839 16.6768C185.655 16.7054 185.476 16.7323 185.302 16.7577C185.127 16.7798 184.982 16.7989 184.864 16.8147C184.589 16.8496 184.337 16.9082 184.108 16.9906C183.883 17.073 183.703 17.1919 183.566 17.3472C183.433 17.4993 183.367 17.7021 183.367 17.9557C183.367 18.3075 183.497 18.5737 183.757 18.7544C184.016 18.9319 184.348 19.0206 184.75 19.0206ZM189.67 20V12.6976H191.092V20H189.67ZM190.388 11.5708C190.141 11.5708 189.929 11.4884 189.751 11.3236C189.577 11.1557 189.49 10.956 189.49 10.7246C189.49 10.4901 189.577 10.2904 189.751 10.1256C189.929 9.9576 190.141 9.87361 190.388 9.87361C190.635 9.87361 190.846 9.9576 191.021 10.1256C191.198 10.2904 191.287 10.4901 191.287 10.7246C191.287 10.956 191.198 11.1557 191.021 11.3236C190.846 11.4884 190.635 11.5708 190.388 11.5708ZM194.158 10.2635V20H192.737V10.2635H194.158ZM201.275 14.4804L199.986 14.7086C199.932 14.5438 199.847 14.3869 199.73 14.2379C199.615 14.089 199.46 13.967 199.264 13.8719C199.067 13.7768 198.822 13.7292 198.527 13.7292C198.124 13.7292 197.788 13.8196 197.519 14.0002C197.249 14.1777 197.115 14.4075 197.115 14.6896C197.115 14.9336 197.205 15.1301 197.386 15.2791C197.566 15.4281 197.858 15.5501 198.261 15.6452L199.421 15.9114C200.092 16.0667 200.593 16.306 200.923 16.6293C201.253 16.9526 201.417 17.3725 201.417 17.8891C201.417 18.3265 201.291 18.7164 201.037 19.0587C200.787 19.3978 200.436 19.664 199.986 19.8574C199.539 20.0507 199.021 20.1474 198.432 20.1474C197.614 20.1474 196.947 19.9731 196.43 19.6244C195.914 19.2726 195.597 18.7734 195.479 18.1269L196.853 17.9177C196.939 18.2758 197.115 18.5468 197.381 18.7306C197.647 18.9113 197.994 19.0016 198.422 19.0016C198.888 19.0016 199.261 18.905 199.539 18.7116C199.818 18.5151 199.958 18.2758 199.958 17.9937C199.958 17.7655 199.872 17.5738 199.701 17.4185C199.533 17.2632 199.275 17.1459 198.926 17.0667L197.69 16.7957C197.009 16.6404 196.505 16.3932 196.178 16.054C195.855 15.7149 195.693 15.2854 195.693 14.7657C195.693 14.3346 195.814 13.9574 196.055 13.6342C196.295 13.3109 196.628 13.0589 197.053 12.8782C197.478 12.6944 197.964 12.6025 198.513 12.6025C199.302 12.6025 199.923 12.7737 200.376 13.116C200.829 13.4551 201.129 13.9099 201.275 14.4804Z" fill="#DDD7F9"/>
<defs>
<linearGradient id="paint0_linear_610_68" x1="110.5" y1="7.08333" x2="110.5" y2="41.25" gradientUnits="userSpaceOnUse">
<stop stop-color="#FF8C00"/>
<stop offset="1" stop-color="#BE7637"/>
</linearGradient>
<radialGradient id="paint1_radial_610_68" cx="0" cy="0" r="1" gradientUnits="userSpaceOnUse" gradientTransform="translate(34.476) scale(59.67 28.1624)">
<stop stop-color="#A98A51"/>
<stop offset="1" stop-opacity="0"/>
</radialGradient>
<radialGradient id="paint2_radial_610_68" cx="0" cy="0" r="1" gradientTransform="matrix(229.84 56.6667 9.83853 40.0213 11.05 -3.75)" gradientUnits="userSpaceOnUse">
<stop stop-color="#FF8C00"/>
<stop offset="1" stop-color="#F3E7B6" stop-opacity="0"/>
</radialGradient>
</defs>
</svg>
