<svg width="203" height="30" viewBox="0 0 203 30" fill="none" xmlns="http://www.w3.org/2000/svg">
<rect x="0.4" y="0.4" width="202.2" height="29.2" rx="14.6" fill="url(#paint0_linear_611_99)" fill-opacity="0.2"/>
<rect x="0.4" y="0.4" width="202.2" height="29.2" rx="14.6" fill="url(#paint1_radial_611_99)" fill-opacity="0.3" style="mix-blend-mode:screen"/>
<rect x="0.4" y="0.4" width="202.2" height="29.2" rx="14.6" stroke="white" stroke-width="0.8" style="mix-blend-mode:soft-light"/>
<rect x="0.4" y="0.4" width="202.2" height="29.2" rx="14.6" stroke="url(#paint2_radial_611_99)" stroke-width="0.8" style="mix-blend-mode:plus-lighter"/>
<path d="M17.2943 19.5H15.8966L19.0372 10.7727H20.5585L23.6991 19.5H22.3014L19.8341 12.358H19.7659L17.2943 19.5ZM17.5287 16.0824H22.0628V17.1903H17.5287V16.0824ZM28.7635 16.7855V12.9545H30.0419V19.5H28.789V18.3665H28.7209C28.5703 18.7159 28.3288 19.0071 27.9964 19.2401C27.6669 19.4702 27.2564 19.5852 26.7649 19.5852C26.3444 19.5852 25.9723 19.4929 25.6484 19.3082C25.3274 19.1207 25.0745 18.8438 24.8899 18.4773C24.7081 18.1108 24.6172 17.6577 24.6172 17.1179V12.9545H25.8913V16.9645C25.8913 17.4105 26.0149 17.7656 26.262 18.0298C26.5092 18.294 26.8302 18.4261 27.2251 18.4261C27.4638 18.4261 27.701 18.3665 27.9368 18.2472C28.1754 18.1278 28.3728 17.9474 28.5291 17.706C28.6882 17.4645 28.7663 17.1577 28.7635 16.7855ZM34.5693 12.9545V13.9773H30.994V12.9545H34.5693ZM31.9528 11.3864H33.2269V17.5781C33.2269 17.8253 33.2639 18.0114 33.3377 18.1364C33.4116 18.2585 33.5068 18.3423 33.6233 18.3878C33.7426 18.4304 33.8718 18.4517 34.011 18.4517C34.1133 18.4517 34.2028 18.4446 34.2795 18.4304C34.3562 18.4162 34.4159 18.4048 34.4585 18.3963L34.6886 19.4489C34.6147 19.4773 34.5096 19.5057 34.3733 19.5341C34.2369 19.5653 34.0664 19.5824 33.8619 19.5852C33.5267 19.5909 33.2142 19.5312 32.9244 19.4062C32.6346 19.2812 32.4002 19.0881 32.2213 18.8267C32.0423 18.5653 31.9528 18.2372 31.9528 17.8423V11.3864ZM38.4255 19.6321C37.8119 19.6321 37.2764 19.4915 36.819 19.2102C36.3616 18.929 36.0065 18.5355 35.7536 18.0298C35.5008 17.5241 35.3744 16.9332 35.3744 16.2571C35.3744 15.5781 35.5008 14.9844 35.7536 14.4759C36.0065 13.9673 36.3616 13.5724 36.819 13.2912C37.2764 13.0099 37.8119 12.8693 38.4255 12.8693C39.0391 12.8693 39.5747 13.0099 40.032 13.2912C40.4894 13.5724 40.8445 13.9673 41.0974 14.4759C41.3502 14.9844 41.4766 15.5781 41.4766 16.2571C41.4766 16.9332 41.3502 17.5241 41.0974 18.0298C40.8445 18.5355 40.4894 18.929 40.032 19.2102C39.5747 19.4915 39.0391 19.6321 38.4255 19.6321ZM38.4298 18.5625C38.8275 18.5625 39.157 18.4574 39.4184 18.2472C39.6798 18.0369 39.873 17.7571 39.998 17.4077C40.1258 17.0582 40.1897 16.6733 40.1897 16.2528C40.1897 15.8352 40.1258 15.4517 39.998 15.1023C39.873 14.75 39.6798 14.4673 39.4184 14.2543C39.157 14.0412 38.8275 13.9347 38.4298 13.9347C38.0292 13.9347 37.6968 14.0412 37.4326 14.2543C37.1713 14.4673 36.9766 14.75 36.8488 15.1023C36.7238 15.4517 36.6613 15.8352 36.6613 16.2528C36.6613 16.6733 36.7238 17.0582 36.8488 17.4077C36.9766 17.7571 37.1713 18.0369 37.4326 18.2472C37.6968 18.4574 38.0292 18.5625 38.4298 18.5625ZM47.0137 10.7727V19.5H45.6969V10.7727H47.0137ZM49.8632 15.6136V19.5H48.589V12.9545H49.812V14.0199H49.893C50.0436 13.6733 50.2794 13.3949 50.6004 13.1847C50.9243 12.9744 51.3319 12.8693 51.8234 12.8693C52.2694 12.8693 52.6601 12.9631 52.9953 13.1506C53.3305 13.3352 53.5905 13.6108 53.7751 13.9773C53.9598 14.3437 54.0521 14.7969 54.0521 15.3366V19.5H52.778V15.4901C52.778 15.0156 52.6544 14.6449 52.4072 14.3778C52.1601 14.108 51.8206 13.973 51.3888 13.973C51.0933 13.973 50.8305 14.0369 50.6004 14.1648C50.3731 14.2926 50.1927 14.4801 50.0592 14.7273C49.9285 14.9716 49.8632 15.267 49.8632 15.6136ZM55.6232 19.5V10.7727H56.8973V14.0156H56.974C57.0479 13.8793 57.1544 13.7216 57.2936 13.5426C57.4328 13.3636 57.626 13.2074 57.8732 13.0739C58.1203 12.9375 58.447 12.8693 58.8533 12.8693C59.3817 12.8693 59.8533 13.0028 60.2681 13.2699C60.6828 13.5369 61.0081 13.9219 61.2439 14.4247C61.4826 14.9276 61.6019 15.5327 61.6019 16.2401C61.6019 16.9474 61.484 17.554 61.2482 18.0597C61.0124 18.5625 60.6885 18.9503 60.2766 19.223C59.8647 19.4929 59.3945 19.6278 58.8661 19.6278C58.4684 19.6278 58.1431 19.5611 57.8902 19.4276C57.6402 19.294 57.4442 19.1378 57.3022 18.9588C57.1601 18.7798 57.0507 18.6207 56.974 18.4815H56.8675V19.5H55.6232ZM56.8718 16.2273C56.8718 16.6875 56.9385 17.0909 57.072 17.4375C57.2056 17.7841 57.3988 18.0554 57.6516 18.2514C57.9044 18.4446 58.2141 18.5412 58.5806 18.5412C58.9613 18.5412 59.2794 18.4403 59.5351 18.2386C59.7908 18.0341 59.984 17.7571 60.1147 17.4077C60.2482 17.0582 60.3149 16.6648 60.3149 16.2273C60.3149 15.7955 60.2496 15.4077 60.1189 15.0639C59.9911 14.7202 59.7979 14.4489 59.5394 14.25C59.2837 14.0511 58.9641 13.9517 58.5806 13.9517C58.2113 13.9517 57.8988 14.0469 57.6431 14.2372C57.3902 14.4276 57.1985 14.6932 57.0678 15.0341C56.9371 15.375 56.8718 15.7727 56.8718 16.2273ZM65.5497 19.6321C64.9361 19.6321 64.4006 19.4915 63.9432 19.2102C63.4858 18.929 63.1307 18.5355 62.8779 18.0298C62.625 17.5241 62.4986 16.9332 62.4986 16.2571C62.4986 15.5781 62.625 14.9844 62.8779 14.4759C63.1307 13.9673 63.4858 13.5724 63.9432 13.2912C64.4006 13.0099 64.9361 12.8693 65.5497 12.8693C66.1634 12.8693 66.6989 13.0099 67.1563 13.2912C67.6137 13.5724 67.9688 13.9673 68.2216 14.4759C68.4744 14.9844 68.6009 15.5781 68.6009 16.2571C68.6009 16.9332 68.4744 17.5241 68.2216 18.0298C67.9688 18.5355 67.6137 18.929 67.1563 19.2102C66.6989 19.4915 66.1634 19.6321 65.5497 19.6321ZM65.554 18.5625C65.9517 18.5625 66.2813 18.4574 66.5426 18.2472C66.804 18.0369 66.9972 17.7571 67.1222 17.4077C67.25 17.0582 67.3139 16.6733 67.3139 16.2528C67.3139 15.8352 67.25 15.4517 67.1222 15.1023C66.9972 14.75 66.804 14.4673 66.5426 14.2543C66.2813 14.0412 65.9517 13.9347 65.554 13.9347C65.1534 13.9347 64.821 14.0412 64.5568 14.2543C64.2955 14.4673 64.1009 14.75 63.973 15.1023C63.848 15.4517 63.7855 15.8352 63.7855 16.2528C63.7855 16.6733 63.848 17.0582 63.973 17.4077C64.1009 17.7571 64.2955 18.0369 64.5568 18.2472C64.821 18.4574 65.1534 18.5625 65.554 18.5625ZM70.531 12.9545L71.9756 15.5028L73.433 12.9545H74.8264L72.7852 16.2273L74.8435 19.5H73.45L71.9756 17.054L70.5054 19.5H69.1077L71.1446 16.2273L69.1332 12.9545H70.531ZM78.9327 19.5V10.7727H82.0435C82.7225 10.7727 83.285 10.8963 83.731 11.1435C84.177 11.3906 84.5108 11.7287 84.7324 12.1577C84.954 12.5838 85.0648 13.0639 85.0648 13.598C85.0648 14.1349 84.9526 14.6179 84.7282 15.0469C84.5066 15.473 84.1714 15.8111 83.7225 16.0611C83.2765 16.3082 82.7154 16.4318 82.0392 16.4318H79.9V15.3153H81.9199C82.3489 15.3153 82.6969 15.2415 82.964 15.0938C83.231 14.9432 83.427 14.7386 83.552 14.4801C83.677 14.2216 83.7395 13.9276 83.7395 13.598C83.7395 13.2685 83.677 12.9759 83.552 12.7202C83.427 12.4645 83.2296 12.2642 82.9597 12.1193C82.6927 11.9744 82.3404 11.902 81.9029 11.902H80.2495V19.5H78.9327ZM90.4125 16.7855V12.9545H91.6909V19.5H90.4381V18.3665H90.3699C90.2193 18.7159 89.9779 19.0071 89.6455 19.2401C89.3159 19.4702 88.9054 19.5852 88.414 19.5852C87.9935 19.5852 87.6213 19.4929 87.2975 19.3082C86.9765 19.1207 86.7236 18.8438 86.539 18.4773C86.3571 18.1108 86.2662 17.6577 86.2662 17.1179V12.9545H87.5404V16.9645C87.5404 17.4105 87.664 17.7656 87.9111 18.0298C88.1583 18.294 88.4793 18.4261 88.8742 18.4261C89.1128 18.4261 89.35 18.3665 89.5858 18.2472C89.8245 18.1278 90.0219 17.9474 90.1782 17.706C90.3372 17.4645 90.4154 17.1577 90.4125 16.7855ZM93.1629 19.5V12.9545H94.3945V13.9943H94.4627C94.582 13.642 94.7922 13.3651 95.0933 13.1634C95.3973 12.9588 95.7411 12.8565 96.1246 12.8565C96.2041 12.8565 96.2979 12.8594 96.4058 12.8651C96.5166 12.8707 96.6033 12.8778 96.6658 12.8864V14.1051C96.6146 14.0909 96.5237 14.0753 96.3931 14.0582C96.2624 14.0384 96.1317 14.0284 96.001 14.0284C95.6999 14.0284 95.4314 14.0923 95.1956 14.2202C94.9627 14.3452 94.778 14.5199 94.6416 14.7443C94.5053 14.9659 94.4371 15.2187 94.4371 15.5028V19.5H93.1629ZM100.051 19.6321C99.4176 19.6321 98.8722 19.4886 98.4148 19.2017C97.9602 18.9119 97.6108 18.5128 97.3665 18.0043C97.1222 17.4957 97 16.9134 97 16.2571C97 15.5923 97.125 15.0057 97.375 14.4972C97.625 13.9858 97.9773 13.5866 98.4318 13.2997C98.8864 13.0128 99.4219 12.8693 100.038 12.8693C100.536 12.8693 100.979 12.9616 101.368 13.1463C101.757 13.3281 102.071 13.5838 102.31 13.9134C102.551 14.2429 102.695 14.6278 102.74 15.0682H101.5C101.432 14.7614 101.276 14.4972 101.031 14.2756C100.79 14.054 100.466 13.9432 100.06 13.9432C99.7045 13.9432 99.3935 14.0369 99.1264 14.2244C98.8622 14.4091 98.6563 14.6733 98.5085 15.017C98.3608 15.358 98.2869 15.7614 98.2869 16.2273C98.2869 16.7045 98.3594 17.1165 98.5043 17.4631C98.6491 17.8097 98.8537 18.0781 99.1179 18.2685C99.3849 18.4588 99.6989 18.554 100.06 18.554C100.301 18.554 100.52 18.5099 100.716 18.4219C100.915 18.331 101.081 18.2017 101.214 18.0341C101.351 17.8665 101.446 17.6648 101.5 17.429H102.74C102.695 17.8523 102.557 18.2301 102.327 18.5625C102.097 18.8949 101.788 19.1562 101.402 19.3466C101.018 19.5369 100.568 19.6321 100.051 19.6321ZM105.137 15.6136V19.5H103.863V10.7727H105.12V14.0199H105.201C105.354 13.6676 105.588 13.3878 105.904 13.1804C106.219 12.973 106.631 12.8693 107.14 12.8693C107.588 12.8693 107.981 12.9616 108.316 13.1463C108.654 13.331 108.915 13.6065 109.1 13.973C109.287 14.3366 109.381 14.7912 109.381 15.3366V19.5H108.107V15.4901C108.107 15.0099 107.983 14.6378 107.736 14.3736C107.489 14.1065 107.145 13.973 106.705 13.973C106.404 13.973 106.134 14.0369 105.895 14.1648C105.66 14.2926 105.473 14.4801 105.337 14.7273C105.204 14.9716 105.137 15.267 105.137 15.6136ZM112.746 19.6449C112.331 19.6449 111.956 19.5682 111.621 19.4148C111.286 19.2585 111.02 19.0327 110.824 18.7372C110.631 18.4418 110.535 18.0795 110.535 17.6506C110.535 17.2812 110.606 16.9773 110.748 16.7386C110.89 16.5 111.081 16.3111 111.323 16.1719C111.564 16.0327 111.834 15.9276 112.133 15.8565C112.431 15.7855 112.735 15.7315 113.045 15.6946C113.437 15.6491 113.755 15.6122 113.999 15.5838C114.243 15.5526 114.421 15.5028 114.532 15.4347C114.643 15.3665 114.698 15.2557 114.698 15.1023V15.0724C114.698 14.7003 114.593 14.4119 114.383 14.2074C114.175 14.0028 113.866 13.9006 113.454 13.9006C113.025 13.9006 112.687 13.9957 112.439 14.1861C112.195 14.3736 112.026 14.5824 111.932 14.8125L110.735 14.5398C110.877 14.142 111.084 13.821 111.357 13.5767C111.633 13.3295 111.949 13.1506 112.307 13.0398C112.665 12.9261 113.042 12.8693 113.437 12.8693C113.698 12.8693 113.975 12.9006 114.268 12.9631C114.563 13.0227 114.839 13.1335 115.094 13.2955C115.353 13.4574 115.564 13.6889 115.729 13.9901C115.894 14.2884 115.976 14.6761 115.976 15.1534V19.5H114.732V18.6051H114.681C114.598 18.7699 114.475 18.9318 114.31 19.0909C114.145 19.25 113.934 19.3821 113.675 19.4872C113.417 19.5923 113.107 19.6449 112.746 19.6449ZM113.023 18.6222C113.375 18.6222 113.677 18.5526 113.927 18.4134C114.179 18.2741 114.371 18.0923 114.502 17.8679C114.635 17.6406 114.702 17.3977 114.702 17.1392V16.2955C114.657 16.3409 114.569 16.3835 114.438 16.4233C114.31 16.4602 114.164 16.4929 113.999 16.5213C113.834 16.5469 113.674 16.571 113.518 16.5938C113.361 16.6136 113.231 16.6307 113.125 16.6449C112.878 16.6761 112.652 16.7287 112.448 16.8026C112.246 16.8764 112.084 16.983 111.962 17.1222C111.843 17.2585 111.783 17.4403 111.783 17.6676C111.783 17.983 111.9 18.2216 112.133 18.3835C112.366 18.5426 112.662 18.6222 113.023 18.6222ZM122.338 14.5526L121.183 14.7571C121.135 14.6094 121.058 14.4687 120.953 14.3352C120.851 14.2017 120.712 14.0923 120.536 14.0071C120.36 13.9219 120.139 13.8793 119.875 13.8793C119.514 13.8793 119.213 13.9602 118.972 14.1222C118.73 14.2812 118.61 14.4872 118.61 14.7401C118.61 14.9588 118.691 15.1349 118.852 15.2685C119.014 15.402 119.276 15.5114 119.637 15.5966L120.676 15.8352C121.279 15.9744 121.727 16.1889 122.023 16.4787C122.318 16.7685 122.466 17.1449 122.466 17.608C122.466 18 122.352 18.3494 122.125 18.6562C121.901 18.9602 121.587 19.1989 121.183 19.3722C120.783 19.5455 120.318 19.6321 119.79 19.6321C119.057 19.6321 118.459 19.4759 117.996 19.1634C117.533 18.848 117.249 18.4006 117.144 17.821L118.375 17.6335C118.452 17.9545 118.61 18.1974 118.848 18.3622C119.087 18.5241 119.398 18.6051 119.781 18.6051C120.199 18.6051 120.533 18.5185 120.783 18.3452C121.033 18.169 121.158 17.9545 121.158 17.7017C121.158 17.4972 121.081 17.3253 120.928 17.1861C120.777 17.0469 120.546 16.9418 120.233 16.8707L119.125 16.6278C118.514 16.4886 118.063 16.267 117.77 15.9631C117.48 15.6591 117.335 15.2741 117.335 14.8082C117.335 14.4219 117.443 14.0838 117.659 13.794C117.875 13.5043 118.173 13.2784 118.554 13.1165C118.935 12.9517 119.371 12.8693 119.862 12.8693C120.57 12.8693 121.127 13.0227 121.533 13.3295C121.939 13.6335 122.208 14.0412 122.338 14.5526ZM123.627 19.5V12.9545H124.901V19.5H123.627ZM124.27 11.9446C124.049 11.9446 123.859 11.8707 123.699 11.723C123.543 11.5724 123.465 11.3935 123.465 11.1861C123.465 10.9759 123.543 10.7969 123.699 10.6491C123.859 10.4986 124.049 10.4233 124.27 10.4233C124.492 10.4233 124.681 10.4986 124.837 10.6491C124.996 10.7969 125.076 10.9759 125.076 11.1861C125.076 11.3935 124.996 11.5724 124.837 11.723C124.681 11.8707 124.492 11.9446 124.27 11.9446ZM127.649 15.6136V19.5H126.375V12.9545H127.598V14.0199H127.679C127.83 13.6733 128.066 13.3949 128.387 13.1847C128.711 12.9744 129.118 12.8693 129.61 12.8693C130.056 12.8693 130.446 12.9631 130.782 13.1506C131.117 13.3352 131.377 13.6108 131.561 13.9773C131.746 14.3437 131.838 14.7969 131.838 15.3366V19.5H130.564V15.4901C130.564 15.0156 130.441 14.6449 130.193 14.3778C129.946 14.108 129.607 13.973 129.175 13.973C128.88 13.973 128.617 14.0369 128.387 14.1648C128.159 14.2926 127.979 14.4801 127.845 14.7273C127.715 14.9716 127.649 15.267 127.649 15.6136ZM136.051 22.0909C135.532 22.0909 135.084 22.0227 134.709 21.8864C134.337 21.75 134.033 21.5696 133.797 21.3452C133.561 21.1207 133.385 20.875 133.269 20.608L134.364 20.1562C134.441 20.2812 134.543 20.4134 134.671 20.5526C134.801 20.6946 134.978 20.8153 135.199 20.9148C135.424 21.0142 135.712 21.0639 136.064 21.0639C136.547 21.0639 136.946 20.946 137.262 20.7102C137.577 20.4773 137.735 20.1051 137.735 19.5938V18.3068H137.654C137.577 18.446 137.466 18.6009 137.321 18.7713C137.179 18.9418 136.983 19.0895 136.733 19.2145C136.483 19.3395 136.158 19.402 135.757 19.402C135.24 19.402 134.774 19.2812 134.36 19.0398C133.948 18.7955 133.621 18.4361 133.38 17.9616C133.141 17.4844 133.022 16.8977 133.022 16.2017C133.022 15.5057 133.14 14.9091 133.375 14.4119C133.614 13.9148 133.941 13.5341 134.355 13.2699C134.77 13.0028 135.24 12.8693 135.766 12.8693C136.172 12.8693 136.5 12.9375 136.75 13.0739C137 13.2074 137.195 13.3636 137.334 13.5426C137.476 13.7216 137.586 13.8793 137.662 14.0156H137.756V12.9545H139.005V19.6449C139.005 20.2074 138.874 20.669 138.613 21.0298C138.351 21.3906 137.997 21.6577 137.551 21.831C137.108 22.0043 136.608 22.0909 136.051 22.0909ZM136.039 18.3452C136.405 18.3452 136.715 18.2599 136.968 18.0895C137.223 17.9162 137.417 17.669 137.547 17.348C137.681 17.0241 137.747 16.6364 137.747 16.1847C137.747 15.7443 137.682 15.3565 137.551 15.0213C137.421 14.6861 137.229 14.4247 136.976 14.2372C136.723 14.0469 136.411 13.9517 136.039 13.9517C135.655 13.9517 135.336 14.0511 135.08 14.25C134.824 14.446 134.631 14.7131 134.5 15.0511C134.372 15.3892 134.309 15.767 134.309 16.1847C134.309 16.6136 134.374 16.9901 134.505 17.3139C134.635 17.6378 134.828 17.8906 135.084 18.0724C135.343 18.2543 135.661 18.3452 136.039 18.3452ZM143.511 19.5V10.7727H148.983V11.9062H144.828V14.5653H148.698V15.6946H144.828V18.3665H149.034V19.5H143.511ZM151.674 15.6136V19.5H150.4V12.9545H151.623V14.0199H151.704C151.854 13.6733 152.09 13.3949 152.411 13.1847C152.735 12.9744 153.143 12.8693 153.634 12.8693C154.08 12.8693 154.471 12.9631 154.806 13.1506C155.141 13.3352 155.401 13.6108 155.586 13.9773C155.77 14.3437 155.863 14.7969 155.863 15.3366V19.5H154.589V15.4901C154.589 15.0156 154.465 14.6449 154.218 14.3778C153.971 14.108 153.631 13.973 153.199 13.973C152.904 13.973 152.641 14.0369 152.411 14.1648C152.184 14.2926 152.003 14.4801 151.87 14.7273C151.739 14.9716 151.674 15.267 151.674 15.6136ZM159.236 19.6449C158.822 19.6449 158.447 19.5682 158.111 19.4148C157.776 19.2585 157.511 19.0327 157.314 18.7372C157.121 18.4418 157.025 18.0795 157.025 17.6506C157.025 17.2812 157.096 16.9773 157.238 16.7386C157.38 16.5 157.572 16.3111 157.813 16.1719C158.055 16.0327 158.324 15.9276 158.623 15.8565C158.921 15.7855 159.225 15.7315 159.535 15.6946C159.927 15.6491 160.245 15.6122 160.489 15.5838C160.734 15.5526 160.911 15.5028 161.022 15.4347C161.133 15.3665 161.188 15.2557 161.188 15.1023V15.0724C161.188 14.7003 161.083 14.4119 160.873 14.2074C160.665 14.0028 160.356 13.9006 159.944 13.9006C159.515 13.9006 159.177 13.9957 158.93 14.1861C158.685 14.3736 158.516 14.5824 158.422 14.8125L157.225 14.5398C157.367 14.142 157.574 13.821 157.847 13.5767C158.123 13.3295 158.439 13.1506 158.797 13.0398C159.155 12.9261 159.532 12.8693 159.927 12.8693C160.188 12.8693 160.465 12.9006 160.758 12.9631C161.053 13.0227 161.329 13.1335 161.584 13.2955C161.843 13.4574 162.055 13.6889 162.219 13.9901C162.384 14.2884 162.466 14.6761 162.466 15.1534V19.5H161.222V18.6051H161.171C161.089 18.7699 160.965 18.9318 160.8 19.0909C160.636 19.25 160.424 19.3821 160.165 19.4872C159.907 19.5923 159.597 19.6449 159.236 19.6449ZM159.513 18.6222C159.866 18.6222 160.167 18.5526 160.417 18.4134C160.67 18.2741 160.861 18.0923 160.992 17.8679C161.126 17.6406 161.192 17.3977 161.192 17.1392V16.2955C161.147 16.3409 161.059 16.3835 160.928 16.4233C160.8 16.4602 160.654 16.4929 160.489 16.5213C160.324 16.5469 160.164 16.571 160.008 16.5938C159.851 16.6136 159.721 16.6307 159.616 16.6449C159.368 16.6761 159.143 16.7287 158.938 16.8026C158.736 16.8764 158.574 16.983 158.452 17.1222C158.333 17.2585 158.273 17.4403 158.273 17.6676C158.273 17.983 158.39 18.2216 158.623 18.3835C158.856 18.5426 159.153 18.6222 159.513 18.6222ZM164.026 19.5V10.7727H165.3V14.0156H165.377C165.451 13.8793 165.557 13.7216 165.696 13.5426C165.835 13.3636 166.029 13.2074 166.276 13.0739C166.523 12.9375 166.85 12.8693 167.256 12.8693C167.784 12.8693 168.256 13.0028 168.671 13.2699C169.085 13.5369 169.411 13.9219 169.647 14.4247C169.885 14.9276 170.005 15.5327 170.005 16.2401C170.005 16.9474 169.887 17.554 169.651 18.0597C169.415 18.5625 169.091 18.9503 168.679 19.223C168.267 19.4929 167.797 19.6278 167.269 19.6278C166.871 19.6278 166.546 19.5611 166.293 19.4276C166.043 19.294 165.847 19.1378 165.705 18.9588C165.563 18.7798 165.453 18.6207 165.377 18.4815H165.27V19.5H164.026ZM165.274 16.2273C165.274 16.6875 165.341 17.0909 165.475 17.4375C165.608 17.7841 165.801 18.0554 166.054 18.2514C166.307 18.4446 166.617 18.5412 166.983 18.5412C167.364 18.5412 167.682 18.4403 167.938 18.2386C168.193 18.0341 168.387 17.7571 168.517 17.4077C168.651 17.0582 168.718 16.6648 168.718 16.2273C168.718 15.7955 168.652 15.4077 168.522 15.0639C168.394 14.7202 168.201 14.4489 167.942 14.25C167.686 14.0511 167.367 13.9517 166.983 13.9517C166.614 13.9517 166.301 14.0469 166.046 14.2372C165.793 14.4276 165.601 14.6932 165.47 15.0341C165.34 15.375 165.274 15.7727 165.274 16.2273ZM172.469 10.7727V19.5H171.195V10.7727H172.469ZM176.765 19.6321C176.12 19.6321 175.564 19.4943 175.098 19.2188C174.635 18.9403 174.277 18.5497 174.025 18.0469C173.775 17.5412 173.65 16.9489 173.65 16.2699C173.65 15.5994 173.775 15.0085 174.025 14.4972C174.277 13.9858 174.63 13.5866 175.081 13.2997C175.536 13.0128 176.067 12.8693 176.675 12.8693C177.044 12.8693 177.402 12.9304 177.749 13.0526C178.096 13.1747 178.407 13.3665 178.682 13.6278C178.958 13.8892 179.175 14.2287 179.334 14.6463C179.493 15.0611 179.573 15.5653 179.573 16.1591V16.6108H174.37V15.6562H178.324C178.324 15.321 178.256 15.0241 178.12 14.7656C177.983 14.5043 177.792 14.2983 177.544 14.1477C177.3 13.9972 177.013 13.9219 176.684 13.9219C176.326 13.9219 176.013 14.0099 175.746 14.1861C175.482 14.3594 175.277 14.5866 175.132 14.8679C174.99 15.1463 174.919 15.4489 174.919 15.7756V16.5213C174.919 16.9588 174.996 17.331 175.15 17.6378C175.306 17.9446 175.523 18.179 175.802 18.3409C176.08 18.5 176.405 18.5795 176.777 18.5795C177.019 18.5795 177.239 18.5455 177.438 18.4773C177.637 18.4062 177.809 18.3011 177.954 18.1619C178.098 18.0227 178.209 17.8509 178.286 17.6463L179.492 17.8636C179.395 18.2187 179.222 18.5298 178.972 18.7969C178.725 19.0611 178.414 19.267 178.039 19.4148C177.667 19.5597 177.242 19.6321 176.765 19.6321ZM183.197 19.6278C182.668 19.6278 182.197 19.4929 181.782 19.223C181.37 18.9503 181.046 18.5625 180.81 18.0597C180.577 17.554 180.461 16.9474 180.461 16.2401C180.461 15.5327 180.579 14.9276 180.815 14.4247C181.053 13.9219 181.38 13.5369 181.795 13.2699C182.21 13.0028 182.68 12.8693 183.205 12.8693C183.612 12.8693 183.938 12.9375 184.185 13.0739C184.435 13.2074 184.629 13.3636 184.765 13.5426C184.904 13.7216 185.012 13.8793 185.089 14.0156H185.166V10.7727H186.44V19.5H185.195V18.4815H185.089C185.012 18.6207 184.901 18.7798 184.756 18.9588C184.614 19.1378 184.418 19.294 184.168 19.4276C183.918 19.5611 183.595 19.6278 183.197 19.6278ZM183.478 18.5412C183.845 18.5412 184.154 18.4446 184.407 18.2514C184.663 18.0554 184.856 17.7841 184.987 17.4375C185.12 17.0909 185.187 16.6875 185.187 16.2273C185.187 15.7727 185.122 15.375 184.991 15.0341C184.86 14.6932 184.668 14.4276 184.416 14.2372C184.163 14.0469 183.85 13.9517 183.478 13.9517C183.095 13.9517 182.775 14.0511 182.519 14.25C182.264 14.4489 182.07 14.7202 181.94 15.0639C181.812 15.4077 181.748 15.7955 181.748 16.2273C181.748 16.6648 181.813 17.0582 181.944 17.4077C182.075 17.7571 182.268 18.0341 182.524 18.2386C182.782 18.4403 183.1 18.5412 183.478 18.5412Z" fill="#DDD7F9"/>
<defs>
<linearGradient id="paint0_linear_611_99" x1="101.5" y1="7.08333" x2="101.5" y2="41.25" gradientUnits="userSpaceOnUse">
<stop stop-color="#FF8C00"/>
<stop offset="1" stop-color="#BE7637"/>
</linearGradient>
<radialGradient id="paint1_radial_611_99" cx="0" cy="0" r="1" gradientUnits="userSpaceOnUse" gradientTransform="translate(31.668) scale(54.81 28.1624)">
<stop stop-color="#A98A51"/>
<stop offset="1" stop-opacity="0"/>
</radialGradient>
<radialGradient id="paint2_radial_611_99" cx="0" cy="0" r="1" gradientTransform="matrix(211.12 56.6667 9.0372 40.0213 10.15 -3.75)" gradientUnits="userSpaceOnUse">
<stop stop-color="#FF8C00"/>
<stop offset="1" stop-color="#F3E7B6" stop-opacity="0"/>
</radialGradient>
</defs>
</svg>
