<svg width="1920" height="460" viewBox="0 0 1920 460" fill="none" xmlns="http://www.w3.org/2000/svg">
<g filter="url(#filter0_if_611_97)">
<mask id="path-1-outside-1_611_97" maskUnits="userSpaceOnUse" x="120" y="279" width="1690" height="187" fill="black">
<rect fill="white" x="120" y="279" width="1690" height="187"/>
<path d="M123.125 460V282.5H191.875C233.375 282.5 258.125 303.75 258.125 339C258.125 374.5 233.375 396 191.875 396H155.625V460H123.125ZM190.375 367.75C212.375 367.75 224.625 358 224.625 339C224.625 320.5 212.625 310.75 190.375 310.75H155.625V367.75H190.375ZM329.031 463C289.031 463 263.531 435.5 263.531 393.25C263.531 351.25 289.031 323.5 328.281 323.5C366.531 323.5 391.781 350 391.781 395V402.25H296.781C298.031 425.75 310.281 437.5 329.281 437.5C343.531 437.5 353.281 430.75 357.031 419L389.781 421C382.531 447 359.781 463 329.031 463ZM358.531 380.75C357.031 359 345.281 348.75 328.281 348.75C311.031 348.75 299.281 360 296.781 380.75H358.531ZM466.004 463C426.004 463 400.504 435.5 400.504 393.25C400.504 351.25 426.004 323.5 465.254 323.5C503.504 323.5 528.754 350 528.754 395V402.25H433.754C435.004 425.75 447.254 437.5 466.254 437.5C480.504 437.5 490.254 430.75 494.004 419L526.754 421C519.504 447 496.754 463 466.004 463ZM495.504 380.75C494.004 359 482.254 348.75 465.254 348.75C448.004 348.75 436.254 360 433.754 380.75H495.504ZM544.482 460V282.5H576.482V386.75L631.232 326.5H670.732L618.482 382L672.482 460H636.482L597.482 401L576.482 423.25V460H544.482ZM733.602 463C693.602 463 668.102 435.5 668.102 393.25C668.102 351.25 693.602 323.5 732.852 323.5C771.102 323.5 796.352 350 796.352 395V402.25H701.352C702.602 425.75 714.852 437.5 733.852 437.5C748.102 437.5 757.852 430.75 761.602 419L794.352 421C787.102 447 764.352 463 733.602 463ZM763.102 380.75C761.602 359 749.852 348.75 732.852 348.75C715.602 348.75 703.852 360 701.352 380.75H763.102ZM812.08 460V326.5H842.08L842.83 352.25C848.08 334.25 858.58 326.5 874.83 326.5H887.08V354H874.58C854.08 354 844.08 362.5 844.08 383V460H812.08ZM956.689 460V282.5H989.189V460H956.689ZM1013.53 460V326.5H1042.53L1043.28 349.5C1050.28 331 1065.53 323.5 1083.28 323.5C1112.78 323.5 1128.78 344.25 1128.78 374.25V460H1096.78V384.5C1096.78 362 1090.78 349.5 1073.53 349.5C1056.28 349.5 1045.53 362 1045.53 384.5V460H1013.53ZM1225.42 463C1206.67 463 1192.42 454.5 1184.92 440.25L1184.17 460H1153.67V282.5H1185.67V345.5C1192.67 333.5 1206.92 323.5 1225.42 323.5C1259.92 323.5 1281.67 350.75 1281.67 393.25C1281.67 435.75 1259.92 463 1225.42 463ZM1218.17 437C1236.42 437 1248.42 420.5 1248.42 393.25C1248.42 365.5 1236.67 349.5 1218.42 349.5C1197.67 349.5 1185.67 365.5 1185.67 393.25C1185.67 420.5 1197.67 437 1218.17 437ZM1356.22 463C1316.47 463 1290.47 435.5 1290.47 393.25C1290.47 351 1316.47 323.5 1356.22 323.5C1395.72 323.5 1421.72 351 1421.72 393.25C1421.72 435.5 1395.72 463 1356.22 463ZM1356.22 437C1376.72 437 1388.72 421 1388.72 393.25C1388.72 365.75 1376.72 349.5 1356.22 349.5C1335.47 349.5 1323.72 365.75 1323.72 393.25C1323.72 421 1335.47 437 1356.22 437ZM1419.18 460L1467.18 392L1420.68 326.5H1455.43L1486.18 372L1515.93 326.5H1551.43L1505.43 392.25L1552.93 460H1518.43L1486.43 412L1454.43 460H1419.18ZM1615.76 463C1575.76 463 1550.26 435.5 1550.26 393.25C1550.26 351.25 1575.76 323.5 1615.01 323.5C1653.26 323.5 1678.51 350 1678.51 395V402.25H1583.51C1584.76 425.75 1597.01 437.5 1616.01 437.5C1630.26 437.5 1640.01 430.75 1643.76 419L1676.51 421C1669.26 447 1646.51 463 1615.76 463ZM1645.26 380.75C1643.76 359 1632.01 348.75 1615.01 348.75C1597.76 348.75 1586.01 360 1583.51 380.75H1645.26ZM1749.48 463C1709.98 463 1689.23 444.25 1687.23 418L1719.98 416.5C1722.23 430.5 1730.98 438.5 1749.48 438.5C1764.48 438.5 1773.48 434 1773.48 423.5C1773.48 414.5 1768.98 410.5 1744.23 406.25C1703.23 399.25 1690.48 388.25 1690.48 365.5C1690.48 340.75 1709.98 323.5 1746.98 323.5C1782.98 323.5 1801.48 342.75 1805.23 368.5L1772.73 370C1770.48 356.5 1761.48 348 1746.73 348C1731.48 348 1723.73 354.75 1723.73 364.5C1723.73 375.25 1730.73 379.5 1750.98 382.75C1792.98 389.25 1806.73 400.75 1806.73 423C1806.73 448.75 1783.48 463 1749.48 463Z"/>
</mask>
<path d="M123.125 460V282.5H191.875C233.375 282.5 258.125 303.75 258.125 339C258.125 374.5 233.375 396 191.875 396H155.625V460H123.125ZM190.375 367.75C212.375 367.75 224.625 358 224.625 339C224.625 320.5 212.625 310.75 190.375 310.75H155.625V367.75H190.375ZM329.031 463C289.031 463 263.531 435.5 263.531 393.25C263.531 351.25 289.031 323.5 328.281 323.5C366.531 323.5 391.781 350 391.781 395V402.25H296.781C298.031 425.75 310.281 437.5 329.281 437.5C343.531 437.5 353.281 430.75 357.031 419L389.781 421C382.531 447 359.781 463 329.031 463ZM358.531 380.75C357.031 359 345.281 348.75 328.281 348.75C311.031 348.75 299.281 360 296.781 380.75H358.531ZM466.004 463C426.004 463 400.504 435.5 400.504 393.25C400.504 351.25 426.004 323.5 465.254 323.5C503.504 323.5 528.754 350 528.754 395V402.25H433.754C435.004 425.75 447.254 437.5 466.254 437.5C480.504 437.5 490.254 430.75 494.004 419L526.754 421C519.504 447 496.754 463 466.004 463ZM495.504 380.75C494.004 359 482.254 348.75 465.254 348.75C448.004 348.75 436.254 360 433.754 380.75H495.504ZM544.482 460V282.5H576.482V386.75L631.232 326.5H670.732L618.482 382L672.482 460H636.482L597.482 401L576.482 423.25V460H544.482ZM733.602 463C693.602 463 668.102 435.5 668.102 393.25C668.102 351.25 693.602 323.5 732.852 323.5C771.102 323.5 796.352 350 796.352 395V402.25H701.352C702.602 425.75 714.852 437.5 733.852 437.5C748.102 437.5 757.852 430.75 761.602 419L794.352 421C787.102 447 764.352 463 733.602 463ZM763.102 380.75C761.602 359 749.852 348.75 732.852 348.75C715.602 348.75 703.852 360 701.352 380.75H763.102ZM812.08 460V326.5H842.08L842.83 352.25C848.08 334.25 858.58 326.5 874.83 326.5H887.08V354H874.58C854.08 354 844.08 362.5 844.08 383V460H812.08ZM956.689 460V282.5H989.189V460H956.689ZM1013.53 460V326.5H1042.53L1043.28 349.5C1050.28 331 1065.53 323.5 1083.28 323.5C1112.78 323.5 1128.78 344.25 1128.78 374.25V460H1096.78V384.5C1096.78 362 1090.78 349.5 1073.53 349.5C1056.28 349.5 1045.53 362 1045.53 384.5V460H1013.53ZM1225.42 463C1206.67 463 1192.42 454.5 1184.92 440.25L1184.17 460H1153.67V282.5H1185.67V345.5C1192.67 333.5 1206.92 323.5 1225.42 323.5C1259.92 323.5 1281.67 350.75 1281.67 393.25C1281.67 435.75 1259.92 463 1225.42 463ZM1218.17 437C1236.42 437 1248.42 420.5 1248.42 393.25C1248.42 365.5 1236.67 349.5 1218.42 349.5C1197.67 349.5 1185.67 365.5 1185.67 393.25C1185.67 420.5 1197.67 437 1218.17 437ZM1356.22 463C1316.47 463 1290.47 435.5 1290.47 393.25C1290.47 351 1316.47 323.5 1356.22 323.5C1395.72 323.5 1421.72 351 1421.72 393.25C1421.72 435.5 1395.72 463 1356.22 463ZM1356.22 437C1376.72 437 1388.72 421 1388.72 393.25C1388.72 365.75 1376.72 349.5 1356.22 349.5C1335.47 349.5 1323.72 365.75 1323.72 393.25C1323.72 421 1335.47 437 1356.22 437ZM1419.18 460L1467.18 392L1420.68 326.5H1455.43L1486.18 372L1515.93 326.5H1551.43L1505.43 392.25L1552.93 460H1518.43L1486.43 412L1454.43 460H1419.18ZM1615.76 463C1575.76 463 1550.26 435.5 1550.26 393.25C1550.26 351.25 1575.76 323.5 1615.01 323.5C1653.26 323.5 1678.51 350 1678.51 395V402.25H1583.51C1584.76 425.75 1597.01 437.5 1616.01 437.5C1630.26 437.5 1640.01 430.75 1643.76 419L1676.51 421C1669.26 447 1646.51 463 1615.76 463ZM1645.26 380.75C1643.76 359 1632.01 348.75 1615.01 348.75C1597.76 348.75 1586.01 360 1583.51 380.75H1645.26ZM1749.48 463C1709.98 463 1689.23 444.25 1687.23 418L1719.98 416.5C1722.23 430.5 1730.98 438.5 1749.48 438.5C1764.48 438.5 1773.48 434 1773.48 423.5C1773.48 414.5 1768.98 410.5 1744.23 406.25C1703.23 399.25 1690.48 388.25 1690.48 365.5C1690.48 340.75 1709.98 323.5 1746.98 323.5C1782.98 323.5 1801.48 342.75 1805.23 368.5L1772.73 370C1770.48 356.5 1761.48 348 1746.73 348C1731.48 348 1723.73 354.75 1723.73 364.5C1723.73 375.25 1730.73 379.5 1750.98 382.75C1792.98 389.25 1806.73 400.75 1806.73 423C1806.73 448.75 1783.48 463 1749.48 463Z" fill="url(#paint0_linear_611_97)"/>
<path d="M123.125 460H120.125V463H123.125V460ZM123.125 282.5V279.5H120.125V282.5H123.125ZM155.625 396V393H152.625V396H155.625ZM155.625 460V463H158.625V460H155.625ZM155.625 310.75V307.75H152.625V310.75H155.625ZM155.625 367.75H152.625V370.75H155.625V367.75ZM123.125 460H126.125V282.5H123.125H120.125V460H123.125ZM123.125 282.5V285.5H191.875V282.5V279.5H123.125V282.5ZM191.875 282.5V285.5C212.144 285.5 227.937 290.69 238.614 299.812C249.23 308.883 255.125 322.125 255.125 339H258.125H261.125C261.125 320.625 254.645 305.617 242.511 295.25C230.438 284.935 213.106 279.5 191.875 279.5V282.5ZM258.125 339H255.125C255.125 356.008 249.224 369.378 238.603 378.541C227.925 387.752 212.136 393 191.875 393V396V399C213.114 399 230.45 393.498 242.522 383.084C254.651 372.622 261.125 357.492 261.125 339H258.125ZM191.875 396V393H155.625V396V399H191.875V396ZM155.625 396H152.625V460H155.625H158.625V396H155.625ZM155.625 460V457H123.125V460V463H155.625V460ZM190.375 367.75V370.75C201.759 370.75 211.112 368.235 217.663 362.811C224.311 357.307 227.625 349.184 227.625 339H224.625H221.625C221.625 347.816 218.814 354.068 213.837 358.189C208.763 362.39 200.991 364.75 190.375 364.75V367.75ZM224.625 339H227.625C227.625 329.06 224.369 321.059 217.748 315.62C211.228 310.262 201.877 307.75 190.375 307.75V310.75V313.75C201.123 313.75 208.897 316.113 213.939 320.255C218.881 324.316 221.625 330.44 221.625 339H224.625ZM190.375 310.75V307.75H155.625V310.75V313.75H190.375V310.75ZM155.625 310.75H152.625V367.75H155.625H158.625V310.75H155.625ZM155.625 367.75V370.75H190.375V367.75V364.75H155.625V367.75ZM391.781 402.25V405.25H394.781V402.25H391.781ZM296.781 402.25V399.25H293.617L293.785 402.409L296.781 402.25ZM357.031 419L357.214 416.006L354.883 415.863L354.173 418.088L357.031 419ZM389.781 421L392.671 421.806L393.668 418.232L389.964 418.006L389.781 421ZM358.531 380.75V383.75H361.745L361.524 380.544L358.531 380.75ZM296.781 380.75L293.803 380.391L293.398 383.75H296.781V380.75ZM329.031 463V460C309.748 460 294.206 453.391 283.472 441.919C272.718 430.426 266.531 413.775 266.531 393.25H263.531H260.531C260.531 414.975 267.095 433.199 279.091 446.019C291.106 458.859 308.315 466 329.031 466V463ZM263.531 393.25H266.531C266.531 372.853 272.716 356.193 283.389 344.663C294.041 333.155 309.397 326.5 328.281 326.5V323.5V320.5C307.916 320.5 290.897 327.72 278.986 340.587C267.097 353.432 260.531 371.647 260.531 393.25H263.531ZM328.281 323.5V326.5C346.681 326.5 361.703 332.852 372.151 344.389C382.628 355.957 388.781 373.048 388.781 395H391.781H394.781C394.781 371.952 388.31 353.293 376.599 340.361C364.859 327.398 348.131 320.5 328.281 320.5V323.5ZM391.781 395H388.781V402.25H391.781H394.781V395H391.781ZM391.781 402.25V399.25H296.781V402.25V405.25H391.781V402.25ZM296.781 402.25L293.785 402.409C294.435 414.625 297.967 424.207 304.202 430.756C310.476 437.345 319.14 440.5 329.281 440.5V437.5V434.5C320.422 434.5 313.462 431.78 308.548 426.619C303.595 421.418 300.377 413.375 299.777 402.091L296.781 402.25ZM329.281 437.5V440.5C336.878 440.5 343.492 438.698 348.769 435.145C354.066 431.578 357.827 426.372 359.889 419.912L357.031 419L354.173 418.088C352.485 423.378 349.497 427.422 345.418 430.168C341.32 432.927 335.935 434.5 329.281 434.5V437.5ZM357.031 419L356.848 421.994L389.598 423.994L389.781 421L389.964 418.006L357.214 416.006L357.031 419ZM389.781 421L386.891 420.194C380.059 444.698 358.653 460 329.031 460V463V466C360.909 466 385.004 449.302 392.671 421.806L389.781 421ZM358.531 380.75L361.524 380.544C360.741 369.184 357.249 360.417 351.346 354.479C345.418 348.515 337.399 345.75 328.281 345.75V348.75V351.75C336.163 351.75 342.52 354.11 347.091 358.709C351.688 363.333 354.822 370.566 355.538 380.956L358.531 380.75ZM328.281 348.75V345.75C318.966 345.75 310.918 348.808 304.879 354.847C298.876 360.851 295.11 369.543 293.803 380.391L296.781 380.75L299.76 381.109C300.953 371.207 304.312 363.899 309.121 359.09C313.894 354.317 320.346 351.75 328.281 351.75V348.75ZM296.781 380.75V383.75H358.531V380.75V377.75H296.781V380.75ZM528.754 402.25V405.25H531.754V402.25H528.754ZM433.754 402.25V399.25H430.59L430.758 402.409L433.754 402.25ZM494.004 419L494.187 416.006L491.856 415.863L491.146 418.088L494.004 419ZM526.754 421L529.644 421.806L530.64 418.232L526.937 418.006L526.754 421ZM495.504 380.75V383.75H498.718L498.497 380.544L495.504 380.75ZM433.754 380.75L430.775 380.391L430.371 383.75H433.754V380.75ZM466.004 463V460C446.72 460 431.179 453.391 420.444 441.919C409.69 430.426 403.504 413.775 403.504 393.25H400.504H397.504C397.504 414.975 404.068 433.199 416.063 446.019C428.079 458.859 445.287 466 466.004 466V463ZM400.504 393.25H403.504C403.504 372.853 409.689 356.193 420.362 344.663C431.014 333.155 446.369 326.5 465.254 326.5V323.5V320.5C444.888 320.5 427.869 327.72 415.959 340.587C404.069 353.432 397.504 371.647 397.504 393.25H400.504ZM465.254 323.5V326.5C483.654 326.5 498.676 332.852 509.124 344.389C519.6 355.957 525.754 373.048 525.754 395H528.754H531.754C531.754 371.952 525.283 353.293 513.571 340.361C501.832 327.398 485.104 320.5 465.254 320.5V323.5ZM528.754 395H525.754V402.25H528.754H531.754V395H528.754ZM528.754 402.25V399.25H433.754V402.25V405.25H528.754V402.25ZM433.754 402.25L430.758 402.409C431.408 414.625 434.94 424.207 441.175 430.756C447.448 437.345 456.113 440.5 466.254 440.5V437.5V434.5C457.395 434.5 450.434 431.78 445.52 426.619C440.568 421.418 437.35 413.375 436.75 402.091L433.754 402.25ZM466.254 437.5V440.5C473.851 440.5 480.465 438.698 485.742 435.145C491.039 431.578 494.8 426.372 496.862 419.912L494.004 419L491.146 418.088C489.458 423.378 486.469 427.422 482.391 430.168C478.293 432.927 472.907 434.5 466.254 434.5V437.5ZM494.004 419L493.821 421.994L526.571 423.994L526.754 421L526.937 418.006L494.187 416.006L494.004 419ZM526.754 421L523.864 420.194C517.031 444.698 495.626 460 466.004 460V463V466C497.882 466 521.977 449.302 529.644 421.806L526.754 421ZM495.504 380.75L498.497 380.544C497.713 369.184 494.222 360.417 488.319 354.479C482.39 348.515 474.372 345.75 465.254 345.75V348.75V351.75C473.136 351.75 479.493 354.11 484.064 358.709C488.661 363.333 491.794 370.566 492.511 380.956L495.504 380.75ZM465.254 348.75V345.75C455.939 345.75 447.891 348.808 441.851 354.847C435.848 360.851 432.082 369.543 430.775 380.391L433.754 380.75L436.732 381.109C437.925 371.207 441.285 363.899 446.094 359.09C450.867 354.317 457.319 351.75 465.254 351.75V348.75ZM433.754 380.75V383.75H495.504V380.75V377.75H433.754V380.75ZM544.482 460H541.482V463H544.482V460ZM544.482 282.5V279.5H541.482V282.5H544.482ZM576.482 282.5H579.482V279.5H576.482V282.5ZM576.482 386.75H573.482V394.512L578.703 388.768L576.482 386.75ZM631.232 326.5V323.5H629.905L629.012 324.482L631.232 326.5ZM670.732 326.5L672.917 328.556L677.677 323.5H670.732V326.5ZM618.482 382L616.298 379.944L614.634 381.711L616.016 383.708L618.482 382ZM672.482 460V463H678.208L674.949 458.292L672.482 460ZM636.482 460L633.98 461.654L634.869 463H636.482V460ZM597.482 401L599.985 399.346L597.898 396.189L595.301 398.941L597.482 401ZM576.482 423.25L574.301 421.191L573.482 422.058V423.25H576.482ZM576.482 460V463H579.482V460H576.482ZM544.482 460H547.482V282.5H544.482H541.482V460H544.482ZM544.482 282.5V285.5H576.482V282.5V279.5H544.482V282.5ZM576.482 282.5H573.482V386.75H576.482H579.482V282.5H576.482ZM576.482 386.75L578.703 388.768L633.453 328.518L631.232 326.5L629.012 324.482L574.262 384.732L576.482 386.75ZM631.232 326.5V329.5H670.732V326.5V323.5H631.232V326.5ZM670.732 326.5L668.548 324.444L616.298 379.944L618.482 382L620.667 384.056L672.917 328.556L670.732 326.5ZM618.482 382L616.016 383.708L670.016 461.708L672.482 460L674.949 458.292L620.949 380.292L618.482 382ZM672.482 460V457H636.482V460V463H672.482V460ZM636.482 460L638.985 458.346L599.985 399.346L597.482 401L594.98 402.654L633.98 461.654L636.482 460ZM597.482 401L595.301 398.941L574.301 421.191L576.482 423.25L578.664 425.309L599.664 403.059L597.482 401ZM576.482 423.25H573.482V460H576.482H579.482V423.25H576.482ZM576.482 460V457H544.482V460V463H576.482V460ZM796.352 402.25V405.25H799.352V402.25H796.352ZM701.352 402.25V399.25H698.188L698.356 402.409L701.352 402.25ZM761.602 419L761.784 416.006L759.454 415.863L758.744 418.088L761.602 419ZM794.352 421L797.241 421.806L798.238 418.232L794.534 418.006L794.352 421ZM763.102 380.75V383.75H766.316L766.094 380.544L763.102 380.75ZM701.352 380.75L698.373 380.391L697.968 383.75H701.352V380.75ZM733.602 463V460C714.318 460 698.777 453.391 688.042 441.919C677.288 430.426 671.102 413.775 671.102 393.25H668.102H665.102C665.102 414.975 671.665 433.199 683.661 446.019C695.677 458.859 712.885 466 733.602 466V463ZM668.102 393.25H671.102C671.102 372.853 677.286 356.193 687.959 344.663C698.611 333.155 713.967 326.5 732.852 326.5V323.5V320.5C712.486 320.5 695.467 327.72 683.556 340.587C671.667 353.432 665.102 371.647 665.102 393.25H668.102ZM732.852 323.5V326.5C751.251 326.5 766.274 332.852 776.722 344.389C787.198 355.957 793.352 373.048 793.352 395H796.352H799.352C799.352 371.952 792.88 353.293 781.169 340.361C769.429 327.398 752.702 320.5 732.852 320.5V323.5ZM796.352 395H793.352V402.25H796.352H799.352V395H796.352ZM796.352 402.25V399.25H701.352V402.25V405.25H796.352V402.25ZM701.352 402.25L698.356 402.409C699.006 414.625 702.537 424.207 708.773 430.756C715.046 437.345 723.711 440.5 733.852 440.5V437.5V434.5C724.992 434.5 718.032 431.78 713.118 426.619C708.166 421.418 704.948 413.375 704.347 402.091L701.352 402.25ZM733.852 437.5V440.5C741.448 440.5 748.062 438.698 753.34 435.145C758.636 431.578 762.398 426.372 764.46 419.912L761.602 419L758.744 418.088C757.055 423.378 754.067 427.422 749.989 430.168C745.891 432.927 740.505 434.5 733.852 434.5V437.5ZM761.602 419L761.419 421.994L794.169 423.994L794.352 421L794.534 418.006L761.784 416.006L761.602 419ZM794.352 421L791.462 420.194C784.629 444.698 763.224 460 733.602 460V463V466C765.48 466 789.574 449.302 797.241 421.806L794.352 421ZM763.102 380.75L766.094 380.544C765.311 369.184 761.819 360.417 755.917 354.479C749.988 348.515 741.97 345.75 732.852 345.75V348.75V351.75C740.733 351.75 747.09 354.11 751.661 358.709C756.259 363.333 759.392 370.566 760.109 380.956L763.102 380.75ZM732.852 348.75V345.75C723.537 345.75 715.489 348.808 709.449 354.847C703.446 360.851 699.68 369.543 698.373 380.391L701.352 380.75L704.33 381.109C705.523 371.207 708.882 363.899 713.692 359.09C718.465 354.317 724.916 351.75 732.852 351.75V348.75ZM701.352 380.75V383.75H763.102V380.75V377.75H701.352V380.75ZM812.08 460H809.08V463H812.08V460ZM812.08 326.5V323.5H809.08V326.5H812.08ZM842.08 326.5L845.079 326.413L844.994 323.5H842.08V326.5ZM842.83 352.25L839.831 352.337L845.71 353.09L842.83 352.25ZM887.08 326.5H890.08V323.5H887.08V326.5ZM887.08 354V357H890.08V354H887.08ZM844.08 460V463H847.08V460H844.08ZM812.08 460H815.08V326.5H812.08H809.08V460H812.08ZM812.08 326.5V329.5H842.08V326.5V323.5H812.08V326.5ZM842.08 326.5L839.081 326.587L839.831 352.337L842.83 352.25L845.829 352.163L845.079 326.413L842.08 326.5ZM842.83 352.25L845.71 353.09C848.221 344.481 851.887 338.666 856.562 334.981C861.215 331.313 867.192 329.5 874.83 329.5V326.5V323.5C866.218 323.5 858.82 325.562 852.848 330.269C846.898 334.959 842.689 342.019 839.95 351.41L842.83 352.25ZM874.83 326.5V329.5H887.08V326.5V323.5H874.83V326.5ZM887.08 326.5H884.08V354H887.08H890.08V326.5H887.08ZM887.08 354V351H874.58V354V357H887.08V354ZM874.58 354V351C863.999 351 855.47 353.18 849.604 358.611C843.69 364.088 841.08 372.308 841.08 383H844.08H847.08C847.08 373.192 849.471 366.912 853.681 363.014C857.94 359.07 864.661 357 874.58 357V354ZM844.08 383H841.08V460H844.08H847.08V383H844.08ZM844.08 460V457H812.08V460V463H844.08V460ZM956.689 460H953.689V463H956.689V460ZM956.689 282.5V279.5H953.689V282.5H956.689ZM989.189 282.5H992.189V279.5H989.189V282.5ZM989.189 460V463H992.189V460H989.189ZM956.689 460H959.689V282.5H956.689H953.689V460H956.689ZM956.689 282.5V285.5H989.189V282.5V279.5H956.689V282.5ZM989.189 282.5H986.189V460H989.189H992.189V282.5H989.189ZM989.189 460V457H956.689V460V463H989.189V460ZM1013.53 460H1010.53V463H1013.53V460ZM1013.53 326.5V323.5H1010.53V326.5H1013.53ZM1042.53 326.5L1045.52 326.402L1045.43 323.5H1042.53V326.5ZM1043.28 349.5L1040.28 349.598L1046.08 350.562L1043.28 349.5ZM1128.78 460V463H1131.78V460H1128.78ZM1096.78 460H1093.78V463H1096.78V460ZM1045.53 460V463H1048.53V460H1045.53ZM1013.53 460H1016.53V326.5H1013.53H1010.53V460H1013.53ZM1013.53 326.5V329.5H1042.53V326.5V323.5H1013.53V326.5ZM1042.53 326.5L1039.53 326.598L1040.28 349.598L1043.28 349.5L1046.27 349.402L1045.52 326.402L1042.53 326.5ZM1043.28 349.5L1046.08 350.562C1049.36 341.897 1054.5 335.946 1060.8 332.128C1067.13 328.289 1074.81 326.5 1083.28 326.5V323.5V320.5C1073.99 320.5 1065.17 322.461 1057.69 326.997C1050.17 331.554 1044.19 338.603 1040.47 348.438L1043.28 349.5ZM1083.28 323.5V326.5C1097.27 326.5 1107.77 331.392 1114.81 339.581C1121.91 347.832 1125.78 359.754 1125.78 374.25H1128.78H1131.78C1131.78 358.746 1127.64 345.293 1119.36 335.669C1111.03 325.983 1098.78 320.5 1083.28 320.5V323.5ZM1128.78 374.25H1125.78V460H1128.78H1131.78V374.25H1128.78ZM1128.78 460V457H1096.78V460V463H1128.78V460ZM1096.78 460H1099.78V384.5H1096.78H1093.78V460H1096.78ZM1096.78 384.5H1099.78C1099.78 373.108 1098.28 363.659 1094.17 356.989C1089.88 350.022 1083.01 346.5 1073.53 346.5V349.5V352.5C1081.29 352.5 1086.04 355.228 1089.06 360.136C1092.27 365.341 1093.78 373.392 1093.78 384.5H1096.78ZM1073.53 349.5V346.5C1064.12 346.5 1056.22 349.945 1050.73 356.666C1045.31 363.308 1042.53 372.814 1042.53 384.5H1045.53H1048.53C1048.53 373.686 1051.11 365.692 1055.38 360.459C1059.59 355.305 1065.68 352.5 1073.53 352.5V349.5ZM1045.53 384.5H1042.53V460H1045.53H1048.53V384.5H1045.53ZM1045.53 460V457H1013.53V460V463H1045.53V460ZM1184.92 440.25L1187.58 438.853L1182.35 428.922L1181.92 440.136L1184.92 440.25ZM1184.17 460V463H1187.06L1187.17 460.114L1184.17 460ZM1153.67 460H1150.67V463H1153.67V460ZM1153.67 282.5V279.5H1150.67V282.5H1153.67ZM1185.67 282.5H1188.67V279.5H1185.67V282.5ZM1185.67 345.5H1182.67V356.597L1188.26 347.012L1185.67 345.5ZM1225.42 463V460C1207.67 460 1194.51 452.018 1187.58 438.853L1184.92 440.25L1182.27 441.647C1190.34 456.982 1205.67 466 1225.42 466V463ZM1184.92 440.25L1181.92 440.136L1181.17 459.886L1184.17 460L1187.17 460.114L1187.92 440.364L1184.92 440.25ZM1184.17 460V457H1153.67V460V463H1184.17V460ZM1153.67 460H1156.67V282.5H1153.67H1150.67V460H1153.67ZM1153.67 282.5V285.5H1185.67V282.5V279.5H1153.67V282.5ZM1185.67 282.5H1182.67V345.5H1185.67H1188.67V282.5H1185.67ZM1185.67 345.5L1188.26 347.012C1194.76 335.878 1208.05 326.5 1225.42 326.5V323.5V320.5C1205.79 320.5 1190.59 331.122 1183.08 343.988L1185.67 345.5ZM1225.42 323.5V326.5C1241.81 326.5 1254.99 332.934 1264.15 344.317C1273.36 355.77 1278.67 372.48 1278.67 393.25H1281.67H1284.67C1284.67 371.52 1279.11 353.355 1268.82 340.558C1258.48 327.691 1243.54 320.5 1225.42 320.5V323.5ZM1281.67 393.25H1278.67C1278.67 414.02 1273.36 430.73 1264.15 442.183C1254.99 453.566 1241.81 460 1225.42 460V463V466C1243.54 466 1258.48 458.809 1268.82 445.942C1279.11 433.145 1284.67 414.98 1284.67 393.25H1281.67ZM1218.17 437V440C1228.32 440 1236.78 435.357 1242.6 427.066C1248.34 418.874 1251.42 407.268 1251.42 393.25H1248.42H1245.42C1245.42 406.482 1242.5 416.751 1237.68 423.621C1232.94 430.393 1226.27 434 1218.17 434V437ZM1248.42 393.25H1251.42C1251.42 379.005 1248.41 367.392 1242.72 359.25C1236.96 350.996 1228.55 346.5 1218.42 346.5V349.5V352.5C1226.55 352.5 1233.14 356.004 1237.81 362.687C1242.56 369.483 1245.42 379.745 1245.42 393.25H1248.42ZM1218.42 349.5V346.5C1207.18 346.5 1198.07 350.882 1191.86 359.17C1185.75 367.34 1182.67 378.999 1182.67 393.25H1185.67H1188.67C1188.67 379.751 1191.6 369.535 1196.67 362.767C1201.65 356.118 1208.91 352.5 1218.42 352.5V349.5ZM1185.67 393.25H1182.67C1182.67 407.263 1185.75 418.906 1191.82 427.126C1197.98 435.459 1207.01 440 1218.17 440V437V434C1208.83 434 1201.62 430.291 1196.65 423.561C1191.59 416.719 1188.67 406.487 1188.67 393.25H1185.67ZM1356.22 463V460C1337.07 460 1321.46 453.392 1310.63 441.91C1299.78 430.411 1293.47 413.76 1293.47 393.25H1290.47H1287.47C1287.47 414.99 1294.17 433.214 1306.26 446.027C1318.37 458.858 1335.63 466 1356.22 466V463ZM1290.47 393.25H1293.47C1293.47 372.74 1299.78 356.089 1310.63 344.59C1321.46 333.108 1337.07 326.5 1356.22 326.5V323.5V320.5C1335.63 320.5 1318.37 327.642 1306.26 340.473C1294.17 353.286 1287.47 371.51 1287.47 393.25H1290.47ZM1356.22 323.5V326.5C1375.25 326.5 1390.8 333.104 1401.6 344.587C1412.42 356.087 1418.72 372.74 1418.72 393.25H1421.72H1424.72C1424.72 371.51 1418.03 353.288 1405.97 340.476C1393.9 327.646 1376.7 320.5 1356.22 320.5V323.5ZM1421.72 393.25H1418.72C1418.72 413.76 1412.42 430.413 1401.6 441.913C1390.8 453.396 1375.25 460 1356.22 460V463V466C1376.7 466 1393.9 458.854 1405.97 446.024C1418.03 433.212 1424.72 414.99 1424.72 393.25H1421.72ZM1356.22 437V440C1367.35 440 1376.4 435.608 1382.57 427.323C1388.65 419.156 1391.72 407.502 1391.72 393.25H1388.72H1385.72C1385.72 406.748 1382.8 416.969 1377.76 423.739C1372.8 430.392 1365.6 434 1356.22 434V437ZM1388.72 393.25H1391.72C1391.72 379.118 1388.65 367.469 1382.57 359.275C1376.41 350.967 1367.37 346.5 1356.22 346.5V349.5V352.5C1365.58 352.5 1372.79 356.158 1377.75 362.85C1382.8 369.656 1385.72 379.882 1385.72 393.25H1388.72ZM1356.22 349.5V346.5C1344.97 346.5 1335.92 350.961 1329.78 359.282C1323.73 367.48 1320.72 379.13 1320.72 393.25H1323.72H1326.72C1326.72 379.87 1329.59 369.645 1334.61 362.843C1339.53 356.164 1346.73 352.5 1356.22 352.5V349.5ZM1323.72 393.25H1320.72C1320.72 407.489 1323.73 419.145 1329.78 427.317C1335.93 435.614 1344.98 440 1356.22 440V437V434C1346.72 434 1339.52 430.386 1334.6 423.746C1329.59 416.98 1326.72 406.761 1326.72 393.25H1323.72ZM1419.18 460L1416.73 458.27L1413.39 463H1419.18V460ZM1467.18 392L1469.63 393.73L1470.86 391.995L1469.63 390.263L1467.18 392ZM1420.68 326.5V323.5H1414.87L1418.24 328.237L1420.68 326.5ZM1455.43 326.5L1457.92 324.82L1457.03 323.5H1455.43V326.5ZM1486.18 372L1483.7 373.68L1486.22 377.419L1488.69 373.642L1486.18 372ZM1515.93 326.5V323.5H1514.31L1513.42 324.858L1515.93 326.5ZM1551.43 326.5L1553.89 328.22L1557.19 323.5H1551.43V326.5ZM1505.43 392.25L1502.97 390.53L1501.77 392.252L1502.98 393.972L1505.43 392.25ZM1552.93 460V463H1558.7L1555.39 458.278L1552.93 460ZM1518.43 460L1515.94 461.664L1516.83 463H1518.43V460ZM1486.43 412L1488.93 410.336L1486.43 406.592L1483.94 410.336L1486.43 412ZM1454.43 460V463H1456.04L1456.93 461.664L1454.43 460ZM1419.18 460L1421.63 461.73L1469.63 393.73L1467.18 392L1464.73 390.27L1416.73 458.27L1419.18 460ZM1467.18 392L1469.63 390.263L1423.13 324.763L1420.68 326.5L1418.24 328.237L1464.74 393.737L1467.18 392ZM1420.68 326.5V329.5H1455.43V326.5V323.5H1420.68V326.5ZM1455.43 326.5L1452.95 328.18L1483.7 373.68L1486.18 372L1488.67 370.32L1457.92 324.82L1455.43 326.5ZM1486.18 372L1488.69 373.642L1518.44 328.142L1515.93 326.5L1513.42 324.858L1483.67 370.358L1486.18 372ZM1515.93 326.5V329.5H1551.43V326.5V323.5H1515.93V326.5ZM1551.43 326.5L1548.97 324.78L1502.97 390.53L1505.43 392.25L1507.89 393.97L1553.89 328.22L1551.43 326.5ZM1505.43 392.25L1502.98 393.972L1550.48 461.722L1552.93 460L1555.39 458.278L1507.89 390.528L1505.43 392.25ZM1552.93 460V457H1518.43V460V463H1552.93V460ZM1518.43 460L1520.93 458.336L1488.93 410.336L1486.43 412L1483.94 413.664L1515.94 461.664L1518.43 460ZM1486.43 412L1483.94 410.336L1451.94 458.336L1454.43 460L1456.93 461.664L1488.93 413.664L1486.43 412ZM1454.43 460V457H1419.18V460V463H1454.43V460ZM1678.51 402.25V405.25H1681.51V402.25H1678.51ZM1583.51 402.25V399.25H1580.35L1580.51 402.409L1583.51 402.25ZM1643.76 419L1643.94 416.006L1641.61 415.863L1640.9 418.088L1643.76 419ZM1676.51 421L1679.4 421.806L1680.4 418.232L1676.69 418.006L1676.51 421ZM1645.26 380.75V383.75H1648.47L1648.25 380.544L1645.26 380.75ZM1583.51 380.75L1580.53 380.391L1580.13 383.75H1583.51V380.75ZM1615.76 463V460C1596.48 460 1580.93 453.391 1570.2 441.919C1559.45 430.426 1553.26 413.775 1553.26 393.25H1550.26H1547.26C1547.26 414.975 1553.82 433.199 1565.82 446.019C1577.83 458.859 1595.04 466 1615.76 466V463ZM1550.26 393.25H1553.26C1553.26 372.853 1559.44 356.193 1570.12 344.663C1580.77 333.155 1596.13 326.5 1615.01 326.5V323.5V320.5C1594.64 320.5 1577.63 327.72 1565.71 340.587C1553.83 353.432 1547.26 371.647 1547.26 393.25H1550.26ZM1615.01 323.5V326.5C1633.41 326.5 1648.43 332.852 1658.88 344.389C1669.36 355.957 1675.51 373.048 1675.51 395H1678.51H1681.51C1681.51 371.952 1675.04 353.293 1663.33 340.361C1651.59 327.398 1634.86 320.5 1615.01 320.5V323.5ZM1678.51 395H1675.51V402.25H1678.51H1681.51V395H1678.51ZM1678.51 402.25V399.25H1583.51V402.25V405.25H1678.51V402.25ZM1583.51 402.25L1580.51 402.409C1581.16 414.625 1584.7 424.207 1590.93 430.756C1597.2 437.345 1605.87 440.5 1616.01 440.5V437.5V434.5C1607.15 434.5 1600.19 431.78 1595.28 426.619C1590.32 421.418 1587.11 413.375 1586.51 402.091L1583.51 402.25ZM1616.01 437.5V440.5C1623.61 440.5 1630.22 438.698 1635.5 435.145C1640.79 431.578 1644.56 426.372 1646.62 419.912L1643.76 419L1640.9 418.088C1639.21 423.378 1636.23 427.422 1632.15 430.168C1628.05 432.927 1622.66 434.5 1616.01 434.5V437.5ZM1643.76 419L1643.58 421.994L1676.33 423.994L1676.51 421L1676.69 418.006L1643.94 416.006L1643.76 419ZM1676.51 421L1673.62 420.194C1666.79 444.698 1645.38 460 1615.76 460V463V466C1647.64 466 1671.73 449.302 1679.4 421.806L1676.51 421ZM1645.26 380.75L1648.25 380.544C1647.47 369.184 1643.98 360.417 1638.07 354.479C1632.15 348.515 1624.13 345.75 1615.01 345.75V348.75V351.75C1622.89 351.75 1629.25 354.11 1633.82 358.709C1638.42 363.333 1641.55 370.566 1642.27 380.956L1645.26 380.75ZM1615.01 348.75V345.75C1605.69 345.75 1597.65 348.808 1591.61 354.847C1585.6 360.851 1581.84 369.543 1580.53 380.391L1583.51 380.75L1586.49 381.109C1587.68 371.207 1591.04 363.899 1595.85 359.09C1600.62 354.317 1607.07 351.75 1615.01 351.75V348.75ZM1583.51 380.75V383.75H1645.26V380.75V377.75H1583.51V380.75ZM1687.23 418L1687.1 415.003L1684.01 415.145L1684.24 418.228L1687.23 418ZM1719.98 416.5L1722.94 416.024L1722.52 413.381L1719.85 413.503L1719.98 416.5ZM1744.23 406.25L1744.74 403.293L1744.74 403.293L1744.23 406.25ZM1805.23 368.5L1805.37 371.497L1808.68 371.344L1808.2 368.068L1805.23 368.5ZM1772.73 370L1769.77 370.493L1770.21 373.12L1772.87 372.997L1772.73 370ZM1750.98 382.75L1750.51 385.712L1750.52 385.713L1750.52 385.715L1750.98 382.75ZM1749.48 463V460C1730.18 460 1715.83 455.418 1706.12 447.965C1696.47 440.554 1691.16 430.114 1690.22 417.772L1687.23 418L1684.24 418.228C1685.3 432.136 1691.37 444.196 1702.47 452.723C1713.51 461.207 1729.28 466 1749.48 466V463ZM1687.23 418L1687.37 420.997L1720.12 419.497L1719.98 416.5L1719.85 413.503L1687.1 415.003L1687.23 418ZM1719.98 416.5L1717.02 416.976C1718.23 424.498 1721.26 430.772 1726.79 435.111C1732.28 439.416 1739.83 441.5 1749.48 441.5V438.5V435.5C1740.63 435.5 1734.56 433.584 1730.49 430.389C1726.46 427.228 1723.99 422.502 1722.94 416.024L1719.98 416.5ZM1749.48 438.5V441.5C1757.19 441.5 1763.83 440.361 1768.63 437.52C1773.68 434.538 1776.48 429.801 1776.48 423.5H1773.48H1770.48C1770.48 427.699 1768.78 430.462 1765.58 432.355C1762.14 434.389 1756.78 435.5 1749.48 435.5V438.5ZM1773.48 423.5H1776.48C1776.48 421.023 1776.18 418.588 1775.1 416.321C1774.01 414.007 1772.24 412.128 1769.74 410.555C1764.95 407.541 1757.07 405.411 1744.74 403.293L1744.23 406.25L1743.72 409.207C1756.14 411.339 1762.89 413.334 1766.54 415.632C1768.26 416.715 1769.16 417.789 1769.68 418.89C1770.22 420.037 1770.48 421.477 1770.48 423.5H1773.48ZM1744.23 406.25L1744.74 403.293C1724.31 399.805 1711.51 395.397 1703.82 389.414C1696.42 383.654 1693.48 376.206 1693.48 365.5H1690.48H1687.48C1687.48 377.544 1690.92 386.971 1700.14 394.149C1709.08 401.103 1723.15 405.695 1743.73 409.207L1744.23 406.25ZM1690.48 365.5H1693.48C1693.48 353.99 1697.98 344.387 1706.7 337.585C1715.51 330.717 1728.91 326.5 1746.98 326.5V323.5V320.5C1728.06 320.5 1713.2 324.908 1703.01 332.853C1692.74 340.863 1687.48 352.26 1687.48 365.5H1690.48ZM1746.98 323.5V326.5C1764.44 326.5 1777.34 331.161 1786.28 338.644C1795.21 346.125 1800.48 356.658 1802.26 368.932L1805.23 368.5L1808.2 368.068C1806.24 354.592 1800.38 342.625 1790.13 334.043C1779.88 325.464 1765.52 320.5 1746.98 320.5V323.5ZM1805.23 368.5L1805.09 365.503L1772.59 367.003L1772.73 370L1772.87 372.997L1805.37 371.497L1805.23 368.5ZM1772.73 370L1775.69 369.507C1774.48 362.216 1771.39 356.034 1766.39 351.676C1761.38 347.308 1754.7 345 1746.73 345V348V351C1753.51 351 1758.71 352.942 1762.45 356.199C1766.2 359.466 1768.74 364.284 1769.77 370.493L1772.73 370ZM1746.73 348V345C1738.71 345 1732.24 346.768 1727.7 350.201C1723.07 353.709 1720.73 358.744 1720.73 364.5H1723.73H1726.73C1726.73 360.506 1728.27 357.291 1731.32 354.987C1734.47 352.606 1739.5 351 1746.73 351V348ZM1723.73 364.5H1720.73C1720.73 367.508 1721.22 370.277 1722.46 372.763C1723.7 375.271 1725.6 377.293 1728.12 378.945C1732.99 382.144 1740.38 384.087 1750.51 385.712L1750.98 382.75L1751.46 379.788C1741.33 378.163 1735.1 376.356 1731.41 373.93C1729.64 372.77 1728.53 371.51 1727.83 370.097C1727.12 368.661 1726.73 366.867 1726.73 364.5H1723.73ZM1750.98 382.75L1750.52 385.715C1771.43 388.95 1784.75 393.367 1792.82 399.375C1800.6 405.172 1803.73 412.631 1803.73 423H1806.73H1809.73C1809.73 411.119 1805.99 401.703 1796.4 394.563C1787.09 387.633 1772.53 383.05 1751.44 379.785L1750.98 382.75ZM1806.73 423H1803.73C1803.73 434.825 1798.46 443.915 1789.18 450.168C1779.78 456.505 1766.12 460 1749.48 460V463V466C1766.84 466 1781.81 462.37 1792.53 455.144C1803.38 447.835 1809.73 436.925 1809.73 423H1806.73Z" fill="url(#paint1_linear_611_97)" mask="url(#path-1-outside-1_611_97)"/>
</g>
<g filter="url(#filter1_if_611_97)">
<mask id="path-3-outside-2_611_97" maskUnits="userSpaceOnUse" x="120" y="279" width="1690" height="187" fill="black">
<rect fill="white" x="120" y="279" width="1690" height="187"/>
<path d="M123.125 460V282.5H191.875C233.375 282.5 258.125 303.75 258.125 339C258.125 374.5 233.375 396 191.875 396H155.625V460H123.125ZM190.375 367.75C212.375 367.75 224.625 358 224.625 339C224.625 320.5 212.625 310.75 190.375 310.75H155.625V367.75H190.375ZM329.031 463C289.031 463 263.531 435.5 263.531 393.25C263.531 351.25 289.031 323.5 328.281 323.5C366.531 323.5 391.781 350 391.781 395V402.25H296.781C298.031 425.75 310.281 437.5 329.281 437.5C343.531 437.5 353.281 430.75 357.031 419L389.781 421C382.531 447 359.781 463 329.031 463ZM358.531 380.75C357.031 359 345.281 348.75 328.281 348.75C311.031 348.75 299.281 360 296.781 380.75H358.531ZM466.004 463C426.004 463 400.504 435.5 400.504 393.25C400.504 351.25 426.004 323.5 465.254 323.5C503.504 323.5 528.754 350 528.754 395V402.25H433.754C435.004 425.75 447.254 437.5 466.254 437.5C480.504 437.5 490.254 430.75 494.004 419L526.754 421C519.504 447 496.754 463 466.004 463ZM495.504 380.75C494.004 359 482.254 348.75 465.254 348.75C448.004 348.75 436.254 360 433.754 380.75H495.504ZM544.482 460V282.5H576.482V386.75L631.232 326.5H670.732L618.482 382L672.482 460H636.482L597.482 401L576.482 423.25V460H544.482ZM733.602 463C693.602 463 668.102 435.5 668.102 393.25C668.102 351.25 693.602 323.5 732.852 323.5C771.102 323.5 796.352 350 796.352 395V402.25H701.352C702.602 425.75 714.852 437.5 733.852 437.5C748.102 437.5 757.852 430.75 761.602 419L794.352 421C787.102 447 764.352 463 733.602 463ZM763.102 380.75C761.602 359 749.852 348.75 732.852 348.75C715.602 348.75 703.852 360 701.352 380.75H763.102ZM812.08 460V326.5H842.08L842.83 352.25C848.08 334.25 858.58 326.5 874.83 326.5H887.08V354H874.58C854.08 354 844.08 362.5 844.08 383V460H812.08ZM956.689 460V282.5H989.189V460H956.689ZM1013.53 460V326.5H1042.53L1043.28 349.5C1050.28 331 1065.53 323.5 1083.28 323.5C1112.78 323.5 1128.78 344.25 1128.78 374.25V460H1096.78V384.5C1096.78 362 1090.78 349.5 1073.53 349.5C1056.28 349.5 1045.53 362 1045.53 384.5V460H1013.53ZM1225.42 463C1206.67 463 1192.42 454.5 1184.92 440.25L1184.17 460H1153.67V282.5H1185.67V345.5C1192.67 333.5 1206.92 323.5 1225.42 323.5C1259.92 323.5 1281.67 350.75 1281.67 393.25C1281.67 435.75 1259.92 463 1225.42 463ZM1218.17 437C1236.42 437 1248.42 420.5 1248.42 393.25C1248.42 365.5 1236.67 349.5 1218.42 349.5C1197.67 349.5 1185.67 365.5 1185.67 393.25C1185.67 420.5 1197.67 437 1218.17 437ZM1356.22 463C1316.47 463 1290.47 435.5 1290.47 393.25C1290.47 351 1316.47 323.5 1356.22 323.5C1395.72 323.5 1421.72 351 1421.72 393.25C1421.72 435.5 1395.72 463 1356.22 463ZM1356.22 437C1376.72 437 1388.72 421 1388.72 393.25C1388.72 365.75 1376.72 349.5 1356.22 349.5C1335.47 349.5 1323.72 365.75 1323.72 393.25C1323.72 421 1335.47 437 1356.22 437ZM1419.18 460L1467.18 392L1420.68 326.5H1455.43L1486.18 372L1515.93 326.5H1551.43L1505.43 392.25L1552.93 460H1518.43L1486.43 412L1454.43 460H1419.18ZM1615.76 463C1575.76 463 1550.26 435.5 1550.26 393.25C1550.26 351.25 1575.76 323.5 1615.01 323.5C1653.26 323.5 1678.51 350 1678.51 395V402.25H1583.51C1584.76 425.75 1597.01 437.5 1616.01 437.5C1630.26 437.5 1640.01 430.75 1643.76 419L1676.51 421C1669.26 447 1646.51 463 1615.76 463ZM1645.26 380.75C1643.76 359 1632.01 348.75 1615.01 348.75C1597.76 348.75 1586.01 360 1583.51 380.75H1645.26ZM1749.48 463C1709.98 463 1689.23 444.25 1687.23 418L1719.98 416.5C1722.23 430.5 1730.98 438.5 1749.48 438.5C1764.48 438.5 1773.48 434 1773.48 423.5C1773.48 414.5 1768.98 410.5 1744.23 406.25C1703.23 399.25 1690.48 388.25 1690.48 365.5C1690.48 340.75 1709.98 323.5 1746.98 323.5C1782.98 323.5 1801.48 342.75 1805.23 368.5L1772.73 370C1770.48 356.5 1761.48 348 1746.73 348C1731.48 348 1723.73 354.75 1723.73 364.5C1723.73 375.25 1730.73 379.5 1750.98 382.75C1792.98 389.25 1806.73 400.75 1806.73 423C1806.73 448.75 1783.48 463 1749.48 463Z"/>
</mask>
<path d="M123.125 460V282.5H191.875C233.375 282.5 258.125 303.75 258.125 339C258.125 374.5 233.375 396 191.875 396H155.625V460H123.125ZM190.375 367.75C212.375 367.75 224.625 358 224.625 339C224.625 320.5 212.625 310.75 190.375 310.75H155.625V367.75H190.375ZM329.031 463C289.031 463 263.531 435.5 263.531 393.25C263.531 351.25 289.031 323.5 328.281 323.5C366.531 323.5 391.781 350 391.781 395V402.25H296.781C298.031 425.75 310.281 437.5 329.281 437.5C343.531 437.5 353.281 430.75 357.031 419L389.781 421C382.531 447 359.781 463 329.031 463ZM358.531 380.75C357.031 359 345.281 348.75 328.281 348.75C311.031 348.75 299.281 360 296.781 380.75H358.531ZM466.004 463C426.004 463 400.504 435.5 400.504 393.25C400.504 351.25 426.004 323.5 465.254 323.5C503.504 323.5 528.754 350 528.754 395V402.25H433.754C435.004 425.75 447.254 437.5 466.254 437.5C480.504 437.5 490.254 430.75 494.004 419L526.754 421C519.504 447 496.754 463 466.004 463ZM495.504 380.75C494.004 359 482.254 348.75 465.254 348.75C448.004 348.75 436.254 360 433.754 380.75H495.504ZM544.482 460V282.5H576.482V386.75L631.232 326.5H670.732L618.482 382L672.482 460H636.482L597.482 401L576.482 423.25V460H544.482ZM733.602 463C693.602 463 668.102 435.5 668.102 393.25C668.102 351.25 693.602 323.5 732.852 323.5C771.102 323.5 796.352 350 796.352 395V402.25H701.352C702.602 425.75 714.852 437.5 733.852 437.5C748.102 437.5 757.852 430.75 761.602 419L794.352 421C787.102 447 764.352 463 733.602 463ZM763.102 380.75C761.602 359 749.852 348.75 732.852 348.75C715.602 348.75 703.852 360 701.352 380.75H763.102ZM812.08 460V326.5H842.08L842.83 352.25C848.08 334.25 858.58 326.5 874.83 326.5H887.08V354H874.58C854.08 354 844.08 362.5 844.08 383V460H812.08ZM956.689 460V282.5H989.189V460H956.689ZM1013.53 460V326.5H1042.53L1043.28 349.5C1050.28 331 1065.53 323.5 1083.28 323.5C1112.78 323.5 1128.78 344.25 1128.78 374.25V460H1096.78V384.5C1096.78 362 1090.78 349.5 1073.53 349.5C1056.28 349.5 1045.53 362 1045.53 384.5V460H1013.53ZM1225.42 463C1206.67 463 1192.42 454.5 1184.92 440.25L1184.17 460H1153.67V282.5H1185.67V345.5C1192.67 333.5 1206.92 323.5 1225.42 323.5C1259.92 323.5 1281.67 350.75 1281.67 393.25C1281.67 435.75 1259.92 463 1225.42 463ZM1218.17 437C1236.42 437 1248.42 420.5 1248.42 393.25C1248.42 365.5 1236.67 349.5 1218.42 349.5C1197.67 349.5 1185.67 365.5 1185.67 393.25C1185.67 420.5 1197.67 437 1218.17 437ZM1356.22 463C1316.47 463 1290.47 435.5 1290.47 393.25C1290.47 351 1316.47 323.5 1356.22 323.5C1395.72 323.5 1421.72 351 1421.72 393.25C1421.72 435.5 1395.72 463 1356.22 463ZM1356.22 437C1376.72 437 1388.72 421 1388.72 393.25C1388.72 365.75 1376.72 349.5 1356.22 349.5C1335.47 349.5 1323.72 365.75 1323.72 393.25C1323.72 421 1335.47 437 1356.22 437ZM1419.18 460L1467.18 392L1420.68 326.5H1455.43L1486.18 372L1515.93 326.5H1551.43L1505.43 392.25L1552.93 460H1518.43L1486.43 412L1454.43 460H1419.18ZM1615.76 463C1575.76 463 1550.26 435.5 1550.26 393.25C1550.26 351.25 1575.76 323.5 1615.01 323.5C1653.26 323.5 1678.51 350 1678.51 395V402.25H1583.51C1584.76 425.75 1597.01 437.5 1616.01 437.5C1630.26 437.5 1640.01 430.75 1643.76 419L1676.51 421C1669.26 447 1646.51 463 1615.76 463ZM1645.26 380.75C1643.76 359 1632.01 348.75 1615.01 348.75C1597.76 348.75 1586.01 360 1583.51 380.75H1645.26ZM1749.48 463C1709.98 463 1689.23 444.25 1687.23 418L1719.98 416.5C1722.23 430.5 1730.98 438.5 1749.48 438.5C1764.48 438.5 1773.48 434 1773.48 423.5C1773.48 414.5 1768.98 410.5 1744.23 406.25C1703.23 399.25 1690.48 388.25 1690.48 365.5C1690.48 340.75 1709.98 323.5 1746.98 323.5C1782.98 323.5 1801.48 342.75 1805.23 368.5L1772.73 370C1770.48 356.5 1761.48 348 1746.73 348C1731.48 348 1723.73 354.75 1723.73 364.5C1723.73 375.25 1730.73 379.5 1750.98 382.75C1792.98 389.25 1806.73 400.75 1806.73 423C1806.73 448.75 1783.48 463 1749.48 463Z" fill="url(#paint2_linear_611_97)"/>
<path d="M123.125 460H120.125V463H123.125V460ZM123.125 282.5V279.5H120.125V282.5H123.125ZM155.625 396V393H152.625V396H155.625ZM155.625 460V463H158.625V460H155.625ZM155.625 310.75V307.75H152.625V310.75H155.625ZM155.625 367.75H152.625V370.75H155.625V367.75ZM123.125 460H126.125V282.5H123.125H120.125V460H123.125ZM123.125 282.5V285.5H191.875V282.5V279.5H123.125V282.5ZM191.875 282.5V285.5C212.144 285.5 227.937 290.69 238.614 299.812C249.23 308.883 255.125 322.125 255.125 339H258.125H261.125C261.125 320.625 254.645 305.617 242.511 295.25C230.438 284.935 213.106 279.5 191.875 279.5V282.5ZM258.125 339H255.125C255.125 356.008 249.224 369.378 238.603 378.541C227.925 387.752 212.136 393 191.875 393V396V399C213.114 399 230.45 393.498 242.522 383.084C254.651 372.622 261.125 357.492 261.125 339H258.125ZM191.875 396V393H155.625V396V399H191.875V396ZM155.625 396H152.625V460H155.625H158.625V396H155.625ZM155.625 460V457H123.125V460V463H155.625V460ZM190.375 367.75V370.75C201.759 370.75 211.112 368.235 217.663 362.811C224.311 357.307 227.625 349.184 227.625 339H224.625H221.625C221.625 347.816 218.814 354.068 213.837 358.189C208.763 362.39 200.991 364.75 190.375 364.75V367.75ZM224.625 339H227.625C227.625 329.06 224.369 321.059 217.748 315.62C211.228 310.262 201.877 307.75 190.375 307.75V310.75V313.75C201.123 313.75 208.897 316.113 213.939 320.255C218.881 324.316 221.625 330.44 221.625 339H224.625ZM190.375 310.75V307.75H155.625V310.75V313.75H190.375V310.75ZM155.625 310.75H152.625V367.75H155.625H158.625V310.75H155.625ZM155.625 367.75V370.75H190.375V367.75V364.75H155.625V367.75ZM391.781 402.25V405.25H394.781V402.25H391.781ZM296.781 402.25V399.25H293.617L293.785 402.409L296.781 402.25ZM357.031 419L357.214 416.006L354.883 415.863L354.173 418.088L357.031 419ZM389.781 421L392.671 421.806L393.668 418.232L389.964 418.006L389.781 421ZM358.531 380.75V383.75H361.745L361.524 380.544L358.531 380.75ZM296.781 380.75L293.803 380.391L293.398 383.75H296.781V380.75ZM329.031 463V460C309.748 460 294.206 453.391 283.472 441.919C272.718 430.426 266.531 413.775 266.531 393.25H263.531H260.531C260.531 414.975 267.095 433.199 279.091 446.019C291.106 458.859 308.315 466 329.031 466V463ZM263.531 393.25H266.531C266.531 372.853 272.716 356.193 283.389 344.663C294.041 333.155 309.397 326.5 328.281 326.5V323.5V320.5C307.916 320.5 290.897 327.72 278.986 340.587C267.097 353.432 260.531 371.647 260.531 393.25H263.531ZM328.281 323.5V326.5C346.681 326.5 361.703 332.852 372.151 344.389C382.628 355.957 388.781 373.048 388.781 395H391.781H394.781C394.781 371.952 388.31 353.293 376.599 340.361C364.859 327.398 348.131 320.5 328.281 320.5V323.5ZM391.781 395H388.781V402.25H391.781H394.781V395H391.781ZM391.781 402.25V399.25H296.781V402.25V405.25H391.781V402.25ZM296.781 402.25L293.785 402.409C294.435 414.625 297.967 424.207 304.202 430.756C310.476 437.345 319.14 440.5 329.281 440.5V437.5V434.5C320.422 434.5 313.462 431.78 308.548 426.619C303.595 421.418 300.377 413.375 299.777 402.091L296.781 402.25ZM329.281 437.5V440.5C336.878 440.5 343.492 438.698 348.769 435.145C354.066 431.578 357.827 426.372 359.889 419.912L357.031 419L354.173 418.088C352.485 423.378 349.497 427.422 345.418 430.168C341.32 432.927 335.935 434.5 329.281 434.5V437.5ZM357.031 419L356.848 421.994L389.598 423.994L389.781 421L389.964 418.006L357.214 416.006L357.031 419ZM389.781 421L386.891 420.194C380.059 444.698 358.653 460 329.031 460V463V466C360.909 466 385.004 449.302 392.671 421.806L389.781 421ZM358.531 380.75L361.524 380.544C360.741 369.184 357.249 360.417 351.346 354.479C345.418 348.515 337.399 345.75 328.281 345.75V348.75V351.75C336.163 351.75 342.52 354.11 347.091 358.709C351.688 363.333 354.822 370.566 355.538 380.956L358.531 380.75ZM328.281 348.75V345.75C318.966 345.75 310.918 348.808 304.879 354.847C298.876 360.851 295.11 369.543 293.803 380.391L296.781 380.75L299.76 381.109C300.953 371.207 304.312 363.899 309.121 359.09C313.894 354.317 320.346 351.75 328.281 351.75V348.75ZM296.781 380.75V383.75H358.531V380.75V377.75H296.781V380.75ZM528.754 402.25V405.25H531.754V402.25H528.754ZM433.754 402.25V399.25H430.59L430.758 402.409L433.754 402.25ZM494.004 419L494.187 416.006L491.856 415.863L491.146 418.088L494.004 419ZM526.754 421L529.644 421.806L530.64 418.232L526.937 418.006L526.754 421ZM495.504 380.75V383.75H498.718L498.497 380.544L495.504 380.75ZM433.754 380.75L430.775 380.391L430.371 383.75H433.754V380.75ZM466.004 463V460C446.72 460 431.179 453.391 420.444 441.919C409.69 430.426 403.504 413.775 403.504 393.25H400.504H397.504C397.504 414.975 404.068 433.199 416.063 446.019C428.079 458.859 445.287 466 466.004 466V463ZM400.504 393.25H403.504C403.504 372.853 409.689 356.193 420.362 344.663C431.014 333.155 446.369 326.5 465.254 326.5V323.5V320.5C444.888 320.5 427.869 327.72 415.959 340.587C404.069 353.432 397.504 371.647 397.504 393.25H400.504ZM465.254 323.5V326.5C483.654 326.5 498.676 332.852 509.124 344.389C519.6 355.957 525.754 373.048 525.754 395H528.754H531.754C531.754 371.952 525.283 353.293 513.571 340.361C501.832 327.398 485.104 320.5 465.254 320.5V323.5ZM528.754 395H525.754V402.25H528.754H531.754V395H528.754ZM528.754 402.25V399.25H433.754V402.25V405.25H528.754V402.25ZM433.754 402.25L430.758 402.409C431.408 414.625 434.94 424.207 441.175 430.756C447.448 437.345 456.113 440.5 466.254 440.5V437.5V434.5C457.395 434.5 450.434 431.78 445.52 426.619C440.568 421.418 437.35 413.375 436.75 402.091L433.754 402.25ZM466.254 437.5V440.5C473.851 440.5 480.465 438.698 485.742 435.145C491.039 431.578 494.8 426.372 496.862 419.912L494.004 419L491.146 418.088C489.458 423.378 486.469 427.422 482.391 430.168C478.293 432.927 472.907 434.5 466.254 434.5V437.5ZM494.004 419L493.821 421.994L526.571 423.994L526.754 421L526.937 418.006L494.187 416.006L494.004 419ZM526.754 421L523.864 420.194C517.031 444.698 495.626 460 466.004 460V463V466C497.882 466 521.977 449.302 529.644 421.806L526.754 421ZM495.504 380.75L498.497 380.544C497.713 369.184 494.222 360.417 488.319 354.479C482.39 348.515 474.372 345.75 465.254 345.75V348.75V351.75C473.136 351.75 479.493 354.11 484.064 358.709C488.661 363.333 491.794 370.566 492.511 380.956L495.504 380.75ZM465.254 348.75V345.75C455.939 345.75 447.891 348.808 441.851 354.847C435.848 360.851 432.082 369.543 430.775 380.391L433.754 380.75L436.732 381.109C437.925 371.207 441.285 363.899 446.094 359.09C450.867 354.317 457.319 351.75 465.254 351.75V348.75ZM433.754 380.75V383.75H495.504V380.75V377.75H433.754V380.75ZM544.482 460H541.482V463H544.482V460ZM544.482 282.5V279.5H541.482V282.5H544.482ZM576.482 282.5H579.482V279.5H576.482V282.5ZM576.482 386.75H573.482V394.512L578.703 388.768L576.482 386.75ZM631.232 326.5V323.5H629.905L629.012 324.482L631.232 326.5ZM670.732 326.5L672.917 328.556L677.677 323.5H670.732V326.5ZM618.482 382L616.298 379.944L614.634 381.711L616.016 383.708L618.482 382ZM672.482 460V463H678.208L674.949 458.292L672.482 460ZM636.482 460L633.98 461.654L634.869 463H636.482V460ZM597.482 401L599.985 399.346L597.898 396.189L595.301 398.941L597.482 401ZM576.482 423.25L574.301 421.191L573.482 422.058V423.25H576.482ZM576.482 460V463H579.482V460H576.482ZM544.482 460H547.482V282.5H544.482H541.482V460H544.482ZM544.482 282.5V285.5H576.482V282.5V279.5H544.482V282.5ZM576.482 282.5H573.482V386.75H576.482H579.482V282.5H576.482ZM576.482 386.75L578.703 388.768L633.453 328.518L631.232 326.5L629.012 324.482L574.262 384.732L576.482 386.75ZM631.232 326.5V329.5H670.732V326.5V323.5H631.232V326.5ZM670.732 326.5L668.548 324.444L616.298 379.944L618.482 382L620.667 384.056L672.917 328.556L670.732 326.5ZM618.482 382L616.016 383.708L670.016 461.708L672.482 460L674.949 458.292L620.949 380.292L618.482 382ZM672.482 460V457H636.482V460V463H672.482V460ZM636.482 460L638.985 458.346L599.985 399.346L597.482 401L594.98 402.654L633.98 461.654L636.482 460ZM597.482 401L595.301 398.941L574.301 421.191L576.482 423.25L578.664 425.309L599.664 403.059L597.482 401ZM576.482 423.25H573.482V460H576.482H579.482V423.25H576.482ZM576.482 460V457H544.482V460V463H576.482V460ZM796.352 402.25V405.25H799.352V402.25H796.352ZM701.352 402.25V399.25H698.188L698.356 402.409L701.352 402.25ZM761.602 419L761.784 416.006L759.454 415.863L758.744 418.088L761.602 419ZM794.352 421L797.241 421.806L798.238 418.232L794.534 418.006L794.352 421ZM763.102 380.75V383.75H766.316L766.094 380.544L763.102 380.75ZM701.352 380.75L698.373 380.391L697.968 383.75H701.352V380.75ZM733.602 463V460C714.318 460 698.777 453.391 688.042 441.919C677.288 430.426 671.102 413.775 671.102 393.25H668.102H665.102C665.102 414.975 671.665 433.199 683.661 446.019C695.677 458.859 712.885 466 733.602 466V463ZM668.102 393.25H671.102C671.102 372.853 677.286 356.193 687.959 344.663C698.611 333.155 713.967 326.5 732.852 326.5V323.5V320.5C712.486 320.5 695.467 327.72 683.556 340.587C671.667 353.432 665.102 371.647 665.102 393.25H668.102ZM732.852 323.5V326.5C751.251 326.5 766.274 332.852 776.722 344.389C787.198 355.957 793.352 373.048 793.352 395H796.352H799.352C799.352 371.952 792.88 353.293 781.169 340.361C769.429 327.398 752.702 320.5 732.852 320.5V323.5ZM796.352 395H793.352V402.25H796.352H799.352V395H796.352ZM796.352 402.25V399.25H701.352V402.25V405.25H796.352V402.25ZM701.352 402.25L698.356 402.409C699.006 414.625 702.537 424.207 708.773 430.756C715.046 437.345 723.711 440.5 733.852 440.5V437.5V434.5C724.992 434.5 718.032 431.78 713.118 426.619C708.166 421.418 704.948 413.375 704.347 402.091L701.352 402.25ZM733.852 437.5V440.5C741.448 440.5 748.062 438.698 753.34 435.145C758.636 431.578 762.398 426.372 764.46 419.912L761.602 419L758.744 418.088C757.055 423.378 754.067 427.422 749.989 430.168C745.891 432.927 740.505 434.5 733.852 434.5V437.5ZM761.602 419L761.419 421.994L794.169 423.994L794.352 421L794.534 418.006L761.784 416.006L761.602 419ZM794.352 421L791.462 420.194C784.629 444.698 763.224 460 733.602 460V463V466C765.48 466 789.574 449.302 797.241 421.806L794.352 421ZM763.102 380.75L766.094 380.544C765.311 369.184 761.819 360.417 755.917 354.479C749.988 348.515 741.97 345.75 732.852 345.75V348.75V351.75C740.733 351.75 747.09 354.11 751.661 358.709C756.259 363.333 759.392 370.566 760.109 380.956L763.102 380.75ZM732.852 348.75V345.75C723.537 345.75 715.489 348.808 709.449 354.847C703.446 360.851 699.68 369.543 698.373 380.391L701.352 380.75L704.33 381.109C705.523 371.207 708.882 363.899 713.692 359.09C718.465 354.317 724.916 351.75 732.852 351.75V348.75ZM701.352 380.75V383.75H763.102V380.75V377.75H701.352V380.75ZM812.08 460H809.08V463H812.08V460ZM812.08 326.5V323.5H809.08V326.5H812.08ZM842.08 326.5L845.079 326.413L844.994 323.5H842.08V326.5ZM842.83 352.25L839.831 352.337L845.71 353.09L842.83 352.25ZM887.08 326.5H890.08V323.5H887.08V326.5ZM887.08 354V357H890.08V354H887.08ZM844.08 460V463H847.08V460H844.08ZM812.08 460H815.08V326.5H812.08H809.08V460H812.08ZM812.08 326.5V329.5H842.08V326.5V323.5H812.08V326.5ZM842.08 326.5L839.081 326.587L839.831 352.337L842.83 352.25L845.829 352.163L845.079 326.413L842.08 326.5ZM842.83 352.25L845.71 353.09C848.221 344.481 851.887 338.666 856.562 334.981C861.215 331.313 867.192 329.5 874.83 329.5V326.5V323.5C866.218 323.5 858.82 325.562 852.848 330.269C846.898 334.959 842.689 342.019 839.95 351.41L842.83 352.25ZM874.83 326.5V329.5H887.08V326.5V323.5H874.83V326.5ZM887.08 326.5H884.08V354H887.08H890.08V326.5H887.08ZM887.08 354V351H874.58V354V357H887.08V354ZM874.58 354V351C863.999 351 855.47 353.18 849.604 358.611C843.69 364.088 841.08 372.308 841.08 383H844.08H847.08C847.08 373.192 849.471 366.912 853.681 363.014C857.94 359.07 864.661 357 874.58 357V354ZM844.08 383H841.08V460H844.08H847.08V383H844.08ZM844.08 460V457H812.08V460V463H844.08V460ZM956.689 460H953.689V463H956.689V460ZM956.689 282.5V279.5H953.689V282.5H956.689ZM989.189 282.5H992.189V279.5H989.189V282.5ZM989.189 460V463H992.189V460H989.189ZM956.689 460H959.689V282.5H956.689H953.689V460H956.689ZM956.689 282.5V285.5H989.189V282.5V279.5H956.689V282.5ZM989.189 282.5H986.189V460H989.189H992.189V282.5H989.189ZM989.189 460V457H956.689V460V463H989.189V460ZM1013.53 460H1010.53V463H1013.53V460ZM1013.53 326.5V323.5H1010.53V326.5H1013.53ZM1042.53 326.5L1045.52 326.402L1045.43 323.5H1042.53V326.5ZM1043.28 349.5L1040.28 349.598L1046.08 350.562L1043.28 349.5ZM1128.78 460V463H1131.78V460H1128.78ZM1096.78 460H1093.78V463H1096.78V460ZM1045.53 460V463H1048.53V460H1045.53ZM1013.53 460H1016.53V326.5H1013.53H1010.53V460H1013.53ZM1013.53 326.5V329.5H1042.53V326.5V323.5H1013.53V326.5ZM1042.53 326.5L1039.53 326.598L1040.28 349.598L1043.28 349.5L1046.27 349.402L1045.52 326.402L1042.53 326.5ZM1043.28 349.5L1046.08 350.562C1049.36 341.897 1054.5 335.946 1060.8 332.128C1067.13 328.289 1074.81 326.5 1083.28 326.5V323.5V320.5C1073.99 320.5 1065.17 322.461 1057.69 326.997C1050.17 331.554 1044.19 338.603 1040.47 348.438L1043.28 349.5ZM1083.28 323.5V326.5C1097.27 326.5 1107.77 331.392 1114.81 339.581C1121.91 347.832 1125.78 359.754 1125.78 374.25H1128.78H1131.78C1131.78 358.746 1127.64 345.293 1119.36 335.669C1111.03 325.983 1098.78 320.5 1083.28 320.5V323.5ZM1128.78 374.25H1125.78V460H1128.78H1131.78V374.25H1128.78ZM1128.78 460V457H1096.78V460V463H1128.78V460ZM1096.78 460H1099.78V384.5H1096.78H1093.78V460H1096.78ZM1096.78 384.5H1099.78C1099.78 373.108 1098.28 363.659 1094.17 356.989C1089.88 350.022 1083.01 346.5 1073.53 346.5V349.5V352.5C1081.29 352.5 1086.04 355.228 1089.06 360.136C1092.27 365.341 1093.78 373.392 1093.78 384.5H1096.78ZM1073.53 349.5V346.5C1064.12 346.5 1056.22 349.945 1050.73 356.666C1045.31 363.308 1042.53 372.814 1042.53 384.5H1045.53H1048.53C1048.53 373.686 1051.11 365.692 1055.38 360.459C1059.59 355.305 1065.68 352.5 1073.53 352.5V349.5ZM1045.53 384.5H1042.53V460H1045.53H1048.53V384.5H1045.53ZM1045.53 460V457H1013.53V460V463H1045.53V460ZM1184.92 440.25L1187.58 438.853L1182.35 428.922L1181.92 440.136L1184.92 440.25ZM1184.17 460V463H1187.06L1187.17 460.114L1184.17 460ZM1153.67 460H1150.67V463H1153.67V460ZM1153.67 282.5V279.5H1150.67V282.5H1153.67ZM1185.67 282.5H1188.67V279.5H1185.67V282.5ZM1185.67 345.5H1182.67V356.597L1188.26 347.012L1185.67 345.5ZM1225.42 463V460C1207.67 460 1194.51 452.018 1187.58 438.853L1184.92 440.25L1182.27 441.647C1190.34 456.982 1205.67 466 1225.42 466V463ZM1184.92 440.25L1181.92 440.136L1181.17 459.886L1184.17 460L1187.17 460.114L1187.92 440.364L1184.92 440.25ZM1184.17 460V457H1153.67V460V463H1184.17V460ZM1153.67 460H1156.67V282.5H1153.67H1150.67V460H1153.67ZM1153.67 282.5V285.5H1185.67V282.5V279.5H1153.67V282.5ZM1185.67 282.5H1182.67V345.5H1185.67H1188.67V282.5H1185.67ZM1185.67 345.5L1188.26 347.012C1194.76 335.878 1208.05 326.5 1225.42 326.5V323.5V320.5C1205.79 320.5 1190.59 331.122 1183.08 343.988L1185.67 345.5ZM1225.42 323.5V326.5C1241.81 326.5 1254.99 332.934 1264.15 344.317C1273.36 355.77 1278.67 372.48 1278.67 393.25H1281.67H1284.67C1284.67 371.52 1279.11 353.355 1268.82 340.558C1258.48 327.691 1243.54 320.5 1225.42 320.5V323.5ZM1281.67 393.25H1278.67C1278.67 414.02 1273.36 430.73 1264.15 442.183C1254.99 453.566 1241.81 460 1225.42 460V463V466C1243.54 466 1258.48 458.809 1268.82 445.942C1279.11 433.145 1284.67 414.98 1284.67 393.25H1281.67ZM1218.17 437V440C1228.32 440 1236.78 435.357 1242.6 427.066C1248.34 418.874 1251.42 407.268 1251.42 393.25H1248.42H1245.42C1245.42 406.482 1242.5 416.751 1237.68 423.621C1232.94 430.393 1226.27 434 1218.17 434V437ZM1248.42 393.25H1251.42C1251.42 379.005 1248.41 367.392 1242.72 359.25C1236.96 350.996 1228.55 346.5 1218.42 346.5V349.5V352.5C1226.55 352.5 1233.14 356.004 1237.81 362.687C1242.56 369.483 1245.42 379.745 1245.42 393.25H1248.42ZM1218.42 349.5V346.5C1207.18 346.5 1198.07 350.882 1191.86 359.17C1185.75 367.34 1182.67 378.999 1182.67 393.25H1185.67H1188.67C1188.67 379.751 1191.6 369.535 1196.67 362.767C1201.65 356.118 1208.91 352.5 1218.42 352.5V349.5ZM1185.67 393.25H1182.67C1182.67 407.263 1185.75 418.906 1191.82 427.126C1197.98 435.459 1207.01 440 1218.17 440V437V434C1208.83 434 1201.62 430.291 1196.65 423.561C1191.59 416.719 1188.67 406.487 1188.67 393.25H1185.67ZM1356.22 463V460C1337.07 460 1321.46 453.392 1310.63 441.91C1299.78 430.411 1293.47 413.76 1293.47 393.25H1290.47H1287.47C1287.47 414.99 1294.17 433.214 1306.26 446.027C1318.37 458.858 1335.63 466 1356.22 466V463ZM1290.47 393.25H1293.47C1293.47 372.74 1299.78 356.089 1310.63 344.59C1321.46 333.108 1337.07 326.5 1356.22 326.5V323.5V320.5C1335.63 320.5 1318.37 327.642 1306.26 340.473C1294.17 353.286 1287.47 371.51 1287.47 393.25H1290.47ZM1356.22 323.5V326.5C1375.25 326.5 1390.8 333.104 1401.6 344.587C1412.42 356.087 1418.72 372.74 1418.72 393.25H1421.72H1424.72C1424.72 371.51 1418.03 353.288 1405.97 340.476C1393.9 327.646 1376.7 320.5 1356.22 320.5V323.5ZM1421.72 393.25H1418.72C1418.72 413.76 1412.42 430.413 1401.6 441.913C1390.8 453.396 1375.25 460 1356.22 460V463V466C1376.7 466 1393.9 458.854 1405.97 446.024C1418.03 433.212 1424.72 414.99 1424.72 393.25H1421.72ZM1356.22 437V440C1367.35 440 1376.4 435.608 1382.57 427.323C1388.65 419.156 1391.72 407.502 1391.72 393.25H1388.72H1385.72C1385.72 406.748 1382.8 416.969 1377.76 423.739C1372.8 430.392 1365.6 434 1356.22 434V437ZM1388.72 393.25H1391.72C1391.72 379.118 1388.65 367.469 1382.57 359.275C1376.41 350.967 1367.37 346.5 1356.22 346.5V349.5V352.5C1365.58 352.5 1372.79 356.158 1377.75 362.85C1382.8 369.656 1385.72 379.882 1385.72 393.25H1388.72ZM1356.22 349.5V346.5C1344.97 346.5 1335.92 350.961 1329.78 359.282C1323.73 367.48 1320.72 379.13 1320.72 393.25H1323.72H1326.72C1326.72 379.87 1329.59 369.645 1334.61 362.843C1339.53 356.164 1346.73 352.5 1356.22 352.5V349.5ZM1323.72 393.25H1320.72C1320.72 407.489 1323.73 419.145 1329.78 427.317C1335.93 435.614 1344.98 440 1356.22 440V437V434C1346.72 434 1339.52 430.386 1334.6 423.746C1329.59 416.98 1326.72 406.761 1326.72 393.25H1323.72ZM1419.18 460L1416.73 458.27L1413.39 463H1419.18V460ZM1467.18 392L1469.63 393.73L1470.86 391.995L1469.63 390.263L1467.18 392ZM1420.68 326.5V323.5H1414.87L1418.24 328.237L1420.68 326.5ZM1455.43 326.5L1457.92 324.82L1457.03 323.5H1455.43V326.5ZM1486.18 372L1483.7 373.68L1486.22 377.419L1488.69 373.642L1486.18 372ZM1515.93 326.5V323.5H1514.31L1513.42 324.858L1515.93 326.5ZM1551.43 326.5L1553.89 328.22L1557.19 323.5H1551.43V326.5ZM1505.43 392.25L1502.97 390.53L1501.77 392.252L1502.98 393.972L1505.43 392.25ZM1552.93 460V463H1558.7L1555.39 458.278L1552.93 460ZM1518.43 460L1515.94 461.664L1516.83 463H1518.43V460ZM1486.43 412L1488.93 410.336L1486.43 406.592L1483.94 410.336L1486.43 412ZM1454.43 460V463H1456.04L1456.93 461.664L1454.43 460ZM1419.18 460L1421.63 461.73L1469.63 393.73L1467.18 392L1464.73 390.27L1416.73 458.27L1419.18 460ZM1467.18 392L1469.63 390.263L1423.13 324.763L1420.68 326.5L1418.24 328.237L1464.74 393.737L1467.18 392ZM1420.68 326.5V329.5H1455.43V326.5V323.5H1420.68V326.5ZM1455.43 326.5L1452.95 328.18L1483.7 373.68L1486.18 372L1488.67 370.32L1457.92 324.82L1455.43 326.5ZM1486.18 372L1488.69 373.642L1518.44 328.142L1515.93 326.5L1513.42 324.858L1483.67 370.358L1486.18 372ZM1515.93 326.5V329.5H1551.43V326.5V323.5H1515.93V326.5ZM1551.43 326.5L1548.97 324.78L1502.97 390.53L1505.43 392.25L1507.89 393.97L1553.89 328.22L1551.43 326.5ZM1505.43 392.25L1502.98 393.972L1550.48 461.722L1552.93 460L1555.39 458.278L1507.89 390.528L1505.43 392.25ZM1552.93 460V457H1518.43V460V463H1552.93V460ZM1518.43 460L1520.93 458.336L1488.93 410.336L1486.43 412L1483.94 413.664L1515.94 461.664L1518.43 460ZM1486.43 412L1483.94 410.336L1451.94 458.336L1454.43 460L1456.93 461.664L1488.93 413.664L1486.43 412ZM1454.43 460V457H1419.18V460V463H1454.43V460ZM1678.51 402.25V405.25H1681.51V402.25H1678.51ZM1583.51 402.25V399.25H1580.35L1580.51 402.409L1583.51 402.25ZM1643.76 419L1643.94 416.006L1641.61 415.863L1640.9 418.088L1643.76 419ZM1676.51 421L1679.4 421.806L1680.4 418.232L1676.69 418.006L1676.51 421ZM1645.26 380.75V383.75H1648.47L1648.25 380.544L1645.26 380.75ZM1583.51 380.75L1580.53 380.391L1580.13 383.75H1583.51V380.75ZM1615.76 463V460C1596.48 460 1580.93 453.391 1570.2 441.919C1559.45 430.426 1553.26 413.775 1553.26 393.25H1550.26H1547.26C1547.26 414.975 1553.82 433.199 1565.82 446.019C1577.83 458.859 1595.04 466 1615.76 466V463ZM1550.26 393.25H1553.26C1553.26 372.853 1559.44 356.193 1570.12 344.663C1580.77 333.155 1596.13 326.5 1615.01 326.5V323.5V320.5C1594.64 320.5 1577.63 327.72 1565.71 340.587C1553.83 353.432 1547.26 371.647 1547.26 393.25H1550.26ZM1615.01 323.5V326.5C1633.41 326.5 1648.43 332.852 1658.88 344.389C1669.36 355.957 1675.51 373.048 1675.51 395H1678.51H1681.51C1681.51 371.952 1675.04 353.293 1663.33 340.361C1651.59 327.398 1634.86 320.5 1615.01 320.5V323.5ZM1678.51 395H1675.51V402.25H1678.51H1681.51V395H1678.51ZM1678.51 402.25V399.25H1583.51V402.25V405.25H1678.51V402.25ZM1583.51 402.25L1580.51 402.409C1581.16 414.625 1584.7 424.207 1590.93 430.756C1597.2 437.345 1605.87 440.5 1616.01 440.5V437.5V434.5C1607.15 434.5 1600.19 431.78 1595.28 426.619C1590.32 421.418 1587.11 413.375 1586.51 402.091L1583.51 402.25ZM1616.01 437.5V440.5C1623.61 440.5 1630.22 438.698 1635.5 435.145C1640.79 431.578 1644.56 426.372 1646.62 419.912L1643.76 419L1640.9 418.088C1639.21 423.378 1636.23 427.422 1632.15 430.168C1628.05 432.927 1622.66 434.5 1616.01 434.5V437.5ZM1643.76 419L1643.58 421.994L1676.33 423.994L1676.51 421L1676.69 418.006L1643.94 416.006L1643.76 419ZM1676.51 421L1673.62 420.194C1666.79 444.698 1645.38 460 1615.76 460V463V466C1647.64 466 1671.73 449.302 1679.4 421.806L1676.51 421ZM1645.26 380.75L1648.25 380.544C1647.47 369.184 1643.98 360.417 1638.07 354.479C1632.15 348.515 1624.13 345.75 1615.01 345.75V348.75V351.75C1622.89 351.75 1629.25 354.11 1633.82 358.709C1638.42 363.333 1641.55 370.566 1642.27 380.956L1645.26 380.75ZM1615.01 348.75V345.75C1605.69 345.75 1597.65 348.808 1591.61 354.847C1585.6 360.851 1581.84 369.543 1580.53 380.391L1583.51 380.75L1586.49 381.109C1587.68 371.207 1591.04 363.899 1595.85 359.09C1600.62 354.317 1607.07 351.75 1615.01 351.75V348.75ZM1583.51 380.75V383.75H1645.26V380.75V377.75H1583.51V380.75ZM1687.23 418L1687.1 415.003L1684.01 415.145L1684.24 418.228L1687.23 418ZM1719.98 416.5L1722.94 416.024L1722.52 413.381L1719.85 413.503L1719.98 416.5ZM1744.23 406.25L1744.74 403.293L1744.74 403.293L1744.23 406.25ZM1805.23 368.5L1805.37 371.497L1808.68 371.344L1808.2 368.068L1805.23 368.5ZM1772.73 370L1769.77 370.493L1770.21 373.12L1772.87 372.997L1772.73 370ZM1750.98 382.75L1750.51 385.712L1750.52 385.713L1750.52 385.715L1750.98 382.75ZM1749.48 463V460C1730.18 460 1715.83 455.418 1706.12 447.965C1696.47 440.554 1691.16 430.114 1690.22 417.772L1687.23 418L1684.24 418.228C1685.3 432.136 1691.37 444.196 1702.47 452.723C1713.51 461.207 1729.28 466 1749.48 466V463ZM1687.23 418L1687.37 420.997L1720.12 419.497L1719.98 416.5L1719.85 413.503L1687.1 415.003L1687.23 418ZM1719.98 416.5L1717.02 416.976C1718.23 424.498 1721.26 430.772 1726.79 435.111C1732.28 439.416 1739.83 441.5 1749.48 441.5V438.5V435.5C1740.63 435.5 1734.56 433.584 1730.49 430.389C1726.46 427.228 1723.99 422.502 1722.94 416.024L1719.98 416.5ZM1749.48 438.5V441.5C1757.19 441.5 1763.83 440.361 1768.63 437.52C1773.68 434.538 1776.48 429.801 1776.48 423.5H1773.48H1770.48C1770.48 427.699 1768.78 430.462 1765.58 432.355C1762.14 434.389 1756.78 435.5 1749.48 435.5V438.5ZM1773.48 423.5H1776.48C1776.48 421.023 1776.18 418.588 1775.1 416.321C1774.01 414.007 1772.24 412.128 1769.74 410.555C1764.95 407.541 1757.07 405.411 1744.74 403.293L1744.23 406.25L1743.72 409.207C1756.14 411.339 1762.89 413.334 1766.54 415.632C1768.26 416.715 1769.16 417.789 1769.68 418.89C1770.22 420.037 1770.48 421.477 1770.48 423.5H1773.48ZM1744.23 406.25L1744.74 403.293C1724.31 399.805 1711.51 395.397 1703.82 389.414C1696.42 383.654 1693.48 376.206 1693.48 365.5H1690.48H1687.48C1687.48 377.544 1690.92 386.971 1700.14 394.149C1709.08 401.103 1723.15 405.695 1743.73 409.207L1744.23 406.25ZM1690.48 365.5H1693.48C1693.48 353.99 1697.98 344.387 1706.7 337.585C1715.51 330.717 1728.91 326.5 1746.98 326.5V323.5V320.5C1728.06 320.5 1713.2 324.908 1703.01 332.853C1692.74 340.863 1687.48 352.26 1687.48 365.5H1690.48ZM1746.98 323.5V326.5C1764.44 326.5 1777.34 331.161 1786.28 338.644C1795.21 346.125 1800.48 356.658 1802.26 368.932L1805.23 368.5L1808.2 368.068C1806.24 354.592 1800.38 342.625 1790.13 334.043C1779.88 325.464 1765.52 320.5 1746.98 320.5V323.5ZM1805.23 368.5L1805.09 365.503L1772.59 367.003L1772.73 370L1772.87 372.997L1805.37 371.497L1805.23 368.5ZM1772.73 370L1775.69 369.507C1774.48 362.216 1771.39 356.034 1766.39 351.676C1761.38 347.308 1754.7 345 1746.73 345V348V351C1753.51 351 1758.71 352.942 1762.45 356.199C1766.2 359.466 1768.74 364.284 1769.77 370.493L1772.73 370ZM1746.73 348V345C1738.71 345 1732.24 346.768 1727.7 350.201C1723.07 353.709 1720.73 358.744 1720.73 364.5H1723.73H1726.73C1726.73 360.506 1728.27 357.291 1731.32 354.987C1734.47 352.606 1739.5 351 1746.73 351V348ZM1723.73 364.5H1720.73C1720.73 367.508 1721.22 370.277 1722.46 372.763C1723.7 375.271 1725.6 377.293 1728.12 378.945C1732.99 382.144 1740.38 384.087 1750.51 385.712L1750.98 382.75L1751.46 379.788C1741.33 378.163 1735.1 376.356 1731.41 373.93C1729.64 372.77 1728.53 371.51 1727.83 370.097C1727.12 368.661 1726.73 366.867 1726.73 364.5H1723.73ZM1750.98 382.75L1750.52 385.715C1771.43 388.95 1784.75 393.367 1792.82 399.375C1800.6 405.172 1803.73 412.631 1803.73 423H1806.73H1809.73C1809.73 411.119 1805.99 401.703 1796.4 394.563C1787.09 387.633 1772.53 383.05 1751.44 379.785L1750.98 382.75ZM1806.73 423H1803.73C1803.73 434.825 1798.46 443.915 1789.18 450.168C1779.78 456.505 1766.12 460 1749.48 460V463V466C1766.84 466 1781.81 462.37 1792.53 455.144C1803.38 447.835 1809.73 436.925 1809.73 423H1806.73Z" fill="url(#paint3_linear_611_97)" mask="url(#path-3-outside-2_611_97)"/>
<path d="M123.125 460H120.125V463H123.125V460ZM123.125 282.5V279.5H120.125V282.5H123.125ZM155.625 396V393H152.625V396H155.625ZM155.625 460V463H158.625V460H155.625ZM155.625 310.75V307.75H152.625V310.75H155.625ZM155.625 367.75H152.625V370.75H155.625V367.75ZM123.125 460H126.125V282.5H123.125H120.125V460H123.125ZM123.125 282.5V285.5H191.875V282.5V279.5H123.125V282.5ZM191.875 282.5V285.5C212.144 285.5 227.937 290.69 238.614 299.812C249.23 308.883 255.125 322.125 255.125 339H258.125H261.125C261.125 320.625 254.645 305.617 242.511 295.25C230.438 284.935 213.106 279.5 191.875 279.5V282.5ZM258.125 339H255.125C255.125 356.008 249.224 369.378 238.603 378.541C227.925 387.752 212.136 393 191.875 393V396V399C213.114 399 230.45 393.498 242.522 383.084C254.651 372.622 261.125 357.492 261.125 339H258.125ZM191.875 396V393H155.625V396V399H191.875V396ZM155.625 396H152.625V460H155.625H158.625V396H155.625ZM155.625 460V457H123.125V460V463H155.625V460ZM190.375 367.75V370.75C201.759 370.75 211.112 368.235 217.663 362.811C224.311 357.307 227.625 349.184 227.625 339H224.625H221.625C221.625 347.816 218.814 354.068 213.837 358.189C208.763 362.39 200.991 364.75 190.375 364.75V367.75ZM224.625 339H227.625C227.625 329.06 224.369 321.059 217.748 315.62C211.228 310.262 201.877 307.75 190.375 307.75V310.75V313.75C201.123 313.75 208.897 316.113 213.939 320.255C218.881 324.316 221.625 330.44 221.625 339H224.625ZM190.375 310.75V307.75H155.625V310.75V313.75H190.375V310.75ZM155.625 310.75H152.625V367.75H155.625H158.625V310.75H155.625ZM155.625 367.75V370.75H190.375V367.75V364.75H155.625V367.75ZM391.781 402.25V405.25H394.781V402.25H391.781ZM296.781 402.25V399.25H293.617L293.785 402.409L296.781 402.25ZM357.031 419L357.214 416.006L354.883 415.863L354.173 418.088L357.031 419ZM389.781 421L392.671 421.806L393.668 418.232L389.964 418.006L389.781 421ZM358.531 380.75V383.75H361.745L361.524 380.544L358.531 380.75ZM296.781 380.75L293.803 380.391L293.398 383.75H296.781V380.75ZM329.031 463V460C309.748 460 294.206 453.391 283.472 441.919C272.718 430.426 266.531 413.775 266.531 393.25H263.531H260.531C260.531 414.975 267.095 433.199 279.091 446.019C291.106 458.859 308.315 466 329.031 466V463ZM263.531 393.25H266.531C266.531 372.853 272.716 356.193 283.389 344.663C294.041 333.155 309.397 326.5 328.281 326.5V323.5V320.5C307.916 320.5 290.897 327.72 278.986 340.587C267.097 353.432 260.531 371.647 260.531 393.25H263.531ZM328.281 323.5V326.5C346.681 326.5 361.703 332.852 372.151 344.389C382.628 355.957 388.781 373.048 388.781 395H391.781H394.781C394.781 371.952 388.31 353.293 376.599 340.361C364.859 327.398 348.131 320.5 328.281 320.5V323.5ZM391.781 395H388.781V402.25H391.781H394.781V395H391.781ZM391.781 402.25V399.25H296.781V402.25V405.25H391.781V402.25ZM296.781 402.25L293.785 402.409C294.435 414.625 297.967 424.207 304.202 430.756C310.476 437.345 319.14 440.5 329.281 440.5V437.5V434.5C320.422 434.5 313.462 431.78 308.548 426.619C303.595 421.418 300.377 413.375 299.777 402.091L296.781 402.25ZM329.281 437.5V440.5C336.878 440.5 343.492 438.698 348.769 435.145C354.066 431.578 357.827 426.372 359.889 419.912L357.031 419L354.173 418.088C352.485 423.378 349.497 427.422 345.418 430.168C341.32 432.927 335.935 434.5 329.281 434.5V437.5ZM357.031 419L356.848 421.994L389.598 423.994L389.781 421L389.964 418.006L357.214 416.006L357.031 419ZM389.781 421L386.891 420.194C380.059 444.698 358.653 460 329.031 460V463V466C360.909 466 385.004 449.302 392.671 421.806L389.781 421ZM358.531 380.75L361.524 380.544C360.741 369.184 357.249 360.417 351.346 354.479C345.418 348.515 337.399 345.75 328.281 345.75V348.75V351.75C336.163 351.75 342.52 354.11 347.091 358.709C351.688 363.333 354.822 370.566 355.538 380.956L358.531 380.75ZM328.281 348.75V345.75C318.966 345.75 310.918 348.808 304.879 354.847C298.876 360.851 295.11 369.543 293.803 380.391L296.781 380.75L299.76 381.109C300.953 371.207 304.312 363.899 309.121 359.09C313.894 354.317 320.346 351.75 328.281 351.75V348.75ZM296.781 380.75V383.75H358.531V380.75V377.75H296.781V380.75ZM528.754 402.25V405.25H531.754V402.25H528.754ZM433.754 402.25V399.25H430.59L430.758 402.409L433.754 402.25ZM494.004 419L494.187 416.006L491.856 415.863L491.146 418.088L494.004 419ZM526.754 421L529.644 421.806L530.64 418.232L526.937 418.006L526.754 421ZM495.504 380.75V383.75H498.718L498.497 380.544L495.504 380.75ZM433.754 380.75L430.775 380.391L430.371 383.75H433.754V380.75ZM466.004 463V460C446.72 460 431.179 453.391 420.444 441.919C409.69 430.426 403.504 413.775 403.504 393.25H400.504H397.504C397.504 414.975 404.068 433.199 416.063 446.019C428.079 458.859 445.287 466 466.004 466V463ZM400.504 393.25H403.504C403.504 372.853 409.689 356.193 420.362 344.663C431.014 333.155 446.369 326.5 465.254 326.5V323.5V320.5C444.888 320.5 427.869 327.72 415.959 340.587C404.069 353.432 397.504 371.647 397.504 393.25H400.504ZM465.254 323.5V326.5C483.654 326.5 498.676 332.852 509.124 344.389C519.6 355.957 525.754 373.048 525.754 395H528.754H531.754C531.754 371.952 525.283 353.293 513.571 340.361C501.832 327.398 485.104 320.5 465.254 320.5V323.5ZM528.754 395H525.754V402.25H528.754H531.754V395H528.754ZM528.754 402.25V399.25H433.754V402.25V405.25H528.754V402.25ZM433.754 402.25L430.758 402.409C431.408 414.625 434.94 424.207 441.175 430.756C447.448 437.345 456.113 440.5 466.254 440.5V437.5V434.5C457.395 434.5 450.434 431.78 445.52 426.619C440.568 421.418 437.35 413.375 436.75 402.091L433.754 402.25ZM466.254 437.5V440.5C473.851 440.5 480.465 438.698 485.742 435.145C491.039 431.578 494.8 426.372 496.862 419.912L494.004 419L491.146 418.088C489.458 423.378 486.469 427.422 482.391 430.168C478.293 432.927 472.907 434.5 466.254 434.5V437.5ZM494.004 419L493.821 421.994L526.571 423.994L526.754 421L526.937 418.006L494.187 416.006L494.004 419ZM526.754 421L523.864 420.194C517.031 444.698 495.626 460 466.004 460V463V466C497.882 466 521.977 449.302 529.644 421.806L526.754 421ZM495.504 380.75L498.497 380.544C497.713 369.184 494.222 360.417 488.319 354.479C482.39 348.515 474.372 345.75 465.254 345.75V348.75V351.75C473.136 351.75 479.493 354.11 484.064 358.709C488.661 363.333 491.794 370.566 492.511 380.956L495.504 380.75ZM465.254 348.75V345.75C455.939 345.75 447.891 348.808 441.851 354.847C435.848 360.851 432.082 369.543 430.775 380.391L433.754 380.75L436.732 381.109C437.925 371.207 441.285 363.899 446.094 359.09C450.867 354.317 457.319 351.75 465.254 351.75V348.75ZM433.754 380.75V383.75H495.504V380.75V377.75H433.754V380.75ZM544.482 460H541.482V463H544.482V460ZM544.482 282.5V279.5H541.482V282.5H544.482ZM576.482 282.5H579.482V279.5H576.482V282.5ZM576.482 386.75H573.482V394.512L578.703 388.768L576.482 386.75ZM631.232 326.5V323.5H629.905L629.012 324.482L631.232 326.5ZM670.732 326.5L672.917 328.556L677.677 323.5H670.732V326.5ZM618.482 382L616.298 379.944L614.634 381.711L616.016 383.708L618.482 382ZM672.482 460V463H678.208L674.949 458.292L672.482 460ZM636.482 460L633.98 461.654L634.869 463H636.482V460ZM597.482 401L599.985 399.346L597.898 396.189L595.301 398.941L597.482 401ZM576.482 423.25L574.301 421.191L573.482 422.058V423.25H576.482ZM576.482 460V463H579.482V460H576.482ZM544.482 460H547.482V282.5H544.482H541.482V460H544.482ZM544.482 282.5V285.5H576.482V282.5V279.5H544.482V282.5ZM576.482 282.5H573.482V386.75H576.482H579.482V282.5H576.482ZM576.482 386.75L578.703 388.768L633.453 328.518L631.232 326.5L629.012 324.482L574.262 384.732L576.482 386.75ZM631.232 326.5V329.5H670.732V326.5V323.5H631.232V326.5ZM670.732 326.5L668.548 324.444L616.298 379.944L618.482 382L620.667 384.056L672.917 328.556L670.732 326.5ZM618.482 382L616.016 383.708L670.016 461.708L672.482 460L674.949 458.292L620.949 380.292L618.482 382ZM672.482 460V457H636.482V460V463H672.482V460ZM636.482 460L638.985 458.346L599.985 399.346L597.482 401L594.98 402.654L633.98 461.654L636.482 460ZM597.482 401L595.301 398.941L574.301 421.191L576.482 423.25L578.664 425.309L599.664 403.059L597.482 401ZM576.482 423.25H573.482V460H576.482H579.482V423.25H576.482ZM576.482 460V457H544.482V460V463H576.482V460ZM796.352 402.25V405.25H799.352V402.25H796.352ZM701.352 402.25V399.25H698.188L698.356 402.409L701.352 402.25ZM761.602 419L761.784 416.006L759.454 415.863L758.744 418.088L761.602 419ZM794.352 421L797.241 421.806L798.238 418.232L794.534 418.006L794.352 421ZM763.102 380.75V383.75H766.316L766.094 380.544L763.102 380.75ZM701.352 380.75L698.373 380.391L697.968 383.75H701.352V380.75ZM733.602 463V460C714.318 460 698.777 453.391 688.042 441.919C677.288 430.426 671.102 413.775 671.102 393.25H668.102H665.102C665.102 414.975 671.665 433.199 683.661 446.019C695.677 458.859 712.885 466 733.602 466V463ZM668.102 393.25H671.102C671.102 372.853 677.286 356.193 687.959 344.663C698.611 333.155 713.967 326.5 732.852 326.5V323.5V320.5C712.486 320.5 695.467 327.72 683.556 340.587C671.667 353.432 665.102 371.647 665.102 393.25H668.102ZM732.852 323.5V326.5C751.251 326.5 766.274 332.852 776.722 344.389C787.198 355.957 793.352 373.048 793.352 395H796.352H799.352C799.352 371.952 792.88 353.293 781.169 340.361C769.429 327.398 752.702 320.5 732.852 320.5V323.5ZM796.352 395H793.352V402.25H796.352H799.352V395H796.352ZM796.352 402.25V399.25H701.352V402.25V405.25H796.352V402.25ZM701.352 402.25L698.356 402.409C699.006 414.625 702.537 424.207 708.773 430.756C715.046 437.345 723.711 440.5 733.852 440.5V437.5V434.5C724.992 434.5 718.032 431.78 713.118 426.619C708.166 421.418 704.948 413.375 704.347 402.091L701.352 402.25ZM733.852 437.5V440.5C741.448 440.5 748.062 438.698 753.34 435.145C758.636 431.578 762.398 426.372 764.46 419.912L761.602 419L758.744 418.088C757.055 423.378 754.067 427.422 749.989 430.168C745.891 432.927 740.505 434.5 733.852 434.5V437.5ZM761.602 419L761.419 421.994L794.169 423.994L794.352 421L794.534 418.006L761.784 416.006L761.602 419ZM794.352 421L791.462 420.194C784.629 444.698 763.224 460 733.602 460V463V466C765.48 466 789.574 449.302 797.241 421.806L794.352 421ZM763.102 380.75L766.094 380.544C765.311 369.184 761.819 360.417 755.917 354.479C749.988 348.515 741.97 345.75 732.852 345.75V348.75V351.75C740.733 351.75 747.09 354.11 751.661 358.709C756.259 363.333 759.392 370.566 760.109 380.956L763.102 380.75ZM732.852 348.75V345.75C723.537 345.75 715.489 348.808 709.449 354.847C703.446 360.851 699.68 369.543 698.373 380.391L701.352 380.75L704.33 381.109C705.523 371.207 708.882 363.899 713.692 359.09C718.465 354.317 724.916 351.75 732.852 351.75V348.75ZM701.352 380.75V383.75H763.102V380.75V377.75H701.352V380.75ZM812.08 460H809.08V463H812.08V460ZM812.08 326.5V323.5H809.08V326.5H812.08ZM842.08 326.5L845.079 326.413L844.994 323.5H842.08V326.5ZM842.83 352.25L839.831 352.337L845.71 353.09L842.83 352.25ZM887.08 326.5H890.08V323.5H887.08V326.5ZM887.08 354V357H890.08V354H887.08ZM844.08 460V463H847.08V460H844.08ZM812.08 460H815.08V326.5H812.08H809.08V460H812.08ZM812.08 326.5V329.5H842.08V326.5V323.5H812.08V326.5ZM842.08 326.5L839.081 326.587L839.831 352.337L842.83 352.25L845.829 352.163L845.079 326.413L842.08 326.5ZM842.83 352.25L845.71 353.09C848.221 344.481 851.887 338.666 856.562 334.981C861.215 331.313 867.192 329.5 874.83 329.5V326.5V323.5C866.218 323.5 858.82 325.562 852.848 330.269C846.898 334.959 842.689 342.019 839.95 351.41L842.83 352.25ZM874.83 326.5V329.5H887.08V326.5V323.5H874.83V326.5ZM887.08 326.5H884.08V354H887.08H890.08V326.5H887.08ZM887.08 354V351H874.58V354V357H887.08V354ZM874.58 354V351C863.999 351 855.47 353.18 849.604 358.611C843.69 364.088 841.08 372.308 841.08 383H844.08H847.08C847.08 373.192 849.471 366.912 853.681 363.014C857.94 359.07 864.661 357 874.58 357V354ZM844.08 383H841.08V460H844.08H847.08V383H844.08ZM844.08 460V457H812.08V460V463H844.08V460ZM956.689 460H953.689V463H956.689V460ZM956.689 282.5V279.5H953.689V282.5H956.689ZM989.189 282.5H992.189V279.5H989.189V282.5ZM989.189 460V463H992.189V460H989.189ZM956.689 460H959.689V282.5H956.689H953.689V460H956.689ZM956.689 282.5V285.5H989.189V282.5V279.5H956.689V282.5ZM989.189 282.5H986.189V460H989.189H992.189V282.5H989.189ZM989.189 460V457H956.689V460V463H989.189V460ZM1013.53 460H1010.53V463H1013.53V460ZM1013.53 326.5V323.5H1010.53V326.5H1013.53ZM1042.53 326.5L1045.52 326.402L1045.43 323.5H1042.53V326.5ZM1043.28 349.5L1040.28 349.598L1046.08 350.562L1043.28 349.5ZM1128.78 460V463H1131.78V460H1128.78ZM1096.78 460H1093.78V463H1096.78V460ZM1045.53 460V463H1048.53V460H1045.53ZM1013.53 460H1016.53V326.5H1013.53H1010.53V460H1013.53ZM1013.53 326.5V329.5H1042.53V326.5V323.5H1013.53V326.5ZM1042.53 326.5L1039.53 326.598L1040.28 349.598L1043.28 349.5L1046.27 349.402L1045.52 326.402L1042.53 326.5ZM1043.28 349.5L1046.08 350.562C1049.36 341.897 1054.5 335.946 1060.8 332.128C1067.13 328.289 1074.81 326.5 1083.28 326.5V323.5V320.5C1073.99 320.5 1065.17 322.461 1057.69 326.997C1050.17 331.554 1044.19 338.603 1040.47 348.438L1043.28 349.5ZM1083.28 323.5V326.5C1097.27 326.5 1107.77 331.392 1114.81 339.581C1121.91 347.832 1125.78 359.754 1125.78 374.25H1128.78H1131.78C1131.78 358.746 1127.64 345.293 1119.36 335.669C1111.03 325.983 1098.78 320.5 1083.28 320.5V323.5ZM1128.78 374.25H1125.78V460H1128.78H1131.78V374.25H1128.78ZM1128.78 460V457H1096.78V460V463H1128.78V460ZM1096.78 460H1099.78V384.5H1096.78H1093.78V460H1096.78ZM1096.78 384.5H1099.78C1099.78 373.108 1098.28 363.659 1094.17 356.989C1089.88 350.022 1083.01 346.5 1073.53 346.5V349.5V352.5C1081.29 352.5 1086.04 355.228 1089.06 360.136C1092.27 365.341 1093.78 373.392 1093.78 384.5H1096.78ZM1073.53 349.5V346.5C1064.12 346.5 1056.22 349.945 1050.73 356.666C1045.31 363.308 1042.53 372.814 1042.53 384.5H1045.53H1048.53C1048.53 373.686 1051.11 365.692 1055.38 360.459C1059.59 355.305 1065.68 352.5 1073.53 352.5V349.5ZM1045.53 384.5H1042.53V460H1045.53H1048.53V384.5H1045.53ZM1045.53 460V457H1013.53V460V463H1045.53V460ZM1184.92 440.25L1187.58 438.853L1182.35 428.922L1181.92 440.136L1184.92 440.25ZM1184.17 460V463H1187.06L1187.17 460.114L1184.17 460ZM1153.67 460H1150.67V463H1153.67V460ZM1153.67 282.5V279.5H1150.67V282.5H1153.67ZM1185.67 282.5H1188.67V279.5H1185.67V282.5ZM1185.67 345.5H1182.67V356.597L1188.26 347.012L1185.67 345.5ZM1225.42 463V460C1207.67 460 1194.51 452.018 1187.58 438.853L1184.92 440.25L1182.27 441.647C1190.34 456.982 1205.67 466 1225.42 466V463ZM1184.92 440.25L1181.92 440.136L1181.17 459.886L1184.17 460L1187.17 460.114L1187.92 440.364L1184.92 440.25ZM1184.17 460V457H1153.67V460V463H1184.17V460ZM1153.67 460H1156.67V282.5H1153.67H1150.67V460H1153.67ZM1153.67 282.5V285.5H1185.67V282.5V279.5H1153.67V282.5ZM1185.67 282.5H1182.67V345.5H1185.67H1188.67V282.5H1185.67ZM1185.67 345.5L1188.26 347.012C1194.76 335.878 1208.05 326.5 1225.42 326.5V323.5V320.5C1205.79 320.5 1190.59 331.122 1183.08 343.988L1185.67 345.5ZM1225.42 323.5V326.5C1241.81 326.5 1254.99 332.934 1264.15 344.317C1273.36 355.77 1278.67 372.48 1278.67 393.25H1281.67H1284.67C1284.67 371.52 1279.11 353.355 1268.82 340.558C1258.48 327.691 1243.54 320.5 1225.42 320.5V323.5ZM1281.67 393.25H1278.67C1278.67 414.02 1273.36 430.73 1264.15 442.183C1254.99 453.566 1241.81 460 1225.42 460V463V466C1243.54 466 1258.48 458.809 1268.82 445.942C1279.11 433.145 1284.67 414.98 1284.67 393.25H1281.67ZM1218.17 437V440C1228.32 440 1236.78 435.357 1242.6 427.066C1248.34 418.874 1251.42 407.268 1251.42 393.25H1248.42H1245.42C1245.42 406.482 1242.5 416.751 1237.68 423.621C1232.94 430.393 1226.27 434 1218.17 434V437ZM1248.42 393.25H1251.42C1251.42 379.005 1248.41 367.392 1242.72 359.25C1236.96 350.996 1228.55 346.5 1218.42 346.5V349.5V352.5C1226.55 352.5 1233.14 356.004 1237.81 362.687C1242.56 369.483 1245.42 379.745 1245.42 393.25H1248.42ZM1218.42 349.5V346.5C1207.18 346.5 1198.07 350.882 1191.86 359.17C1185.75 367.34 1182.67 378.999 1182.67 393.25H1185.67H1188.67C1188.67 379.751 1191.6 369.535 1196.67 362.767C1201.65 356.118 1208.91 352.5 1218.42 352.5V349.5ZM1185.67 393.25H1182.67C1182.67 407.263 1185.75 418.906 1191.82 427.126C1197.98 435.459 1207.01 440 1218.17 440V437V434C1208.83 434 1201.62 430.291 1196.65 423.561C1191.59 416.719 1188.67 406.487 1188.67 393.25H1185.67ZM1356.22 463V460C1337.07 460 1321.46 453.392 1310.63 441.91C1299.78 430.411 1293.47 413.76 1293.47 393.25H1290.47H1287.47C1287.47 414.99 1294.17 433.214 1306.26 446.027C1318.37 458.858 1335.63 466 1356.22 466V463ZM1290.47 393.25H1293.47C1293.47 372.74 1299.78 356.089 1310.63 344.59C1321.46 333.108 1337.07 326.5 1356.22 326.5V323.5V320.5C1335.63 320.5 1318.37 327.642 1306.26 340.473C1294.17 353.286 1287.47 371.51 1287.47 393.25H1290.47ZM1356.22 323.5V326.5C1375.25 326.5 1390.8 333.104 1401.6 344.587C1412.42 356.087 1418.72 372.74 1418.72 393.25H1421.72H1424.72C1424.72 371.51 1418.03 353.288 1405.97 340.476C1393.9 327.646 1376.7 320.5 1356.22 320.5V323.5ZM1421.72 393.25H1418.72C1418.72 413.76 1412.42 430.413 1401.6 441.913C1390.8 453.396 1375.25 460 1356.22 460V463V466C1376.7 466 1393.9 458.854 1405.97 446.024C1418.03 433.212 1424.72 414.99 1424.72 393.25H1421.72ZM1356.22 437V440C1367.35 440 1376.4 435.608 1382.57 427.323C1388.65 419.156 1391.72 407.502 1391.72 393.25H1388.72H1385.72C1385.72 406.748 1382.8 416.969 1377.76 423.739C1372.8 430.392 1365.6 434 1356.22 434V437ZM1388.72 393.25H1391.72C1391.72 379.118 1388.65 367.469 1382.57 359.275C1376.41 350.967 1367.37 346.5 1356.22 346.5V349.5V352.5C1365.58 352.5 1372.79 356.158 1377.75 362.85C1382.8 369.656 1385.72 379.882 1385.72 393.25H1388.72ZM1356.22 349.5V346.5C1344.97 346.5 1335.92 350.961 1329.78 359.282C1323.73 367.48 1320.72 379.13 1320.72 393.25H1323.72H1326.72C1326.72 379.87 1329.59 369.645 1334.61 362.843C1339.53 356.164 1346.73 352.5 1356.22 352.5V349.5ZM1323.72 393.25H1320.72C1320.72 407.489 1323.73 419.145 1329.78 427.317C1335.93 435.614 1344.98 440 1356.22 440V437V434C1346.72 434 1339.52 430.386 1334.6 423.746C1329.59 416.98 1326.72 406.761 1326.72 393.25H1323.72ZM1419.18 460L1416.73 458.27L1413.39 463H1419.18V460ZM1467.18 392L1469.63 393.73L1470.86 391.995L1469.63 390.263L1467.18 392ZM1420.68 326.5V323.5H1414.87L1418.24 328.237L1420.68 326.5ZM1455.43 326.5L1457.92 324.82L1457.03 323.5H1455.43V326.5ZM1486.18 372L1483.7 373.68L1486.22 377.419L1488.69 373.642L1486.18 372ZM1515.93 326.5V323.5H1514.31L1513.42 324.858L1515.93 326.5ZM1551.43 326.5L1553.89 328.22L1557.19 323.5H1551.43V326.5ZM1505.43 392.25L1502.97 390.53L1501.77 392.252L1502.98 393.972L1505.43 392.25ZM1552.93 460V463H1558.7L1555.39 458.278L1552.93 460ZM1518.43 460L1515.94 461.664L1516.83 463H1518.43V460ZM1486.43 412L1488.93 410.336L1486.43 406.592L1483.94 410.336L1486.43 412ZM1454.43 460V463H1456.04L1456.93 461.664L1454.43 460ZM1419.18 460L1421.63 461.73L1469.63 393.73L1467.18 392L1464.73 390.27L1416.73 458.27L1419.18 460ZM1467.18 392L1469.63 390.263L1423.13 324.763L1420.68 326.5L1418.24 328.237L1464.74 393.737L1467.18 392ZM1420.68 326.5V329.5H1455.43V326.5V323.5H1420.68V326.5ZM1455.43 326.5L1452.95 328.18L1483.7 373.68L1486.18 372L1488.67 370.32L1457.92 324.82L1455.43 326.5ZM1486.18 372L1488.69 373.642L1518.44 328.142L1515.93 326.5L1513.42 324.858L1483.67 370.358L1486.18 372ZM1515.93 326.5V329.5H1551.43V326.5V323.5H1515.93V326.5ZM1551.43 326.5L1548.97 324.78L1502.97 390.53L1505.43 392.25L1507.89 393.97L1553.89 328.22L1551.43 326.5ZM1505.43 392.25L1502.98 393.972L1550.48 461.722L1552.93 460L1555.39 458.278L1507.89 390.528L1505.43 392.25ZM1552.93 460V457H1518.43V460V463H1552.93V460ZM1518.43 460L1520.93 458.336L1488.93 410.336L1486.43 412L1483.94 413.664L1515.94 461.664L1518.43 460ZM1486.43 412L1483.94 410.336L1451.94 458.336L1454.43 460L1456.93 461.664L1488.93 413.664L1486.43 412ZM1454.43 460V457H1419.18V460V463H1454.43V460ZM1678.51 402.25V405.25H1681.51V402.25H1678.51ZM1583.51 402.25V399.25H1580.35L1580.51 402.409L1583.51 402.25ZM1643.76 419L1643.94 416.006L1641.61 415.863L1640.9 418.088L1643.76 419ZM1676.51 421L1679.4 421.806L1680.4 418.232L1676.69 418.006L1676.51 421ZM1645.26 380.75V383.75H1648.47L1648.25 380.544L1645.26 380.75ZM1583.51 380.75L1580.53 380.391L1580.13 383.75H1583.51V380.75ZM1615.76 463V460C1596.48 460 1580.93 453.391 1570.2 441.919C1559.45 430.426 1553.26 413.775 1553.26 393.25H1550.26H1547.26C1547.26 414.975 1553.82 433.199 1565.82 446.019C1577.83 458.859 1595.04 466 1615.76 466V463ZM1550.26 393.25H1553.26C1553.26 372.853 1559.44 356.193 1570.12 344.663C1580.77 333.155 1596.13 326.5 1615.01 326.5V323.5V320.5C1594.64 320.5 1577.63 327.72 1565.71 340.587C1553.83 353.432 1547.26 371.647 1547.26 393.25H1550.26ZM1615.01 323.5V326.5C1633.41 326.5 1648.43 332.852 1658.88 344.389C1669.36 355.957 1675.51 373.048 1675.51 395H1678.51H1681.51C1681.51 371.952 1675.04 353.293 1663.33 340.361C1651.59 327.398 1634.86 320.5 1615.01 320.5V323.5ZM1678.51 395H1675.51V402.25H1678.51H1681.51V395H1678.51ZM1678.51 402.25V399.25H1583.51V402.25V405.25H1678.51V402.25ZM1583.51 402.25L1580.51 402.409C1581.16 414.625 1584.7 424.207 1590.93 430.756C1597.2 437.345 1605.87 440.5 1616.01 440.5V437.5V434.5C1607.15 434.5 1600.19 431.78 1595.28 426.619C1590.32 421.418 1587.11 413.375 1586.51 402.091L1583.51 402.25ZM1616.01 437.5V440.5C1623.61 440.5 1630.22 438.698 1635.5 435.145C1640.79 431.578 1644.56 426.372 1646.62 419.912L1643.76 419L1640.9 418.088C1639.21 423.378 1636.23 427.422 1632.15 430.168C1628.05 432.927 1622.66 434.5 1616.01 434.5V437.5ZM1643.76 419L1643.58 421.994L1676.33 423.994L1676.51 421L1676.69 418.006L1643.94 416.006L1643.76 419ZM1676.51 421L1673.62 420.194C1666.79 444.698 1645.38 460 1615.76 460V463V466C1647.64 466 1671.73 449.302 1679.4 421.806L1676.51 421ZM1645.26 380.75L1648.25 380.544C1647.47 369.184 1643.98 360.417 1638.07 354.479C1632.15 348.515 1624.13 345.75 1615.01 345.75V348.75V351.75C1622.89 351.75 1629.25 354.11 1633.82 358.709C1638.42 363.333 1641.55 370.566 1642.27 380.956L1645.26 380.75ZM1615.01 348.75V345.75C1605.69 345.75 1597.65 348.808 1591.61 354.847C1585.6 360.851 1581.84 369.543 1580.53 380.391L1583.51 380.75L1586.49 381.109C1587.68 371.207 1591.04 363.899 1595.85 359.09C1600.62 354.317 1607.07 351.75 1615.01 351.75V348.75ZM1583.51 380.75V383.75H1645.26V380.75V377.75H1583.51V380.75ZM1687.23 418L1687.1 415.003L1684.01 415.145L1684.24 418.228L1687.23 418ZM1719.98 416.5L1722.94 416.024L1722.52 413.381L1719.85 413.503L1719.98 416.5ZM1744.23 406.25L1744.74 403.293L1744.74 403.293L1744.23 406.25ZM1805.23 368.5L1805.37 371.497L1808.68 371.344L1808.2 368.068L1805.23 368.5ZM1772.73 370L1769.77 370.493L1770.21 373.12L1772.87 372.997L1772.73 370ZM1750.98 382.75L1750.51 385.712L1750.52 385.713L1750.52 385.715L1750.98 382.75ZM1749.48 463V460C1730.18 460 1715.83 455.418 1706.12 447.965C1696.47 440.554 1691.16 430.114 1690.22 417.772L1687.23 418L1684.24 418.228C1685.3 432.136 1691.37 444.196 1702.47 452.723C1713.51 461.207 1729.28 466 1749.48 466V463ZM1687.23 418L1687.37 420.997L1720.12 419.497L1719.98 416.5L1719.85 413.503L1687.1 415.003L1687.23 418ZM1719.98 416.5L1717.02 416.976C1718.23 424.498 1721.26 430.772 1726.79 435.111C1732.28 439.416 1739.83 441.5 1749.48 441.5V438.5V435.5C1740.63 435.5 1734.56 433.584 1730.49 430.389C1726.46 427.228 1723.99 422.502 1722.94 416.024L1719.98 416.5ZM1749.48 438.5V441.5C1757.19 441.5 1763.83 440.361 1768.63 437.52C1773.68 434.538 1776.48 429.801 1776.48 423.5H1773.48H1770.48C1770.48 427.699 1768.78 430.462 1765.58 432.355C1762.14 434.389 1756.78 435.5 1749.48 435.5V438.5ZM1773.48 423.5H1776.48C1776.48 421.023 1776.18 418.588 1775.1 416.321C1774.01 414.007 1772.24 412.128 1769.74 410.555C1764.95 407.541 1757.07 405.411 1744.74 403.293L1744.23 406.25L1743.72 409.207C1756.14 411.339 1762.89 413.334 1766.54 415.632C1768.26 416.715 1769.16 417.789 1769.68 418.89C1770.22 420.037 1770.48 421.477 1770.48 423.5H1773.48ZM1744.23 406.25L1744.74 403.293C1724.31 399.805 1711.51 395.397 1703.82 389.414C1696.42 383.654 1693.48 376.206 1693.48 365.5H1690.48H1687.48C1687.48 377.544 1690.92 386.971 1700.14 394.149C1709.08 401.103 1723.15 405.695 1743.73 409.207L1744.23 406.25ZM1690.48 365.5H1693.48C1693.48 353.99 1697.98 344.387 1706.7 337.585C1715.51 330.717 1728.91 326.5 1746.98 326.5V323.5V320.5C1728.06 320.5 1713.2 324.908 1703.01 332.853C1692.74 340.863 1687.48 352.26 1687.48 365.5H1690.48ZM1746.98 323.5V326.5C1764.44 326.5 1777.34 331.161 1786.28 338.644C1795.21 346.125 1800.48 356.658 1802.26 368.932L1805.23 368.5L1808.2 368.068C1806.24 354.592 1800.38 342.625 1790.13 334.043C1779.88 325.464 1765.52 320.5 1746.98 320.5V323.5ZM1805.23 368.5L1805.09 365.503L1772.59 367.003L1772.73 370L1772.87 372.997L1805.37 371.497L1805.23 368.5ZM1772.73 370L1775.69 369.507C1774.48 362.216 1771.39 356.034 1766.39 351.676C1761.38 347.308 1754.7 345 1746.73 345V348V351C1753.51 351 1758.71 352.942 1762.45 356.199C1766.2 359.466 1768.74 364.284 1769.77 370.493L1772.73 370ZM1746.73 348V345C1738.71 345 1732.24 346.768 1727.7 350.201C1723.07 353.709 1720.73 358.744 1720.73 364.5H1723.73H1726.73C1726.73 360.506 1728.27 357.291 1731.32 354.987C1734.47 352.606 1739.5 351 1746.73 351V348ZM1723.73 364.5H1720.73C1720.73 367.508 1721.22 370.277 1722.46 372.763C1723.7 375.271 1725.6 377.293 1728.12 378.945C1732.99 382.144 1740.38 384.087 1750.51 385.712L1750.98 382.75L1751.46 379.788C1741.33 378.163 1735.1 376.356 1731.41 373.93C1729.64 372.77 1728.53 371.51 1727.83 370.097C1727.12 368.661 1726.73 366.867 1726.73 364.5H1723.73ZM1750.98 382.75L1750.52 385.715C1771.43 388.95 1784.75 393.367 1792.82 399.375C1800.6 405.172 1803.73 412.631 1803.73 423H1806.73H1809.73C1809.73 411.119 1805.99 401.703 1796.4 394.563C1787.09 387.633 1772.53 383.05 1751.44 379.785L1750.98 382.75ZM1806.73 423H1803.73C1803.73 434.825 1798.46 443.915 1789.18 450.168C1779.78 456.505 1766.12 460 1749.48 460V463V466C1766.84 466 1781.81 462.37 1792.53 455.144C1803.38 447.835 1809.73 436.925 1809.73 423H1806.73Z" fill="white" fill-opacity="0.93" mask="url(#path-3-outside-2_611_97)"/>
</g>
<g style="mix-blend-mode:plus-lighter" filter="url(#filter2_f_611_97)">
<ellipse cx="217.5" cy="504" rx="205.5" ry="160" fill="#E78727"/>
</g>
<g style="mix-blend-mode:plus-lighter" filter="url(#filter3_f_611_97)">
<ellipse cx="-50.5" cy="532" rx="205.5" ry="160" fill="#E78727"/>
</g>
<g style="mix-blend-mode:plus-lighter" filter="url(#filter4_f_611_97)">
<ellipse cx="1793.5" cy="460" rx="205.5" ry="160" fill="#E78727"/>
</g>
<g style="mix-blend-mode:plus-lighter" filter="url(#filter5_f_611_97)">
<ellipse cx="1372.5" cy="532" rx="205.5" ry="160" fill="#E78727"/>
</g>
<g style="mix-blend-mode:plus-lighter" filter="url(#filter6_f_611_97)">
<ellipse cx="1267.5" cy="538" rx="205.5" ry="160" fill="#E78727"/>
</g>
<g style="mix-blend-mode:plus-lighter" filter="url(#filter7_f_611_97)">
<ellipse cx="884.5" cy="567" rx="205.5" ry="160" fill="#E78727"/>
</g>
<g style="mix-blend-mode:plus-lighter" filter="url(#filter8_f_611_97)">
<ellipse cx="584.5" cy="567" rx="205.5" ry="160" fill="#E78727"/>
</g>
<defs>
<filter id="filter0_if_611_97" x="110.825" y="270.2" width="1708.21" height="205.1" filterUnits="userSpaceOnUse" color-interpolation-filters="sRGB">
<feFlood flood-opacity="0" result="BackgroundImageFix"/>
<feBlend mode="normal" in="SourceGraphic" in2="BackgroundImageFix" result="shape"/>
<feColorMatrix in="SourceAlpha" type="matrix" values="0 0 0 0 0 0 0 0 0 0 0 0 0 0 0 0 0 0 127 0" result="hardAlpha"/>
<feOffset dy="4"/>
<feGaussianBlur stdDeviation="6.2"/>
<feComposite in2="hardAlpha" operator="arithmetic" k2="-1" k3="1"/>
<feColorMatrix type="matrix" values="0 0 0 0 0 0 0 0 0 0 0 0 0 0 0 0 0 0 0.67 0"/>
<feBlend mode="normal" in2="shape" result="effect1_innerShadow_611_97"/>
<feGaussianBlur stdDeviation="4.65" result="effect2_foregroundBlur_611_97"/>
</filter>
<filter id="filter1_if_611_97" x="20.125" y="179.5" width="1889.61" height="386.5" filterUnits="userSpaceOnUse" color-interpolation-filters="sRGB">
<feFlood flood-opacity="0" result="BackgroundImageFix"/>
<feBlend mode="normal" in="SourceGraphic" in2="BackgroundImageFix" result="shape"/>
<feColorMatrix in="SourceAlpha" type="matrix" values="0 0 0 0 0 0 0 0 0 0 0 0 0 0 0 0 0 0 127 0" result="hardAlpha"/>
<feOffset dy="4"/>
<feGaussianBlur stdDeviation="6.2"/>
<feComposite in2="hardAlpha" operator="arithmetic" k2="-1" k3="1"/>
<feColorMatrix type="matrix" values="0 0 0 0 0 0 0 0 0 0 0 0 0 0 0 0 0 0 0.67 0"/>
<feBlend mode="normal" in2="shape" result="effect1_innerShadow_611_97"/>
<feGaussianBlur stdDeviation="50" result="effect2_foregroundBlur_611_97"/>
</filter>
<filter id="filter2_f_611_97" x="-288" y="44" width="1011" height="920" filterUnits="userSpaceOnUse" color-interpolation-filters="sRGB">
<feFlood flood-opacity="0" result="BackgroundImageFix"/>
<feBlend mode="normal" in="SourceGraphic" in2="BackgroundImageFix" result="shape"/>
<feGaussianBlur stdDeviation="150" result="effect1_foregroundBlur_611_97"/>
</filter>
<filter id="filter3_f_611_97" x="-556" y="72" width="1011" height="920" filterUnits="userSpaceOnUse" color-interpolation-filters="sRGB">
<feFlood flood-opacity="0" result="BackgroundImageFix"/>
<feBlend mode="normal" in="SourceGraphic" in2="BackgroundImageFix" result="shape"/>
<feGaussianBlur stdDeviation="150" result="effect1_foregroundBlur_611_97"/>
</filter>
<filter id="filter4_f_611_97" x="1288" y="0" width="1011" height="920" filterUnits="userSpaceOnUse" color-interpolation-filters="sRGB">
<feFlood flood-opacity="0" result="BackgroundImageFix"/>
<feBlend mode="normal" in="SourceGraphic" in2="BackgroundImageFix" result="shape"/>
<feGaussianBlur stdDeviation="150" result="effect1_foregroundBlur_611_97"/>
</filter>
<filter id="filter5_f_611_97" x="867" y="72" width="1011" height="920" filterUnits="userSpaceOnUse" color-interpolation-filters="sRGB">
<feFlood flood-opacity="0" result="BackgroundImageFix"/>
<feBlend mode="normal" in="SourceGraphic" in2="BackgroundImageFix" result="shape"/>
<feGaussianBlur stdDeviation="150" result="effect1_foregroundBlur_611_97"/>
</filter>
<filter id="filter6_f_611_97" x="762" y="78" width="1011" height="920" filterUnits="userSpaceOnUse" color-interpolation-filters="sRGB">
<feFlood flood-opacity="0" result="BackgroundImageFix"/>
<feBlend mode="normal" in="SourceGraphic" in2="BackgroundImageFix" result="shape"/>
<feGaussianBlur stdDeviation="150" result="effect1_foregroundBlur_611_97"/>
</filter>
<filter id="filter7_f_611_97" x="379" y="107" width="1011" height="920" filterUnits="userSpaceOnUse" color-interpolation-filters="sRGB">
<feFlood flood-opacity="0" result="BackgroundImageFix"/>
<feBlend mode="normal" in="SourceGraphic" in2="BackgroundImageFix" result="shape"/>
<feGaussianBlur stdDeviation="150" result="effect1_foregroundBlur_611_97"/>
</filter>
<filter id="filter8_f_611_97" x="79" y="107" width="1011" height="920" filterUnits="userSpaceOnUse" color-interpolation-filters="sRGB">
<feFlood flood-opacity="0" result="BackgroundImageFix"/>
<feBlend mode="normal" in="SourceGraphic" in2="BackgroundImageFix" result="shape"/>
<feGaussianBlur stdDeviation="150" result="effect1_foregroundBlur_611_97"/>
</filter>
<linearGradient id="paint0_linear_611_97" x1="1555.06" y1="233.316" x2="1555.47" y2="470.438" gradientUnits="userSpaceOnUse">
<stop offset="0.0297806" stop-color="#FFBF7E"/>
<stop offset="0.50727" stop-color="#FFA041"/>
<stop offset="1" stop-color="#FFBF7E"/>
</linearGradient>
<linearGradient id="paint1_linear_611_97" x1="983" y1="255.5" x2="983" y2="460" gradientUnits="userSpaceOnUse">
<stop stop-color="#FF8C00"/>
<stop offset="1"/>
</linearGradient>
<linearGradient id="paint2_linear_611_97" x1="1555.06" y1="233.316" x2="1555.47" y2="470.438" gradientUnits="userSpaceOnUse">
<stop offset="0.0297806" stop-color="#FFBF7E"/>
<stop offset="0.50727" stop-color="#FFA041"/>
<stop offset="1" stop-color="#FFBF7E"/>
</linearGradient>
<linearGradient id="paint3_linear_611_97" x1="983" y1="255.5" x2="983" y2="460" gradientUnits="userSpaceOnUse">
<stop stop-color="#FF8C00"/>
<stop offset="1"/>
</linearGradient>
</defs>
</svg>
