<svg width="164" height="31" viewBox="0 0 164 31" fill="none" xmlns="http://www.w3.org/2000/svg">
<rect x="0.4" y="0.4" width="163.2" height="29.3225" rx="14.6612" fill="url(#paint0_linear_293_20447)" fill-opacity="0.2"/>
<rect x="0.4" y="0.4" width="163.2" height="29.3225" rx="14.6612" fill="url(#paint1_radial_293_20447)" fill-opacity="0.3" style="mix-blend-mode:screen"/>
<rect x="0.4" y="0.4" width="163.2" height="29.3225" rx="14.6612" stroke="white" stroke-width="0.8" style="mix-blend-mode:soft-light"/>
<rect x="0.4" y="0.4" width="163.2" height="29.3225" rx="14.6612" stroke="url(#paint2_radial_293_20447)" stroke-width="0.8" style="mix-blend-mode:plus-lighter"/>
<path d="M15.592 20.0613V10.3247H19.1576C19.8486 10.3247 20.4207 10.4388 20.8739 10.667C21.3271 10.8921 21.6663 11.1979 21.8913 11.5846C22.1163 11.9681 22.2288 12.4007 22.2288 12.8825C22.2288 13.2882 22.1544 13.6305 22.0054 13.9094C21.8564 14.1851 21.6567 14.407 21.4064 14.575C21.1591 14.7398 20.8866 14.8602 20.5886 14.9363V15.0314C20.9119 15.0472 21.2273 15.1518 21.5347 15.3451C21.8453 15.5353 22.1021 15.8063 22.3049 16.1581C22.5077 16.5099 22.6092 16.9378 22.6092 17.4417C22.6092 17.9393 22.4919 18.3862 22.2574 18.7824C22.026 19.1754 21.6678 19.4876 21.1829 19.719C20.698 19.9472 20.0784 20.0613 19.324 20.0613H15.592ZM17.061 18.8014H19.1814C19.885 18.8014 20.389 18.6651 20.6932 18.3926C20.9975 18.12 21.1496 17.7793 21.1496 17.3704C21.1496 17.063 21.072 16.7809 20.9167 16.5242C20.7614 16.2674 20.5395 16.063 20.2511 15.9109C19.9658 15.7588 19.6267 15.6827 19.2337 15.6827H17.061V18.8014ZM17.061 14.5369H19.0293C19.3589 14.5369 19.6552 14.4735 19.9183 14.3468C20.1845 14.22 20.3953 14.0425 20.5506 13.8143C20.7091 13.5829 20.7883 13.3104 20.7883 12.9966C20.7883 12.5941 20.6473 12.2565 20.3652 11.9839C20.0831 11.7114 19.6505 11.5751 19.0673 11.5751H17.061V14.5369ZM28.5955 17.0329V12.7589H30.0218V20.0613H28.6241V18.7967H28.548C28.38 19.1865 28.1106 19.5114 27.7398 19.7713C27.3721 20.028 26.9141 20.1564 26.3658 20.1564C25.8967 20.1564 25.4815 20.0534 25.1202 19.8473C24.7621 19.6382 24.48 19.3291 24.274 18.9203C24.0711 18.5114 23.9697 18.0059 23.9697 17.4037V12.7589H25.3912V17.2325C25.3912 17.7301 25.5291 18.1263 25.8048 18.4211C26.0806 18.7158 26.4387 18.8632 26.8793 18.8632C27.1455 18.8632 27.4102 18.7967 27.6732 18.6636C27.9395 18.5304 28.1597 18.3292 28.334 18.0598C28.5115 17.7904 28.5987 17.4481 28.5955 17.0329ZM31.664 20.0613V12.7589H33.0855V20.0613H31.664ZM32.3819 11.6321C32.1347 11.6321 31.9223 11.5497 31.7448 11.3849C31.5705 11.2169 31.4834 11.0173 31.4834 10.7859C31.4834 10.5513 31.5705 10.3517 31.7448 10.1869C31.9223 10.0189 32.1347 9.93489 32.3819 9.93489C32.6291 9.93489 32.8399 10.0189 33.0142 10.1869C33.1917 10.3517 33.2804 10.5513 33.2804 10.7859C33.2804 11.0173 33.1917 11.2169 33.0142 11.3849C32.8399 11.5497 32.6291 11.6321 32.3819 11.6321ZM36.1516 10.3247V20.0613H34.7301V10.3247H36.1516ZM41.205 12.7589V13.8999H37.2162V12.7589H41.205ZM38.2859 11.0093H39.7074V17.9171C39.7074 18.1929 39.7486 18.4005 39.831 18.5399C39.9134 18.6762 40.0196 18.7697 40.1496 18.8204C40.2827 18.868 40.4269 18.8918 40.5822 18.8918C40.6963 18.8918 40.7961 18.8838 40.8817 18.868C40.9673 18.8521 41.0338 18.8395 41.0814 18.8299L41.3381 20.0042C41.2557 20.0359 41.1384 20.0676 40.9863 20.0993C40.8342 20.1342 40.644 20.1532 40.4158 20.1564C40.0418 20.1627 39.6931 20.0961 39.3699 19.9567C39.0466 19.8172 38.7851 19.6017 38.5854 19.3101C38.3858 19.0185 38.2859 18.6525 38.2859 18.2119V11.0093ZM49.2603 12.7589V13.8999H45.1336V12.7589H49.2603ZM46.2651 20.0613V11.9126C46.2651 11.4562 46.365 11.0775 46.5646 10.7764C46.7643 10.4721 47.029 10.2455 47.3586 10.0965C47.6882 9.9444 48.0464 9.86833 48.433 9.86833C48.7183 9.86833 48.9623 9.8921 49.1652 9.93964C49.368 9.98401 49.5186 10.0252 49.6168 10.0633L49.284 11.2138C49.2175 11.1947 49.1319 11.1726 49.0273 11.1472C48.9227 11.1187 48.7959 11.1044 48.647 11.1044C48.3015 11.1044 48.0543 11.19 47.9053 11.3611C47.7595 11.5323 47.6866 11.7795 47.6866 12.1028V20.0613H46.2651ZM53.2475 20.2087C52.5629 20.2087 51.9654 20.0518 51.4552 19.738C50.9449 19.4242 50.5487 18.9853 50.2666 18.4211C49.9845 17.8569 49.8435 17.1977 49.8435 16.4434C49.8435 15.6859 49.9845 15.0234 50.2666 14.4561C50.5487 13.8888 50.9449 13.4482 51.4552 13.1344C51.9654 12.8207 52.5629 12.6638 53.2475 12.6638C53.9321 12.6638 54.5295 12.8207 55.0398 13.1344C55.5501 13.4482 55.9463 13.8888 56.2284 14.4561C56.5104 15.0234 56.6515 15.6859 56.6515 16.4434C56.6515 17.1977 56.5104 17.8569 56.2284 18.4211C55.9463 18.9853 55.5501 19.4242 55.0398 19.738C54.5295 20.0518 53.9321 20.2087 53.2475 20.2087ZM53.2522 19.0154C53.696 19.0154 54.0636 18.8981 54.3552 18.6636C54.6468 18.429 54.8623 18.1168 55.0018 17.727C55.1444 17.3371 55.2157 16.9077 55.2157 16.4386C55.2157 15.9727 55.1444 15.5448 55.0018 15.155C54.8623 14.762 54.6468 14.4466 54.3552 14.2089C54.0636 13.9712 53.696 13.8523 53.2522 13.8523C52.8054 13.8523 52.4345 13.9712 52.1398 14.2089C51.8482 14.4466 51.6311 14.762 51.4884 15.155C51.349 15.5448 51.2793 15.9727 51.2793 16.4386C51.2793 16.9077 51.349 17.3371 51.4884 17.727C51.6311 18.1168 51.8482 18.429 52.1398 18.6636C52.4345 18.8981 52.8054 19.0154 53.2522 19.0154ZM57.9704 20.0613V12.7589H59.3444V13.9189H59.4205C59.5536 13.5259 59.7881 13.2169 60.1241 12.9918C60.4632 12.7636 60.8467 12.6495 61.2746 12.6495C61.3633 12.6495 61.4679 12.6527 61.5884 12.659C61.712 12.6654 61.8086 12.6733 61.8784 12.6828V14.0425C61.8213 14.0266 61.7199 14.0092 61.5741 13.9902C61.4283 13.968 61.2825 13.9569 61.1367 13.9569C60.8007 13.9569 60.5012 14.0282 60.2382 14.1709C59.9783 14.3103 59.7723 14.5052 59.6201 14.7556C59.468 15.0028 59.3919 15.2849 59.3919 15.6019V20.0613H57.9704ZM74.317 13.491H72.8337C72.7766 13.1741 72.6705 12.8952 72.5152 12.6543C72.3599 12.4134 72.1697 12.209 71.9447 12.041C71.7196 11.873 71.4677 11.7462 71.1887 11.6607C70.913 11.5751 70.6198 11.5323 70.3092 11.5323C69.7482 11.5323 69.2459 11.6733 68.8021 11.9554C68.3616 12.2375 68.013 12.6511 67.7562 13.1963C67.5027 13.7414 67.3759 14.407 67.3759 15.193C67.3759 15.9854 67.5027 16.6541 67.7562 17.1993C68.013 17.7444 68.3632 18.1564 68.8069 18.4354C69.2506 18.7143 69.7498 18.8537 70.3045 18.8537C70.6119 18.8537 70.9035 18.8125 71.1792 18.7301C71.4581 18.6445 71.7101 18.5193 71.9351 18.3545C72.1602 18.1897 72.3503 17.9885 72.5056 17.7508C72.6641 17.5099 72.7735 17.2341 72.8337 16.9235L74.317 16.9283C74.2378 17.4069 74.084 17.8474 73.8558 18.2499C73.6308 18.6493 73.3408 18.9948 72.9858 19.2863C72.634 19.5748 72.2315 19.7982 71.7783 19.9567C71.325 20.1152 70.8306 20.1944 70.295 20.1944C69.4519 20.1944 68.7007 19.9947 68.0415 19.5954C67.3822 19.1929 66.8624 18.6176 66.4821 17.8696C66.1049 17.1216 65.9164 16.2294 65.9164 15.193C65.9164 14.1534 66.1065 13.2612 66.4869 12.5164C66.8672 11.7684 67.387 11.1947 68.0462 10.7954C68.7055 10.3929 69.4551 10.1916 70.295 10.1916C70.8116 10.1916 71.2933 10.2661 71.7402 10.4151C72.1903 10.5609 72.5944 10.7764 72.9525 11.0616C73.3107 11.3437 73.607 11.6892 73.8416 12.098C74.0761 12.5037 74.2346 12.9681 74.317 13.491ZM78.7689 20.2087C78.0843 20.2087 77.4869 20.0518 76.9766 19.738C76.4663 19.4242 76.0702 18.9853 75.7881 18.4211C75.506 17.8569 75.365 17.1977 75.365 16.4434C75.365 15.6859 75.506 15.0234 75.7881 14.4561C76.0702 13.8888 76.4663 13.4482 76.9766 13.1344C77.4869 12.8207 78.0843 12.6638 78.7689 12.6638C79.4535 12.6638 80.051 12.8207 80.5613 13.1344C81.0715 13.4482 81.4677 13.8888 81.7498 14.4561C82.0319 15.0234 82.1729 15.6859 82.1729 16.4434C82.1729 17.1977 82.0319 17.8569 81.7498 18.4211C81.4677 18.9853 81.0715 19.4242 80.5613 19.738C80.051 20.0518 79.4535 20.2087 78.7689 20.2087ZM78.7737 19.0154C79.2174 19.0154 79.5851 18.8981 79.8767 18.6636C80.1683 18.429 80.3838 18.1168 80.5232 17.727C80.6659 17.3371 80.7372 16.9077 80.7372 16.4386C80.7372 15.9727 80.6659 15.5448 80.5232 15.155C80.3838 14.762 80.1683 14.4466 79.8767 14.2089C79.5851 13.9712 79.2174 13.8523 78.7737 13.8523C78.3268 13.8523 77.956 13.9712 77.6612 14.2089C77.3696 14.4466 77.1525 14.762 77.0099 15.155C76.8704 15.5448 76.8007 15.9727 76.8007 16.4386C76.8007 16.9077 76.8704 17.3371 77.0099 17.727C77.1525 18.1168 77.3696 18.429 77.6612 18.6636C77.956 18.8981 78.3268 19.0154 78.7737 19.0154ZM84.9134 10.3247V20.0613H83.4919V10.3247H84.9134ZM89.2916 20.2039C88.7021 20.2039 88.176 20.0534 87.7133 19.7523C87.2537 19.448 86.8924 19.0154 86.6293 18.4544C86.3694 17.8902 86.2395 17.2135 86.2395 16.4243C86.2395 15.6351 86.371 14.9601 86.6341 14.3991C86.9003 13.8381 87.2648 13.4086 87.7275 13.1107C88.1903 12.8127 88.7148 12.6638 89.3011 12.6638C89.7544 12.6638 90.1189 12.7399 90.3946 12.892C90.6735 13.0409 90.889 13.2153 91.0412 13.4149C91.1965 13.6146 91.3169 13.7905 91.4025 13.9427H91.4881V10.3247H92.9096V20.0613H91.5213V18.925H91.4025C91.3169 19.0803 91.1933 19.2578 91.0317 19.4575C90.8732 19.6572 90.6545 19.8315 90.3756 19.9805C90.0967 20.1294 89.7354 20.2039 89.2916 20.2039ZM89.6054 18.9916C90.0143 18.9916 90.3597 18.8838 90.6418 18.6683C90.9271 18.4496 91.1426 18.1469 91.2884 17.7603C91.4374 17.3736 91.5118 16.9235 91.5118 16.4101C91.5118 15.903 91.4389 15.4592 91.2931 15.0789C91.1474 14.6986 90.9334 14.4022 90.6513 14.1899C90.3693 13.9775 90.0206 13.8713 89.6054 13.8713C89.1775 13.8713 88.821 13.9823 88.5357 14.2041C88.2505 14.426 88.035 14.7287 87.8892 15.1122C87.7465 15.4957 87.6752 15.9283 87.6752 16.4101C87.6752 16.8982 87.7481 17.3371 87.8939 17.727C88.0397 18.1168 88.2552 18.4258 88.5405 18.654C88.8289 18.8791 89.1839 18.9916 89.6054 18.9916ZM98.0601 20.0613V10.3247H104.164V11.5893H99.5291V14.5559H103.846V15.8158H99.5291V18.7967H104.221V20.0613H98.0601ZM105.745 20.0613V12.7589H107.109V13.9474H107.2C107.352 13.5449 107.601 13.2311 107.946 13.0061C108.291 12.7779 108.705 12.6638 109.187 12.6638C109.675 12.6638 110.084 12.7779 110.413 13.0061C110.746 13.2343 110.992 13.5481 111.15 13.9474H111.226C111.401 13.5576 111.678 13.247 112.058 13.0156C112.439 12.7811 112.892 12.6638 113.418 12.6638C114.08 12.6638 114.621 12.8714 115.039 13.2866C115.461 13.7018 115.672 14.3277 115.672 15.1645V20.0613H114.25V15.2976C114.25 14.8032 114.115 14.445 113.846 14.2232C113.577 14.0013 113.255 13.8904 112.881 13.8904C112.418 13.8904 112.058 14.033 111.802 14.3182C111.545 14.6003 111.417 14.9632 111.417 15.4069V20.0613H110V15.2073C110 14.8111 109.876 14.4926 109.629 14.2517C109.382 14.0108 109.06 13.8904 108.664 13.8904C108.395 13.8904 108.146 13.9617 107.917 14.1043C107.692 14.2438 107.51 14.4387 107.371 14.6891C107.234 14.9394 107.166 15.2295 107.166 15.5591V20.0613H105.745ZM119.434 20.2229C118.971 20.2229 118.553 20.1373 118.179 19.9662C117.805 19.7919 117.509 19.5399 117.29 19.2103C117.074 18.8807 116.967 18.4766 116.967 17.998C116.967 17.5859 117.046 17.2468 117.204 16.9806C117.363 16.7143 117.577 16.5036 117.846 16.3483C118.116 16.193 118.417 16.0757 118.75 15.9965C119.082 15.9172 119.421 15.857 119.767 15.8158C120.204 15.7651 120.559 15.7239 120.832 15.6922C121.104 15.6573 121.303 15.6019 121.426 15.5258C121.55 15.4497 121.612 15.3261 121.612 15.155V15.1217C121.612 14.7065 121.494 14.3848 121.26 14.1566C121.028 13.9284 120.683 13.8143 120.223 13.8143C119.745 13.8143 119.368 13.9205 119.092 14.1328C118.819 14.342 118.631 14.575 118.526 14.8317L117.19 14.5274C117.349 14.0837 117.58 13.7255 117.884 13.453C118.192 13.1772 118.545 12.9776 118.944 12.854C119.344 12.7272 119.764 12.6638 120.204 12.6638C120.496 12.6638 120.805 12.6986 121.131 12.7684C121.461 12.8349 121.768 12.9585 122.054 13.1392C122.342 13.3199 122.578 13.5782 122.762 13.9141C122.946 14.2469 123.038 14.6796 123.038 15.212V20.0613H121.65V19.0629H121.593C121.501 19.2467 121.363 19.4274 121.179 19.6049C120.995 19.7824 120.759 19.9297 120.471 20.047C120.182 20.1643 119.837 20.2229 119.434 20.2229ZM119.743 19.0819C120.136 19.0819 120.472 19.0043 120.751 18.849C121.033 18.6937 121.247 18.4908 121.393 18.2404C121.542 17.9869 121.616 17.7159 121.616 17.4275V16.4861C121.566 16.5369 121.467 16.5844 121.322 16.6288C121.179 16.67 121.016 16.7064 120.832 16.7381C120.648 16.7666 120.469 16.7936 120.295 16.8189C120.12 16.8411 119.975 16.8601 119.857 16.876C119.582 16.9108 119.33 16.9695 119.101 17.0519C118.876 17.1343 118.696 17.2531 118.559 17.4084C118.426 17.5606 118.36 17.7634 118.36 18.017C118.36 18.3688 118.49 18.635 118.75 18.8157C119.009 18.9932 119.341 19.0819 119.743 19.0819ZM124.663 20.0613V12.7589H126.085V20.0613H124.663ZM125.381 11.6321C125.134 11.6321 124.922 11.5497 124.744 11.3849C124.57 11.2169 124.483 11.0173 124.483 10.7859C124.483 10.5513 124.57 10.3517 124.744 10.1869C124.922 10.0189 125.134 9.93489 125.381 9.93489C125.629 9.93489 125.839 10.0189 126.014 10.1869C126.191 10.3517 126.28 10.5513 126.28 10.7859C126.28 11.0173 126.191 11.2169 126.014 11.3849C125.839 11.5497 125.629 11.6321 125.381 11.6321ZM129.151 10.3247V20.0613H127.73V10.3247H129.151ZM133.943 20.2087C133.223 20.2087 132.604 20.0549 132.084 19.7475C131.567 19.4369 131.168 19.0011 130.886 18.4401C130.607 17.8759 130.468 17.2151 130.468 16.4576C130.468 15.7096 130.607 15.0504 130.886 14.4799C131.168 13.9094 131.561 13.4641 132.065 13.144C132.572 12.8238 133.165 12.6638 133.843 12.6638C134.255 12.6638 134.654 12.7319 135.041 12.8682C135.428 13.0045 135.775 13.2184 136.082 13.51C136.39 13.8016 136.632 14.1804 136.81 14.6463C136.987 15.109 137.076 15.6716 137.076 16.334V16.8379H131.271V15.773H135.683C135.683 15.399 135.607 15.0678 135.455 14.7794C135.303 14.4878 135.089 14.258 134.813 14.09C134.54 13.9221 134.22 13.8381 133.853 13.8381C133.453 13.8381 133.105 13.9363 132.807 14.1328C132.512 14.3262 132.284 14.5797 132.122 14.8935C131.964 15.2041 131.884 15.5416 131.884 15.9061V16.7381C131.884 17.2262 131.97 17.6414 132.141 17.9837C132.315 18.326 132.558 18.5875 132.868 18.7681C133.179 18.9456 133.542 19.0344 133.957 19.0344C134.227 19.0344 134.472 18.9963 134.694 18.9203C134.916 18.841 135.108 18.7238 135.269 18.5685C135.431 18.4132 135.555 18.2214 135.64 17.9932L136.986 18.2357C136.878 18.6319 136.684 18.9789 136.406 19.2768C136.13 19.5716 135.783 19.8014 135.364 19.9662C134.949 20.1278 134.475 20.2087 133.943 20.2087ZM138.385 20.0613V12.7589H139.759V13.9189H139.835C139.968 13.5259 140.203 13.2169 140.539 12.9918C140.878 12.7636 141.262 12.6495 141.689 12.6495C141.778 12.6495 141.883 12.6527 142.003 12.659C142.127 12.6654 142.224 12.6733 142.293 12.6828V14.0425C142.236 14.0266 142.135 14.0092 141.989 13.9902C141.843 13.968 141.697 13.9569 141.552 13.9569C141.216 13.9569 140.916 14.0282 140.653 14.1709C140.393 14.3103 140.187 14.5052 140.035 14.7556C139.883 15.0028 139.807 15.2849 139.807 15.6019V20.0613H138.385ZM148.728 14.5417L147.439 14.7699C147.385 14.6051 147.3 14.4482 147.183 14.2992C147.069 14.1503 146.913 14.0282 146.717 13.9331C146.52 13.8381 146.275 13.7905 145.98 13.7905C145.577 13.7905 145.241 13.8809 144.972 14.0615C144.703 14.239 144.568 14.4688 144.568 14.7509C144.568 14.9949 144.658 15.1914 144.839 15.3404C145.019 15.4893 145.311 15.6114 145.714 15.7065L146.874 15.9727C147.546 16.128 148.046 16.3673 148.376 16.6906C148.706 17.0139 148.87 17.4338 148.87 17.9504C148.87 18.3878 148.744 18.7777 148.49 19.12C148.24 19.4591 147.889 19.7253 147.439 19.9187C146.992 20.112 146.474 20.2087 145.885 20.2087C145.067 20.2087 144.4 20.0343 143.883 19.6857C143.367 19.3339 143.05 18.8347 142.932 18.1881L144.306 17.979C144.392 18.3371 144.568 18.6081 144.834 18.7919C145.1 18.9726 145.447 19.0629 145.875 19.0629C146.341 19.0629 146.714 18.9662 146.992 18.7729C147.271 18.5764 147.411 18.3371 147.411 18.055C147.411 17.8268 147.325 17.6351 147.154 17.4798C146.986 17.3245 146.728 17.2072 146.379 17.128L145.143 16.857C144.462 16.7017 143.958 16.4544 143.631 16.1153C143.308 15.7762 143.146 15.3467 143.146 14.8269C143.146 14.3959 143.267 14.0187 143.508 13.6954C143.749 13.3722 144.081 13.1202 144.506 12.9395C144.931 12.7557 145.417 12.6638 145.966 12.6638C146.755 12.6638 147.376 12.8349 147.829 13.1772C148.282 13.5164 148.582 13.9712 148.728 14.5417Z" fill="white"/>
<defs>
<linearGradient id="paint0_linear_293_20447" x1="82" y1="7.11225" x2="82" y2="41.4184" gradientUnits="userSpaceOnUse">
<stop stop-color="#FF8C00"/>
<stop offset="1" stop-color="#BE7637"/>
</linearGradient>
<radialGradient id="paint1_radial_293_20447" cx="0" cy="0" r="1" gradientUnits="userSpaceOnUse" gradientTransform="translate(25.584) scale(44.28 28.2773)">
<stop stop-color="#A98A51"/>
<stop offset="1" stop-opacity="0"/>
</radialGradient>
<radialGradient id="paint2_radial_293_20447" cx="0" cy="0" r="1" gradientTransform="matrix(170.56 56.898 7.30099 40.1847 8.2 -3.76531)" gradientUnits="userSpaceOnUse">
<stop stop-color="#FF8C00"/>
<stop offset="1" stop-color="#F3E7B6" stop-opacity="0"/>
</radialGradient>
</defs>
</svg>
