<svg width="64" height="21" viewBox="0 0 64 21" fill="none" xmlns="http://www.w3.org/2000/svg">
<path opacity="0.7" d="M0.865057 16V0.727272H6.20455C7.26847 0.727272 8.14595 0.911221 8.837 1.27912C9.52805 1.64204 10.0426 2.13175 10.3807 2.74822C10.7188 3.35973 10.8878 4.03835 10.8878 4.78409C10.8878 5.44034 10.771 5.98224 10.5373 6.4098C10.3086 6.83736 10.0053 7.17543 9.62749 7.42401C9.25462 7.67259 8.84943 7.85653 8.41193 7.97585V8.125C8.87926 8.15483 9.34908 8.31889 9.82138 8.61719C10.2937 8.91548 10.6889 9.34304 11.0071 9.89986C11.3253 10.4567 11.4844 11.1378 11.4844 11.9432C11.4844 12.7088 11.3104 13.3974 10.9624 14.0089C10.6143 14.6204 10.065 15.1051 9.31428 15.4631C8.56357 15.821 7.58665 16 6.38352 16H0.865057ZM2.71449 14.3594H6.38352C7.59162 14.3594 8.44922 14.1257 8.95632 13.6584C9.4684 13.1861 9.72443 12.6143 9.72443 11.9432C9.72443 11.4261 9.59268 10.9489 9.32919 10.5114C9.0657 10.0689 8.69034 9.71591 8.20312 9.45241C7.71591 9.18395 7.1392 9.04972 6.47301 9.04972H2.71449V14.3594ZM2.71449 7.43892H6.14489C6.7017 7.43892 7.20384 7.32955 7.65128 7.1108C8.10369 6.89205 8.46165 6.58381 8.72514 6.18608C8.99361 5.78835 9.12784 5.32102 9.12784 4.78409C9.12784 4.11293 8.89418 3.54368 8.42685 3.07635C7.95952 2.60405 7.21875 2.3679 6.20455 2.3679H2.71449V7.43892ZM17.888 16.2386C16.8539 16.2386 15.9466 15.9925 15.1661 15.5004C14.3905 15.0082 13.784 14.3196 13.3465 13.4347C12.914 12.5497 12.6977 11.5156 12.6977 10.3324C12.6977 9.1392 12.914 8.09766 13.3465 7.20774C13.784 6.31783 14.3905 5.62678 15.1661 5.13459C15.9466 4.6424 16.8539 4.39631 17.888 4.39631C18.9221 4.39631 19.827 4.6424 20.6025 5.13459C21.3831 5.62678 21.9896 6.31783 22.4221 7.20774C22.8596 8.09766 23.0784 9.1392 23.0784 10.3324C23.0784 11.5156 22.8596 12.5497 22.4221 13.4347C21.9896 14.3196 21.3831 15.0082 20.6025 15.5004C19.827 15.9925 18.9221 16.2386 17.888 16.2386ZM17.888 14.6577C18.6735 14.6577 19.3199 14.4563 19.827 14.0536C20.3341 13.6509 20.7094 13.1214 20.953 12.4652C21.1966 11.8089 21.3184 11.098 21.3184 10.3324C21.3184 9.56676 21.1966 8.85334 20.953 8.19212C20.7094 7.53089 20.3341 6.99645 19.827 6.58878C19.3199 6.18111 18.6735 5.97727 17.888 5.97727C17.1025 5.97727 16.4562 6.18111 15.9491 6.58878C15.442 6.99645 15.0667 7.53089 14.823 8.19212C14.5794 8.85334 14.4576 9.56676 14.4576 10.3324C14.4576 11.098 14.5794 11.8089 14.823 12.4652C15.0667 13.1214 15.442 13.6509 15.9491 14.0536C16.4562 14.4563 17.1025 14.6577 17.888 14.6577ZM28.0856 16.2685C27.3598 16.2685 26.701 16.1317 26.1094 15.8583C25.5178 15.5799 25.048 15.1797 24.7 14.6577C24.352 14.1307 24.178 13.4943 24.178 12.7486C24.178 12.0923 24.3072 11.5604 24.5657 11.1527C24.8243 10.7401 25.1698 10.4169 25.6023 10.1832C26.0349 9.94957 26.5121 9.77557 27.0341 9.66122C27.5611 9.5419 28.0906 9.44744 28.6226 9.37784C29.3186 9.28835 29.8829 9.22124 30.3154 9.17649C30.7529 9.12678 31.0711 9.04474 31.2699 8.9304C31.4738 8.81605 31.5757 8.61719 31.5757 8.33381V8.27415C31.5757 7.53835 31.3743 6.96662 30.9716 6.55895C30.5739 6.15128 29.9699 5.94744 29.1595 5.94744C28.3193 5.94744 27.6606 6.13139 27.1833 6.49929C26.706 6.86719 26.3704 7.25994 26.1765 7.67756L24.5061 7.08097C24.8044 6.38494 25.2021 5.84304 25.6993 5.45526C26.2014 5.0625 26.7483 4.78906 27.3399 4.63494C27.9365 4.47585 28.5231 4.39631 29.0998 4.39631C29.4677 4.39631 29.8903 4.44105 30.3676 4.53054C30.8498 4.61506 31.3147 4.79155 31.7621 5.06001C32.2145 5.32848 32.5899 5.73366 32.8882 6.27557C33.1865 6.81747 33.3356 7.54332 33.3356 8.45312V16H31.5757V14.4489H31.4862C31.3669 14.6974 31.168 14.9634 30.8896 15.2468C30.6112 15.5302 30.2408 15.7713 29.7785 15.9702C29.3161 16.169 28.7518 16.2685 28.0856 16.2685ZM28.3541 14.6875C29.0501 14.6875 29.6368 14.5508 30.114 14.2773C30.5963 14.0039 30.9592 13.6509 31.2028 13.2184C31.4514 12.7859 31.5757 12.331 31.5757 11.8537V10.2429C31.5011 10.3324 31.3371 10.4144 31.0835 10.489C30.8349 10.5586 30.5466 10.6207 30.2184 10.6754C29.8953 10.7251 29.5796 10.7699 29.2714 10.8097C28.9681 10.8445 28.722 10.8743 28.5331 10.8991C28.0757 10.9588 27.6481 11.0558 27.2504 11.19C26.8577 11.3192 26.5395 11.5156 26.2959 11.7791C26.0572 12.0376 25.9379 12.3906 25.9379 12.8381C25.9379 13.4496 26.1641 13.9119 26.6165 14.2251C27.0739 14.5334 27.6531 14.6875 28.3541 14.6875ZM35.4979 16V4.54545H37.1982V6.27557H37.3175C37.5263 5.70881 37.9042 5.24893 38.451 4.89595C38.9979 4.54297 39.6144 4.36648 40.3005 4.36648C40.4297 4.36648 40.5913 4.36896 40.7852 4.37393C40.9791 4.37891 41.1257 4.38636 41.2252 4.39631V6.18608C41.1655 6.17116 41.0288 6.14879 40.815 6.11896C40.6062 6.08416 40.385 6.06676 40.1513 6.06676C39.5945 6.06676 39.0973 6.18359 38.6598 6.41726C38.2273 6.64595 37.8843 6.96413 37.6307 7.3718C37.3821 7.7745 37.2578 8.23437 37.2578 8.75142V16H35.4979ZM46.238 16.2386C45.2835 16.2386 44.4408 15.9975 43.71 15.5153C42.9792 15.0281 42.4074 14.342 41.9948 13.457C41.5821 12.5671 41.3758 11.5156 41.3758 10.3026C41.3758 9.09943 41.5821 8.0554 41.9948 7.17045C42.4074 6.28551 42.9816 5.60192 43.7174 5.11967C44.4532 4.63743 45.3034 4.39631 46.2679 4.39631C47.0136 4.39631 47.6027 4.5206 48.0353 4.76918C48.4728 5.01278 48.8059 5.29119 49.0346 5.6044C49.2682 5.91264 49.4497 6.16619 49.5789 6.36506H49.7281V0.727272H51.488V16H49.7877V14.2401H49.5789C49.4497 14.4489 49.2657 14.7124 49.0271 15.0305C48.7885 15.3437 48.4479 15.6246 48.0054 15.8732C47.563 16.1168 46.9738 16.2386 46.238 16.2386ZM46.4767 14.6577C47.1826 14.6577 47.7792 14.4737 48.2664 14.1058C48.7537 13.733 49.124 13.2184 49.3776 12.5621C49.6311 11.9009 49.7579 11.1378 49.7579 10.2727C49.7579 9.41761 49.6336 8.66939 49.385 8.02805C49.1365 7.38175 48.7686 6.87962 48.2814 6.52166C47.7941 6.15874 47.1926 5.97727 46.4767 5.97727C45.7309 5.97727 45.1095 6.16868 44.6123 6.55149C44.1201 6.92933 43.7498 7.44389 43.5012 8.09517C43.2576 8.74148 43.1358 9.46733 43.1358 10.2727C43.1358 11.0881 43.26 11.8288 43.5086 12.495C43.7622 13.1562 44.135 13.6832 44.6272 14.076C45.1244 14.4638 45.7409 14.6577 46.4767 14.6577ZM55.0392 20.2955C54.7409 20.2955 54.475 20.2706 54.2413 20.2209C54.0076 20.1761 53.8461 20.1314 53.7566 20.0866L54.204 18.5355C54.6316 18.6449 55.0094 18.6847 55.3375 18.6548C55.6657 18.625 55.9565 18.4783 56.21 18.2148C56.4686 17.9563 56.7047 17.5362 56.9185 16.9545L57.2466 16.0597L53.0108 4.54545H54.9199L58.0819 13.6733H58.2012L61.3631 4.54545H63.2722L58.41 17.6705C58.1912 18.2621 57.9203 18.7518 57.5971 19.1396C57.274 19.5323 56.8986 19.8232 56.4711 20.0121C56.0485 20.201 55.5712 20.2955 55.0392 20.2955Z" fill="white"/>
</svg>
