<svg width="230" height="96" viewBox="0 0 230 96" fill="none" xmlns="http://www.w3.org/2000/svg">
<g filter="url(#filter0_dd_293_60439)">
<rect x="30" y="26" width="170" height="36" rx="18" fill="url(#paint0_linear_293_60439)"/>
<rect x="29" y="25" width="172" height="38" rx="19" stroke="url(#paint1_linear_293_60439)" stroke-width="2"/>
<g filter="url(#filter1_d_293_60439)">
<path d="M62.1264 42.2898H60.0014C59.9408 41.9413 59.829 41.6326 59.6662 41.3636C59.5033 41.0909 59.3006 40.8598 59.0582 40.6705C58.8158 40.4811 58.5393 40.339 58.2287 40.2443C57.9218 40.1458 57.5904 40.0966 57.2343 40.0966C56.6018 40.0966 56.0412 40.2557 55.5525 40.5739C55.0639 40.8883 54.6813 41.3504 54.4048 41.9602C54.1283 42.5663 53.99 43.3068 53.99 44.1818C53.99 45.072 54.1283 45.822 54.4048 46.4318C54.6851 47.0379 55.0677 47.4962 55.5525 47.8068C56.0412 48.1136 56.5999 48.267 57.2287 48.267C57.5771 48.267 57.9029 48.2216 58.2059 48.1307C58.5128 48.036 58.7874 47.8977 59.0298 47.7159C59.276 47.5341 59.4825 47.3106 59.6491 47.0455C59.8196 46.7803 59.937 46.4773 60.0014 46.1364L62.1264 46.1477C62.0468 46.7008 61.8745 47.2197 61.6093 47.7045C61.348 48.1894 61.0052 48.6174 60.5809 48.9886C60.1567 49.3561 59.6605 49.6439 59.0923 49.8523C58.5241 50.0568 57.8934 50.1591 57.2003 50.1591C56.1775 50.1591 55.2646 49.9223 54.4616 49.4489C53.6586 48.9754 53.026 48.2917 52.5639 47.3977C52.1018 46.5038 51.8707 45.4318 51.8707 44.1818C51.8707 42.928 52.1037 41.8561 52.5696 40.9659C53.0355 40.072 53.67 39.3883 54.473 38.9148C55.276 38.4413 56.1851 38.2045 57.2003 38.2045C57.848 38.2045 58.4503 38.2955 59.0071 38.4773C59.5639 38.6591 60.0601 38.9261 60.4957 39.2784C60.9313 39.6269 61.2893 40.0549 61.5696 40.5625C61.8537 41.0663 62.0393 41.642 62.1264 42.2898ZM65.8372 50.1761C65.2842 50.1761 64.7861 50.0777 64.3429 49.8807C63.9035 49.6799 63.555 49.3845 63.2975 48.9943C63.0437 48.6042 62.9168 48.1231 62.9168 47.5511C62.9168 47.0587 63.0077 46.6515 63.1895 46.3295C63.3713 46.0076 63.6194 45.75 63.9338 45.5568C64.2482 45.3636 64.6024 45.2178 64.9963 45.1193C65.3941 45.017 65.805 44.9432 66.2293 44.8977C66.7407 44.8447 67.1554 44.7973 67.4736 44.7557C67.7918 44.7102 68.0228 44.642 68.1668 44.5511C68.3145 44.4564 68.3884 44.3106 68.3884 44.1136V44.0795C68.3884 43.6515 68.2615 43.3201 68.0077 43.0852C67.7539 42.8504 67.3884 42.733 66.9111 42.733C66.4073 42.733 66.0077 42.8428 65.7122 43.0625C65.4206 43.2822 65.2236 43.5417 65.1213 43.8409L63.2009 43.5682C63.3524 43.0379 63.6024 42.5947 63.9509 42.2386C64.2994 41.8788 64.7255 41.6098 65.2293 41.4318C65.7331 41.25 66.2899 41.1591 66.8997 41.1591C67.3202 41.1591 67.7388 41.2083 68.1554 41.3068C68.5721 41.4053 68.9528 41.5682 69.2975 41.7955C69.6422 42.0189 69.9187 42.3239 70.127 42.7102C70.3391 43.0966 70.4452 43.5795 70.4452 44.1591V50H68.4679V48.8011H68.3997C68.2747 49.0436 68.0986 49.2708 67.8713 49.483C67.6478 49.6913 67.3657 49.8598 67.0247 49.9886C66.6876 50.1136 66.2918 50.1761 65.8372 50.1761ZM66.3713 48.6648C66.7842 48.6648 67.1422 48.5833 67.4452 48.4205C67.7482 48.2538 67.9812 48.0341 68.1441 47.7614C68.3107 47.4886 68.3941 47.1913 68.3941 46.8693V45.8409C68.3297 45.8939 68.2198 45.9432 68.0645 45.9886C67.913 46.0341 67.7425 46.0739 67.5532 46.108C67.3638 46.142 67.1763 46.1723 66.9907 46.1989C66.805 46.2254 66.6441 46.2481 66.5077 46.267C66.2009 46.3087 65.9263 46.3769 65.6838 46.4716C65.4414 46.5663 65.2501 46.6989 65.11 46.8693C64.9698 47.036 64.8997 47.2519 64.8997 47.517C64.8997 47.8958 65.038 48.1818 65.3145 48.375C65.591 48.5682 65.9433 48.6648 66.3713 48.6648ZM73.9302 38.3636V50H71.8734V38.3636H73.9302ZM79.2121 50.1705C78.3409 50.1705 77.5928 49.9792 76.9678 49.5966C76.3465 49.214 75.8674 48.6856 75.5303 48.0114C75.1969 47.3333 75.0303 46.553 75.0303 45.6705C75.0303 44.7841 75.2007 44.0019 75.5416 43.3239C75.8825 42.642 76.3636 42.1117 76.9848 41.733C77.6098 41.3504 78.3484 41.1591 79.2007 41.1591C79.909 41.1591 80.5359 41.2898 81.0814 41.5511C81.6306 41.8087 82.0681 42.1742 82.3939 42.6477C82.7196 43.1174 82.9053 43.6667 82.9507 44.2955H80.9848C80.9053 43.875 80.7159 43.5246 80.4166 43.2443C80.1212 42.9602 79.7253 42.8182 79.2291 42.8182C78.8087 42.8182 78.4393 42.9318 78.1212 43.1591C77.803 43.3826 77.5549 43.7045 77.3768 44.125C77.2026 44.5455 77.1155 45.0492 77.1155 45.6364C77.1155 46.2311 77.2026 46.7424 77.3768 47.1705C77.5511 47.5947 77.7954 47.9223 78.1098 48.1534C78.428 48.3807 78.8011 48.4943 79.2291 48.4943C79.5321 48.4943 79.803 48.4375 80.0416 48.3239C80.284 48.2064 80.4867 48.0379 80.6496 47.8182C80.8125 47.5985 80.9242 47.3314 80.9848 47.017H82.9507C82.9015 47.6345 82.7196 48.1818 82.4053 48.6591C82.0909 49.1326 81.6628 49.5038 81.1212 49.7727C80.5795 50.0379 79.9431 50.1705 79.2121 50.1705ZM89.5621 46.3295V41.2727H91.6189V50H89.6246V48.4489H89.5337C89.3368 48.9375 89.0129 49.3371 88.5621 49.6477C88.1152 49.9583 87.564 50.1136 86.9087 50.1136C86.3368 50.1136 85.8311 49.9867 85.3917 49.733C84.9561 49.4754 84.6152 49.1023 84.3689 48.6136C84.1227 48.1212 83.9996 47.5265 83.9996 46.8295V41.2727H86.0564V46.5114C86.0564 47.0644 86.208 47.5038 86.511 47.8295C86.814 48.1553 87.2118 48.3182 87.7042 48.3182C88.0072 48.3182 88.3008 48.2443 88.5849 48.0966C88.8689 47.9489 89.1019 47.7292 89.2837 47.4375C89.4693 47.142 89.5621 46.7727 89.5621 46.3295ZM95.1508 38.3636V50H93.094V38.3636H95.1508ZM99.1372 50.1761C98.5842 50.1761 98.0861 50.0777 97.6429 49.8807C97.2035 49.6799 96.855 49.3845 96.5975 48.9943C96.3437 48.6042 96.2168 48.1231 96.2168 47.5511C96.2168 47.0587 96.3077 46.6515 96.4895 46.3295C96.6713 46.0076 96.9194 45.75 97.2338 45.5568C97.5482 45.3636 97.9024 45.2178 98.2963 45.1193C98.6941 45.017 99.105 44.9432 99.5293 44.8977C100.041 44.8447 100.455 44.7973 100.774 44.7557C101.092 44.7102 101.323 44.642 101.467 44.5511C101.615 44.4564 101.688 44.3106 101.688 44.1136V44.0795C101.688 43.6515 101.561 43.3201 101.308 43.0852C101.054 42.8504 100.688 42.733 100.211 42.733C99.7073 42.733 99.3077 42.8428 99.0122 43.0625C98.7206 43.2822 98.5236 43.5417 98.4213 43.8409L96.5009 43.5682C96.6524 43.0379 96.9024 42.5947 97.2509 42.2386C97.5994 41.8788 98.0255 41.6098 98.5293 41.4318C99.0331 41.25 99.5899 41.1591 100.2 41.1591C100.62 41.1591 101.039 41.2083 101.455 41.3068C101.872 41.4053 102.253 41.5682 102.597 41.7955C102.942 42.0189 103.219 42.3239 103.427 42.7102C103.639 43.0966 103.745 43.5795 103.745 44.1591V50H101.768V48.8011H101.7C101.575 49.0436 101.399 49.2708 101.171 49.483C100.948 49.6913 100.666 49.8598 100.325 49.9886C99.9876 50.1136 99.5918 50.1761 99.1372 50.1761ZM99.6713 48.6648C100.084 48.6648 100.442 48.5833 100.745 48.4205C101.048 48.2538 101.281 48.0341 101.444 47.7614C101.611 47.4886 101.694 47.1913 101.694 46.8693V45.8409C101.63 45.8939 101.52 45.9432 101.365 45.9886C101.213 46.0341 101.043 46.0739 100.853 46.108C100.664 46.142 100.476 46.1723 100.291 46.1989C100.105 46.2254 99.9441 46.2481 99.8077 46.267C99.5009 46.3087 99.2263 46.3769 98.9838 46.4716C98.7414 46.5663 98.5501 46.6989 98.41 46.8693C98.2698 47.036 98.1997 47.2519 98.1997 47.517C98.1997 47.8958 98.338 48.1818 98.6145 48.375C98.891 48.5682 99.2433 48.6648 99.6713 48.6648ZM109.531 41.2727V42.8636H104.514V41.2727H109.531ZM105.753 39.1818H107.81V47.375C107.81 47.6515 107.851 47.8636 107.935 48.0114C108.022 48.1553 108.136 48.2538 108.276 48.3068C108.416 48.3598 108.571 48.3864 108.742 48.3864C108.87 48.3864 108.988 48.3769 109.094 48.358C109.204 48.339 109.287 48.322 109.344 48.3068L109.69 49.9148C109.581 49.9527 109.423 49.9943 109.219 50.0398C109.018 50.0852 108.772 50.1117 108.48 50.1193C107.965 50.1345 107.501 50.0568 107.088 49.8864C106.675 49.7121 106.348 49.4432 106.105 49.0795C105.867 48.7159 105.749 48.2614 105.753 47.7159V39.1818ZM114.381 50.1705C113.506 50.1705 112.751 49.9886 112.114 49.625C111.482 49.2576 110.995 48.7386 110.654 48.0682C110.313 47.3939 110.143 46.6004 110.143 45.6875C110.143 44.7898 110.313 44.0019 110.654 43.3239C110.999 42.642 111.48 42.1117 112.097 41.733C112.715 41.3504 113.44 41.1591 114.273 41.1591C114.811 41.1591 115.319 41.2462 115.796 41.4205C116.277 41.5909 116.701 41.8561 117.069 42.2159C117.44 42.5758 117.732 43.0341 117.944 43.5909C118.156 44.1439 118.262 44.803 118.262 45.5682V46.1989H111.109V44.8125H116.29C116.287 44.4186 116.201 44.0682 116.035 43.7614C115.868 43.4508 115.635 43.2064 115.336 43.0284C115.04 42.8504 114.696 42.7614 114.302 42.7614C113.881 42.7614 113.512 42.8636 113.194 43.0682C112.876 43.2689 112.628 43.5341 112.45 43.8636C112.275 44.1894 112.186 44.5473 112.183 44.9375V46.1477C112.183 46.6553 112.275 47.0909 112.461 47.4545C112.647 47.8144 112.906 48.0909 113.239 48.2841C113.573 48.4735 113.963 48.5682 114.41 48.5682C114.709 48.5682 114.98 48.5265 115.222 48.4432C115.465 48.3561 115.675 48.2292 115.853 48.0625C116.031 47.8958 116.165 47.6894 116.256 47.4432L118.177 47.6591C118.056 48.1667 117.825 48.6098 117.484 48.9886C117.147 49.3636 116.715 49.6553 116.188 49.8636C115.662 50.0682 115.059 50.1705 114.381 50.1705ZM129.106 41.5625C129.053 41.0663 128.829 40.6799 128.435 40.4034C128.045 40.1269 127.537 39.9886 126.912 39.9886C126.473 39.9886 126.096 40.0549 125.782 40.1875C125.467 40.3201 125.227 40.5 125.06 40.7273C124.894 40.9545 124.808 41.214 124.805 41.5057C124.805 41.7481 124.859 41.9583 124.969 42.1364C125.083 42.3144 125.236 42.4659 125.43 42.5909C125.623 42.7121 125.837 42.8144 126.072 42.8977C126.306 42.9811 126.543 43.0511 126.782 43.108L127.873 43.3807C128.312 43.483 128.734 43.6212 129.14 43.7955C129.549 43.9697 129.914 44.1894 130.236 44.4545C130.562 44.7197 130.82 45.0398 131.009 45.4148C131.198 45.7898 131.293 46.2292 131.293 46.733C131.293 47.4148 131.119 48.0152 130.77 48.5341C130.422 49.0492 129.918 49.4527 129.259 49.7443C128.604 50.0322 127.81 50.1761 126.878 50.1761C125.973 50.1761 125.187 50.036 124.52 49.7557C123.858 49.4754 123.339 49.0663 122.964 48.5284C122.592 47.9905 122.392 47.3352 122.361 46.5625H124.435C124.466 46.9678 124.591 47.3049 124.81 47.5739C125.03 47.8428 125.316 48.0436 125.668 48.1761C126.024 48.3087 126.422 48.375 126.861 48.375C127.32 48.375 127.721 48.3068 128.066 48.1705C128.414 48.0303 128.687 47.8371 128.884 47.5909C129.081 47.3409 129.181 47.0492 129.185 46.7159C129.181 46.4129 129.092 46.1629 128.918 45.9659C128.744 45.7652 128.5 45.5985 128.185 45.4659C127.875 45.3295 127.511 45.2083 127.094 45.1023L125.77 44.7614C124.812 44.5152 124.055 44.142 123.498 43.642C122.945 43.1383 122.668 42.4697 122.668 41.6364C122.668 40.9508 122.854 40.3504 123.225 39.8352C123.6 39.3201 124.109 38.9205 124.753 38.6364C125.397 38.3485 126.126 38.2045 126.941 38.2045C127.767 38.2045 128.49 38.3485 129.111 38.6364C129.736 38.9205 130.227 39.3163 130.583 39.8239C130.939 40.3277 131.123 40.9072 131.134 41.5625H129.106ZM134.953 50.1761C134.4 50.1761 133.902 50.0777 133.459 49.8807C133.019 49.6799 132.671 49.3845 132.413 48.9943C132.159 48.6042 132.032 48.1231 132.032 47.5511C132.032 47.0587 132.123 46.6515 132.305 46.3295C132.487 46.0076 132.735 45.75 133.049 45.5568C133.364 45.3636 133.718 45.2178 134.112 45.1193C134.51 45.017 134.921 44.9432 135.345 44.8977C135.856 44.8447 136.271 44.7973 136.589 44.7557C136.907 44.7102 137.138 44.642 137.282 44.5511C137.43 44.4564 137.504 44.3106 137.504 44.1136V44.0795C137.504 43.6515 137.377 43.3201 137.123 43.0852C136.87 42.8504 136.504 42.733 136.027 42.733C135.523 42.733 135.123 42.8428 134.828 43.0625C134.536 43.2822 134.339 43.5417 134.237 43.8409L132.317 43.5682C132.468 43.0379 132.718 42.5947 133.067 42.2386C133.415 41.8788 133.841 41.6098 134.345 41.4318C134.849 41.25 135.406 41.1591 136.015 41.1591C136.436 41.1591 136.854 41.2083 137.271 41.3068C137.688 41.4053 138.068 41.5682 138.413 41.7955C138.758 42.0189 139.034 42.3239 139.243 42.7102C139.455 43.0966 139.561 43.5795 139.561 44.1591V50H137.584V48.8011H137.515C137.39 49.0436 137.214 49.2708 136.987 49.483C136.763 49.6913 136.481 49.8598 136.14 49.9886C135.803 50.1136 135.407 50.1761 134.953 50.1761ZM135.487 48.6648C135.9 48.6648 136.258 48.5833 136.561 48.4205C136.864 48.2538 137.097 48.0341 137.26 47.7614C137.426 47.4886 137.51 47.1913 137.51 46.8693V45.8409C137.445 45.8939 137.335 45.9432 137.18 45.9886C137.029 46.0341 136.858 46.0739 136.669 46.108C136.479 46.142 136.292 46.1723 136.106 46.1989C135.921 46.2254 135.76 46.2481 135.623 46.267C135.317 46.3087 135.042 46.3769 134.799 46.4716C134.557 46.5663 134.366 46.6989 134.226 46.8693C134.085 47.036 134.015 47.2519 134.015 47.517C134.015 47.8958 134.154 48.1818 134.43 48.375C134.707 48.5682 135.059 48.6648 135.487 48.6648ZM148.472 41.2727L145.364 50H143.091L139.983 41.2727H142.177L144.182 47.7557H144.273L146.284 41.2727H148.472ZM149.255 50V41.2727H151.312V50H149.255ZM150.289 40.0341C149.964 40.0341 149.683 39.9261 149.448 39.7102C149.214 39.4905 149.096 39.2273 149.096 38.9205C149.096 38.6098 149.214 38.3466 149.448 38.1307C149.683 37.911 149.964 37.8011 150.289 37.8011C150.619 37.8011 150.899 37.911 151.13 38.1307C151.365 38.3466 151.483 38.6098 151.483 38.9205C151.483 39.2273 151.365 39.4905 151.13 39.7102C150.899 39.9261 150.619 40.0341 150.289 40.0341ZM154.844 44.8864V50H152.787V41.2727H154.753V42.7557H154.855C155.056 42.267 155.376 41.8788 155.816 41.5909C156.259 41.303 156.806 41.1591 157.458 41.1591C158.06 41.1591 158.584 41.2879 159.031 41.5455C159.482 41.803 159.831 42.1761 160.077 42.6648C160.327 43.1534 160.45 43.7462 160.446 44.4432V50H158.389V44.7614C158.389 44.178 158.238 43.7216 157.935 43.392C157.636 43.0625 157.221 42.8977 156.691 42.8977C156.331 42.8977 156.011 42.9773 155.73 43.1364C155.454 43.2917 155.236 43.517 155.077 43.8125C154.922 44.108 154.844 44.4659 154.844 44.8864ZM165.693 53.4545C164.954 53.4545 164.319 53.3542 163.789 53.1534C163.259 52.9564 162.833 52.6913 162.511 52.358C162.189 52.0246 161.965 51.6553 161.84 51.25L163.693 50.8011C163.776 50.9716 163.897 51.1402 164.056 51.3068C164.215 51.4773 164.429 51.6174 164.698 51.7273C164.971 51.8409 165.314 51.8977 165.727 51.8977C166.31 51.8977 166.793 51.7557 167.176 51.4716C167.558 51.1913 167.749 50.7292 167.749 50.0852V48.4318H167.647C167.541 48.6439 167.386 48.8617 167.181 49.0852C166.98 49.3087 166.713 49.4962 166.38 49.6477C166.051 49.7992 165.636 49.875 165.136 49.875C164.465 49.875 163.857 49.7178 163.312 49.4034C162.77 49.0852 162.338 48.6117 162.016 47.983C161.698 47.3504 161.539 46.5587 161.539 45.608C161.539 44.6496 161.698 43.8409 162.016 43.1818C162.338 42.5189 162.772 42.017 163.318 41.6761C163.863 41.3314 164.471 41.1591 165.141 41.1591C165.653 41.1591 166.073 41.2462 166.403 41.4205C166.736 41.5909 167.001 41.7973 167.198 42.0398C167.395 42.2784 167.545 42.5038 167.647 42.7159H167.761V41.2727H169.789V50.142C169.789 50.8883 169.611 51.5057 169.255 51.9943C168.899 52.483 168.412 52.8485 167.795 53.0909C167.177 53.3333 166.477 53.4545 165.693 53.4545ZM165.71 48.2614C166.145 48.2614 166.516 48.1553 166.823 47.9432C167.13 47.7311 167.363 47.4261 167.522 47.0284C167.681 46.6307 167.761 46.1534 167.761 45.5966C167.761 45.0473 167.681 44.5663 167.522 44.1534C167.367 43.7405 167.136 43.4205 166.829 43.1932C166.526 42.9621 166.153 42.8466 165.71 42.8466C165.251 42.8466 164.869 42.9659 164.562 43.2045C164.255 43.4432 164.024 43.7708 163.869 44.1875C163.713 44.6004 163.636 45.0701 163.636 45.5966C163.636 46.1307 163.713 46.5985 163.869 47C164.028 47.3977 164.261 47.7083 164.568 47.9318C164.878 48.1515 165.259 48.2614 165.71 48.2614ZM178.155 43.5795L176.28 43.7841C176.227 43.5947 176.134 43.4167 176.001 43.25C175.873 43.0833 175.698 42.9489 175.479 42.8466C175.259 42.7443 174.99 42.6932 174.672 42.6932C174.244 42.6932 173.884 42.786 173.592 42.9716C173.304 43.1572 173.162 43.3977 173.166 43.6932C173.162 43.947 173.255 44.1534 173.445 44.3125C173.638 44.4716 173.956 44.6023 174.399 44.7045L175.888 45.0227C176.714 45.2008 177.327 45.483 177.729 45.8693C178.134 46.2557 178.339 46.7614 178.342 47.3864C178.339 47.9356 178.178 48.4205 177.859 48.8409C177.545 49.2576 177.108 49.5833 176.547 49.8182C175.986 50.053 175.342 50.1705 174.615 50.1705C173.547 50.1705 172.687 49.947 172.036 49.5C171.384 49.0492 170.996 48.4223 170.871 47.6193L172.876 47.4261C172.967 47.8201 173.161 48.1174 173.456 48.3182C173.751 48.5189 174.136 48.6193 174.609 48.6193C175.098 48.6193 175.49 48.5189 175.786 48.3182C176.085 48.1174 176.234 47.8693 176.234 47.5739C176.234 47.3239 176.138 47.1174 175.945 46.9545C175.755 46.7917 175.46 46.6667 175.058 46.5795L173.57 46.267C172.733 46.0928 172.113 45.7992 171.712 45.3864C171.31 44.9697 171.111 44.4432 171.115 43.8068C171.111 43.2689 171.257 42.803 171.553 42.4091C171.852 42.0114 172.267 41.7045 172.797 41.4886C173.331 41.2689 173.947 41.1591 174.643 41.1591C175.666 41.1591 176.471 41.3769 177.058 41.8125C177.649 42.2481 178.015 42.8371 178.155 43.5795Z" fill="url(#paint2_linear_293_60439)"/>
</g>
</g>
<defs>
<filter id="filter0_dd_293_60439" x="0.5" y="0.5" width="229" height="95" filterUnits="userSpaceOnUse" color-interpolation-filters="sRGB">
<feFlood flood-opacity="0" result="BackgroundImageFix"/>
<feColorMatrix in="SourceAlpha" type="matrix" values="0 0 0 0 0 0 0 0 0 0 0 0 0 0 0 0 0 0 127 0" result="hardAlpha"/>
<feMorphology radius="2" operator="dilate" in="SourceAlpha" result="effect1_dropShadow_293_60439"/>
<feOffset/>
<feComposite in2="hardAlpha" operator="out"/>
<feColorMatrix type="matrix" values="0 0 0 0 1 0 0 0 0 0.352941 0 0 0 0 0.0980392 0 0 0 1 0"/>
<feBlend mode="normal" in2="BackgroundImageFix" result="effect1_dropShadow_293_60439"/>
<feColorMatrix in="SourceAlpha" type="matrix" values="0 0 0 0 0 0 0 0 0 0 0 0 0 0 0 0 0 0 127 0" result="hardAlpha"/>
<feMorphology radius="1" operator="dilate" in="SourceAlpha" result="effect2_dropShadow_293_60439"/>
<feOffset dy="4"/>
<feGaussianBlur stdDeviation="13.25"/>
<feComposite in2="hardAlpha" operator="out"/>
<feColorMatrix type="matrix" values="0 0 0 0 1 0 0 0 0 1 0 0 0 0 1 0 0 0 0.2 0"/>
<feBlend mode="normal" in2="effect1_dropShadow_293_60439" result="effect2_dropShadow_293_60439"/>
<feBlend mode="normal" in="SourceGraphic" in2="effect2_dropShadow_293_60439" result="shape"/>
</filter>
<filter id="filter1_d_293_60439" x="45.3711" y="33.3008" width="139.471" height="28.6533" filterUnits="userSpaceOnUse" color-interpolation-filters="sRGB">
<feFlood flood-opacity="0" result="BackgroundImageFix"/>
<feColorMatrix in="SourceAlpha" type="matrix" values="0 0 0 0 0 0 0 0 0 0 0 0 0 0 0 0 0 0 127 0" result="hardAlpha"/>
<feOffset dy="2"/>
<feGaussianBlur stdDeviation="3.25"/>
<feComposite in2="hardAlpha" operator="out"/>
<feColorMatrix type="matrix" values="0 0 0 0 0 0 0 0 0 0 0 0 0 0 0 0 0 0 0.18 0"/>
<feBlend mode="normal" in2="BackgroundImageFix" result="effect1_dropShadow_293_60439"/>
<feBlend mode="normal" in="SourceGraphic" in2="effect1_dropShadow_293_60439" result="shape"/>
</filter>
<linearGradient id="paint0_linear_293_60439" x1="115" y1="26" x2="115" y2="62" gradientUnits="userSpaceOnUse">
<stop stop-color="#FF8B43"/>
<stop offset="1" stop-color="#FF5A19"/>
</linearGradient>
<linearGradient id="paint1_linear_293_60439" x1="30" y1="44" x2="200" y2="44" gradientUnits="userSpaceOnUse">
<stop stop-color="#FF8B43"/>
<stop offset="1" stop-color="#FF5A19"/>
</linearGradient>
<linearGradient id="paint2_linear_293_60439" x1="115.877" y1="38.3529" x2="115.877" y2="54" gradientUnits="userSpaceOnUse">
<stop stop-color="white"/>
<stop offset="1" stop-color="#FFCF98"/>
</linearGradient>
</defs>
</svg>
