<svg width="124" height="17" viewBox="0 0 124 17" fill="none" xmlns="http://www.w3.org/2000/svg">
<path opacity="0.7" d="M10.5271 16.0898C10.1528 16.0898 9.65866 16.0824 9.04473 16.0674C8.44577 16.0674 7.73451 16.0599 6.91094 16.0449C6.08737 16.0299 5.33867 16.015 4.66484 16C3.99102 16 3.39206 16 2.86797 16L0.150196 16.0674C0.105274 16.0225 0.0828133 15.9027 0.0828133 15.708C0.0828133 15.5133 0.105274 15.416 0.150196 15.416C0.284962 15.416 0.464649 15.3936 0.689259 15.3486C0.913868 15.2887 1.1235 15.2214 1.31816 15.1465C1.5278 15.0716 1.65508 14.9893 1.7 14.8994C1.80482 14.7347 1.85723 14.0309 1.85723 12.7881V4.29785C1.85723 3.86361 1.84225 3.48177 1.81231 3.15234C1.79733 2.82292 1.7599 2.56087 1.7 2.36621C1.67005 2.27637 1.55026 2.19401 1.34063 2.11914C1.14596 2.04427 0.928842 1.98438 0.689259 1.93945C0.464649 1.89453 0.284962 1.87207 0.150196 1.87207C0.0903002 1.87207 0.0603523 1.78223 0.0603523 1.60254C0.0603523 1.40788 0.0903002 1.2806 0.150196 1.2207C0.539519 1.23568 0.951303 1.25065 1.38555 1.26562C1.83477 1.26562 2.31393 1.26562 2.82305 1.26562C3.16745 1.26562 3.63164 1.25814 4.21563 1.24316C4.79961 1.22819 5.50339 1.20573 6.32695 1.17578C7.1655 1.14583 7.89173 1.12337 8.50566 1.1084C9.13457 1.09342 9.65866 1.08594 10.0779 1.08594C10.1079 1.29557 10.1528 1.55013 10.2127 1.84961C10.2726 2.13411 10.3475 2.44857 10.4373 2.79297C10.5122 3.15234 10.5721 3.44434 10.617 3.66895C10.6769 3.89355 10.7143 4.05078 10.7293 4.14062C10.6544 4.21549 10.5197 4.25293 10.325 4.25293C10.1303 4.25293 10.0255 4.20052 10.0105 4.0957C9.78594 3.27214 9.47149 2.74805 9.06719 2.52344C8.66289 2.28385 8.10885 2.16406 7.40508 2.16406H5.9002C4.59746 2.16406 3.93861 2.26139 3.92363 2.45605C3.89369 2.63574 3.86374 2.88281 3.83379 3.19727C3.81882 3.51172 3.81133 3.89355 3.81133 4.34277V7.93652C3.81133 8.02637 4.13327 8.07129 4.77715 8.07129H5.96758C6.47669 8.07129 6.82109 8.07129 7.00078 8.07129C7.18047 8.05632 7.30775 8.03385 7.38262 8.00391C7.47246 7.97396 7.63718 7.92904 7.87676 7.86914C8.0265 7.83919 8.1388 7.66699 8.21367 7.35254C8.30352 7.02311 8.37839 6.75358 8.43828 6.54395C8.45326 6.43913 8.56556 6.38672 8.7752 6.38672C8.95488 6.38672 9.08216 6.42415 9.15703 6.49902V10.7441C9.09714 10.804 8.97734 10.834 8.79766 10.834C8.603 10.834 8.4832 10.7741 8.43828 10.6543C8.37839 10.4447 8.32598 10.265 8.28106 10.1152C8.23613 9.96549 8.1987 9.83822 8.16875 9.7334C8.09388 9.52376 8.03399 9.40397 7.98906 9.37402C7.95912 9.34408 7.89922 9.29915 7.80938 9.23926C7.59974 9.11947 6.80612 9.05957 5.42852 9.05957C4.35039 9.05957 3.81133 9.12695 3.81133 9.26172V12.7432C3.81133 13.7165 3.87871 14.3978 4.01348 14.7871C4.0584 14.9368 4.56751 15.0117 5.54082 15.0117H6.61895C7.99655 15.0117 8.93991 14.8844 9.44902 14.6299C9.67363 14.5101 9.9207 14.248 10.1902 13.8438C10.4747 13.4245 10.6993 12.9303 10.8641 12.3613C10.894 12.2715 10.9988 12.2266 11.1785 12.2266C11.463 12.2266 11.6502 12.2715 11.74 12.3613C11.6951 12.4811 11.6202 12.6683 11.5154 12.9229C11.4256 13.1624 11.3357 13.4095 11.2459 13.6641C11.1561 13.9186 11.0812 14.1357 11.0213 14.3154C10.9314 14.585 10.8341 14.8919 10.7293 15.2363C10.6245 15.5807 10.5571 15.8652 10.5271 16.0898ZM16.385 16.1572C16.2652 15.8727 16.063 15.4085 15.7785 14.7646C15.509 14.1208 15.1571 13.2972 14.7229 12.2939C14.2886 11.2757 13.8843 10.3623 13.51 9.55371C13.1356 8.73014 12.7837 7.99642 12.4543 7.35254C12.2896 7.05306 11.8479 6.90332 11.1291 6.90332C11.0692 6.90332 11.0393 6.80599 11.0393 6.61133C11.0393 6.43164 11.0692 6.31185 11.1291 6.25195C11.5184 6.26693 11.9077 6.28939 12.2971 6.31934C12.6864 6.34928 13.0757 6.36426 13.465 6.36426C13.8394 6.36426 14.2137 6.34928 14.5881 6.31934C14.9624 6.28939 15.3368 6.26693 15.7111 6.25195C15.7411 6.31185 15.7411 6.43913 15.7111 6.63379C15.6962 6.81348 15.6662 6.90332 15.6213 6.90332C14.8876 6.90332 14.5207 7.0306 14.5207 7.28516C14.5207 7.30013 14.5282 7.33008 14.5432 7.375C14.5581 7.40495 14.5731 7.4349 14.5881 7.46484L17.2385 13.4619L19.507 8.2959C19.5819 8.14616 19.6268 8.01888 19.6418 7.91406C19.6717 7.79427 19.6867 7.69694 19.6867 7.62207C19.6867 7.1429 19.1477 6.90332 18.0695 6.90332C18.0096 6.90332 17.9797 6.80599 17.9797 6.61133C17.9797 6.43164 18.0096 6.31185 18.0695 6.25195C18.2342 6.26693 18.5412 6.29688 18.9904 6.3418C19.4396 6.37174 19.8439 6.37923 20.2033 6.36426L22.4494 6.25195C22.4794 6.37174 22.4943 6.48405 22.4943 6.58887C22.4943 6.7985 22.4419 6.90332 22.3371 6.90332C22.1275 6.90332 21.8505 6.96322 21.5061 7.08301C21.1617 7.2028 20.9296 7.39746 20.8098 7.66699L17.2385 15.7305C17.1337 15.9701 16.9764 16.1198 16.7668 16.1797C16.5572 16.2546 16.4299 16.2471 16.385 16.1572ZM26.3756 16.1348C25.552 16.1348 24.7958 15.9176 24.107 15.4834C23.4182 15.0492 22.8642 14.4727 22.4449 13.7539C22.0406 13.0202 21.8385 12.2041 21.8385 11.3057C21.8385 10.2575 22.0331 9.35156 22.4225 8.58789C22.8118 7.82422 23.3434 7.24023 24.0172 6.83594C24.691 6.41667 25.4472 6.20703 26.2857 6.20703C26.9745 6.20703 27.581 6.3418 28.1051 6.61133C28.6292 6.86589 29.0335 7.19531 29.318 7.59961C29.5875 8.01888 29.7822 8.44564 29.902 8.87988C30.0367 9.29915 30.1041 9.71842 30.1041 10.1377C30.1041 10.4372 30.0592 10.6243 29.9693 10.6992C29.8795 10.7591 29.7073 10.7891 29.4527 10.7891H23.7926C23.6728 10.7891 23.6129 10.8265 23.6129 10.9014C23.6129 11.5303 23.7402 12.1367 23.9947 12.7207C24.2493 13.2897 24.6236 13.7614 25.1178 14.1357C25.6119 14.5101 26.2184 14.6973 26.9371 14.6973C27.566 14.6973 28.0901 14.6074 28.5094 14.4277C28.9436 14.2331 29.2581 14.0609 29.4527 13.9111L29.61 13.7988C29.6998 13.7988 29.7447 13.8962 29.7447 14.0908C29.7447 14.1956 29.6998 14.3304 29.61 14.4951C29.3105 14.9144 28.8688 15.2962 28.2848 15.6406C27.7008 15.9701 27.0644 16.1348 26.3756 16.1348ZM23.7926 9.8457H28.1725C28.2473 9.8457 28.2848 9.77083 28.2848 9.62109C28.2848 9.29167 28.1949 8.93229 28.0152 8.54297C27.8505 8.13867 27.596 7.78678 27.2516 7.4873C26.9072 7.18783 26.4729 7.03809 25.9488 7.03809C25.4697 7.03809 25.0579 7.2028 24.7135 7.53223C24.3691 7.84668 24.107 8.21354 23.9273 8.63281C23.7477 9.03711 23.6578 9.389 23.6578 9.68848C23.6578 9.79329 23.7027 9.8457 23.7926 9.8457ZM30.3467 16.0674C30.2868 16.0075 30.2568 15.8802 30.2568 15.6855C30.2568 15.5059 30.2868 15.416 30.3467 15.416C30.4665 15.416 30.6312 15.3936 30.8408 15.3486C31.0505 15.3037 31.2451 15.2438 31.4248 15.1689C31.6045 15.0941 31.7018 15.0267 31.7168 14.9668C31.7767 14.7572 31.8141 14.5176 31.8291 14.248C31.859 13.9785 31.874 13.694 31.874 13.3945V9.14941C31.874 8.5804 31.7692 8.17611 31.5596 7.93652C31.4098 7.75684 31.2301 7.63704 31.0205 7.57715C30.8258 7.51725 30.6462 7.4873 30.4814 7.4873C30.3317 7.47233 30.2568 7.44987 30.2568 7.41992C30.2568 7.06055 30.3018 6.87337 30.3916 6.8584C32.0238 6.60384 32.9671 6.43913 33.2217 6.36426L33.6035 6.25195C33.6634 6.23698 33.7008 6.29688 33.7158 6.43164C33.7308 6.56641 33.7308 6.66374 33.7158 6.72363L33.5811 7.84668C33.8506 7.44238 34.2174 7.06803 34.6816 6.72363C35.1608 6.36426 35.6325 6.18457 36.0967 6.18457C36.9652 6.18457 37.5492 6.40169 37.8486 6.83594C37.8486 7.36003 37.7663 7.74186 37.6016 7.98145C37.4368 8.22103 37.2347 8.34082 36.9951 8.34082C36.7256 8.34082 36.4785 8.21354 36.2539 7.95898C36.0293 7.70443 35.7223 7.57715 35.333 7.57715C35.0335 7.57715 34.749 7.68197 34.4795 7.8916C34.21 8.08626 33.9928 8.34082 33.8281 8.65527C33.6784 8.95475 33.6035 9.26921 33.6035 9.59863V12.9678C33.6035 13.402 33.6185 13.7839 33.6484 14.1133C33.6784 14.4427 33.7233 14.7272 33.7832 14.9668C33.8132 15.0267 33.918 15.0941 34.0977 15.1689C34.2773 15.2438 34.472 15.3037 34.6816 15.3486C34.9062 15.3936 35.0635 15.416 35.1533 15.416C35.1982 15.416 35.2282 15.5059 35.2432 15.6855C35.2581 15.8652 35.2507 15.9925 35.2207 16.0674L32.7949 15.9551L30.3467 16.0674ZM40.0004 14.001C38.5928 12.5335 37.8891 10.7441 37.8891 8.63281C37.8891 7.58464 38.0762 6.60384 38.4506 5.69043C38.8249 4.76204 39.3341 3.95345 39.9779 3.26465C40.6368 2.56087 41.4005 2.01432 42.2689 1.625C43.1374 1.2207 44.0658 1.01855 45.0541 1.01855C46.0424 1.01855 46.9708 1.2207 47.8393 1.625C48.7077 2.01432 49.4714 2.56087 50.1303 3.26465C50.7891 3.95345 51.3057 4.76204 51.6801 5.69043C52.0544 6.60384 52.2416 7.58464 52.2416 8.63281C52.2416 10.7441 51.5378 12.5335 50.1303 14.001C49.1719 15.0192 48.0863 15.693 46.8734 16.0225C45.6605 16.3669 44.4477 16.3669 43.2348 16.0225C42.0369 15.693 40.9587 15.0192 40.0004 14.001ZM45.4135 15.2588C46.3718 15.2588 47.2104 14.9443 47.9291 14.3154C48.6479 13.7015 49.1719 12.9378 49.5014 12.0244C49.8458 11.096 50.018 10.1077 50.018 9.05957C50.018 7.87663 49.8233 6.74609 49.434 5.66797C49.0447 4.60482 48.4382 3.72135 47.6147 3.01758C46.7911 2.3138 45.8253 1.96191 44.7172 1.96191C43.7738 1.96191 42.9577 2.25391 42.2689 2.83789C41.5801 3.4069 41.0486 4.16309 40.6742 5.10645C40.2999 6.03483 40.1127 7.04557 40.1127 8.13867C40.1127 9.32161 40.3074 10.4521 40.6967 11.5303C41.086 12.5934 41.6925 13.4844 42.516 14.2031C43.3396 14.9069 44.3054 15.2588 45.4135 15.2588ZM60.3455 16.1797C60.2257 16.1797 60.1658 16.0599 60.1658 15.8203V14.6748C60.1658 14.5999 60.1508 14.5625 60.1209 14.5625C59.1326 15.6257 58.1518 16.1572 57.1785 16.1572C56.4747 16.1572 55.9132 15.9551 55.4939 15.5508C55.0896 15.1315 54.7977 14.6074 54.618 13.9785C54.4533 13.3346 54.3709 12.6683 54.3709 11.9795V9.14941C54.3709 8.5804 54.2661 8.17611 54.0564 7.93652C53.9067 7.75684 53.727 7.63704 53.5174 7.57715C53.3227 7.51725 53.143 7.4873 52.9783 7.4873C52.8286 7.47233 52.7537 7.44987 52.7537 7.41992C52.7537 7.06055 52.7986 6.87337 52.8885 6.8584C53.6821 6.73861 54.3185 6.63379 54.7977 6.54395C55.2918 6.43913 55.5763 6.37923 55.6512 6.36426L56.1004 6.25195C56.1603 6.23698 56.1977 6.29688 56.2127 6.43164C56.2277 6.56641 56.2277 6.66374 56.2127 6.72363C56.1229 7.44238 56.0779 7.99642 56.0779 8.38574V11.418C56.0779 12.571 56.2501 13.4245 56.5945 13.9785C56.9389 14.5176 57.5005 14.7871 58.2791 14.7871C58.5786 14.7871 58.8706 14.7048 59.1551 14.54C59.4546 14.3753 59.6941 14.1807 59.8738 13.9561C60.0685 13.7165 60.1658 13.5143 60.1658 13.3496V9.14941C60.1658 8.5804 60.061 8.17611 59.8514 7.93652C59.7016 7.75684 59.5219 7.63704 59.3123 7.57715C59.1176 7.51725 58.938 7.47982 58.7732 7.46484C58.6235 7.44987 58.5486 7.4349 58.5486 7.41992C58.5486 7.06055 58.5936 6.87337 58.6834 6.8584C59.477 6.73861 60.0685 6.64128 60.4578 6.56641C60.8621 6.49154 61.1841 6.42415 61.4236 6.36426L61.8953 6.25195C61.9552 6.23698 61.9926 6.29688 62.0076 6.43164C62.0226 6.56641 62.0226 6.66374 62.0076 6.72363C61.9178 7.44238 61.8729 7.98145 61.8729 8.34082V12.833C61.8729 13.5068 61.9253 14.0758 62.0301 14.54C62.075 14.6898 62.1948 14.7871 62.3895 14.832C62.5841 14.862 62.8087 14.8919 63.0633 14.9219L63.3553 14.9443C63.4002 14.9593 63.4227 15.0417 63.4227 15.1914C63.4227 15.2363 63.4002 15.3112 63.3553 15.416C63.3253 15.5059 63.2879 15.5508 63.243 15.5508C62.7938 15.5807 62.2996 15.6631 61.7605 15.7979C61.2215 15.9176 60.8172 16.0299 60.5477 16.1348L60.3455 16.1797ZM66.9895 16.1572C66.2408 16.1572 65.6118 15.9102 65.1027 15.416C64.6086 14.9219 64.3615 14.2181 64.3615 13.3047V7.59961H63.0588C62.9839 7.59961 62.9465 7.44238 62.9465 7.12793C62.9465 7.03809 62.954 6.98568 62.9689 6.9707C63.4182 6.76107 63.8898 6.36426 64.384 5.78027C64.7284 5.37598 64.9829 5.02409 65.1477 4.72461C65.3273 4.42513 65.4172 4.24544 65.4172 4.18555C65.8664 4.18555 66.091 4.22298 66.091 4.29785V6.52148L67.8654 6.54395H69.1232C69.243 6.54395 69.3029 6.61133 69.3029 6.74609C69.3029 7.0306 69.2281 7.3151 69.0783 7.59961H66.091V13.1025C66.091 13.7015 66.2408 14.1807 66.5402 14.54C66.8547 14.8994 67.259 15.0791 67.7531 15.0791C68.2173 15.0791 68.6815 14.9368 69.1457 14.6523C69.1906 14.6224 69.258 14.6898 69.3479 14.8545C69.4377 15.0042 69.4751 15.0866 69.4602 15.1016C69.2355 15.3411 68.8911 15.5807 68.427 15.8203C67.9628 16.0449 67.4836 16.1572 66.9895 16.1572ZM69.3658 16.0674C69.3209 16.0225 69.2984 15.9027 69.2984 15.708C69.2984 15.5133 69.3209 15.416 69.3658 15.416C69.5006 15.416 69.6803 15.3936 69.9049 15.3486C70.1295 15.2887 70.3391 15.2214 70.5338 15.1465C70.7434 15.0716 70.8707 14.9893 70.9156 14.8994C71.0204 14.7347 71.0728 14.0309 71.0728 12.7881V4.29785C71.0728 3.86361 71.0579 3.48177 71.0279 3.15234C71.0129 2.82292 70.9755 2.56087 70.9156 2.36621C70.8857 2.27637 70.7659 2.19401 70.5562 2.11914C70.3616 2.04427 70.1445 1.98438 69.9049 1.93945C69.6803 1.89453 69.5006 1.87207 69.3658 1.87207C69.3059 1.87207 69.276 1.78223 69.276 1.60254C69.276 1.40788 69.3059 1.2806 69.3658 1.2207C69.7551 1.23568 70.1669 1.25065 70.6012 1.26562C71.0504 1.26562 71.5296 1.26562 72.0387 1.26562L73.9254 1.24316H75.2057C75.4003 1.24316 75.595 1.25065 75.7896 1.26562C75.9993 1.2806 76.2014 1.30306 76.3961 1.33301C76.995 1.43783 77.5566 1.63997 78.0807 1.93945C78.6197 2.22396 79.054 2.61328 79.3834 3.10742C79.7278 3.60156 79.9 4.20801 79.9 4.92676C79.9 5.45085 79.7278 5.95247 79.3834 6.43164C79.039 6.89583 78.7171 7.21777 78.4176 7.39746C78.1331 7.57715 77.886 7.70443 77.6764 7.7793C77.5566 7.82422 77.5191 7.86914 77.5641 7.91406C77.8635 7.95898 78.2004 8.09375 78.5748 8.31836C78.9491 8.54297 79.3085 8.83496 79.6529 9.19434C79.9973 9.53874 80.2818 9.93555 80.5064 10.3848C80.746 10.834 80.8658 11.3057 80.8658 11.7998C80.8658 12.6533 80.6262 13.3945 80.1471 14.0234C79.6829 14.6523 79.024 15.139 78.1705 15.4834C77.317 15.8278 76.3137 16 75.1607 16H72.0836L69.3658 16.0674ZM74.5094 7.62207C74.9885 7.62207 75.4078 7.59961 75.7672 7.55469C76.3811 7.49479 76.8902 7.28516 77.2945 6.92578C77.7138 6.55143 77.9234 6.05729 77.9234 5.44336C77.9234 4.41016 77.6614 3.60905 77.1373 3.04004C76.6282 2.45605 75.8645 2.16406 74.8463 2.16406C74.1425 2.16406 73.6109 2.21647 73.2516 2.32129C73.1617 2.33626 73.1168 2.40365 73.1168 2.52344L73.0269 4.79199V7.46484C73.0269 7.56966 73.5211 7.62207 74.5094 7.62207ZM74.5992 14.9893C74.9736 14.9893 75.3404 14.9593 75.6998 14.8994C76.0741 14.8395 76.5159 14.7197 77.025 14.54C77.5341 14.3753 77.9459 14.0833 78.2603 13.6641C78.5748 13.2298 78.732 12.6908 78.732 12.0469C78.732 11.403 78.5898 10.819 78.3053 10.2949C78.0208 9.77083 77.5865 9.35156 77.0025 9.03711C76.4185 8.72266 75.6624 8.56543 74.734 8.56543C74.5693 8.56543 74.3521 8.57292 74.0826 8.58789C73.8131 8.60286 73.4911 8.62533 73.1168 8.65527C73.0569 8.81999 73.0269 9.06706 73.0269 9.39648V12.6758C73.0269 13.8138 73.1467 14.4801 73.3863 14.6748C73.6259 14.8844 74.0302 14.9893 74.5992 14.9893ZM86.3643 16.1572C85.4658 16.1572 84.6423 15.9326 83.8936 15.4834C83.1449 15.0342 82.5459 14.4277 82.0967 13.6641C81.6624 12.9004 81.4453 12.0618 81.4453 11.1484C81.4453 10.2201 81.6549 9.38151 82.0742 8.63281C82.5085 7.88411 83.0924 7.29264 83.8262 6.8584C84.5599 6.40918 85.391 6.18457 86.3193 6.18457C87.2178 6.18457 88.0339 6.40918 88.7676 6.8584C89.5163 7.30762 90.1077 7.90658 90.542 8.65527C90.9912 9.40397 91.2158 10.235 91.2158 11.1484C91.2158 12.0618 90.9987 12.9004 90.5645 13.6641C90.1302 14.4277 89.5462 15.0342 88.8125 15.4834C88.0938 15.9326 87.2777 16.1572 86.3643 16.1572ZM86.5664 15.2812C87.1055 15.2812 87.5771 15.109 87.9814 14.7646C88.3857 14.4202 88.7002 13.9561 88.9248 13.3721C89.1644 12.7881 89.2842 12.1517 89.2842 11.4629C89.2842 10.6543 89.1344 9.92057 88.835 9.26172C88.5355 8.58789 88.1387 8.05632 87.6445 7.66699C87.1654 7.2627 86.6413 7.06055 86.0723 7.06055C85.5482 7.06055 85.0765 7.23275 84.6572 7.57715C84.2529 7.90658 83.9385 8.35579 83.7139 8.9248C83.4893 9.47884 83.377 10.1077 83.377 10.8115C83.377 11.6201 83.5192 12.3688 83.8037 13.0576C84.1032 13.7314 84.4925 14.2705 84.9717 14.6748C85.4658 15.0791 85.9974 15.2812 86.5664 15.2812ZM99.1625 16.1797C99.0427 16.1797 98.9828 16.0599 98.9828 15.8203V14.6748C98.9828 14.5999 98.9678 14.5625 98.9379 14.5625C97.9496 15.6257 96.9688 16.1572 95.9955 16.1572C95.2917 16.1572 94.7302 15.9551 94.3109 15.5508C93.9066 15.1315 93.6147 14.6074 93.435 13.9785C93.2703 13.3346 93.1879 12.6683 93.1879 11.9795V9.14941C93.1879 8.5804 93.0831 8.17611 92.8734 7.93652C92.7237 7.75684 92.544 7.63704 92.3344 7.57715C92.1397 7.51725 91.96 7.4873 91.7953 7.4873C91.6456 7.47233 91.5707 7.44987 91.5707 7.41992C91.5707 7.06055 91.6156 6.87337 91.7055 6.8584C92.4991 6.73861 93.1355 6.63379 93.6147 6.54395C94.1088 6.43913 94.3933 6.37923 94.4682 6.36426L94.9174 6.25195C94.9773 6.23698 95.0147 6.29688 95.0297 6.43164C95.0447 6.56641 95.0447 6.66374 95.0297 6.72363C94.9398 7.44238 94.8949 7.99642 94.8949 8.38574V11.418C94.8949 12.571 95.0671 13.4245 95.4115 13.9785C95.7559 14.5176 96.3175 14.7871 97.0961 14.7871C97.3956 14.7871 97.6876 14.7048 97.9721 14.54C98.2716 14.3753 98.5111 14.1807 98.6908 13.9561C98.8855 13.7165 98.9828 13.5143 98.9828 13.3496V9.14941C98.9828 8.5804 98.878 8.17611 98.6684 7.93652C98.5186 7.75684 98.3389 7.63704 98.1293 7.57715C97.9346 7.51725 97.755 7.47982 97.5902 7.46484C97.4405 7.44987 97.3656 7.4349 97.3656 7.41992C97.3656 7.06055 97.4106 6.87337 97.5004 6.8584C98.294 6.73861 98.8855 6.64128 99.2748 6.56641C99.6791 6.49154 100.001 6.42415 100.241 6.36426L100.712 6.25195C100.772 6.23698 100.81 6.29688 100.825 6.43164C100.84 6.56641 100.84 6.66374 100.825 6.72363C100.735 7.44238 100.69 7.98145 100.69 8.34082V12.833C100.69 13.5068 100.742 14.0758 100.847 14.54C100.892 14.6898 101.012 14.7871 101.206 14.832C101.401 14.862 101.626 14.8919 101.88 14.9219L102.172 14.9443C102.217 14.9593 102.24 15.0417 102.24 15.1914C102.24 15.2363 102.217 15.3112 102.172 15.416C102.142 15.5059 102.105 15.5508 102.06 15.5508C101.611 15.5807 101.117 15.6631 100.578 15.7979C100.038 15.9176 99.6342 16.0299 99.3647 16.1348L99.1625 16.1797ZM102.123 16.0674C102.063 16.0075 102.033 15.8802 102.033 15.6855C102.033 15.5059 102.063 15.416 102.123 15.416C102.243 15.416 102.407 15.3936 102.617 15.3486C102.827 15.3037 103.021 15.2438 103.201 15.1689C103.381 15.0941 103.478 15.0267 103.493 14.9668C103.553 14.7572 103.59 14.5176 103.605 14.248C103.635 13.9785 103.65 13.694 103.65 13.3945V9.14941C103.65 8.5804 103.545 8.17611 103.336 7.93652C103.186 7.75684 103.006 7.63704 102.797 7.57715C102.602 7.51725 102.422 7.4873 102.258 7.4873C102.108 7.47233 102.033 7.44987 102.033 7.41992C102.033 7.06055 102.078 6.87337 102.168 6.8584C102.961 6.73861 103.605 6.63379 104.099 6.54395C104.594 6.43913 104.901 6.37174 105.02 6.3418L105.38 6.25195C105.44 6.23698 105.477 6.29688 105.492 6.43164C105.507 6.56641 105.507 6.66374 105.492 6.72363C105.462 6.93327 105.44 7.11296 105.425 7.2627C105.41 7.41243 105.402 7.53223 105.402 7.62207C105.402 7.68197 105.417 7.71191 105.447 7.71191C105.462 7.71191 105.485 7.69694 105.514 7.66699C105.859 7.30762 106.323 6.9707 106.907 6.65625C107.506 6.32682 108.075 6.16211 108.614 6.16211C109.662 6.16211 110.396 6.53646 110.815 7.28516C111.235 8.03385 111.444 9.24674 111.444 10.9238V12.9678C111.444 13.402 111.459 13.7839 111.489 14.1133C111.519 14.4427 111.564 14.7272 111.624 14.9668C111.654 15.0267 111.759 15.0941 111.938 15.1689C112.118 15.2438 112.313 15.3037 112.522 15.3486C112.732 15.3936 112.882 15.416 112.971 15.416C113.016 15.416 113.046 15.5059 113.061 15.6855C113.076 15.8652 113.069 15.9925 113.039 16.0674L110.636 15.9551L108.277 16.0674C108.217 16.0075 108.187 15.8802 108.187 15.6855C108.187 15.5059 108.217 15.416 108.277 15.416C108.397 15.416 108.554 15.3936 108.749 15.3486C108.943 15.3037 109.123 15.2438 109.288 15.1689C109.453 15.0941 109.542 15.0267 109.557 14.9668C109.617 14.7572 109.655 14.5176 109.67 14.248C109.7 13.9785 109.715 13.694 109.715 13.3945V11.1484C109.715 9.75586 109.535 8.80501 109.176 8.2959C108.816 7.78678 108.232 7.53223 107.424 7.53223C107.109 7.53223 106.795 7.62207 106.48 7.80176C106.166 7.96647 105.904 8.16113 105.694 8.38574C105.485 8.61035 105.38 8.81999 105.38 9.01465V12.9678C105.38 13.402 105.395 13.7839 105.425 14.1133C105.455 14.4427 105.499 14.7272 105.559 14.9668C105.589 15.0267 105.694 15.0941 105.874 15.1689C106.054 15.2438 106.248 15.3037 106.458 15.3486C106.667 15.3936 106.817 15.416 106.907 15.416C106.952 15.416 106.982 15.5059 106.997 15.6855C107.012 15.8652 107.004 15.9925 106.974 16.0674L104.571 15.9551L102.123 16.0674ZM120.267 16.1348C120.177 16.1348 120.132 16.0075 120.132 15.7529V15.4834C120.132 15.4085 120.102 15.3786 120.042 15.3936C119.219 15.8577 118.425 16.0898 117.661 16.0898C116.838 16.0898 116.089 15.8877 115.415 15.4834C114.756 15.0641 114.232 14.5176 113.843 13.8438C113.469 13.1549 113.281 12.4062 113.281 11.5977C113.281 10.8789 113.416 10.1901 113.686 9.53125C113.97 8.8724 114.345 8.28841 114.809 7.7793C115.288 7.25521 115.827 6.85091 116.426 6.56641C117.025 6.26693 117.646 6.11719 118.29 6.11719C118.934 6.11719 119.496 6.24447 119.975 6.49902C120.08 6.49902 120.132 6.36426 120.132 6.09473V3.66895C120.132 3.15983 120.087 2.68066 119.997 2.23145C119.937 1.99186 119.556 1.87207 118.852 1.87207H118.65C118.56 1.87207 118.515 1.78971 118.515 1.625C118.515 1.38542 118.56 1.26562 118.65 1.26562C119.488 1.19076 120.147 1.07845 120.626 0.928711C121.12 0.778971 121.472 0.629232 121.682 0.479492L121.772 0.412109H121.817C121.877 0.412109 121.936 0.457031 121.996 0.546875C122.056 0.621745 122.094 0.696615 122.109 0.771484C121.944 1.26562 121.862 1.91699 121.862 2.72559V12.833C121.862 13.5368 121.906 14.1058 121.996 14.54C122.041 14.6898 122.168 14.7871 122.378 14.832C122.603 14.862 122.835 14.8919 123.074 14.9219L123.277 14.9443C123.321 14.9593 123.344 15.0492 123.344 15.2139C123.344 15.4385 123.299 15.5508 123.209 15.5508C122.715 15.5807 122.206 15.6631 121.682 15.7979C121.158 15.9176 120.753 16.015 120.469 16.0898L120.267 16.1348ZM118.515 14.9893C119.024 14.9893 119.421 14.877 119.705 14.6523C119.99 14.4128 120.132 14.0983 120.132 13.709V8.36328C120.132 8.04883 119.96 7.75684 119.615 7.4873C119.286 7.2028 118.747 7.06055 117.998 7.06055C117.429 7.06055 116.935 7.24023 116.516 7.59961C116.097 7.95898 115.775 8.43815 115.55 9.03711C115.325 9.62109 115.213 10.2575 115.213 10.9463C115.213 11.665 115.34 12.3314 115.595 12.9453C115.864 13.5592 116.246 14.0534 116.74 14.4277C117.235 14.8021 117.826 14.9893 118.515 14.9893Z" fill="white"/>
</svg>
