<svg width="169" height="26" viewBox="0 0 169 26" fill="none" xmlns="http://www.w3.org/2000/svg">
<g clip-path="url(#clip0_575_21088)">
<path d="M47.1926 14.7617C47.1926 16.7985 45.6711 18.0534 42.9506 18.0534C40.23 18.0534 38.7086 16.7258 38.5117 14.5616H40.8923C40.9103 15.5619 41.7514 16.1984 42.9863 16.1984C43.9529 16.1984 44.6869 15.8892 44.6869 15.1982C44.6869 14.5798 44.2929 14.3252 43.3803 14.1434L41.662 13.816C39.9437 13.5068 38.9054 12.543 38.9054 11.0335C38.9054 9.23313 40.4269 7.97827 42.8074 7.97827C45.2057 7.97827 46.8526 9.2695 47.0314 11.3609H44.6509C44.5614 10.4152 43.8634 9.83327 42.8074 9.83327C41.8946 9.83327 41.286 10.1788 41.286 10.7971C41.286 11.3791 41.6797 11.6155 42.5389 11.7792L44.3826 12.1247C46.244 12.4884 47.1926 13.3614 47.1926 14.7617Z" fill="white"/>
<path d="M52.5619 18.0534C49.8056 18.0534 47.9082 15.9802 47.9082 13.0158C47.9082 10.106 49.8771 7.97827 52.5619 7.97827C55.0496 7.97827 56.8933 9.68779 57.1976 12.3066H54.5845C54.4591 11.0154 53.6893 10.2152 52.5619 10.2152C51.2731 10.2152 50.4499 11.2882 50.4499 13.0158C50.4499 14.7617 51.2553 15.8165 52.5619 15.8165C53.7073 15.8165 54.4411 15.0527 54.5845 13.7251H57.1976C56.9111 16.3984 55.1213 18.0534 52.5619 18.0534Z" fill="white"/>
<path d="M64.1265 17.8715V16.6712C63.5002 17.5805 62.5516 18.0534 61.245 18.0534C59.2582 18.0534 57.9336 16.8713 57.9336 15.0527C57.9336 13.1613 59.437 12.1429 62.2293 12.1429C62.7662 12.1429 63.2316 12.1793 63.8222 12.252V11.67C63.8222 10.5789 63.2136 9.94239 62.1756 9.94239C61.1016 9.94239 60.4573 10.5789 60.3679 11.67H58.1305C58.2739 9.43316 59.8667 7.97827 62.1756 7.97827C64.6813 7.97827 66.149 9.37861 66.149 11.761V17.8715H64.1265ZM60.2785 14.9799C60.2785 15.7983 60.851 16.3075 61.7819 16.3075C63.0527 16.3075 63.8222 15.5982 63.8222 14.4707V13.7796C63.2316 13.6887 62.8199 13.6523 62.3905 13.6523C60.9765 13.6523 60.2785 14.107 60.2785 14.9799Z" fill="white"/>
<path d="M70.4413 17.8716H67.9355V4.81396H70.4413V17.8716Z" fill="white"/>
<path d="M76.4664 18.0352C73.6026 18.0352 71.6875 16.0165 71.6875 12.9794C71.6875 10.0879 73.6744 7.97827 76.4306 7.97827C79.4555 7.97827 81.4601 10.4698 81.0126 13.6342H74.2292C74.3901 15.2163 75.1421 16.0893 76.4126 16.0893C77.5046 16.0893 78.2384 15.5437 78.5246 14.5798H80.9946C80.4578 16.7803 78.7932 18.0352 76.4664 18.0352ZM76.3769 9.83327C75.2135 9.83327 74.4798 10.5971 74.2649 12.0338H78.3815C78.3101 10.688 77.5584 9.83327 76.3769 9.83327Z" fill="white"/>
<path d="M94.3132 8.16016L89.6597 21.3814H86.9569L88.3172 17.7624L84.5586 8.16016H87.2435L89.6417 14.8162L91.8254 8.16016H94.3132Z" fill="white"/>
<path d="M98.9385 18.0534C96.1642 18.0534 94.0879 15.8347 94.0879 13.0158C94.0879 10.1788 96.1642 7.97827 98.9385 7.97827C101.713 7.97827 103.789 10.1788 103.789 13.0158C103.789 15.8347 101.713 18.0534 98.9385 18.0534ZM98.9385 15.8165C100.173 15.8165 101.229 14.8162 101.229 13.0158C101.229 11.2154 100.173 10.2334 98.9385 10.2334C97.7033 10.2334 96.6473 11.2154 96.6473 13.0158C96.6473 14.8162 97.7033 15.8165 98.9385 15.8165Z" fill="white"/>
<path d="M110.836 13.7796V8.16016H113.306V17.8715H111.033V16.5985C110.514 17.4532 109.458 18.0534 108.241 18.0534C106.326 18.0534 104.93 16.8713 104.93 14.3434V8.16016H107.418V13.8524C107.418 15.2163 108.08 15.8165 109.082 15.8165C109.977 15.8165 110.836 15.089 110.836 13.7796Z" fill="white"/>
<path d="M117.669 13.1616V17.8718H115.182V8.16041H117.472V10.0336C118.17 8.7969 119.656 8.05127 121.195 8.05127V10.6701C119.083 10.5064 117.669 11.0156 117.669 13.1616Z" fill="white"/>
<path d="M128.017 17.8716H125.512V4.81396H128.017V17.8716Z" fill="white"/>
<path d="M134.044 18.0352C131.18 18.0352 129.266 16.0165 129.266 12.9794C129.266 10.0879 131.252 7.97827 134.008 7.97827C137.033 7.97827 139.038 10.4698 138.59 13.6342H131.807C131.968 15.2163 132.72 16.0893 133.991 16.0893C135.082 16.0893 135.816 15.5437 136.103 14.5798H138.573C138.036 16.7803 136.371 18.0352 134.044 18.0352ZM133.955 9.83327C132.791 9.83327 132.058 10.5971 131.843 12.0338H135.96C135.888 10.688 135.136 9.83327 133.955 9.83327Z" fill="white"/>
<path d="M145.591 17.8715V16.6712C144.965 17.5805 144.016 18.0534 142.71 18.0534C140.723 18.0534 139.398 16.8713 139.398 15.0527C139.398 13.1613 140.902 12.1429 143.694 12.1429C144.231 12.1429 144.696 12.1793 145.287 12.252V11.67C145.287 10.5789 144.678 9.94239 143.64 9.94239C142.566 9.94239 141.922 10.5789 141.832 11.67H139.595C139.738 9.43316 141.331 7.97827 143.64 7.97827C146.146 7.97827 147.614 9.37861 147.614 11.761V17.8715H145.591ZM141.743 14.9799C141.743 15.7983 142.316 16.3075 143.246 16.3075C144.517 16.3075 145.287 15.5982 145.287 14.4707V13.7796C144.696 13.6887 144.285 13.6523 143.855 13.6523C142.441 13.6523 141.743 14.107 141.743 14.9799Z" fill="white"/>
<path d="M148.771 13.0159C148.771 10.1425 150.436 7.97834 153.013 7.97834C154.159 7.97834 155.125 8.48756 155.841 9.41505V4.81396H158.311V17.8716H156.038V16.4712C155.286 17.4896 154.248 18.0534 153.013 18.0534C150.436 18.0534 148.771 15.8529 148.771 13.0159ZM151.331 13.0159C151.331 14.8345 152.351 15.7984 153.568 15.7984C154.803 15.7984 155.823 14.8163 155.823 12.9795C155.823 11.1427 154.785 10.2152 153.568 10.2152C152.351 10.2152 151.331 11.1609 151.331 13.0159Z" fill="white"/>
<path d="M168.247 14.7617C168.247 16.7985 166.726 18.0534 164.005 18.0534C161.285 18.0534 159.763 16.7258 159.566 14.5616H161.947C161.965 15.5619 162.806 16.1984 164.041 16.1984C165.008 16.1984 165.741 15.8892 165.741 15.1982C165.741 14.5798 165.348 14.3252 164.435 14.1434L162.716 13.816C160.998 13.5068 159.96 12.543 159.96 11.0335C159.96 9.23313 161.482 7.97827 163.862 7.97827C166.26 7.97827 167.907 9.2695 168.086 11.3609H165.706C165.616 10.4152 164.918 9.83327 163.862 9.83327C162.949 9.83327 162.341 10.1788 162.341 10.7971C162.341 11.3791 162.734 11.6155 163.594 11.7792L165.437 12.1247C167.298 12.4884 168.247 13.3614 168.247 14.7617Z" fill="white"/>
<mask id="mask0_575_21088" style="mask-type:luminance" maskUnits="userSpaceOnUse" x="-1" y="0" width="36" height="26">
<path d="M34.8516 25.9955V0L-0.00157928 0V25.9955L34.8516 25.9955Z" fill="white"/>
</mask>
<g mask="url(#mask0_575_21088)">
<mask id="mask1_575_21088" style="mask-type:luminance" maskUnits="userSpaceOnUse" x="13" y="0" width="22" height="21">
<path d="M24.6057 2.94131L28.1184 9.0134L34.8528 20.6537H34.4668C32.8239 20.6259 26.3667 20.232 23.7995 15.7952L21.3644 11.5856C19.712 8.64406 17.2458 8.68874 15.5001 11.664L15.2736 12.0557H13.5137L15.2736 9.01394L18.7415 3.02194C20.4872 0.0450149 22.9528 -0.000197768 24.6057 2.94131Z" fill="white"/>
</mask>
<g mask="url(#mask1_575_21088)">
<path d="M34.8528 20.6539V9.3276e-07L13.5137 0V20.6539H34.8528Z" fill="white"/>
</g>
<mask id="mask2_575_21088" style="mask-type:luminance" maskUnits="userSpaceOnUse" x="0" y="5" width="22" height="21">
<path d="M10.2476 23.0534L6.73437 16.9813L0 5.34155H0.385925C2.02954 5.36878 8.48608 5.76318 11.0533 10.2L13.4884 14.4091C15.1413 17.3506 17.607 17.3059 19.3527 14.3306L19.5792 13.939H21.3391L19.5792 16.9807L16.1119 22.9727C14.3651 25.9475 11.8999 25.9927 10.2476 23.0506" fill="white"/>
</mask>
<g mask="url(#mask2_575_21088)">
<path d="M21.3723 26.0457V5.39185H0.033204L0.0332031 26.0457H21.3723Z" fill="white"/>
</g>
</g>
</g>
<defs>
<clipPath id="clip0_575_21088">
<rect width="168.257" height="26" fill="white"/>
</clipPath>
</defs>
</svg>
