<svg width="155" height="50" viewBox="0 0 155 50" fill="none" xmlns="http://www.w3.org/2000/svg"><g clip-path="url(#clip0_293_20453)"><rect width="154.217" height="49.3494" rx="24.6747" fill="url(#paint0_linear_293_20453)"/><g filter="url(#filter0_iii_293_20453)"><rect x="3.08398" y="3.08447" width="148.048" height="43.1807" rx="21.5904" fill="url(#paint1_linear_293_20453)"/></g><g style="mix-blend-mode:plus-lighter" filter="url(#filter1_f_293_20453)"><path d="M33.6051 23.2485C34.604 6.36142 58.7781 12.3098 70.9044 12.5778C83.0307 12.8459 107.689 7.60405 106.972 24.8704C106.255 42.1367 85.0125 35.8801 72.8862 35.612C60.7599 35.344 32.6062 40.1355 33.6051 23.2485Z" fill="#FCD292"/></g><g filter="url(#filter2_di_293_20453)"><path d="M45.2029 21.1879C45.1083 20.8811 44.9776 20.6065 44.8109 20.3641C44.648 20.1179 44.4511 19.9076 44.22 19.7334C43.9927 19.5592 43.7314 19.4285 43.4359 19.3414C43.1404 19.2504 42.8185 19.205 42.47 19.205C41.845 19.205 41.2882 19.3622 40.7995 19.6766C40.3109 19.991 39.9264 20.4531 39.6461 21.0629C39.3696 21.669 39.2314 22.4076 39.2314 23.2789C39.2314 24.1576 39.3696 24.902 39.6461 25.5118C39.9226 26.1217 40.3071 26.5857 40.7995 26.9039C41.292 27.2182 41.8639 27.3754 42.5154 27.3754C43.1064 27.3754 43.6177 27.2618 44.0495 27.0345C44.4851 26.8073 44.8204 26.4853 45.0552 26.0686C45.2901 25.6482 45.4075 25.1557 45.4075 24.5914L45.8848 24.6652H42.7257V23.0175H47.4473V24.4152C47.4473 25.4114 47.2351 26.2732 46.8109 27.0004C46.3867 27.7277 45.8033 28.2883 45.0609 28.6823C44.3185 29.0724 43.4662 29.2675 42.5041 29.2675C41.4321 29.2675 40.4908 29.027 39.6802 28.5459C38.8734 28.061 38.2427 27.3735 37.7882 26.4834C37.3374 25.5895 37.112 24.5289 37.112 23.3016C37.112 22.3622 37.2446 21.5232 37.5098 20.7845C37.7787 20.0459 38.1537 19.419 38.6348 18.9039C39.1158 18.3849 39.6802 17.991 40.3279 17.722C40.9757 17.4493 41.6802 17.3129 42.4416 17.3129C43.0855 17.3129 43.6859 17.4076 44.2427 17.597C44.7995 17.7826 45.2939 18.0478 45.7257 18.3925C46.1613 18.7372 46.5192 19.1463 46.7995 19.6198C47.0798 20.0932 47.2636 20.616 47.3507 21.1879H45.2029ZM52.4583 29.2789C51.5833 29.2789 50.8277 29.097 50.1913 28.7334C49.5587 28.366 49.072 27.847 48.7311 27.1766C48.3902 26.5023 48.2197 25.7088 48.2197 24.7959C48.2197 23.8982 48.3902 23.1103 48.7311 22.4323C49.0758 21.7504 49.5568 21.2201 50.1743 20.8414C50.7917 20.4588 51.5171 20.2675 52.3504 20.2675C52.8883 20.2675 53.3958 20.3546 53.8731 20.5289C54.3542 20.6993 54.7784 20.9645 55.1458 21.3243C55.5171 21.6842 55.8087 22.1425 56.0208 22.6993C56.233 23.2523 56.339 23.9114 56.339 24.6766V25.3073H49.1856V23.9209H54.3674C54.3636 23.527 54.2784 23.1766 54.1118 22.8698C53.9451 22.5592 53.7121 22.3148 53.4129 22.1368C53.1174 21.9588 52.7727 21.8698 52.3788 21.8698C51.9583 21.8698 51.589 21.972 51.2708 22.1766C50.9527 22.3773 50.7046 22.6425 50.5265 22.972C50.3523 23.2978 50.2633 23.6557 50.2595 24.0459V25.2561C50.2595 25.7637 50.3523 26.1993 50.5379 26.5629C50.7235 26.9228 50.983 27.1993 51.3163 27.3925C51.6496 27.5819 52.0398 27.6766 52.4868 27.6766C52.786 27.6766 53.0568 27.6349 53.2993 27.5516C53.5417 27.4645 53.7519 27.3376 53.9299 27.1709C54.108 27.0042 54.2424 26.7978 54.3333 26.5516L56.2538 26.7675C56.1326 27.2751 55.9015 27.7182 55.5606 28.097C55.2235 28.472 54.7917 28.7637 54.2652 28.972C53.7386 29.1766 53.1364 29.2789 52.4583 29.2789ZM61.637 20.3811V21.972H56.62V20.3811H61.637ZM57.8586 18.2902H59.9154V26.4834C59.9154 26.7599 59.9571 26.972 60.0404 27.1198C60.1276 27.2637 60.2412 27.3622 60.3814 27.4152C60.5215 27.4682 60.6768 27.4948 60.8473 27.4948C60.9761 27.4948 61.0935 27.4853 61.1995 27.4664C61.3094 27.4474 61.3927 27.4304 61.4495 27.4152L61.7961 29.0232C61.6863 29.061 61.5291 29.1027 61.3245 29.1482C61.1238 29.1936 60.8776 29.2201 60.5859 29.2277C60.0708 29.2429 59.6067 29.1652 59.1939 28.9948C58.781 28.8205 58.4533 28.5516 58.2109 28.1879C57.9723 27.8243 57.8548 27.3698 57.8586 26.8243V18.2902ZM72.1407 20.6709C72.0877 20.1747 71.8642 19.7883 71.4703 19.5118C71.0801 19.2353 70.5725 19.097 69.9475 19.097C69.5082 19.097 69.1313 19.1633 68.8169 19.2959C68.5025 19.4285 68.2619 19.6084 68.0953 19.8357C67.9286 20.0629 67.8434 20.3224 67.8396 20.6141C67.8396 20.8565 67.8945 21.0667 68.0044 21.2448C68.118 21.4228 68.2714 21.5743 68.4646 21.6993C68.6578 21.8205 68.8718 21.9228 69.1066 22.0061C69.3415 22.0895 69.5782 22.1595 69.8169 22.2164L70.9078 22.4891C71.3472 22.5914 71.7695 22.7296 72.1748 22.9039C72.5839 23.0781 72.9494 23.2978 73.2714 23.5629C73.5972 23.8281 73.8547 24.1482 74.0441 24.5232C74.2335 24.8982 74.3282 25.3376 74.3282 25.8414C74.3282 26.5232 74.154 27.1235 73.8055 27.6425C73.457 28.1576 72.9532 28.561 72.2941 28.8527C71.6388 29.1406 70.8453 29.2845 69.9135 29.2845C69.0082 29.2845 68.2222 29.1444 67.5555 28.8641C66.8926 28.5838 66.3737 28.1747 65.9987 27.6368C65.6275 27.0989 65.4267 26.4436 65.3964 25.6709H67.4703C67.5006 26.0762 67.6256 26.4133 67.8453 26.6823C68.065 26.9512 68.351 27.152 68.7032 27.2845C69.0593 27.4171 69.457 27.4834 69.8964 27.4834C70.3547 27.4834 70.7563 27.4152 71.101 27.2789C71.4494 27.1387 71.7222 26.9455 71.9191 26.6993C72.1161 26.4493 72.2165 26.1576 72.2203 25.8243C72.2165 25.5213 72.1275 25.2713 71.9532 25.0743C71.779 24.8735 71.5347 24.7069 71.2203 24.5743C70.9097 24.4379 70.546 24.3167 70.1294 24.2107L68.8055 23.8698C67.8472 23.6235 67.0896 23.2504 66.5328 22.7504C65.9797 22.2467 65.7032 21.5781 65.7032 20.7448C65.7032 20.0592 65.8888 19.4588 66.26 18.9436C66.635 18.4285 67.1445 18.0289 67.7885 17.7448C68.4324 17.4569 69.1616 17.3129 69.976 17.3129C70.8017 17.3129 71.5252 17.4569 72.1464 17.7448C72.7714 18.0289 73.2619 18.4247 73.618 18.9323C73.9741 19.436 74.1578 20.0156 74.1691 20.6709H72.1407ZM79.6745 20.3811V21.972H74.6575V20.3811H79.6745ZM75.8961 18.2902H77.9529V26.4834C77.9529 26.7599 77.9946 26.972 78.0779 27.1198C78.1651 27.2637 78.2787 27.3622 78.4189 27.4152C78.559 27.4682 78.7143 27.4948 78.8848 27.4948C79.0136 27.4948 79.131 27.4853 79.237 27.4664C79.3469 27.4474 79.4302 27.4304 79.487 27.4152L79.8336 29.0232C79.7238 29.061 79.5666 29.1027 79.362 29.1482C79.1613 29.1936 78.9151 29.2201 78.6234 29.2277C78.1083 29.2429 77.6442 29.1652 77.2314 28.9948C76.8185 28.8205 76.4908 28.5516 76.2484 28.1879C76.0098 27.8243 75.8923 27.3698 75.8961 26.8243V18.2902ZM83.1061 29.2845C82.553 29.2845 82.0549 29.186 81.6118 28.9891C81.1724 28.7883 80.8239 28.4929 80.5663 28.1027C80.3125 27.7126 80.1856 27.2315 80.1856 26.6595C80.1856 26.1671 80.2765 25.7599 80.4583 25.4379C80.6402 25.116 80.8883 24.8584 81.2027 24.6652C81.5171 24.472 81.8712 24.3262 82.2652 24.2277C82.6629 24.1254 83.0739 24.0516 83.4981 24.0061C84.0095 23.9531 84.4243 23.9057 84.7424 23.8641C85.0606 23.8186 85.2917 23.7504 85.4356 23.6595C85.5833 23.5648 85.6572 23.419 85.6572 23.222V23.1879C85.6572 22.7599 85.5303 22.4285 85.2765 22.1936C85.0227 21.9588 84.6572 21.8414 84.1799 21.8414C83.6761 21.8414 83.2765 21.9512 82.9811 22.1709C82.6894 22.3906 82.4924 22.6501 82.3902 22.9493L80.4697 22.6766C80.6212 22.1463 80.8712 21.7031 81.2197 21.347C81.5682 20.9872 81.9943 20.7182 82.4981 20.5402C83.0019 20.3584 83.5587 20.2675 84.1686 20.2675C84.589 20.2675 85.0076 20.3167 85.4243 20.4152C85.8409 20.5137 86.2216 20.6766 86.5663 20.9039C86.911 21.1273 87.1875 21.4323 87.3958 21.8186C87.608 22.205 87.714 22.6879 87.714 23.2675V29.1084H85.7368V27.9095H85.6686C85.5436 28.152 85.3674 28.3792 85.1402 28.5914C84.9167 28.7997 84.6345 28.9682 84.2936 29.097C83.9565 29.222 83.5606 29.2845 83.1061 29.2845ZM83.6402 27.7732C84.053 27.7732 84.411 27.6917 84.714 27.5289C85.0171 27.3622 85.25 27.1425 85.4129 26.8698C85.5796 26.597 85.6629 26.2997 85.6629 25.9777V24.9493C85.5985 25.0023 85.4886 25.0516 85.3333 25.097C85.1818 25.1425 85.0114 25.1823 84.822 25.2164C84.6326 25.2504 84.4451 25.2807 84.2595 25.3073C84.0739 25.3338 83.9129 25.3565 83.7765 25.3754C83.4697 25.4171 83.1951 25.4853 82.9527 25.58C82.7102 25.6747 82.519 25.8073 82.3788 25.9777C82.2386 26.1444 82.1686 26.3603 82.1686 26.6254C82.1686 27.0042 82.3068 27.2902 82.5833 27.4834C82.8599 27.6766 83.2121 27.7732 83.6402 27.7732ZM88.9822 29.1084V20.3811H90.9765V21.8357H91.0674C91.2265 21.3319 91.4993 20.9436 91.8856 20.6709C92.2758 20.3944 92.7208 20.2561 93.2208 20.2561C93.3345 20.2561 93.4614 20.2618 93.6015 20.2732C93.7455 20.2807 93.8648 20.294 93.9595 20.3129V22.205C93.8724 22.1747 93.7341 22.1482 93.5447 22.1254C93.3591 22.0989 93.1792 22.0857 93.0049 22.0857C92.6299 22.0857 92.2928 22.1671 91.9936 22.33C91.6981 22.4891 91.4652 22.7107 91.2947 22.9948C91.1243 23.2789 91.039 23.6065 91.039 23.9777V29.1084H88.9822ZM99.3527 20.3811V21.972H94.3356V20.3811H99.3527ZM95.5743 18.2902H97.6311V26.4834C97.6311 26.7599 97.6727 26.972 97.7561 27.1198C97.8432 27.2637 97.9568 27.3622 98.097 27.4152C98.2371 27.4682 98.3924 27.4948 98.5629 27.4948C98.6917 27.4948 98.8091 27.4853 98.9152 27.4664C99.025 27.4474 99.1083 27.4304 99.1652 27.4152L99.5118 29.0232C99.4019 29.061 99.2447 29.1027 99.0402 29.1482C98.8394 29.1936 98.5932 29.2201 98.3015 29.2277C97.7864 29.2429 97.3224 29.1652 96.9095 28.9948C96.4966 28.8205 96.1689 28.5516 95.9265 28.1879C95.6879 27.8243 95.5705 27.3698 95.5743 26.8243V18.2902ZM104.043 29.2789C103.168 29.2789 102.412 29.097 101.776 28.7334C101.143 28.366 100.656 27.847 100.315 27.1766C99.9745 26.5023 99.8041 25.7088 99.8041 24.7959C99.8041 23.8982 99.9745 23.1103 100.315 22.4323C100.66 21.7504 101.141 21.2201 101.759 20.8414C102.376 20.4588 103.101 20.2675 103.935 20.2675C104.473 20.2675 104.98 20.3546 105.457 20.5289C105.939 20.6993 106.363 20.9645 106.73 21.3243C107.101 21.6842 107.393 22.1425 107.605 22.6993C107.817 23.2523 107.923 23.9114 107.923 24.6766V25.3073H100.77V23.9209H105.952C105.948 23.527 105.863 23.1766 105.696 22.8698C105.529 22.5592 105.297 22.3148 104.997 22.1368C104.702 21.9588 104.357 21.8698 103.963 21.8698C103.543 21.8698 103.173 21.972 102.855 22.1766C102.537 22.3773 102.289 22.6425 102.111 22.972C101.937 23.2978 101.848 23.6557 101.844 24.0459V25.2561C101.844 25.7637 101.937 26.1993 102.122 26.5629C102.308 26.9228 102.567 27.1993 102.901 27.3925C103.234 27.5819 103.624 27.6766 104.071 27.6766C104.37 27.6766 104.641 27.6349 104.884 27.5516C105.126 27.4645 105.336 27.3376 105.514 27.1709C105.692 27.0042 105.827 26.7978 105.918 26.5516L107.838 26.7675C107.717 27.2751 107.486 27.7182 107.145 28.097C106.808 28.472 106.376 28.7637 105.85 28.972C105.323 29.1766 104.721 29.2789 104.043 29.2789ZM112.102 29.2618C111.416 29.2618 110.803 29.0857 110.261 28.7334C109.72 28.3811 109.291 27.8698 108.977 27.1993C108.663 26.5289 108.506 25.7145 108.506 24.7561C108.506 23.7864 108.665 22.9682 108.983 22.3016C109.305 21.6311 109.738 21.1254 110.284 20.7845C110.829 20.4398 111.437 20.2675 112.108 20.2675C112.619 20.2675 113.04 20.3546 113.369 20.5289C113.699 20.6993 113.96 20.9057 114.153 21.1482C114.346 21.3868 114.496 21.6122 114.602 21.8243H114.687V17.472H116.75V29.1084H114.727V27.7334H114.602C114.496 27.9455 114.343 28.1709 114.142 28.4095C113.941 28.6444 113.676 28.8451 113.346 29.0118C113.017 29.1785 112.602 29.2618 112.102 29.2618ZM112.676 27.5743C113.112 27.5743 113.483 27.4569 113.79 27.222C114.096 26.9834 114.329 26.652 114.488 26.2277C114.648 25.8035 114.727 25.3092 114.727 24.7448C114.727 24.1804 114.648 23.6898 114.488 23.2732C114.333 22.8565 114.102 22.5326 113.795 22.3016C113.492 22.0705 113.119 21.955 112.676 21.955C112.218 21.955 111.835 22.0743 111.528 22.3129C111.221 22.5516 110.99 22.8811 110.835 23.3016C110.68 23.722 110.602 24.2031 110.602 24.7448C110.602 25.2902 110.68 25.777 110.835 26.205C110.994 26.6292 111.227 26.9645 111.534 27.2107C111.845 27.4531 112.225 27.5743 112.676 27.5743Z" fill="url(#paint2_linear_293_20453)"/></g><g style="mix-blend-mode:plus-lighter" filter="url(#filter3_f_293_20453)"><path d="M18.633 22.3319C19.7385 5.45154 43.8745 11.5524 55.9988 11.897C68.1232 12.2416 92.8145 7.1555 91.9884 24.417C91.1623 41.6784 69.9596 35.2879 57.8352 34.9432C45.7109 34.5986 17.5275 39.2124 18.633 22.3319Z" fill="#FCD292"/></g><g style="mix-blend-mode:plus-lighter" filter="url(#filter4_f_293_20453)"><path d="M142.059 28.6882C141.122 45.5672 123.584 39.13 114.753 38.6187C105.922 38.1073 87.8921 42.8585 88.6292 25.5943C89.3662 8.33011 104.764 15.017 113.595 15.5284C122.427 16.0397 142.997 11.8092 142.059 28.6882Z" fill="#FCD292"/></g></g><rect x="0.385542" y="0.385542" width="153.446" height="48.5783" rx="24.2892" stroke="url(#paint3_linear_293_20453)" stroke-width="0.771084"/><defs><filter id="filter0_iii_293_20453" x="3.08398" y="0.77122" width="148.049" height="48.5783" filterUnits="userSpaceOnUse" color-interpolation-filters="sRGB"><feFlood flood-opacity="0" result="BackgroundImageFix"/><feBlend mode="normal" in="SourceGraphic" in2="BackgroundImageFix" result="shape"/><feColorMatrix in="SourceAlpha" type="matrix" values="0 0 0 0 0 0 0 0 0 0 0 0 0 0 0 0 0 0 127 0" result="hardAlpha"/><feOffset dy="2.31325"/><feGaussianBlur stdDeviation="4.1253"/><feComposite in2="hardAlpha" operator="arithmetic" k2="-1" k3="1"/><feColorMatrix type="matrix" values="0 0 0 0 0.8725 0 0 0 0 0.547369 0 0 0 0 0.307556 0 0 0 0.37 0"/><feBlend mode="normal" in2="shape" result="effect1_innerShadow_293_20453"/><feColorMatrix in="SourceAlpha" type="matrix" values="0 0 0 0 0 0 0 0 0 0 0 0 0 0 0 0 0 0 127 0" result="hardAlpha"/><feOffset dy="3.08434"/><feGaussianBlur stdDeviation="4.39518"/><feComposite in2="hardAlpha" operator="arithmetic" k2="-1" k3="1"/><feColorMatrix type="matrix" values="0 0 0 0 0 0 0 0 0 0 0 0 0 0 0 0 0 0 0.25 0"/><feBlend mode="normal" in2="effect1_innerShadow_293_20453" result="effect2_innerShadow_293_20453"/><feColorMatrix in="SourceAlpha" type="matrix" values="0 0 0 0 0 0 0 0 0 0 0 0 0 0 0 0 0 0 127 0" result="hardAlpha"/><feOffset dy="-2.31325"/><feGaussianBlur stdDeviation="3.16145"/><feComposite in2="hardAlpha" operator="arithmetic" k2="-1" k3="1"/><feColorMatrix type="matrix" values="0 0 0 0 0.266719 0 0 0 0 0.266719 0 0 0 0 0.266719 0 0 0 0.25 0"/><feBlend mode="normal" in2="effect2_innerShadow_293_20453" result="effect3_innerShadow_293_20453"/></filter><filter id="filter1_f_293_20453" x="-32.7332" y="-54.9666" width="206.035" height="158.213" filterUnits="userSpaceOnUse" color-interpolation-filters="sRGB"><feFlood flood-opacity="0" result="BackgroundImageFix"/><feBlend mode="normal" in="SourceGraphic" in2="BackgroundImageFix" result="shape"/><feGaussianBlur stdDeviation="33.1566" result="effect1_foregroundBlur_293_20453"/></filter><filter id="filter2_di_293_20453" x="29.4776" y="11.2214" width="94.9061" height="27.2389" filterUnits="userSpaceOnUse" color-interpolation-filters="sRGB"><feFlood flood-opacity="0" result="BackgroundImageFix"/><feColorMatrix in="SourceAlpha" type="matrix" values="0 0 0 0 0 0 0 0 0 0 0 0 0 0 0 0 0 0 127 0" result="hardAlpha"/><feOffset dy="1.54217"/><feGaussianBlur stdDeviation="3.81687"/><feComposite in2="hardAlpha" operator="out"/><feColorMatrix type="matrix" values="0 0 0 0 1 0 0 0 0 1 0 0 0 0 1 0 0 0 0.25 0"/><feBlend mode="normal" in2="BackgroundImageFix" result="effect1_dropShadow_293_20453"/><feBlend mode="normal" in="SourceGraphic" in2="effect1_dropShadow_293_20453" result="shape"/><feColorMatrix in="SourceAlpha" type="matrix" values="0 0 0 0 0 0 0 0 0 0 0 0 0 0 0 0 0 0 127 0" result="hardAlpha"/><feOffset/><feGaussianBlur stdDeviation="1.23373"/><feComposite in2="hardAlpha" operator="arithmetic" k2="-1" k3="1"/><feColorMatrix type="matrix" values="0 0 0 0 0.996078 0 0 0 0 0.443137 0 0 0 0 0.0352941 0 0 0 1 0"/><feBlend mode="normal" in2="shape" result="effect2_innerShadow_293_20453"/></filter><filter id="filter3_f_293_20453" x="-47.7117" y="-55.7691" width="206.033" height="158.463" filterUnits="userSpaceOnUse" color-interpolation-filters="sRGB"><feFlood flood-opacity="0" result="BackgroundImageFix"/><feBlend mode="normal" in="SourceGraphic" in2="BackgroundImageFix" result="shape"/><feGaussianBlur stdDeviation="33.1566" result="effect1_foregroundBlur_293_20453"/></filter><filter id="filter4_f_293_20453" x="22.2942" y="-52.4817" width="186.109" height="159.04" filterUnits="userSpaceOnUse" color-interpolation-filters="sRGB"><feFlood flood-opacity="0" result="BackgroundImageFix"/><feBlend mode="normal" in="SourceGraphic" in2="BackgroundImageFix" result="shape"/><feGaussianBlur stdDeviation="33.1566" result="effect1_foregroundBlur_293_20453"/></filter><linearGradient id="paint0_linear_293_20453" x1="77.1084" y1="1.47073e-06" x2="77.1084" y2="49.3494" gradientUnits="userSpaceOnUse"><stop stop-color="#F4F4F4"/><stop offset="0.5" stop-color="#565656"/><stop offset="1" stop-color="#B3A293"/></linearGradient><linearGradient id="paint1_linear_293_20453" x1="77.1081" y1="-3.0842" x2="77.1081" y2="52.8194" gradientUnits="userSpaceOnUse"><stop stop-color="#D5D8D8"/><stop offset="1" stop-color="#8C8881"/></linearGradient><linearGradient id="paint2_linear_293_20453" x1="77.3805" y1="3.62564" x2="77.3805" y2="33.1084" gradientUnits="userSpaceOnUse"><stop stop-color="#FCD292"/><stop offset="1" stop-color="#1A1A1A"/></linearGradient><linearGradient id="paint3_linear_293_20453" x1="73.6385" y1="0" x2="73.6385" y2="49.3494" gradientUnits="userSpaceOnUse"><stop stop-color="#C9C9C9"/><stop offset="0.5" stop-color="#686A69"/><stop offset="1" stop-color="#ABC9C4"/></linearGradient><clipPath id="clip0_293_20453"><rect width="154.217" height="49.3494" rx="24.6747" fill="white"/></clipPath></defs></svg>