<svg width="268" height="316" viewBox="0 0 268 316" fill="none" xmlns="http://www.w3.org/2000/svg"><g clip-path="url(#clip0_293_20183)"><rect x="-240" y="8" width="500" height="300" rx="16" fill="url(#paint0_linear_293_20183)"/><path d="M358 410L358.707 410.707L760.707 8.70703L760 8L358 410ZM352 410L352.707 410.707L754.707 8.70703L754 8L352 410ZM346 410L346.707 410.707L748.707 8.70703L748 8L346 410ZM340 410L340.707 410.707L742.707 8.70703L742 8L340 410ZM334 410L334.707 410.707L736.707 8.70703L736 8L334 410ZM328 410L328.707 410.707L730.707 8.70703L730 8L328 410ZM322 410L322.707 410.707L724.707 8.70703L724 8L322 410ZM316 410L316.707 410.707L718.707 8.70703L718 8L316 410ZM310 410L310.707 410.707L712.707 8.70703L712 8L310 410ZM304 410L304.707 410.707L706.707 8.70703L706 8L304 410ZM298 410L298.707 410.707L700.707 8.70703L700 8L298 410ZM292 410L292.707 410.707L694.707 8.70703L694 8L292 410ZM286 410L286.707 410.707L688.707 8.70703L688 8L286 410ZM280 410L280.707 410.707L682.707 8.70703L682 8L280 410ZM274 410L274.707 410.707L676.707 8.70703L676 8L274 410ZM268 410L268.707 410.707L670.707 8.70703L670 8L268 410ZM262 410L262.707 410.707L664.707 8.70703L664 8L262 410ZM256 410L256.707 410.707L658.707 8.70703L658 8L256 410ZM250 410L250.707 410.707L652.707 8.70703L652 8L250 410ZM244 410L244.707 410.707L646.707 8.70703L646 8L244 410ZM238 410L238.707 410.707L640.707 8.70703L640 8L238 410ZM232 410L232.707 410.707L634.707 8.70703L634 8L232 410ZM226 410L226.707 410.707L628.707 8.70703L628 8L226 410ZM220 410L220.707 410.707L622.707 8.70703L622 8L220 410ZM214 410L214.707 410.707L616.707 8.70703L616 8L214 410ZM208 410L208.707 410.707L610.707 8.70703L610 8L208 410ZM202 410L202.707 410.707L604.707 8.70703L604 8L202 410ZM196 410L196.707 410.707L598.707 8.70703L598 8L196 410ZM190 410L190.707 410.707L592.707 8.70703L592 8L190 410ZM184 410L184.707 410.707L586.707 8.70703L586 8L184 410ZM178 410L178.707 410.707L580.707 8.70703L580 8L178 410ZM172 410L172.707 410.707L574.707 8.70703L574 8L172 410ZM166 410L166.707 410.707L568.707 8.70703L568 8L166 410ZM160 410L160.707 410.707L562.707 8.70703L562 8L160 410ZM154 410L154.707 410.707L556.707 8.70703L556 8L154 410ZM148 410L148.707 410.707L550.707 8.70703L550 8L148 410ZM142 410L142.707 410.707L544.707 8.70703L544 8L142 410ZM136 410L136.707 410.707L538.707 8.70703L538 8L136 410ZM130 410L130.707 410.707L532.707 8.70703L532 8L130 410ZM124 410L124.707 410.707L526.707 8.70703L526 8L124 410ZM118 410L118.707 410.707L520.707 8.70703L520 8L118 410ZM112 410L112.707 410.707L514.707 8.70703L514 8L112 410ZM106 410L106.707 410.707L508.707 8.70703L508 8L106 410ZM100 410L100.707 410.707L502.707 8.70703L502 8L100 410ZM94 410L94.707 410.707L496.707 8.70703L496 8L94 410ZM88 410L88.707 410.707L490.707 8.70703L490 8L88 410ZM82 410L82.707 410.707L484.707 8.70703L484 8L82 410ZM76 410L76.707 410.707L478.707 8.70703L478 8L76 410ZM70 410L70.707 410.707L472.707 8.70703L472 8L70 410ZM64 410L64.707 410.707L466.707 8.70703L466 8L64 410ZM58 410L58.707 410.707L460.707 8.70703L460 8L58 410ZM52 410L52.707 410.707L454.707 8.70703L454 8L52 410ZM46 410L46.707 410.707L448.707 8.70703L448 8L46 410ZM40 410L40.707 410.707L442.707 8.70703L442 8L40 410ZM34 410L34.707 410.707L436.707 8.70703L436 8L34 410ZM28 410L28.707 410.707L430.707 8.70703L430 8L28 410ZM22 410L22.707 410.707L424.707 8.70703L424 8L22 410ZM16 410L16.707 410.707L418.707 8.70703L418 8L16 410ZM10 410L10.707 410.707L412.707 8.70703L412 8L10 410ZM4 410L4.70703 410.707L406.707 8.70703L406 8L4 410ZM-2 410L-1.29297 410.707L400.707 8.70703L400 8L-2 410ZM-8 410L-7.29297 410.707L394.707 8.70703L394 8L-8 410ZM-14 410L-13.293 410.707L388.707 8.70703L388 8L-14 410ZM-20 410L-19.293 410.707L382.707 8.70703L382 8L-20 410ZM-26 410L-25.293 410.707L376.707 8.70703L376 8L-26 410ZM-32 410L-31.293 410.707L370.707 8.70703L370 8L-32 410ZM-38 410L-37.293 410.707L364.707 8.70703L364 8L-38 410ZM-44 410L-43.293 410.707L358.707 8.70703L358 8L-44 410ZM-50 410L-49.293 410.707L352.707 8.70703L352 8L-50 410ZM-56 410L-55.293 410.707L346.707 8.70703L346 8L-56 410ZM-62 410L-61.293 410.707L340.707 8.70703L340 8L-62 410ZM-68 410L-67.293 410.707L334.707 8.70703L334 8L-68 410ZM-74 410L-73.293 410.707L328.707 8.70703L328 8L-74 410ZM-80 410L-79.293 410.707L322.707 8.70703L322 8L-80 410ZM-86 410L-85.293 410.707L316.707 8.70703L316 8L-86 410ZM-92 410L-91.293 410.707L310.707 8.70703L310 8L-92 410ZM-98 410L-97.293 410.707L304.707 8.70703L304 8L-98 410ZM-104 410L-103.293 410.707L298.707 8.70703L298 8L-104 410ZM-110 410L-109.293 410.707L292.707 8.70703L292 8L-110 410ZM-116 410L-115.293 410.707L286.707 8.70703L286 8L-116 410ZM-122 410L-121.293 410.707L280.707 8.70703L280 8L-122 410ZM-128 410L-127.293 410.707L274.707 8.70703L274 8L-128 410ZM-134 410L-133.293 410.707L268.707 8.70703L268 8L-134 410ZM-140 410L-139.293 410.707L262.707 8.70703L262 8L-140 410ZM-146 410L-145.293 410.707L256.707 8.70703L256 8L-146 410ZM-152 410L-151.293 410.707L250.707 8.70703L250 8L-152 410ZM-158 410L-157.293 410.707L244.707 8.70703L244 8L-158 410ZM-164 410L-163.293 410.707L238.707 8.70703L238 8L-164 410ZM-170 410L-169.293 410.707L232.707 8.70703L232 8L-170 410ZM-176 410L-175.293 410.707L226.707 8.70703L226 8L-176 410ZM-182 410L-181.293 410.707L220.707 8.70703L220 8L-182 410ZM-188 410L-187.293 410.707L214.707 8.70703L214 8L-188 410ZM-194 410L-193.293 410.707L208.707 8.70703L208 8L-194 410ZM-200 410L-199.293 410.707L202.707 8.70703L202 8L-200 410ZM-206 410L-205.293 410.707L196.707 8.70703L196 8L-206 410ZM-212 410L-211.293 410.707L190.707 8.70703L190 8L-212 410ZM-218 410L-217.293 410.707L184.707 8.70703L184 8L-218 410ZM-224 410L-223.293 410.707L178.707 8.70703L178 8L-224 410ZM-230 410L-229.293 410.707L172.707 8.70703L172 8L-230 410ZM-236 410L-235.293 410.707L166.707 8.70703L166 8L-236 410ZM-242 410L-241.293 410.707L160.707 8.70703L160 8L-242 410ZM-248 410L-247.293 410.707L154.707 8.70703L154 8L-248 410ZM-254 410L-253.293 410.707L148.707 8.70703L148 8L-254 410ZM-260 410L-259.293 410.707L142.707 8.70703L142 8L-260 410ZM-266 410L-265.293 410.707L136.707 8.70703L136 8L-266 410ZM-272 410L-271.293 410.707L130.707 8.70703L130 8L-272 410ZM-278 410L-277.293 410.707L124.707 8.70703L124 8L-278 410ZM-284 410L-283.293 410.707L118.707 8.70703L118 8L-284 410ZM-290 410L-289.293 410.707L112.707 8.70703L112 8L-290 410ZM-296 410L-295.293 410.707L106.707 8.70703L106 8L-296 410ZM-302 410L-301.293 410.707L100.707 8.70703L100 8L-302 410ZM-308 410L-307.293 410.707L94.707 8.70703L94 8L-308 410ZM-314 410L-313.293 410.707L88.707 8.70703L88 8L-314 410ZM-320 410L-319.293 410.707L82.707 8.70703L82 8L-320 410ZM-326 410L-325.293 410.707L76.707 8.70703L76 8L-326 410ZM-332 410L-331.293 410.707L70.707 8.70703L70 8L-332 410ZM-338 410L-337.293 410.707L64.707 8.70703L64 8L-338 410ZM-344 410L-343.293 410.707L58.707 8.70703L58 8L-344 410ZM-350 410L-349.293 410.707L52.707 8.70703L52 8L-350 410ZM-356 410L-355.293 410.707L46.707 8.70703L46 8L-356 410ZM-362 410L-361.293 410.707L40.707 8.70703L40 8L-362 410ZM-368 410L-367.293 410.707L34.707 8.70703L34 8L-368 410ZM-374 410L-373.293 410.707L28.707 8.70703L28 8L-374 410ZM-380 410L-379.293 410.707L22.707 8.70703L22 8L-380 410ZM-386 410L-385.293 410.707L16.707 8.70703L16 8L-386 410ZM-392 410L-391.293 410.707L10.707 8.70703L10 8L-392 410ZM-398 410L-397.293 410.707L4.70703 8.70703L4 8L-398 410ZM-404 410L-403.293 410.707L-1.29297 8.70703L-2 8L-404 410ZM-410 410L-409.293 410.707L-7.29297 8.70703L-8 8L-410 410ZM-416 410L-415.293 410.707L-13.293 8.70703L-14 8L-416 410ZM-422 410L-421.293 410.707L-19.293 8.70703L-20 8L-422 410ZM-428 410L-427.293 410.707L-25.293 8.70703L-26 8L-428 410ZM-434 410L-433.293 410.707L-31.293 8.70703L-32 8L-434 410ZM-440 410L-439.293 410.707L-37.293 8.70703L-38 8L-440 410ZM-446 410L-445.293 410.707L-43.293 8.70703L-44 8L-446 410Z" fill="url(#paint1_linear_293_20183)" fill-opacity="0.18"/><rect x="-280" y="37" width="521" height="40" rx="8" fill="url(#paint2_linear_293_20183)" fill-opacity="0.82"/><path d="M31.9588 61V52.2727H35.1548C35.7741 52.2727 36.2869 52.375 36.6932 52.5795C37.0994 52.7812 37.4034 53.0554 37.6051 53.402C37.8068 53.7457 37.9077 54.1335 37.9077 54.5653C37.9077 54.929 37.8409 55.2358 37.7074 55.4858C37.5739 55.733 37.3949 55.9318 37.1705 56.0824C36.9489 56.2301 36.7045 56.3381 36.4375 56.4062V56.4915C36.7273 56.5057 37.0099 56.5994 37.2855 56.7727C37.5639 56.9432 37.794 57.1861 37.9759 57.5014C38.1577 57.8168 38.2486 58.2003 38.2486 58.652C38.2486 59.098 38.1435 59.4986 37.9332 59.8537C37.7259 60.206 37.4048 60.4858 36.9702 60.6932C36.5355 60.8977 35.9801 61 35.304 61H31.9588ZM33.2756 59.8707H35.1761C35.8068 59.8707 36.2585 59.7486 36.5312 59.5043C36.804 59.2599 36.9403 58.9545 36.9403 58.5881C36.9403 58.3125 36.8707 58.0597 36.7315 57.8295C36.5923 57.5994 36.3935 57.4162 36.1349 57.2798C35.8793 57.1435 35.5753 57.0753 35.223 57.0753H33.2756V59.8707ZM33.2756 56.0483H35.0398C35.3352 56.0483 35.6009 55.9915 35.8366 55.8778C36.0753 55.7642 36.2642 55.6051 36.4034 55.4006C36.5455 55.1932 36.6165 54.9489 36.6165 54.6676C36.6165 54.3068 36.4901 54.0043 36.2372 53.7599C35.9844 53.5156 35.5966 53.3935 35.0739 53.3935H33.2756V56.0483ZM41.8652 61.1321C41.2516 61.1321 40.7161 60.9915 40.2587 60.7102C39.8013 60.429 39.4462 60.0355 39.1933 59.5298C38.9405 59.0241 38.8141 58.4332 38.8141 57.7571C38.8141 57.0781 38.9405 56.4844 39.1933 55.9759C39.4462 55.4673 39.8013 55.0724 40.2587 54.7912C40.7161 54.5099 41.2516 54.3693 41.8652 54.3693C42.4788 54.3693 43.0143 54.5099 43.4717 54.7912C43.9291 55.0724 44.2842 55.4673 44.5371 55.9759C44.7899 56.4844 44.9163 57.0781 44.9163 57.7571C44.9163 58.4332 44.7899 59.0241 44.5371 59.5298C44.2842 60.0355 43.9291 60.429 43.4717 60.7102C43.0143 60.9915 42.4788 61.1321 41.8652 61.1321ZM41.8695 60.0625C42.2672 60.0625 42.5967 59.9574 42.8581 59.7472C43.1195 59.5369 43.3126 59.2571 43.4376 58.9077C43.5655 58.5582 43.6294 58.1733 43.6294 57.7528C43.6294 57.3352 43.5655 56.9517 43.4376 56.6023C43.3126 56.25 43.1195 55.9673 42.8581 55.7543C42.5967 55.5412 42.2672 55.4347 41.8695 55.4347C41.4689 55.4347 41.1365 55.5412 40.8723 55.7543C40.6109 55.9673 40.4163 56.25 40.2885 56.6023C40.1635 56.9517 40.101 57.3352 40.101 57.7528C40.101 58.1733 40.1635 58.5582 40.2885 58.9077C40.4163 59.2571 40.6109 59.5369 40.8723 59.7472C41.1365 59.9574 41.4689 60.0625 41.8695 60.0625ZM49.8849 58.2855V54.4545H51.1633V61H49.9104V59.8665H49.8423C49.6917 60.2159 49.4502 60.5071 49.1178 60.7401C48.7883 60.9702 48.3778 61.0852 47.8863 61.0852C47.4658 61.0852 47.0937 60.9929 46.7698 60.8082C46.4488 60.6207 46.196 60.3438 46.0113 59.9773C45.8295 59.6108 45.7386 59.1577 45.7386 58.6179V54.4545H47.0127V58.4645C47.0127 58.9105 47.1363 59.2656 47.3835 59.5298C47.6306 59.794 47.9516 59.9261 48.3465 59.9261C48.5852 59.9261 48.8224 59.8665 49.0582 59.7472C49.2968 59.6278 49.4942 59.4474 49.6505 59.206C49.8096 58.9645 49.8877 58.6577 49.8849 58.2855ZM53.5494 57.1136V61H52.2753V54.4545H53.4983V55.5199H53.5793C53.7298 55.1733 53.9656 54.8949 54.2866 54.6847C54.6105 54.4744 55.0182 54.3693 55.5097 54.3693C55.9557 54.3693 56.3463 54.4631 56.6815 54.6506C57.0168 54.8352 57.2767 55.1108 57.4614 55.4773C57.646 55.8437 57.7384 56.2969 57.7384 56.8366V61H56.4642V56.9901C56.4642 56.5156 56.3406 56.1449 56.0935 55.8778C55.8463 55.608 55.5068 55.473 55.075 55.473C54.7795 55.473 54.5168 55.5369 54.2866 55.6648C54.0594 55.7926 53.879 55.9801 53.7455 56.2273C53.6148 56.4716 53.5494 56.767 53.5494 57.1136ZM61.6043 61.1321C60.9707 61.1321 60.4253 60.9886 59.9679 60.7017C59.5134 60.4119 59.1639 60.0128 58.9196 59.5043C58.6753 58.9957 58.5531 58.4134 58.5531 57.7571C58.5531 57.0923 58.6781 56.5057 58.9281 55.9972C59.1781 55.4858 59.5304 55.0866 59.9849 54.7997C60.4395 54.5128 60.975 54.3693 61.5915 54.3693C62.0886 54.3693 62.5318 54.4616 62.921 54.6463C63.3102 54.8281 63.6241 55.0838 63.8628 55.4134C64.1043 55.7429 64.2477 56.1278 64.2932 56.5682H63.0531C62.9849 56.2614 62.8287 55.9972 62.5844 55.7756C62.3429 55.554 62.019 55.4432 61.6128 55.4432C61.2577 55.4432 60.9466 55.5369 60.6795 55.7244C60.4153 55.9091 60.2094 56.1733 60.0616 56.517C59.9139 56.858 59.8401 57.2614 59.8401 57.7273C59.8401 58.2045 59.9125 58.6165 60.0574 58.9631C60.2023 59.3097 60.4068 59.5781 60.671 59.7685C60.9381 59.9588 61.252 60.054 61.6128 60.054C61.8543 60.054 62.073 60.0099 62.269 59.9219C62.4679 59.831 62.6341 59.7017 62.7676 59.5341C62.904 59.3665 62.9991 59.1648 63.0531 58.929H64.2932C64.2477 59.3523 64.1099 59.7301 63.8798 60.0625C63.6497 60.3949 63.3415 60.6562 62.9551 60.8466C62.5716 61.0369 62.1213 61.1321 61.6043 61.1321ZM67.8768 61.1321C67.2319 61.1321 66.6765 60.9943 66.2106 60.7188C65.7475 60.4403 65.3896 60.0497 65.1367 59.5469C64.8867 59.0412 64.7617 58.4489 64.7617 57.7699C64.7617 57.0994 64.8867 56.5085 65.1367 55.9972C65.3896 55.4858 65.7418 55.0866 66.1935 54.7997C66.6481 54.5128 67.1793 54.3693 67.7873 54.3693C68.1566 54.3693 68.5146 54.4304 68.8612 54.5526C69.2077 54.6747 69.5188 54.8665 69.7944 55.1278C70.07 55.3892 70.2873 55.7287 70.4464 56.1463C70.6055 56.5611 70.685 57.0653 70.685 57.6591V58.1108H65.4819V57.1562H69.4364C69.4364 56.821 69.3683 56.5241 69.2319 56.2656C69.0955 56.0043 68.9038 55.7983 68.6566 55.6477C68.4123 55.4972 68.1254 55.4219 67.7958 55.4219C67.4379 55.4219 67.1254 55.5099 66.8583 55.6861C66.5941 55.8594 66.3896 56.0866 66.2447 56.3679C66.1026 56.6463 66.0316 56.9489 66.0316 57.2756V58.0213C66.0316 58.4588 66.1083 58.831 66.2617 59.1378C66.418 59.4446 66.6353 59.679 66.9137 59.8409C67.1921 60 67.5174 60.0795 67.8896 60.0795C68.131 60.0795 68.3512 60.0455 68.5501 59.9773C68.7489 59.9062 68.9208 59.8011 69.0657 59.6619C69.2106 59.5227 69.3214 59.3509 69.3981 59.1463L70.604 59.3636C70.5075 59.7187 70.3342 60.0298 70.0842 60.2969C69.837 60.5611 69.5259 60.767 69.1509 60.9148C68.7788 61.0597 68.354 61.1321 67.8768 61.1321ZM74.1768 61V52.2727H77.2876C77.9637 52.2727 78.5248 52.3892 78.9708 52.6222C79.4197 52.8551 79.7549 53.1776 79.9765 53.5895C80.1981 53.9986 80.3089 54.4716 80.3089 55.0085C80.3089 55.5426 80.1967 56.0128 79.9722 56.419C79.7506 56.8224 79.4154 57.1364 78.9665 57.3608C78.5205 57.5852 77.9594 57.6974 77.2833 57.6974H74.9268V56.5639H77.164C77.5901 56.5639 77.9367 56.5028 78.2038 56.3807C78.4736 56.2585 78.6711 56.081 78.7961 55.848C78.9211 55.6151 78.9836 55.3352 78.9836 55.0085C78.9836 54.679 78.9197 54.3935 78.7918 54.152C78.6668 53.9105 78.4694 53.7259 78.1995 53.598C77.9325 53.4673 77.5816 53.402 77.1469 53.402H75.4935V61H74.1768ZM78.485 57.0625L80.6413 61H79.1413L77.0276 57.0625H78.485ZM83.1137 61.1449C82.6989 61.1449 82.3239 61.0682 81.9887 60.9148C81.6535 60.7585 81.3879 60.5327 81.1918 60.2372C80.9987 59.9418 80.9021 59.5795 80.9021 59.1506C80.9021 58.7812 80.9731 58.4773 81.1151 58.2386C81.2572 58 81.4489 57.8111 81.6904 57.6719C81.9319 57.5327 82.2018 57.4276 82.5001 57.3565C82.7984 57.2855 83.1023 57.2315 83.412 57.1946C83.804 57.1491 84.1222 57.1122 84.3665 57.0838C84.6109 57.0526 84.7884 57.0028 84.8992 56.9347C85.01 56.8665 85.0654 56.7557 85.0654 56.6023V56.5724C85.0654 56.2003 84.9603 55.9119 84.7501 55.7074C84.5427 55.5028 84.233 55.4006 83.8211 55.4006C83.3921 55.4006 83.054 55.4957 82.8069 55.6861C82.5626 55.8736 82.3935 56.0824 82.2998 56.3125L81.1023 56.0398C81.2444 55.642 81.4518 55.321 81.7245 55.0767C82.0001 54.8295 82.3168 54.6506 82.6748 54.5398C83.0327 54.4261 83.4092 54.3693 83.804 54.3693C84.0654 54.3693 84.3424 54.4006 84.635 54.4631C84.9305 54.5227 85.206 54.6335 85.4617 54.7955C85.7202 54.9574 85.9319 55.1889 86.0967 55.4901C86.2614 55.7884 86.3438 56.1761 86.3438 56.6534V61H85.0995V60.1051H85.0484C84.966 60.2699 84.8424 60.4318 84.6776 60.5909C84.5129 60.75 84.3012 60.8821 84.0427 60.9872C83.7842 61.0923 83.4745 61.1449 83.1137 61.1449ZM83.3907 60.1222C83.743 60.1222 84.0441 60.0526 84.2941 59.9134C84.5469 59.7741 84.7387 59.5923 84.8694 59.3679C85.0029 59.1406 85.0697 58.8977 85.0697 58.6392V57.7955C85.0242 57.8409 84.9362 57.8835 84.8055 57.9233C84.6776 57.9602 84.5313 57.9929 84.3665 58.0213C84.2018 58.0469 84.0413 58.071 83.885 58.0938C83.7288 58.1136 83.5981 58.1307 83.493 58.1449C83.2458 58.1761 83.02 58.2287 82.8154 58.3026C82.6137 58.3764 82.4518 58.483 82.3296 58.6222C82.2103 58.7585 82.1506 58.9403 82.1506 59.1676C82.1506 59.483 82.2671 59.7216 82.5001 59.8835C82.733 60.0426 83.0299 60.1222 83.3907 60.1222ZM90.4963 54.4545V55.4773H86.921V54.4545H90.4963ZM87.8798 52.8864H89.154V59.0781C89.154 59.3253 89.1909 59.5114 89.2648 59.6364C89.3386 59.7585 89.4338 59.8423 89.5503 59.8878C89.6696 59.9304 89.7989 59.9517 89.9381 59.9517C90.0403 59.9517 90.1298 59.9446 90.2065 59.9304C90.2832 59.9162 90.3429 59.9048 90.3855 59.8963L90.6156 60.9489C90.5418 60.9773 90.4366 61.0057 90.3003 61.0341C90.1639 61.0653 89.9935 61.0824 89.7889 61.0852C89.4537 61.0909 89.1412 61.0312 88.8514 60.9062C88.5616 60.7812 88.3273 60.5881 88.1483 60.3267C87.9693 60.0653 87.8798 59.7372 87.8798 59.3423V52.8864ZM94.0565 61.1321C93.4116 61.1321 92.8562 60.9943 92.3903 60.7188C91.9272 60.4403 91.5692 60.0497 91.3164 59.5469C91.0664 59.0412 90.9414 58.4489 90.9414 57.7699C90.9414 57.0994 91.0664 56.5085 91.3164 55.9972C91.5692 55.4858 91.9215 55.0866 92.3732 54.7997C92.8278 54.5128 93.359 54.3693 93.967 54.3693C94.3363 54.3693 94.6942 54.4304 95.0408 54.5526C95.3874 54.6747 95.6985 54.8665 95.9741 55.1278C96.2496 55.3892 96.467 55.7287 96.6261 56.1463C96.7852 56.5611 96.8647 57.0653 96.8647 57.6591V58.1108H91.6616V57.1562H95.6161C95.6161 56.821 95.5479 56.5241 95.4116 56.2656C95.2752 56.0043 95.0835 55.7983 94.8363 55.6477C94.592 55.4972 94.305 55.4219 93.9755 55.4219C93.6175 55.4219 93.305 55.5099 93.038 55.6861C92.7738 55.8594 92.5692 56.0866 92.4244 56.3679C92.2823 56.6463 92.2113 56.9489 92.2113 57.2756V58.0213C92.2113 58.4588 92.288 58.831 92.4414 59.1378C92.5977 59.4446 92.815 59.679 93.0934 59.8409C93.3718 60 93.6971 60.0795 94.0692 60.0795C94.3107 60.0795 94.5309 60.0455 94.7298 59.9773C94.9286 59.9062 95.1005 59.8011 95.2454 59.6619C95.3903 59.5227 95.5011 59.3509 95.5778 59.1463L96.7837 59.3636C96.6871 59.7187 96.5138 60.0298 96.2638 60.2969C96.0167 60.5611 95.7056 60.767 95.3306 60.9148C94.9585 61.0597 94.5337 61.1321 94.0565 61.1321Z" fill="#7C7C7C"/><path d="M182.719 54.5653C182.673 54.1619 182.486 53.8494 182.156 53.6278C181.827 53.4034 181.412 53.2912 180.912 53.2912C180.554 53.2912 180.244 53.348 179.983 53.4616C179.722 53.5724 179.518 53.7259 179.374 53.9219C179.232 54.1151 179.161 54.3352 179.161 54.5824C179.161 54.7898 179.209 54.9687 179.305 55.1193C179.405 55.2699 179.534 55.3963 179.693 55.4986C179.855 55.598 180.028 55.6818 180.213 55.75C180.398 55.8153 180.575 55.8693 180.746 55.9119L181.598 56.1335C181.876 56.2017 182.162 56.294 182.455 56.4105C182.747 56.527 183.018 56.6804 183.268 56.8707C183.518 57.0611 183.72 57.2969 183.874 57.5781C184.03 57.8594 184.108 58.196 184.108 58.5881C184.108 59.0824 183.98 59.5213 183.724 59.9048C183.472 60.2884 183.104 60.5909 182.621 60.8125C182.141 61.0341 181.56 61.1449 180.878 61.1449C180.224 61.1449 179.659 61.0412 179.182 60.8338C178.705 60.6264 178.331 60.3324 178.061 59.9517C177.791 59.5682 177.642 59.1136 177.614 58.5881H178.935C178.96 58.9034 179.063 59.1662 179.241 59.3764C179.423 59.5838 179.655 59.7386 179.936 59.8409C180.22 59.9403 180.531 59.9901 180.869 59.9901C181.241 59.9901 181.572 59.9318 181.862 59.8153C182.155 59.696 182.385 59.5312 182.553 59.321C182.72 59.108 182.804 58.8594 182.804 58.5753C182.804 58.3168 182.73 58.1051 182.582 57.9403C182.438 57.7756 182.24 57.6392 181.99 57.5312C181.743 57.4233 181.463 57.3281 181.151 57.2457L180.119 56.9645C179.42 56.7741 178.866 56.4943 178.457 56.125C178.051 55.7557 177.848 55.267 177.848 54.6591C177.848 54.1562 177.984 53.7173 178.257 53.3423C178.53 52.9673 178.899 52.6761 179.365 52.4688C179.831 52.2585 180.357 52.1534 180.942 52.1534C181.533 52.1534 182.054 52.2571 182.506 52.4645C182.96 52.6719 183.318 52.9574 183.58 53.321C183.841 53.6818 183.977 54.0966 183.989 54.5653H182.719ZM188.035 54.4545V55.4773H184.459V54.4545H188.035ZM185.418 52.8864H186.692V59.0781C186.692 59.3253 186.729 59.5114 186.803 59.6364C186.877 59.7585 186.972 59.8423 187.089 59.8878C187.208 59.9304 187.337 59.9517 187.476 59.9517C187.579 59.9517 187.668 59.9446 187.745 59.9304C187.822 59.9162 187.881 59.9048 187.924 59.8963L188.154 60.9489C188.08 60.9773 187.975 61.0057 187.839 61.0341C187.702 61.0653 187.532 61.0824 187.327 61.0852C186.992 61.0909 186.679 61.0312 186.39 60.9062C186.1 60.7812 185.866 60.5881 185.687 60.3267C185.508 60.0653 185.418 59.7372 185.418 59.3423V52.8864ZM190.749 61.1449C190.334 61.1449 189.959 61.0682 189.624 60.9148C189.289 60.7585 189.023 60.5327 188.827 60.2372C188.634 59.9418 188.537 59.5795 188.537 59.1506C188.537 58.7812 188.608 58.4773 188.75 58.2386C188.892 58 189.084 57.8111 189.326 57.6719C189.567 57.5327 189.837 57.4276 190.135 57.3565C190.434 57.2855 190.738 57.2315 191.047 57.1946C191.439 57.1491 191.757 57.1122 192.002 57.0838C192.246 57.0526 192.424 57.0028 192.534 56.9347C192.645 56.8665 192.701 56.7557 192.701 56.6023V56.5724C192.701 56.2003 192.595 55.9119 192.385 55.7074C192.178 55.5028 191.868 55.4006 191.456 55.4006C191.027 55.4006 190.689 55.4957 190.442 55.6861C190.198 55.8736 190.029 56.0824 189.935 56.3125L188.738 56.0398C188.88 55.642 189.087 55.321 189.36 55.0767C189.635 54.8295 189.952 54.6506 190.31 54.5398C190.668 54.4261 191.044 54.3693 191.439 54.3693C191.701 54.3693 191.978 54.4006 192.27 54.4631C192.566 54.5227 192.841 54.6335 193.097 54.7955C193.355 54.9574 193.567 55.1889 193.732 55.4901C193.897 55.7884 193.979 56.1761 193.979 56.6534V61H192.735V60.1051H192.684C192.601 60.2699 192.478 60.4318 192.313 60.5909C192.148 60.75 191.936 60.8821 191.678 60.9872C191.419 61.0923 191.11 61.1449 190.749 61.1449ZM191.026 60.1222C191.378 60.1222 191.679 60.0526 191.929 59.9134C192.182 59.7741 192.374 59.5923 192.505 59.3679C192.638 59.1406 192.705 58.8977 192.705 58.6392V57.7955C192.659 57.8409 192.571 57.8835 192.441 57.9233C192.313 57.9602 192.166 57.9929 192.002 58.0213C191.837 58.0469 191.676 58.071 191.52 58.0938C191.364 58.1136 191.233 58.1307 191.128 58.1449C190.881 58.1761 190.655 58.2287 190.451 58.3026C190.249 58.3764 190.087 58.483 189.965 58.6222C189.845 58.7585 189.786 58.9403 189.786 59.1676C189.786 59.483 189.902 59.7216 190.135 59.8835C190.368 60.0426 190.665 60.1222 191.026 60.1222ZM198.131 54.4545V55.4773H194.556V54.4545H198.131ZM195.515 52.8864H196.789V59.0781C196.789 59.3253 196.826 59.5114 196.9 59.6364C196.974 59.7585 197.069 59.8423 197.185 59.8878C197.305 59.9304 197.434 59.9517 197.573 59.9517C197.675 59.9517 197.765 59.9446 197.842 59.9304C197.918 59.9162 197.978 59.9048 198.021 59.8963L198.251 60.9489C198.177 60.9773 198.072 61.0057 197.935 61.0341C197.799 61.0653 197.629 61.0824 197.424 61.0852C197.089 61.0909 196.776 61.0312 196.487 60.9062C196.197 60.7812 195.962 60.5881 195.783 60.3267C195.604 60.0653 195.515 59.7372 195.515 59.3423V52.8864ZM203.087 58.2855V54.4545H204.366V61H203.113V59.8665H203.045C202.894 60.2159 202.653 60.5071 202.32 60.7401C201.991 60.9702 201.58 61.0852 201.089 61.0852C200.668 61.0852 200.296 60.9929 199.972 60.8082C199.651 60.6207 199.398 60.3438 199.214 59.9773C199.032 59.6108 198.941 59.1577 198.941 58.6179V54.4545H200.215V58.4645C200.215 58.9105 200.339 59.2656 200.586 59.5298C200.833 59.794 201.154 59.9261 201.549 59.9261C201.788 59.9261 202.025 59.8665 202.261 59.7472C202.499 59.6278 202.697 59.4474 202.853 59.206C203.012 58.9645 203.09 58.6577 203.087 58.2855ZM210.382 56.0526L209.228 56.2571C209.179 56.1094 209.103 55.9687 208.998 55.8352C208.895 55.7017 208.756 55.5923 208.58 55.5071C208.404 55.4219 208.184 55.3793 207.919 55.3793C207.559 55.3793 207.257 55.4602 207.016 55.6222C206.775 55.7812 206.654 55.9872 206.654 56.2401C206.654 56.4588 206.735 56.6349 206.897 56.7685C207.059 56.902 207.32 57.0114 207.681 57.0966L208.721 57.3352C209.323 57.4744 209.772 57.6889 210.067 57.9787C210.363 58.2685 210.51 58.6449 210.51 59.108C210.51 59.5 210.397 59.8494 210.169 60.1562C209.945 60.4602 209.631 60.6989 209.228 60.8722C208.827 61.0455 208.363 61.1321 207.834 61.1321C207.101 61.1321 206.503 60.9759 206.04 60.6634C205.577 60.348 205.293 59.9006 205.188 59.321L206.419 59.1335C206.496 59.4545 206.654 59.6974 206.892 59.8622C207.131 60.0241 207.442 60.1051 207.826 60.1051C208.243 60.1051 208.577 60.0185 208.827 59.8452C209.077 59.669 209.202 59.4545 209.202 59.2017C209.202 58.9972 209.125 58.8253 208.972 58.6861C208.821 58.5469 208.59 58.4418 208.277 58.3707L207.169 58.1278C206.559 57.9886 206.107 57.767 205.814 57.4631C205.525 57.1591 205.38 56.7741 205.38 56.3082C205.38 55.9219 205.488 55.5838 205.703 55.294C205.919 55.0043 206.218 54.7784 206.598 54.6165C206.979 54.4517 207.415 54.3693 207.907 54.3693C208.614 54.3693 209.171 54.5227 209.577 54.8295C209.983 55.1335 210.252 55.5412 210.382 56.0526Z" fill="#7C7C7C"/><g opacity="0.5"><path fill-rule="evenodd" clip-rule="evenodd" d="M106.461 53.1378L109.231 55.797L108.539 56.4617L106.115 54.1348L103.692 56.4617L103 55.797L105.769 53.1378C105.861 53.0497 105.986 53.0002 106.115 53.0002C106.245 53.0002 106.37 53.0497 106.461 53.1378Z" fill="white"/><path fill-rule="evenodd" clip-rule="evenodd" d="M106.461 61.8617L109.231 59.2025L108.539 58.5378L106.115 60.8647L103.692 58.5378L103 59.2025L105.769 61.8617C105.861 61.9499 105.986 61.9994 106.115 61.9994C106.245 61.9994 106.37 61.9499 106.461 61.8617Z" fill="white"/></g><g clip-path="url(#clip1_293_20183)"><rect x="-263" y="89" width="504" height="40" rx="8" fill="url(#paint3_linear_293_20183)" fill-opacity="0.82"/><g filter="url(#filter0_d_293_20183)"><g clip-path="url(#clip2_293_20183)"><rect x="157" y="97" width="76" height="24" rx="6" fill="url(#paint4_linear_293_20183)" shape-rendering="crispEdges"/><path d="M184.959 113V104.273H186.276V108.065H190.626V104.273H191.947V113H190.626V109.195H186.276V113H184.959ZM195.984 113.132C195.339 113.132 194.784 112.994 194.318 112.719C193.855 112.44 193.497 112.05 193.244 111.547C192.994 111.041 192.869 110.449 192.869 109.77C192.869 109.099 192.994 108.509 193.244 107.997C193.497 107.486 193.849 107.087 194.301 106.8C194.755 106.513 195.286 106.369 195.894 106.369C196.264 106.369 196.622 106.43 196.968 106.553C197.315 106.675 197.626 106.866 197.901 107.128C198.177 107.389 198.394 107.729 198.553 108.146C198.713 108.561 198.792 109.065 198.792 109.659V110.111H193.589V109.156H197.543C197.543 108.821 197.475 108.524 197.339 108.266C197.203 108.004 197.011 107.798 196.764 107.648C196.519 107.497 196.232 107.422 195.903 107.422C195.545 107.422 195.232 107.51 194.965 107.686C194.701 107.859 194.497 108.087 194.352 108.368C194.21 108.646 194.139 108.949 194.139 109.276V110.021C194.139 110.459 194.215 110.831 194.369 111.138C194.525 111.445 194.742 111.679 195.021 111.841C195.299 112 195.624 112.08 195.997 112.08C196.238 112.08 196.458 112.045 196.657 111.977C196.856 111.906 197.028 111.801 197.173 111.662C197.318 111.523 197.428 111.351 197.505 111.146L198.711 111.364C198.614 111.719 198.441 112.03 198.191 112.297C197.944 112.561 197.633 112.767 197.258 112.915C196.886 113.06 196.461 113.132 195.984 113.132ZM201.511 113.145C201.096 113.145 200.721 113.068 200.386 112.915C200.05 112.759 199.785 112.533 199.589 112.237C199.396 111.942 199.299 111.58 199.299 111.151C199.299 110.781 199.37 110.477 199.512 110.239C199.654 110 199.846 109.811 200.087 109.672C200.329 109.533 200.599 109.428 200.897 109.357C201.195 109.286 201.499 109.232 201.809 109.195C202.201 109.149 202.519 109.112 202.763 109.084C203.008 109.053 203.185 109.003 203.296 108.935C203.407 108.866 203.462 108.756 203.462 108.602V108.572C203.462 108.2 203.357 107.912 203.147 107.707C202.94 107.503 202.63 107.401 202.218 107.401C201.789 107.401 201.451 107.496 201.204 107.686C200.959 107.874 200.79 108.082 200.697 108.312L199.499 108.04C199.641 107.642 199.849 107.321 200.121 107.077C200.397 106.83 200.714 106.651 201.072 106.54C201.43 106.426 201.806 106.369 202.201 106.369C202.462 106.369 202.739 106.401 203.032 106.463C203.327 106.523 203.603 106.634 203.859 106.795C204.117 106.957 204.329 107.189 204.494 107.49C204.658 107.788 204.741 108.176 204.741 108.653V113H203.496V112.105H203.445C203.363 112.27 203.239 112.432 203.075 112.591C202.91 112.75 202.698 112.882 202.44 112.987C202.181 113.092 201.871 113.145 201.511 113.145ZM201.788 112.122C202.14 112.122 202.441 112.053 202.691 111.913C202.944 111.774 203.136 111.592 203.266 111.368C203.4 111.141 203.467 110.898 203.467 110.639V109.795C203.421 109.841 203.333 109.884 203.202 109.923C203.075 109.96 202.928 109.993 202.763 110.021C202.599 110.047 202.438 110.071 202.282 110.094C202.126 110.114 201.995 110.131 201.89 110.145C201.643 110.176 201.417 110.229 201.212 110.303C201.011 110.376 200.849 110.483 200.726 110.622C200.607 110.759 200.548 110.94 200.548 111.168C200.548 111.483 200.664 111.722 200.897 111.884C201.13 112.043 201.427 112.122 201.788 112.122ZM207.112 104.273V113H205.838V104.273H207.112ZM211.281 106.455V107.477H207.706V106.455H211.281ZM208.665 104.886H209.939V111.078C209.939 111.325 209.976 111.511 210.05 111.636C210.124 111.759 210.219 111.842 210.335 111.888C210.455 111.93 210.584 111.952 210.723 111.952C210.825 111.952 210.915 111.945 210.992 111.93C211.068 111.916 211.128 111.905 211.171 111.896L211.401 112.949C211.327 112.977 211.222 113.006 211.085 113.034C210.949 113.065 210.779 113.082 210.574 113.085C210.239 113.091 209.926 113.031 209.637 112.906C209.347 112.781 209.112 112.588 208.933 112.327C208.754 112.065 208.665 111.737 208.665 111.342V104.886ZM213.506 109.114V113H212.232V104.273H213.489V107.52H213.57C213.723 107.168 213.957 106.888 214.273 106.68C214.588 106.473 215 106.369 215.509 106.369C215.957 106.369 216.349 106.462 216.685 106.646C217.023 106.831 217.284 107.107 217.469 107.473C217.656 107.837 217.75 108.291 217.75 108.837V113H216.476V108.99C216.476 108.51 216.352 108.138 216.105 107.874C215.858 107.607 215.514 107.473 215.074 107.473C214.773 107.473 214.503 107.537 214.264 107.665C214.028 107.793 213.842 107.98 213.706 108.227C213.572 108.472 213.506 108.767 213.506 109.114ZM219.421 115.455C219.231 115.455 219.058 115.439 218.901 115.408C218.745 115.379 218.629 115.348 218.552 115.314L218.859 114.27C219.092 114.332 219.299 114.359 219.481 114.351C219.663 114.342 219.823 114.274 219.963 114.146C220.105 114.018 220.23 113.81 220.338 113.52L220.495 113.085L218.1 106.455H219.464L221.122 111.534H221.19L222.847 106.455H224.215L221.518 113.874C221.393 114.214 221.234 114.503 221.041 114.739C220.847 114.977 220.617 115.156 220.35 115.276C220.083 115.395 219.774 115.455 219.421 115.455Z" fill="url(#paint5_linear_293_20183)"/><path d="M167.999 113.608C168.205 114.131 168.945 114.131 169.151 113.608L169.79 111.988C169.853 111.829 169.979 111.703 170.138 111.64L171.758 111.001C172.281 110.795 172.281 110.055 171.758 109.849L170.138 109.21C169.979 109.147 169.853 109.021 169.79 108.862L169.151 107.242C168.945 106.719 168.205 106.719 167.999 107.242L167.36 108.862C167.297 109.021 167.171 109.147 167.012 109.21L165.392 109.849C164.869 110.055 164.869 110.795 165.392 111.001L167.012 111.64C167.171 111.703 167.297 111.829 167.36 111.988L167.999 113.608Z" fill="url(#paint6_linear_293_20183)"/><path d="M173.208 107.735C173.322 108.022 173.728 108.022 173.842 107.735L174.337 106.479C174.371 106.391 174.441 106.321 174.529 106.287L175.785 105.792C176.072 105.678 176.072 105.272 175.785 105.158L174.529 104.663C174.441 104.629 174.371 104.559 174.337 104.471L173.842 103.215C173.728 102.928 173.322 102.928 173.208 103.215L172.713 104.471C172.679 104.559 172.609 104.629 172.521 104.663L171.265 105.158C170.978 105.272 170.978 105.678 171.265 105.792L172.521 106.287C172.609 106.321 172.679 106.391 172.713 106.479L173.208 107.735Z" fill="url(#paint7_linear_293_20183)"/><g style="mix-blend-mode:plus-lighter" filter="url(#filter1_f_293_20183)"><rect x="205" y="117" width="40" height="9" fill="#D9D9D9"/></g><g style="mix-blend-mode:plus-lighter" filter="url(#filter2_f_293_20183)"><rect x="160" y="119" width="40" height="9" fill="#D9D9D9"/></g></g></g><path d="M59.8778 114.145C59.2045 114.142 58.6293 113.964 58.152 113.612C57.6747 113.26 57.3097 112.747 57.0568 112.074C56.804 111.401 56.6776 110.589 56.6776 109.641C56.6776 108.695 56.804 107.886 57.0568 107.216C57.3125 106.545 57.679 106.034 58.1562 105.682C58.6364 105.33 59.2102 105.153 59.8778 105.153C60.5455 105.153 61.1179 105.331 61.5952 105.686C62.0724 106.038 62.4375 106.55 62.6903 107.22C62.946 107.888 63.0739 108.695 63.0739 109.641C63.0739 110.592 62.9474 111.405 62.6946 112.078C62.4418 112.749 62.0767 113.261 61.5994 113.616C61.1222 113.969 60.5483 114.145 59.8778 114.145ZM59.8778 113.007C60.4688 113.007 60.9304 112.719 61.2628 112.142C61.598 111.565 61.7656 110.732 61.7656 109.641C61.7656 108.916 61.6889 108.304 61.5355 107.804C61.3849 107.301 61.1676 106.92 60.8835 106.662C60.6023 106.401 60.267 106.27 59.8778 106.27C59.2898 106.27 58.8281 106.56 58.4929 107.139C58.1577 107.719 57.9886 108.553 57.9858 109.641C57.9858 110.368 58.0611 110.983 58.2116 111.486C58.3651 111.986 58.5824 112.365 58.8636 112.624C59.1449 112.879 59.483 113.007 59.8778 113.007ZM64.5257 114.081C64.2928 114.081 64.0925 113.999 63.9249 113.834C63.7572 113.666 63.6734 113.464 63.6734 113.229C63.6734 112.996 63.7572 112.797 63.9249 112.632C64.0925 112.464 64.2928 112.381 64.5257 112.381C64.7587 112.381 64.9589 112.464 65.1266 112.632C65.2942 112.797 65.378 112.996 65.378 113.229C65.378 113.385 65.3382 113.528 65.2587 113.659C65.182 113.787 65.0797 113.889 64.9518 113.966C64.824 114.043 64.682 114.081 64.5257 114.081ZM69.1235 114.119C68.5127 114.119 67.9729 114.014 67.5042 113.804C67.0383 113.594 66.6732 113.304 66.409 112.935C66.1448 112.565 66.0141 112.145 66.017 111.673C66.0141 111.304 66.0894 110.964 66.2428 110.655C66.3991 110.342 66.6107 110.082 66.8778 109.875C67.1448 109.665 67.4431 109.531 67.7727 109.474V109.423C67.338 109.318 66.99 109.085 66.7286 108.724C66.4673 108.364 66.338 107.949 66.3408 107.48C66.338 107.034 66.4559 106.636 66.6945 106.287C66.936 105.935 67.267 105.658 67.6874 105.456C68.1079 105.254 68.5866 105.153 69.1235 105.153C69.6548 105.153 70.1292 105.256 70.5468 105.46C70.9673 105.662 71.2982 105.939 71.5397 106.291C71.7812 106.641 71.9033 107.037 71.9062 107.48C71.9033 107.949 71.7698 108.364 71.5056 108.724C71.2414 109.085 70.8977 109.318 70.4744 109.423V109.474C70.8011 109.531 71.0951 109.665 71.3565 109.875C71.6207 110.082 71.8309 110.342 71.9871 110.655C72.1462 110.964 72.2272 111.304 72.23 111.673C72.2272 112.145 72.0937 112.565 71.8295 112.935C71.5653 113.304 71.1988 113.594 70.73 113.804C70.2641 114.014 69.7286 114.119 69.1235 114.119ZM69.1235 113.041C69.4843 113.041 69.7968 112.982 70.061 112.862C70.3252 112.74 70.5298 112.571 70.6746 112.355C70.8195 112.136 70.8934 111.881 70.8962 111.588C70.8934 111.284 70.8138 111.016 70.6576 110.783C70.5042 110.55 70.2954 110.366 70.0312 110.233C69.767 110.099 69.4644 110.033 69.1235 110.033C68.7798 110.033 68.4744 110.099 68.2073 110.233C67.9403 110.366 67.73 110.55 67.5766 110.783C67.4232 111.016 67.3479 111.284 67.3508 111.588C67.3479 111.881 67.4175 112.136 67.5596 112.355C67.7045 112.571 67.9104 112.74 68.1775 112.862C68.4445 112.982 68.7599 113.041 69.1235 113.041ZM69.1235 108.98C69.4133 108.98 69.6704 108.922 69.8948 108.805C70.1192 108.689 70.2954 108.527 70.4232 108.32C70.5539 108.112 70.6207 107.869 70.6235 107.591C70.6207 107.318 70.5553 107.08 70.4275 106.875C70.3025 106.67 70.1278 106.513 69.9033 106.402C69.6789 106.288 69.419 106.232 69.1235 106.232C68.8224 106.232 68.5582 106.288 68.3309 106.402C68.1065 106.513 67.9317 106.67 67.8067 106.875C67.6817 107.08 67.6207 107.318 67.6235 107.591C67.6207 107.869 67.6832 108.112 67.811 108.32C67.9388 108.527 68.115 108.689 68.3394 108.805C68.5667 108.922 68.8281 108.98 69.1235 108.98ZM80.2879 112.364V111.903C80.2879 111.574 80.356 111.273 80.4924 111C80.6316 110.724 80.8333 110.504 81.0975 110.339C81.3646 110.172 81.687 110.088 82.0648 110.088C82.4512 110.088 82.7751 110.17 83.0364 110.335C83.2978 110.5 83.4952 110.72 83.6288 110.996C83.7651 111.271 83.8333 111.574 83.8333 111.903V112.364C83.8333 112.693 83.7651 112.996 83.6288 113.271C83.4924 113.544 83.2921 113.764 83.0279 113.932C82.7665 114.097 82.4455 114.179 82.0648 114.179C81.6813 114.179 81.3575 114.097 81.0933 113.932C80.829 113.764 80.6288 113.544 80.4924 113.271C80.356 112.996 80.2879 112.693 80.2879 112.364ZM81.2808 111.903V112.364C81.2808 112.608 81.339 112.83 81.4555 113.028C81.5719 113.227 81.7751 113.327 82.0648 113.327C82.3518 113.327 82.5521 113.227 82.6657 113.028C82.7793 112.83 82.8362 112.608 82.8362 112.364V111.903C82.8362 111.659 82.7808 111.437 82.67 111.239C82.562 111.04 82.3603 110.94 82.0648 110.94C81.7808 110.94 81.579 111.04 81.4597 111.239C81.3404 111.437 81.2808 111.659 81.2808 111.903ZM75.8987 107.369V106.909C75.8987 106.58 75.9668 106.277 76.1032 106.001C76.2424 105.726 76.4441 105.506 76.7083 105.341C76.9754 105.176 77.2978 105.094 77.6756 105.094C78.062 105.094 78.3859 105.176 78.6472 105.341C78.9086 105.506 79.106 105.726 79.2396 106.001C79.3731 106.277 79.4398 106.58 79.4398 106.909V107.369C79.4398 107.699 79.3717 108.001 79.2353 108.277C79.1018 108.55 78.9029 108.77 78.6387 108.938C78.3773 109.102 78.0563 109.185 77.6756 109.185C77.2893 109.185 76.964 109.102 76.6998 108.938C76.4384 108.77 76.2396 108.55 76.1032 108.277C75.9668 108.001 75.8987 107.699 75.8987 107.369ZM76.8958 106.909V107.369C76.8958 107.614 76.9526 107.835 77.0663 108.034C77.1827 108.233 77.3859 108.332 77.6756 108.332C77.9597 108.332 78.1586 108.233 78.2722 108.034C78.3887 107.835 78.4469 107.614 78.4469 107.369V106.909C78.4469 106.665 78.3915 106.443 78.2808 106.244C78.17 106.045 77.9683 105.946 77.6756 105.946C77.3915 105.946 77.1898 106.045 77.0705 106.244C76.954 106.443 76.8958 106.665 76.8958 106.909ZM76.3035 114L82.3035 105.273H83.3219L77.3219 114H76.3035Z" fill="url(#paint8_linear_293_20183)"/></g><g opacity="0.5"><g clip-path="url(#clip3_293_20183)"><rect x="-284" y="141" width="504" height="40" rx="8" fill="url(#paint9_linear_293_20183)" fill-opacity="0.82"/><g filter="url(#filter3_d_293_20183)"><g clip-path="url(#clip4_293_20183)"><rect x="136" y="149" width="76" height="24" rx="6" fill="url(#paint10_linear_293_20183)" shape-rendering="crispEdges"/><path d="M163.959 165V156.273H165.276V160.065H169.626V156.273H170.947V165H169.626V161.195H165.276V165H163.959ZM174.984 165.132C174.339 165.132 173.784 164.994 173.318 164.719C172.855 164.44 172.497 164.05 172.244 163.547C171.994 163.041 171.869 162.449 171.869 161.77C171.869 161.099 171.994 160.509 172.244 159.997C172.497 159.486 172.849 159.087 173.301 158.8C173.755 158.513 174.286 158.369 174.894 158.369C175.264 158.369 175.622 158.43 175.968 158.553C176.315 158.675 176.626 158.866 176.901 159.128C177.177 159.389 177.394 159.729 177.553 160.146C177.713 160.561 177.792 161.065 177.792 161.659V162.111H172.589V161.156H176.543C176.543 160.821 176.475 160.524 176.339 160.266C176.203 160.004 176.011 159.798 175.764 159.648C175.519 159.497 175.232 159.422 174.903 159.422C174.545 159.422 174.232 159.51 173.965 159.686C173.701 159.859 173.497 160.087 173.352 160.368C173.21 160.646 173.139 160.949 173.139 161.276V162.021C173.139 162.459 173.215 162.831 173.369 163.138C173.525 163.445 173.742 163.679 174.021 163.841C174.299 164 174.624 164.08 174.997 164.08C175.238 164.08 175.458 164.045 175.657 163.977C175.856 163.906 176.028 163.801 176.173 163.662C176.318 163.523 176.428 163.351 176.505 163.146L177.711 163.364C177.614 163.719 177.441 164.03 177.191 164.297C176.944 164.561 176.633 164.767 176.258 164.915C175.886 165.06 175.461 165.132 174.984 165.132ZM180.511 165.145C180.096 165.145 179.721 165.068 179.386 164.915C179.05 164.759 178.785 164.533 178.589 164.237C178.396 163.942 178.299 163.58 178.299 163.151C178.299 162.781 178.37 162.477 178.512 162.239C178.654 162 178.846 161.811 179.087 161.672C179.329 161.533 179.599 161.428 179.897 161.357C180.195 161.286 180.499 161.232 180.809 161.195C181.201 161.149 181.519 161.112 181.763 161.084C182.008 161.053 182.185 161.003 182.296 160.935C182.407 160.866 182.462 160.756 182.462 160.602V160.572C182.462 160.2 182.357 159.912 182.147 159.707C181.94 159.503 181.63 159.401 181.218 159.401C180.789 159.401 180.451 159.496 180.204 159.686C179.959 159.874 179.79 160.082 179.697 160.312L178.499 160.04C178.641 159.642 178.849 159.321 179.121 159.077C179.397 158.83 179.714 158.651 180.072 158.54C180.43 158.426 180.806 158.369 181.201 158.369C181.462 158.369 181.739 158.401 182.032 158.463C182.327 158.523 182.603 158.634 182.859 158.795C183.117 158.957 183.329 159.189 183.494 159.49C183.658 159.788 183.741 160.176 183.741 160.653V165H182.496V164.105H182.445C182.363 164.27 182.239 164.432 182.075 164.591C181.91 164.75 181.698 164.882 181.44 164.987C181.181 165.092 180.871 165.145 180.511 165.145ZM180.788 164.122C181.14 164.122 181.441 164.053 181.691 163.913C181.944 163.774 182.136 163.592 182.266 163.368C182.4 163.141 182.467 162.898 182.467 162.639V161.795C182.421 161.841 182.333 161.884 182.202 161.923C182.075 161.96 181.928 161.993 181.763 162.021C181.599 162.047 181.438 162.071 181.282 162.094C181.126 162.114 180.995 162.131 180.89 162.145C180.643 162.176 180.417 162.229 180.212 162.303C180.011 162.376 179.849 162.483 179.726 162.622C179.607 162.759 179.548 162.94 179.548 163.168C179.548 163.483 179.664 163.722 179.897 163.884C180.13 164.043 180.427 164.122 180.788 164.122ZM186.112 156.273V165H184.838V156.273H186.112ZM190.281 158.455V159.477H186.706V158.455H190.281ZM187.665 156.886H188.939V163.078C188.939 163.325 188.976 163.511 189.05 163.636C189.124 163.759 189.219 163.842 189.335 163.888C189.455 163.93 189.584 163.952 189.723 163.952C189.825 163.952 189.915 163.945 189.992 163.93C190.068 163.916 190.128 163.905 190.171 163.896L190.401 164.949C190.327 164.977 190.222 165.006 190.085 165.034C189.949 165.065 189.779 165.082 189.574 165.085C189.239 165.091 188.926 165.031 188.637 164.906C188.347 164.781 188.112 164.588 187.933 164.327C187.754 164.065 187.665 163.737 187.665 163.342V156.886ZM192.506 161.114V165H191.232V156.273H192.489V159.52H192.57C192.723 159.168 192.957 158.888 193.273 158.68C193.588 158.473 194 158.369 194.509 158.369C194.957 158.369 195.349 158.462 195.685 158.646C196.023 158.831 196.284 159.107 196.469 159.473C196.656 159.837 196.75 160.291 196.75 160.837V165H195.476V160.99C195.476 160.51 195.352 160.138 195.105 159.874C194.858 159.607 194.514 159.473 194.074 159.473C193.773 159.473 193.503 159.537 193.264 159.665C193.028 159.793 192.842 159.98 192.706 160.227C192.572 160.472 192.506 160.767 192.506 161.114ZM198.421 167.455C198.231 167.455 198.058 167.439 197.901 167.408C197.745 167.379 197.629 167.348 197.552 167.314L197.859 166.27C198.092 166.332 198.299 166.359 198.481 166.351C198.663 166.342 198.823 166.274 198.963 166.146C199.105 166.018 199.23 165.81 199.338 165.52L199.495 165.085L197.1 158.455H198.464L200.122 163.534H200.19L201.847 158.455H203.215L200.518 165.874C200.393 166.214 200.234 166.503 200.041 166.739C199.847 166.977 199.617 167.156 199.35 167.276C199.083 167.395 198.774 167.455 198.421 167.455Z" fill="url(#paint11_linear_293_20183)"/><path d="M146.999 165.608C147.205 166.131 147.945 166.131 148.151 165.608L148.79 163.988C148.853 163.829 148.979 163.703 149.138 163.64L150.758 163.001C151.281 162.795 151.281 162.055 150.758 161.849L149.138 161.21C148.979 161.147 148.853 161.021 148.79 160.862L148.151 159.242C147.945 158.719 147.205 158.719 146.999 159.242L146.36 160.862C146.297 161.021 146.171 161.147 146.012 161.21L144.392 161.849C143.869 162.055 143.869 162.795 144.392 163.001L146.012 163.64C146.171 163.703 146.297 163.829 146.36 163.988L146.999 165.608Z" fill="url(#paint12_linear_293_20183)"/><path d="M152.208 159.735C152.322 160.022 152.728 160.022 152.842 159.735L153.337 158.479C153.371 158.391 153.441 158.321 153.529 158.287L154.785 157.792C155.072 157.678 155.072 157.272 154.785 157.158L153.529 156.663C153.441 156.629 153.371 156.559 153.337 156.471L152.842 155.215C152.728 154.928 152.322 154.928 152.208 155.215L151.713 156.471C151.679 156.559 151.609 156.629 151.521 156.663L150.265 157.158C149.978 157.272 149.978 157.678 150.265 157.792L151.521 158.287C151.609 158.321 151.679 158.391 151.713 158.479L152.208 159.735Z" fill="url(#paint13_linear_293_20183)"/><g style="mix-blend-mode:plus-lighter" filter="url(#filter4_f_293_20183)"><rect x="184" y="169" width="40" height="9" fill="#D9D9D9"/></g><g style="mix-blend-mode:plus-lighter" filter="url(#filter5_f_293_20183)"><rect x="139" y="171" width="40" height="9" fill="#D9D9D9"/></g></g></g><path d="M38.8778 165.145C38.2045 165.142 37.6293 164.964 37.152 164.612C36.6747 164.26 36.3097 163.747 36.0568 163.074C35.804 162.401 35.6776 161.589 35.6776 160.641C35.6776 159.695 35.804 158.886 36.0568 158.216C36.3125 157.545 36.679 157.034 37.1562 156.682C37.6364 156.33 38.2102 156.153 38.8778 156.153C39.5455 156.153 40.1179 156.331 40.5952 156.686C41.0724 157.038 41.4375 157.55 41.6903 158.22C41.946 158.888 42.0739 159.695 42.0739 160.641C42.0739 161.592 41.9474 162.405 41.6946 163.078C41.4418 163.749 41.0767 164.261 40.5994 164.616C40.1222 164.969 39.5483 165.145 38.8778 165.145ZM38.8778 164.007C39.4688 164.007 39.9304 163.719 40.2628 163.142C40.598 162.565 40.7656 161.732 40.7656 160.641C40.7656 159.916 40.6889 159.304 40.5355 158.804C40.3849 158.301 40.1676 157.92 39.8835 157.662C39.6023 157.401 39.267 157.27 38.8778 157.27C38.2898 157.27 37.8281 157.56 37.4929 158.139C37.1577 158.719 36.9886 159.553 36.9858 160.641C36.9858 161.368 37.0611 161.983 37.2116 162.486C37.3651 162.986 37.5824 163.365 37.8636 163.624C38.1449 163.879 38.483 164.007 38.8778 164.007ZM43.5257 165.081C43.2928 165.081 43.0925 164.999 42.9249 164.834C42.7572 164.666 42.6734 164.464 42.6734 164.229C42.6734 163.996 42.7572 163.797 42.9249 163.632C43.0925 163.464 43.2928 163.381 43.5257 163.381C43.7587 163.381 43.9589 163.464 44.1266 163.632C44.2942 163.797 44.378 163.996 44.378 164.229C44.378 164.385 44.3382 164.528 44.2587 164.659C44.182 164.787 44.0797 164.889 43.9518 164.966C43.824 165.043 43.682 165.081 43.5257 165.081ZM47.724 156.273V165H46.403V157.594H46.3518L44.2638 158.957V157.696L46.4413 156.273H47.724ZM56.616 163.364V162.903C56.616 162.574 56.6842 162.273 56.8205 162C56.9597 161.724 57.1614 161.504 57.4256 161.339C57.6927 161.172 58.0151 161.088 58.393 161.088C58.7793 161.088 59.1032 161.17 59.3646 161.335C59.6259 161.5 59.8234 161.72 59.9569 161.996C60.0933 162.271 60.1614 162.574 60.1614 162.903V163.364C60.1614 163.693 60.0933 163.996 59.9569 164.271C59.8205 164.544 59.6202 164.764 59.356 164.932C59.0947 165.097 58.7737 165.179 58.393 165.179C58.0094 165.179 57.6856 165.097 57.4214 164.932C57.1572 164.764 56.9569 164.544 56.8205 164.271C56.6842 163.996 56.616 163.693 56.616 163.364ZM57.6089 162.903V163.364C57.6089 163.608 57.6671 163.83 57.7836 164.028C57.9001 164.227 58.1032 164.327 58.393 164.327C58.6799 164.327 58.8802 164.227 58.9938 164.028C59.1075 163.83 59.1643 163.608 59.1643 163.364V162.903C59.1643 162.659 59.1089 162.437 58.9981 162.239C58.8901 162.04 58.6884 161.94 58.393 161.94C58.1089 161.94 57.9072 162.04 57.7879 162.239C57.6685 162.437 57.6089 162.659 57.6089 162.903ZM52.2268 158.369V157.909C52.2268 157.58 52.295 157.277 52.4313 157.001C52.5705 156.726 52.7722 156.506 53.0364 156.341C53.3035 156.176 53.6259 156.094 54.0038 156.094C54.3901 156.094 54.714 156.176 54.9754 156.341C55.2367 156.506 55.4342 156.726 55.5677 157.001C55.7012 157.277 55.768 157.58 55.768 157.909V158.369C55.768 158.699 55.6998 159.001 55.5634 159.277C55.4299 159.55 55.231 159.77 54.9668 159.938C54.7055 160.102 54.3844 160.185 54.0038 160.185C53.6174 160.185 53.2921 160.102 53.0279 159.938C52.7665 159.77 52.5677 159.55 52.4313 159.277C52.295 159.001 52.2268 158.699 52.2268 158.369ZM53.2239 157.909V158.369C53.2239 158.614 53.2808 158.835 53.3944 159.034C53.5109 159.233 53.714 159.332 54.0038 159.332C54.2879 159.332 54.4867 159.233 54.6004 159.034C54.7168 158.835 54.7751 158.614 54.7751 158.369V157.909C54.7751 157.665 54.7197 157.443 54.6089 157.244C54.4981 157.045 54.2964 156.946 54.0038 156.946C53.7197 156.946 53.518 157.045 53.3987 157.244C53.2822 157.443 53.2239 157.665 53.2239 157.909ZM52.6316 165L58.6316 156.273H59.6501L53.6501 165H52.6316Z" fill="url(#paint14_linear_293_20183)"/></g></g><g opacity="0.3"><rect x="-302" y="193" width="504" height="40" rx="8" fill="url(#paint15_linear_293_20183)" fill-opacity="0.82"/></g><g opacity="0.13"><rect x="-327" y="245" width="504" height="40" rx="8" fill="url(#paint16_linear_293_20183)" fill-opacity="0.82"/></g><g style="mix-blend-mode:plus-lighter" filter="url(#filter6_f_293_20183)"><path d="M57.3062 -18.5348C61.1445 -35.3375 111.655 -28.487 137.27 -27.759C162.884 -27.0309 215.563 -31.3215 212.282 -14.1298C209.001 3.06183 164.721 -3.98465 139.106 -4.71271C113.491 -5.44077 53.4678 -1.73204 57.3062 -18.5348Z" fill="#FCD292"/></g><g opacity="0.31" filter="url(#filter7_f_293_20183)"><rect x="114" y="-31" width="141" height="203" fill="url(#paint17_linear_293_20183)"/></g></g><rect x="-239" y="9" width="498" height="298" rx="15" stroke="url(#paint18_linear_293_20183)" stroke-width="2"/><rect x="-1" width="269" height="316" fill="url(#paint19_linear_293_20183)"/><rect x="-0.295898" y="0.295898" width="377.408" height="315.408" rx="19.7041" transform="matrix(-1 0 0 1 267.408 0)" stroke="url(#paint20_linear_293_20183)" stroke-width="0.591797" stroke-dasharray="5.92 5.92"/><defs><filter id="filter0_d_293_20183" x="141.4" y="82.4" width="107.2" height="55.2" filterUnits="userSpaceOnUse" color-interpolation-filters="sRGB"><feFlood flood-opacity="0" result="BackgroundImageFix"/><feColorMatrix in="SourceAlpha" type="matrix" values="0 0 0 0 0 0 0 0 0 0 0 0 0 0 0 0 0 0 127 0" result="hardAlpha"/><feOffset dy="1"/><feGaussianBlur stdDeviation="7.8"/><feComposite in2="hardAlpha" operator="out"/><feColorMatrix type="matrix" values="0 0 0 0 0 0 0 0 0 0 0 0 0 0 0 0 0 0 0.14 0"/><feBlend mode="normal" in2="BackgroundImageFix" result="effect1_dropShadow_293_20183"/><feBlend mode="normal" in="SourceGraphic" in2="effect1_dropShadow_293_20183" result="shape"/></filter><filter id="filter1_f_293_20183" x="178" y="90" width="94" height="63" filterUnits="userSpaceOnUse" color-interpolation-filters="sRGB"><feFlood flood-opacity="0" result="BackgroundImageFix"/><feBlend mode="normal" in="SourceGraphic" in2="BackgroundImageFix" result="shape"/><feGaussianBlur stdDeviation="13.5" result="effect1_foregroundBlur_293_20183"/></filter><filter id="filter2_f_293_20183" x="133" y="92" width="94" height="63" filterUnits="userSpaceOnUse" color-interpolation-filters="sRGB"><feFlood flood-opacity="0" result="BackgroundImageFix"/><feBlend mode="normal" in="SourceGraphic" in2="BackgroundImageFix" result="shape"/><feGaussianBlur stdDeviation="13.5" result="effect1_foregroundBlur_293_20183"/></filter><filter id="filter3_d_293_20183" x="120.4" y="134.4" width="107.2" height="55.2" filterUnits="userSpaceOnUse" color-interpolation-filters="sRGB"><feFlood flood-opacity="0" result="BackgroundImageFix"/><feColorMatrix in="SourceAlpha" type="matrix" values="0 0 0 0 0 0 0 0 0 0 0 0 0 0 0 0 0 0 127 0" result="hardAlpha"/><feOffset dy="1"/><feGaussianBlur stdDeviation="7.8"/><feComposite in2="hardAlpha" operator="out"/><feColorMatrix type="matrix" values="0 0 0 0 0 0 0 0 0 0 0 0 0 0 0 0 0 0 0.14 0"/><feBlend mode="normal" in2="BackgroundImageFix" result="effect1_dropShadow_293_20183"/><feBlend mode="normal" in="SourceGraphic" in2="effect1_dropShadow_293_20183" result="shape"/></filter><filter id="filter4_f_293_20183" x="157" y="142" width="94" height="63" filterUnits="userSpaceOnUse" color-interpolation-filters="sRGB"><feFlood flood-opacity="0" result="BackgroundImageFix"/><feBlend mode="normal" in="SourceGraphic" in2="BackgroundImageFix" result="shape"/><feGaussianBlur stdDeviation="13.5" result="effect1_foregroundBlur_293_20183"/></filter><filter id="filter5_f_293_20183" x="112" y="144" width="94" height="63" filterUnits="userSpaceOnUse" color-interpolation-filters="sRGB"><feFlood flood-opacity="0" result="BackgroundImageFix"/><feBlend mode="normal" in="SourceGraphic" in2="BackgroundImageFix" result="shape"/><feGaussianBlur stdDeviation="13.5" result="effect1_foregroundBlur_293_20183"/></filter><filter id="filter6_f_293_20183" x="-9.1824" y="-96.0657" width="287.923" height="159.708" filterUnits="userSpaceOnUse" color-interpolation-filters="sRGB"><feFlood flood-opacity="0" result="BackgroundImageFix"/><feBlend mode="normal" in="SourceGraphic" in2="BackgroundImageFix" result="shape"/><feGaussianBlur stdDeviation="33.1566" result="effect1_foregroundBlur_293_20183"/></filter><filter id="filter7_f_293_20183" x="-110.687" y="-255.687" width="590.374" height="652.374" filterUnits="userSpaceOnUse" color-interpolation-filters="sRGB"><feFlood flood-opacity="0" result="BackgroundImageFix"/><feBlend mode="normal" in="SourceGraphic" in2="BackgroundImageFix" result="shape"/><feGaussianBlur stdDeviation="112.343" result="effect1_foregroundBlur_293_20183"/></filter><linearGradient id="paint0_linear_293_20183" x1="-240" y1="19.7284" x2="54.6459" y2="382.273" gradientUnits="userSpaceOnUse"><stop stop-color="#0D0D0D"/><stop offset="1" stop-color="#0A0A0A"/></linearGradient><linearGradient id="paint1_linear_293_20183" x1="316" y1="-5.00004" x2="-0.500034" y2="385" gradientUnits="userSpaceOnUse"><stop stop-color="white"/><stop offset="0.7583" stop-color="white" stop-opacity="0"/></linearGradient><linearGradient id="paint2_linear_293_20183" x1="-280" y1="38.5638" x2="-271.742" y2="117.973" gradientUnits="userSpaceOnUse"><stop stop-color="#272727"/><stop offset="1" stop-color="#252525"/></linearGradient><linearGradient id="paint3_linear_293_20183" x1="-263" y1="90.5638" x2="-254.47" y2="169.914" gradientUnits="userSpaceOnUse"><stop stop-color="#272727"/><stop offset="1" stop-color="#252525"/></linearGradient><linearGradient id="paint4_linear_293_20183" x1="195" y1="97" x2="195" y2="121" gradientUnits="userSpaceOnUse"><stop stop-color="#02CC09" stop-opacity="0.17"/><stop offset="1" stop-color="#1E5D22"/></linearGradient><linearGradient id="paint5_linear_293_20183" x1="204.5" y1="101" x2="204.5" y2="116" gradientUnits="userSpaceOnUse"><stop stop-color="#AAFF7C"/><stop offset="1" stop-color="#B9FF98"/></linearGradient><linearGradient id="paint6_linear_293_20183" x1="170.5" y1="103" x2="170.5" y2="114" gradientUnits="userSpaceOnUse"><stop stop-color="#B7FF96"/><stop offset="1" stop-color="#AFFF86"/></linearGradient><linearGradient id="paint7_linear_293_20183" x1="170.5" y1="103" x2="170.5" y2="114" gradientUnits="userSpaceOnUse"><stop stop-color="#B7FF96"/><stop offset="1" stop-color="#AFFF86"/></linearGradient><linearGradient id="paint8_linear_293_20183" x1="70.5" y1="102" x2="70.5" y2="117" gradientUnits="userSpaceOnUse"><stop stop-color="#AAFF7C"/><stop offset="1" stop-color="#B9FF98"/></linearGradient><linearGradient id="paint9_linear_293_20183" x1="-284" y1="142.564" x2="-275.47" y2="221.914" gradientUnits="userSpaceOnUse"><stop stop-color="#272727"/><stop offset="1" stop-color="#252525"/></linearGradient><linearGradient id="paint10_linear_293_20183" x1="174" y1="149" x2="174" y2="173" gradientUnits="userSpaceOnUse"><stop stop-color="#02CC09" stop-opacity="0.17"/><stop offset="1" stop-color="#1E5D22"/></linearGradient><linearGradient id="paint11_linear_293_20183" x1="183.5" y1="153" x2="183.5" y2="168" gradientUnits="userSpaceOnUse"><stop stop-color="#AAFF7C"/><stop offset="1" stop-color="#B9FF98"/></linearGradient><linearGradient id="paint12_linear_293_20183" x1="149.5" y1="155" x2="149.5" y2="166" gradientUnits="userSpaceOnUse"><stop stop-color="#B7FF96"/><stop offset="1" stop-color="#AFFF86"/></linearGradient><linearGradient id="paint13_linear_293_20183" x1="149.5" y1="155" x2="149.5" y2="166" gradientUnits="userSpaceOnUse"><stop stop-color="#B7FF96"/><stop offset="1" stop-color="#AFFF86"/></linearGradient><linearGradient id="paint14_linear_293_20183" x1="48.5" y1="153" x2="48.5" y2="168" gradientUnits="userSpaceOnUse"><stop stop-color="#AAFF7C"/><stop offset="1" stop-color="#B9FF98"/></linearGradient><linearGradient id="paint15_linear_293_20183" x1="-302" y1="194.564" x2="-293.47" y2="273.914" gradientUnits="userSpaceOnUse"><stop stop-color="#272727"/><stop offset="1" stop-color="#252525"/></linearGradient><linearGradient id="paint16_linear_293_20183" x1="-327" y1="246.564" x2="-318.47" y2="325.914" gradientUnits="userSpaceOnUse"><stop stop-color="#272727"/><stop offset="1" stop-color="#252525"/></linearGradient><linearGradient id="paint17_linear_293_20183" x1="114" y1="72.5562" x2="255" y2="72.5562" gradientUnits="userSpaceOnUse"><stop stop-color="#FF8C00" stop-opacity="0"/><stop offset="1" stop-color="#FF8C00"/></linearGradient><linearGradient id="paint18_linear_293_20183" x1="248.5" y1="8" x2="76.5" y2="221" gradientUnits="userSpaceOnUse"><stop stop-color="#575757"/><stop offset="1" stop-opacity="0"/></linearGradient><linearGradient id="paint19_linear_293_20183" x1="-1" y1="169.023" x2="256.48" y2="111.041" gradientUnits="userSpaceOnUse"><stop stop-color="#070707"/><stop offset="1" stop-color="#070707" stop-opacity="0"/></linearGradient><linearGradient id="paint20_linear_293_20183" x1="9.38773e-07" y1="158" x2="340" y2="158" gradientUnits="userSpaceOnUse"><stop stop-color="#373737"/><stop offset="1" stop-color="#868686" stop-opacity="0"/></linearGradient><clipPath id="clip0_293_20183"><rect x="-240" y="8" width="500" height="300" rx="16" fill="white"/></clipPath><clipPath id="clip1_293_20183"><rect x="-263" y="89" width="504" height="40" rx="8" fill="white"/></clipPath><clipPath id="clip2_293_20183"><rect x="157" y="97" width="76" height="24" rx="6" fill="white"/></clipPath><clipPath id="clip3_293_20183"><rect x="-284" y="141" width="504" height="40" rx="8" fill="white"/></clipPath><clipPath id="clip4_293_20183"><rect x="136" y="149" width="76" height="24" rx="6" fill="white"/></clipPath></defs></svg>