<svg width="25" height="24" viewBox="0 0 25 24" fill="none" xmlns="http://www.w3.org/2000/svg">
<path d="M5.34842 15.1659C5.34842 16.5539 4.21641 17.6876 2.82819 17.6876C1.43998 17.6876 0.306641 16.5539 0.306641 15.1659C0.306641 13.7778 1.44035 12.6441 2.82838 12.6441H5.34861L5.34842 15.1659ZM6.61885 15.1659C6.61885 13.7778 7.75257 12.6441 9.14059 12.6441C10.5286 12.6441 11.6623 13.7776 11.6623 15.1659V21.4783C11.6623 22.8663 10.5288 24 9.14059 24C7.75257 24 6.61885 22.8663 6.61885 21.4783V15.1659Z" fill="#DE1C59"/>
<path d="M9.14059 5.04178C7.75257 5.04178 6.61885 3.90977 6.61885 2.52155C6.61885 1.13333 7.75257 0 9.14059 0C10.5286 0 11.6623 1.13371 11.6623 2.52174V5.04197L9.14059 5.04178ZM9.14059 6.31221C10.5286 6.31221 11.6623 7.44592 11.6623 8.83395C11.6623 10.222 10.5288 11.3557 9.14059 11.3557H2.82819C1.44016 11.3557 0.306641 10.2222 0.306641 8.83395C0.306641 7.44592 1.44035 6.31221 2.82838 6.31221H9.14059Z" fill="#35C5F0"/>
<path d="M19.2647 8.83395C19.2647 7.44592 20.3967 6.31221 21.7849 6.31221C23.1731 6.31221 24.3066 7.44592 24.3066 8.83395C24.3066 10.222 23.1729 11.3557 21.7849 11.3557H19.2647V8.83395ZM17.9942 8.83395C17.9942 10.222 16.8605 11.3557 15.4725 11.3557C14.0845 11.3557 12.9508 10.2222 12.9508 8.83395V2.52155C12.9508 1.13352 14.0843 0 15.4725 0C16.8605 0 17.9942 1.13371 17.9942 2.52174V8.83395Z" fill="#2EB57D"/>
<path d="M15.4725 18.958C16.8605 18.958 17.9942 20.09 17.9942 21.4783C17.9942 22.8665 16.8605 24 15.4725 24C14.0845 24 12.9508 22.8663 12.9508 21.4783V18.958H15.4725ZM15.4725 17.6876C14.0845 17.6876 12.9508 16.5539 12.9508 15.1659C12.9508 13.7778 14.0843 12.6441 15.4725 12.6441H21.7849C23.1729 12.6441 24.3066 13.7776 24.3066 15.1659C24.3066 16.5539 23.1729 17.6876 21.7849 17.6876H15.4725Z" fill="#EBB02E"/>
</svg>
