<svg width="65" height="19" viewBox="0 0 65 19" fill="none" xmlns="http://www.w3.org/2000/svg">
<path d="M28.625 6.42045C28.5644 5.88258 28.3144 5.46591 27.875 5.17045C27.4356 4.87121 26.8826 4.72159 26.2159 4.72159C25.7386 4.72159 25.3258 4.79735 24.9773 4.94886C24.6288 5.09659 24.358 5.30114 24.1648 5.5625C23.9754 5.82008 23.8807 6.11364 23.8807 6.44318C23.8807 6.7197 23.9451 6.95833 24.0739 7.15909C24.2064 7.35985 24.3788 7.52841 24.5909 7.66477C24.8068 7.79735 25.0379 7.90909 25.2841 8C25.5303 8.08712 25.767 8.15909 25.9943 8.21591L27.1307 8.51136C27.5019 8.60227 27.8826 8.72538 28.2727 8.88068C28.6629 9.03598 29.0246 9.24053 29.358 9.49432C29.6913 9.74811 29.9602 10.0625 30.1648 10.4375C30.3731 10.8125 30.4773 11.2614 30.4773 11.7841C30.4773 12.4432 30.3068 13.0284 29.9659 13.5398C29.6288 14.0511 29.1383 14.4545 28.4943 14.75C27.8542 15.0455 27.0795 15.1932 26.1705 15.1932C25.2992 15.1932 24.5455 15.0549 23.9091 14.7784C23.2727 14.5019 22.7746 14.1098 22.4148 13.6023C22.0549 13.0909 21.8561 12.4848 21.8182 11.7841H23.5795C23.6136 12.2045 23.75 12.5549 23.9886 12.8352C24.2311 13.1117 24.5398 13.3182 24.9148 13.4545C25.2936 13.5871 25.7083 13.6534 26.1591 13.6534C26.6553 13.6534 27.0966 13.5758 27.483 13.4205C27.8731 13.2614 28.1799 13.0417 28.4034 12.7614C28.6269 12.4773 28.7386 12.1458 28.7386 11.767C28.7386 11.4223 28.6402 11.1402 28.4432 10.9205C28.25 10.7008 27.9867 10.5189 27.6534 10.375C27.3239 10.2311 26.9508 10.1042 26.5341 9.99432L25.1591 9.61932C24.2273 9.36553 23.4886 8.99242 22.9432 8.5C22.4015 8.00758 22.1307 7.35606 22.1307 6.54545C22.1307 5.875 22.3125 5.28977 22.6761 4.78977C23.0398 4.28977 23.5322 3.90151 24.1534 3.625C24.7746 3.3447 25.4754 3.20455 26.2557 3.20455C27.0436 3.20455 27.7386 3.3428 28.3409 3.61932C28.947 3.89583 29.4242 4.27652 29.7727 4.76136C30.1212 5.24242 30.303 5.79545 30.3182 6.42045H28.625ZM35.7128 6.27273V7.63636H30.9457V6.27273H35.7128ZM32.2241 4.18182H33.923V12.4375C33.923 12.767 33.9723 13.0152 34.0707 13.1818C34.1692 13.3447 34.2961 13.4564 34.4514 13.517C34.6105 13.5739 34.7829 13.6023 34.9685 13.6023C35.1048 13.6023 35.2241 13.5928 35.3264 13.5739C35.4287 13.5549 35.5082 13.5398 35.5651 13.5284L35.8719 14.9318C35.7734 14.9697 35.6332 15.0076 35.4514 15.0455C35.2696 15.0871 35.0423 15.1098 34.7696 15.1136C34.3226 15.1212 33.906 15.0417 33.5196 14.875C33.1332 14.7083 32.8207 14.4508 32.5821 14.1023C32.3435 13.7538 32.2241 13.3163 32.2241 12.7898V4.18182ZM40.4597 15.1761C39.5998 15.1761 38.8593 14.9924 38.2381 14.625C37.6206 14.2538 37.1434 13.733 36.8062 13.0625C36.4729 12.3883 36.3062 11.5985 36.3062 10.6932C36.3062 9.79924 36.4729 9.01136 36.8062 8.32955C37.1434 7.64773 37.6131 7.11553 38.2153 6.73295C38.8214 6.35038 39.5297 6.15909 40.3403 6.15909C40.8328 6.15909 41.31 6.24053 41.7722 6.40341C42.2343 6.56629 42.6491 6.82197 43.0165 7.17045C43.3839 7.51894 43.6737 7.97159 43.8858 8.52841C44.0979 9.08144 44.204 9.75379 44.204 10.5455V11.1477H37.2665V9.875H42.5392C42.5392 9.42803 42.4483 9.0322 42.2665 8.6875C42.0847 8.33902 41.829 8.06439 41.4994 7.86364C41.1737 7.66288 40.7911 7.5625 40.3517 7.5625C39.8744 7.5625 39.4578 7.67992 39.1017 7.91477C38.7494 8.14583 38.4767 8.44886 38.2835 8.82386C38.0941 9.19508 37.9994 9.59848 37.9994 10.0341V11.0284C37.9994 11.6117 38.1017 12.108 38.3062 12.517C38.5146 12.9261 38.8044 13.2386 39.1756 13.4545C39.5468 13.6667 39.9805 13.7727 40.4767 13.7727C40.7987 13.7727 41.0922 13.7273 41.3574 13.6364C41.6225 13.5417 41.8517 13.4015 42.0449 13.2159C42.2381 13.0303 42.3858 12.8011 42.4881 12.5284L44.096 12.8182C43.9672 13.2917 43.7362 13.7064 43.4028 14.0625C43.0733 14.4148 42.6585 14.6894 42.1585 14.8864C41.6623 15.0795 41.096 15.1761 40.4597 15.1761ZM45.2889 18.2727V6.27273H46.948V7.6875H47.0901C47.1885 7.50568 47.3306 7.29545 47.5162 7.05682C47.7018 6.81818 47.9594 6.60985 48.2889 6.43182C48.6185 6.25 49.0541 6.15909 49.5957 6.15909C50.3003 6.15909 50.9291 6.33712 51.4821 6.69318C52.0351 7.04924 52.4688 7.5625 52.7832 8.23295C53.1014 8.90341 53.2605 9.71023 53.2605 10.6534C53.2605 11.5966 53.1033 12.4053 52.7889 13.0795C52.4745 13.75 52.0427 14.267 51.4935 14.6307C50.9442 14.9905 50.3173 15.1705 49.6128 15.1705C49.0825 15.1705 48.6488 15.0814 48.3116 14.9034C47.9783 14.7254 47.717 14.517 47.5276 14.2784C47.3382 14.0398 47.1923 13.8277 47.0901 13.642H46.9878V18.2727H45.2889ZM46.9537 10.6364C46.9537 11.25 47.0427 11.7879 47.2207 12.25C47.3988 12.7121 47.6563 13.0739 47.9935 13.3352C48.3306 13.5928 48.7435 13.7216 49.2321 13.7216C49.7397 13.7216 50.1639 13.5871 50.5048 13.3182C50.8457 13.0455 51.1033 12.6761 51.2776 12.2102C51.4556 11.7443 51.5446 11.2197 51.5446 10.6364C51.5446 10.0606 51.4575 9.54356 51.2832 9.08523C51.1128 8.62689 50.8552 8.26515 50.5105 8C50.1696 7.73485 49.7435 7.60227 49.2321 7.60227C48.7397 7.60227 48.323 7.72917 47.9821 7.98295C47.645 8.23674 47.3893 8.59091 47.2151 9.04545C47.0408 9.5 46.9537 10.0303 46.9537 10.6364ZM62.1903 3.36364V15H60.429V5.125H60.3608L57.5767 6.94318V5.26136L60.4801 3.36364H62.1903Z" fill="#FFA041"/>
<rect y="7" width="13" height="6" rx="3" fill="#FFA041"/>
</svg>
