<svg width="100" height="30" viewBox="0 0 100 30" fill="none" xmlns="http://www.w3.org/2000/svg"><rect x="0.4" y="0.4" width="99.2" height="29.2" rx="14.6" fill="url(#paint0_linear_611_94)" fill-opacity="0.2"/><rect x="0.4" y="0.4" width="99.2" height="29.2" rx="14.6" fill="url(#paint1_radial_611_94)" fill-opacity="0.3" style="mix-blend-mode:screen"/><rect x="0.4" y="0.4" width="99.2" height="29.2" rx="14.6" stroke="white" stroke-width="0.8" style="mix-blend-mode:soft-light"/><rect x="0.4" y="0.4" width="99.2" height="29.2" rx="14.6" stroke="url(#paint2_radial_611_94)" stroke-width="0.8" style="mix-blend-mode:plus-lighter"/><path d="M34.9654 20V10.2635H41.0032V11.5281H36.4345V14.4947H40.5706V15.7545H36.4345V20H34.9654ZM42.1486 20H40.5893L44.0931 10.2635H45.7903L49.2942 20H47.7348L44.9821 12.032H44.9061L42.1486 20ZM42.4101 16.1872H47.4686V17.4232H42.4101V16.1872ZM53.5548 16.8432H55L56.0174 18.1696L56.4976 18.7592L58.1188 20.8748H56.6165L55.5325 19.4628L55.1617 18.9493L53.5548 16.8432ZM58.4326 15.1317C58.4326 16.1713 58.2424 17.0651 57.862 17.8131C57.4817 18.5579 56.9603 19.1316 56.2979 19.5341C55.6387 19.9334 54.8891 20.1331 54.0492 20.1331C53.2061 20.1331 52.4534 19.9334 51.791 19.5341C51.1317 19.1316 50.6119 18.5563 50.2316 17.8083C49.8513 17.0603 49.6611 16.1681 49.6611 15.1317C49.6611 14.0921 49.8513 13.1999 50.2316 12.4551C50.6119 11.7071 51.1317 11.1335 51.791 10.7341C52.4534 10.3316 53.2061 10.1303 54.0492 10.1303C54.8891 10.1303 55.6387 10.3316 56.2979 10.7341C56.9603 11.1335 57.4817 11.7071 57.862 12.4551C58.2424 13.1999 58.4326 14.0921 58.4326 15.1317ZM56.9778 15.1317C56.9778 14.3394 56.8494 13.6722 56.5927 13.1302C56.3391 12.5851 55.9905 12.173 55.5468 11.8941C55.1062 11.6121 54.607 11.471 54.0492 11.471C53.4882 11.471 52.9874 11.6121 52.5469 11.8941C52.1063 12.173 51.7577 12.5851 51.501 13.1302C51.2474 13.6722 51.1206 14.3394 51.1206 15.1317C51.1206 15.9241 51.2474 16.5928 51.501 17.138C51.7577 17.68 52.1063 18.092 52.5469 18.3741C52.9874 18.653 53.4882 18.7924 54.0492 18.7924C54.607 18.7924 55.1062 18.653 55.5468 18.3741C55.9905 18.092 56.3391 17.68 56.5927 17.138C56.8494 16.5928 56.9778 15.9241 56.9778 15.1317ZM65.3543 14.4804L64.0659 14.7086C64.012 14.5438 63.9265 14.3869 63.8092 14.2379C63.6951 14.089 63.5398 13.967 63.3433 13.8719C63.1468 13.7768 62.9011 13.7292 62.6064 13.7292C62.2039 13.7292 61.8679 13.8196 61.5985 14.0002C61.3291 14.1777 61.1944 14.4075 61.1944 14.6896C61.1944 14.9336 61.2847 15.1301 61.4654 15.2791C61.646 15.4281 61.9376 15.5501 62.3401 15.6452L63.5002 15.9114C64.1721 16.0667 64.6729 16.306 65.0025 16.6293C65.3321 16.9526 65.4969 17.3725 65.4969 17.8891C65.4969 18.3265 65.3701 18.7164 65.1166 19.0587C64.8662 19.3978 64.516 19.664 64.0659 19.8574C63.619 20.0507 63.1008 20.1474 62.5113 20.1474C61.6936 20.1474 61.0264 19.9731 60.5098 19.6244C59.9932 19.2726 59.6762 18.7734 59.559 18.1269L60.9329 17.9177C61.0185 18.2758 61.1944 18.5468 61.4606 18.7306C61.7269 18.9113 62.0739 19.0016 62.5018 19.0016C62.9677 19.0016 63.3401 18.905 63.619 18.7116C63.8979 18.5151 64.0374 18.2758 64.0374 17.9937C64.0374 17.7655 63.9518 17.5738 63.7807 17.4185C63.6127 17.2632 63.3544 17.1459 63.0057 17.0667L61.7696 16.7957C61.0882 16.6404 60.5843 16.3932 60.2578 16.054C59.9345 15.7149 59.7729 15.2854 59.7729 14.7657C59.7729 14.3346 59.8933 13.9574 60.1342 13.6342C60.3751 13.3109 60.7079 13.0589 61.1326 12.8782C61.5573 12.6944 62.0438 12.6025 62.5921 12.6025C63.3813 12.6025 64.0025 12.7737 64.4558 13.116C64.909 13.4551 65.2085 13.9099 65.3543 14.4804Z" fill="#DDD7F9"/><defs><linearGradient id="paint0_linear_611_94" x1="50" y1="7.08333" x2="50" y2="41.25" gradientUnits="userSpaceOnUse"><stop stop-color="#FF8C00"/><stop offset="1" stop-color="#BE7637"/></linearGradient><radialGradient id="paint1_radial_611_94" cx="0" cy="0" r="1" gradientUnits="userSpaceOnUse" gradientTransform="translate(15.6) scale(27 28.1624)"><stop stop-color="#A98A51"/><stop offset="1" stop-opacity="0"/></radialGradient><radialGradient id="paint2_radial_611_94" cx="0" cy="0" r="1" gradientTransform="matrix(104 56.6667 4.45182 40.0213 5 -3.75)" gradientUnits="userSpaceOnUse"><stop stop-color="#FF8C00"/><stop offset="1" stop-color="#F3E7B6" stop-opacity="0"/></radialGradient></defs></svg>