<svg width="120" height="30" viewBox="0 0 120 30" fill="none" xmlns="http://www.w3.org/2000/svg"><rect x="0.4" y="0.4" width="119.2" height="29.2" rx="14.6" fill="url(#paint0_linear_610_84)" fill-opacity="0.2"/><rect x="0.4" y="0.4" width="119.2" height="29.2" rx="14.6" fill="url(#paint1_radial_610_84)" fill-opacity="0.3" style="mix-blend-mode:screen"/><rect x="0.4" y="0.4" width="119.2" height="29.2" rx="14.6" stroke="white" stroke-width="0.8" style="mix-blend-mode:soft-light"/><rect x="0.4" y="0.4" width="119.2" height="29.2" rx="14.6" stroke="url(#paint2_radial_610_84)" stroke-width="0.8" style="mix-blend-mode:plus-lighter"/><path d="M20.1892 20V10.2635H21.6582V14.4947H26.5122V10.2635H27.986V20H26.5122V15.7545H21.6582V20H20.1892ZM32.8195 20.1474C32.1349 20.1474 31.5375 19.9905 31.0272 19.6767C30.5169 19.3629 30.1207 18.924 29.8386 18.3598C29.5566 17.7956 29.4155 17.1364 29.4155 16.3821C29.4155 15.6246 29.5566 14.9622 29.8386 14.3948C30.1207 13.8275 30.5169 13.3869 31.0272 13.0732C31.5375 12.7594 32.1349 12.6025 32.8195 12.6025C33.5041 12.6025 34.1015 12.7594 34.6118 13.0732C35.1221 13.3869 35.5183 13.8275 35.8004 14.3948C36.0825 14.9622 36.2235 15.6246 36.2235 16.3821C36.2235 17.1364 36.0825 17.7956 35.8004 18.3598C35.5183 18.924 35.1221 19.3629 34.6118 19.6767C34.1015 19.9905 33.5041 20.1474 32.8195 20.1474ZM32.8243 18.9541C33.268 18.9541 33.6356 18.8368 33.9272 18.6023C34.2188 18.3677 34.4343 18.0555 34.5738 17.6657C34.7164 17.2759 34.7877 16.8464 34.7877 16.3773C34.7877 15.9114 34.7164 15.4835 34.5738 15.0937C34.4343 14.7007 34.2188 14.3853 33.9272 14.1476C33.6356 13.9099 33.268 13.791 32.8243 13.791C32.3774 13.791 32.0065 13.9099 31.7118 14.1476C31.4202 14.3853 31.2031 14.7007 31.0605 15.0937C30.921 15.4835 30.8513 15.9114 30.8513 16.3773C30.8513 16.8464 30.921 17.2759 31.0605 17.6657C31.2031 18.0555 31.4202 18.3677 31.7118 18.6023C32.0065 18.8368 32.3774 18.9541 32.8243 18.9541ZM38.9033 20L36.7544 12.6976H38.2235L39.6545 18.0603H39.7258L41.1616 12.6976H42.6306L44.0569 18.0365H44.1282L45.5497 12.6976H47.0187L44.8746 20H43.4245L41.9412 14.7276H41.8319L40.3486 20H38.9033ZM52.9584 10.2635V20H51.4893V10.2635H52.9584ZM58.1246 12.6976V13.8386H54.1359V12.6976H58.1246ZM55.2056 10.9481H56.6271V17.8559C56.6271 18.1316 56.6683 18.3392 56.7507 18.4787C56.8331 18.615 56.9393 18.7084 57.0692 18.7592C57.2023 18.8067 57.3465 18.8305 57.5019 18.8305C57.616 18.8305 57.7158 18.8225 57.8014 18.8067C57.8869 18.7909 57.9535 18.7782 58.001 18.7687L58.2578 19.9429C58.1754 19.9746 58.0581 20.0063 57.906 20.038C57.7538 20.0729 57.5637 20.0919 57.3355 20.0951C56.9615 20.1014 56.6128 20.0349 56.2895 19.8954C55.9663 19.756 55.7048 19.5404 55.5051 19.2488C55.3054 18.9573 55.2056 18.5912 55.2056 18.1506V10.9481ZM64.7252 20L62.0248 10.2635H63.5699L65.4668 17.8036H65.5571L67.5301 10.2635H69.061L71.0339 17.8083H71.1243L73.0164 10.2635H74.5663L71.8612 20H70.3826L68.3336 12.7071H68.2575L66.2085 20H64.7252ZM77.8808 20.1474C77.1962 20.1474 76.5988 19.9905 76.0885 19.6767C75.5782 19.3629 75.182 18.924 74.8999 18.3598C74.6179 17.7956 74.4768 17.1364 74.4768 16.3821C74.4768 15.6246 74.6179 14.9622 74.8999 14.3948C75.182 13.8275 75.5782 13.3869 76.0885 13.0732C76.5988 12.7594 77.1962 12.6025 77.8808 12.6025C78.5654 12.6025 79.1628 12.7594 79.6731 13.0732C80.1834 13.3869 80.5796 13.8275 80.8617 14.3948C81.1438 14.9622 81.2848 15.6246 81.2848 16.3821C81.2848 17.1364 81.1438 17.7956 80.8617 18.3598C80.5796 18.924 80.1834 19.3629 79.6731 19.6767C79.1628 19.9905 78.5654 20.1474 77.8808 20.1474ZM77.8856 18.9541C78.3293 18.9541 78.6969 18.8368 78.9885 18.6023C79.2801 18.3677 79.4956 18.0555 79.6351 17.6657C79.7777 17.2759 79.849 16.8464 79.849 16.3773C79.849 15.9114 79.7777 15.4835 79.6351 15.0937C79.4956 14.7007 79.2801 14.3853 78.9885 14.1476C78.6969 13.9099 78.3293 13.791 77.8856 13.791C77.4387 13.791 77.0678 13.9099 76.7731 14.1476C76.4815 14.3853 76.2644 14.7007 76.1218 15.0937C75.9823 15.4835 75.9126 15.9114 75.9126 16.3773C75.9126 16.8464 75.9823 17.2759 76.1218 17.6657C76.2644 18.0555 76.4815 18.3677 76.7731 18.6023C77.0678 18.8368 77.4387 18.9541 77.8856 18.9541ZM82.6037 20V12.6976H83.9777V13.8576H84.0538C84.1869 13.4646 84.4214 13.1556 84.7574 12.9305C85.0965 12.7023 85.48 12.5882 85.9079 12.5882C85.9966 12.5882 86.1012 12.5914 86.2217 12.5978C86.3453 12.6041 86.4419 12.612 86.5117 12.6215V13.9812C86.4546 13.9654 86.3532 13.9479 86.2074 13.9289C86.0616 13.9067 85.9158 13.8956 85.77 13.8956C85.4341 13.8956 85.1345 13.967 84.8715 14.1096C84.6116 14.249 84.4056 14.444 84.2534 14.6943C84.1013 14.9416 84.0252 15.2236 84.0252 15.5406V20H82.6037ZM88.7815 17.5231L88.772 15.7878H89.0192L91.9287 12.6976H93.6307L90.3123 16.2157H90.0889L88.7815 17.5231ZM87.4741 20V10.2635H88.8956V20H87.4741ZM92.0856 20L89.4708 16.5295L90.4502 15.5358L93.8304 20H92.0856ZM100.131 14.4804L98.8422 14.7086C98.7883 14.5438 98.7027 14.3869 98.5854 14.2379C98.4713 14.089 98.316 13.967 98.1195 13.8719C97.923 13.7768 97.6774 13.7292 97.3826 13.7292C96.9801 13.7292 96.6441 13.8196 96.3747 14.0002C96.1053 14.1777 95.9706 14.4075 95.9706 14.6896C95.9706 14.9336 96.061 15.1301 96.2416 15.2791C96.4223 15.4281 96.7139 15.5501 97.1164 15.6452L98.2764 15.9114C98.9483 16.0667 99.4491 16.306 99.7787 16.6293C100.108 16.9526 100.273 17.3725 100.273 17.8891C100.273 18.3265 100.146 18.7164 99.8928 19.0587C99.6424 19.3978 99.2922 19.664 98.8422 19.8574C98.3953 20.0507 97.8771 20.1474 97.2875 20.1474C96.4698 20.1474 95.8026 19.9731 95.286 19.6244C94.7694 19.2726 94.4525 18.7734 94.3352 18.1269L95.7091 17.9177C95.7947 18.2758 95.9706 18.5468 96.2369 18.7306C96.5031 18.9113 96.8502 19.0016 97.278 19.0016C97.7439 19.0016 98.1163 18.905 98.3953 18.7116C98.6742 18.5151 98.8136 18.2758 98.8136 17.9937C98.8136 17.7655 98.7281 17.5738 98.5569 17.4185C98.3889 17.2632 98.1306 17.1459 97.782 17.0667L96.5459 16.7957C95.8645 16.6404 95.3605 16.3932 95.0341 16.054C94.7108 15.7149 94.5491 15.2854 94.5491 14.7657C94.5491 14.3346 94.6696 13.9574 94.9104 13.6342C95.1513 13.3109 95.4841 13.0589 95.9088 12.8782C96.3335 12.6944 96.82 12.6025 97.3684 12.6025C98.1575 12.6025 98.7788 12.7737 99.232 13.116C99.6852 13.4551 99.9847 13.9099 100.131 14.4804Z" fill="#DDD7F9"/><defs><linearGradient id="paint0_linear_610_84" x1="60" y1="7.08333" x2="60" y2="41.25" gradientUnits="userSpaceOnUse"><stop stop-color="#FF8C00"/><stop offset="1" stop-color="#BE7637"/></linearGradient><radialGradient id="paint1_radial_610_84" cx="0" cy="0" r="1" gradientUnits="userSpaceOnUse" gradientTransform="translate(18.72) scale(32.4 28.1624)"><stop stop-color="#A98A51"/><stop offset="1" stop-opacity="0"/></radialGradient><radialGradient id="paint2_radial_610_84" cx="0" cy="0" r="1" gradientTransform="matrix(124.8 56.6667 5.34219 40.0213 6 -3.75)" gradientUnits="userSpaceOnUse"><stop stop-color="#FF8C00"/><stop offset="1" stop-color="#F3E7B6" stop-opacity="0"/></radialGradient></defs></svg>