<svg width="120" height="30" viewBox="0 0 120 30" fill="none" xmlns="http://www.w3.org/2000/svg"><rect x="0.4" y="0.4" width="119.2" height="29.2" rx="14.6" fill="url(#paint0_linear_611_91)" fill-opacity="0.2"/><rect x="0.4" y="0.4" width="119.2" height="29.2" rx="14.6" fill="url(#paint1_radial_611_91)" fill-opacity="0.3" style="mix-blend-mode:screen"/><rect x="0.4" y="0.4" width="119.2" height="29.2" rx="14.6" stroke="white" stroke-width="0.8" style="mix-blend-mode:soft-light"/><rect x="0.4" y="0.4" width="119.2" height="29.2" rx="14.6" stroke="url(#paint2_radial_611_91)" stroke-width="0.8" style="mix-blend-mode:plus-lighter"/><path d="M21.8728 11.5281V10.2635H29.4081V11.5281H26.3702V20H24.9059V11.5281H21.8728ZM32.7797 20.1474C32.0602 20.1474 31.4406 19.9937 30.9208 19.6862C30.4042 19.3756 30.0048 18.9398 29.7228 18.3788C29.4438 17.8147 29.3044 17.1538 29.3044 16.3963C29.3044 15.6483 29.4438 14.9891 29.7228 14.4186C30.0048 13.8481 30.3978 13.4028 30.9018 13.0827C31.4089 12.7626 32.0016 12.6025 32.6799 12.6025C33.0919 12.6025 33.4912 12.6706 33.8779 12.8069C34.2646 12.9432 34.6116 13.1572 34.9191 13.4487C35.2265 13.7403 35.469 14.1191 35.6465 14.585C35.8239 15.0477 35.9127 15.6103 35.9127 16.2727V16.7767H30.1078V15.7117H34.5197C34.5197 15.3377 34.4437 15.0065 34.2915 14.7181C34.1394 14.4265 33.9254 14.1967 33.6497 14.0288C33.3771 13.8608 33.057 13.7768 32.6894 13.7768C32.29 13.7768 31.9414 13.875 31.6434 14.0715C31.3487 14.2649 31.1205 14.5184 30.9588 14.8322C30.8004 15.1428 30.7211 15.4804 30.7211 15.8449V16.6768C30.7211 17.1649 30.8067 17.5801 30.9779 17.9224C31.1522 18.2647 31.3946 18.5262 31.7052 18.7069C32.0159 18.8844 32.3788 18.9731 32.794 18.9731C33.0634 18.9731 33.309 18.9351 33.5308 18.859C33.7527 18.7798 33.9445 18.6625 34.1061 18.5072C34.2677 18.3519 34.3914 18.1601 34.4769 17.9319L35.8224 18.1744C35.7146 18.5706 35.5213 18.9176 35.2424 19.2156C34.9666 19.5103 34.6196 19.7401 34.2012 19.9049C33.786 20.0666 33.3122 20.1474 32.7797 20.1474ZM42.6942 14.4804L41.4058 14.7086C41.3519 14.5438 41.2664 14.3869 41.1491 14.2379C41.035 14.089 40.8797 13.967 40.6832 13.8719C40.4867 13.7768 40.241 13.7292 39.9463 13.7292C39.5438 13.7292 39.2078 13.8196 38.9384 14.0002C38.669 14.1777 38.5343 14.4075 38.5343 14.6896C38.5343 14.9336 38.6246 15.1301 38.8053 15.2791C38.9859 15.4281 39.2775 15.5501 39.68 15.6452L40.8401 15.9114C41.512 16.0667 42.0128 16.306 42.3424 16.6293C42.672 16.9526 42.8368 17.3725 42.8368 17.8891C42.8368 18.3265 42.71 18.7164 42.4565 19.0587C42.2061 19.3978 41.8559 19.664 41.4058 19.8574C40.9589 20.0507 40.4407 20.1474 39.8512 20.1474C39.0335 20.1474 38.3663 19.9731 37.8497 19.6244C37.3331 19.2726 37.0161 18.7734 36.8988 18.1269L38.2728 17.9177C38.3584 18.2758 38.5343 18.5468 38.8005 18.7306C39.0668 18.9113 39.4138 19.0016 39.8417 19.0016C40.3076 19.0016 40.68 18.905 40.9589 18.7116C41.2378 18.5151 41.3773 18.2758 41.3773 17.9937C41.3773 17.7655 41.2917 17.5738 41.1206 17.4185C40.9526 17.2632 40.6943 17.1459 40.3456 17.0667L39.1095 16.7957C38.4281 16.6404 37.9242 16.3932 37.5977 16.054C37.2744 15.7149 37.1128 15.2854 37.1128 14.7657C37.1128 14.3346 37.2332 13.9574 37.4741 13.6342C37.715 13.3109 38.0478 13.0589 38.4725 12.8782C38.8972 12.6944 39.3837 12.6025 39.932 12.6025C40.7212 12.6025 41.3424 12.7737 41.7956 13.116C42.2489 13.4551 42.5484 13.9099 42.6942 14.4804ZM47.5407 12.6976V13.8386H43.552V12.6976H47.5407ZM44.6217 10.9481H46.0432V17.8559C46.0432 18.1316 46.0844 18.3392 46.1668 18.4787C46.2492 18.615 46.3554 18.7084 46.4853 18.7592C46.6184 18.8067 46.7626 18.8305 46.9179 18.8305C47.032 18.8305 47.1319 18.8225 47.2175 18.8067C47.303 18.7909 47.3696 18.7782 47.4171 18.7687L47.6739 19.9429C47.5914 19.9746 47.4742 20.0063 47.322 20.038C47.1699 20.0729 46.9797 20.0919 46.7515 20.0951C46.3775 20.1014 46.0289 20.0349 45.7056 19.8954C45.3823 19.756 45.1209 19.5404 44.9212 19.2488C44.7215 18.9573 44.6217 18.5912 44.6217 18.1506V10.9481ZM48.8454 20V12.6976H50.2669V20H48.8454ZM49.5633 11.5708C49.3161 11.5708 49.1037 11.4884 48.9262 11.3236C48.7519 11.1557 48.6648 10.956 48.6648 10.7246C48.6648 10.4901 48.7519 10.2904 48.9262 10.1256C49.1037 9.9576 49.3161 9.87361 49.5633 9.87361C49.8105 9.87361 50.0213 9.9576 50.1956 10.1256C50.3731 10.2904 50.4618 10.4901 50.4618 10.7246C50.4618 10.956 50.3731 11.1557 50.1956 11.3236C50.0213 11.4884 49.8105 11.5708 49.5633 11.5708ZM51.9115 20V12.6976H53.276V13.8861H53.3663C53.5184 13.4836 53.7672 13.1698 54.1127 12.9448C54.4582 12.7166 54.8718 12.6025 55.3536 12.6025C55.8417 12.6025 56.2505 12.7166 56.5801 12.9448C56.9129 13.173 57.1586 13.4868 57.317 13.8861H57.3931C57.5674 13.4963 57.8447 13.1857 58.2251 12.9543C58.6054 12.7198 59.0586 12.6025 59.5848 12.6025C60.2472 12.6025 60.7876 12.8101 61.2059 13.2253C61.6275 13.6405 61.8382 14.2665 61.8382 15.1032V20H60.4168V15.2363C60.4168 14.7419 60.282 14.3837 60.0126 14.1619C59.7432 13.94 59.4215 13.8291 59.0475 13.8291C58.5848 13.8291 58.2251 13.9717 57.9684 14.257C57.7116 14.539 57.5833 14.9019 57.5833 15.3457V20H56.1665V15.146C56.1665 14.7498 56.0429 14.4313 55.7957 14.1904C55.5485 13.9495 55.2268 13.8291 54.8306 13.8291C54.5612 13.8291 54.3124 13.9004 54.0842 14.043C53.8592 14.1825 53.6769 14.3774 53.5375 14.6278C53.4012 14.8782 53.333 15.1682 53.333 15.4978V20H51.9115ZM66.5517 20.1474C65.8671 20.1474 65.2696 19.9905 64.7594 19.6767C64.2491 19.3629 63.8529 18.924 63.5708 18.3598C63.2887 17.7956 63.1477 17.1364 63.1477 16.3821C63.1477 15.6246 63.2887 14.9622 63.5708 14.3948C63.8529 13.8275 64.2491 13.3869 64.7594 13.0732C65.2696 12.7594 65.8671 12.6025 66.5517 12.6025C67.2363 12.6025 67.8337 12.7594 68.344 13.0732C68.8543 13.3869 69.2505 13.8275 69.5325 14.3948C69.8146 14.9622 69.9557 15.6246 69.9557 16.3821C69.9557 17.1364 69.8146 17.7956 69.5325 18.3598C69.2505 18.924 68.8543 19.3629 68.344 19.6767C67.8337 19.9905 67.2363 20.1474 66.5517 20.1474ZM66.5564 18.9541C67.0002 18.9541 67.3678 18.8368 67.6594 18.6023C67.951 18.3677 68.1665 18.0555 68.306 17.6657C68.4486 17.2759 68.5199 16.8464 68.5199 16.3773C68.5199 15.9114 68.4486 15.4835 68.306 15.0937C68.1665 14.7007 67.951 14.3853 67.6594 14.1476C67.3678 13.9099 67.0002 13.791 66.5564 13.791C66.1095 13.791 65.7387 13.9099 65.444 14.1476C65.1524 14.3853 64.9353 14.7007 64.7926 15.0937C64.6532 15.4835 64.5835 15.9114 64.5835 16.3773C64.5835 16.8464 64.6532 17.2759 64.7926 17.6657C64.9353 18.0555 65.1524 18.3677 65.444 18.6023C65.7387 18.8368 66.1095 18.9541 66.5564 18.9541ZM72.6961 15.6642V20H71.2746V12.6976H72.6391V13.8861H72.7294C72.8974 13.4995 73.1604 13.1889 73.5186 12.9543C73.8799 12.7198 74.3347 12.6025 74.883 12.6025C75.3806 12.6025 75.8164 12.7071 76.1904 12.9163C76.5644 13.1223 76.8544 13.4297 77.0604 13.8386C77.2665 14.2474 77.3695 14.753 77.3695 15.3552V20H75.948V15.5263C75.948 14.997 75.8101 14.5834 75.5344 14.2855C75.2586 13.9844 74.8799 13.8338 74.3981 13.8338C74.0685 13.8338 73.7753 13.9051 73.5186 14.0478C73.265 14.1904 73.0638 14.3996 72.9148 14.6753C72.769 14.9479 72.6961 15.2775 72.6961 15.6642ZM79.0081 20V12.6976H80.4296V20H79.0081ZM79.726 11.5708C79.4788 11.5708 79.2665 11.4884 79.089 11.3236C78.9146 11.1557 78.8275 10.956 78.8275 10.7246C78.8275 10.4901 78.9146 10.2904 79.089 10.1256C79.2665 9.9576 79.4788 9.87361 79.726 9.87361C79.9732 9.87361 80.184 9.9576 80.3583 10.1256C80.5358 10.2904 80.6246 10.4901 80.6246 10.7246C80.6246 10.956 80.5358 11.1557 80.3583 11.3236C80.184 11.4884 79.9732 11.5708 79.726 11.5708ZM84.1994 20.1616C83.7366 20.1616 83.3183 20.0761 82.9443 19.9049C82.5703 19.7306 82.2739 19.4786 82.0552 19.149C81.8397 18.8194 81.7319 18.4153 81.7319 17.9367C81.7319 17.5247 81.8112 17.1855 81.9697 16.9193C82.1281 16.6531 82.3421 16.4423 82.6115 16.287C82.8809 16.1317 83.182 16.0144 83.5148 15.9352C83.8476 15.8559 84.1867 15.7957 84.5322 15.7545C84.9695 15.7038 85.3245 15.6626 85.5971 15.6309C85.8697 15.596 86.0678 15.5406 86.1914 15.4645C86.315 15.3885 86.3768 15.2648 86.3768 15.0937V15.0604C86.3768 14.6452 86.2595 14.3235 86.025 14.0953C85.7936 13.8671 85.4481 13.753 84.9886 13.753C84.51 13.753 84.1328 13.8592 83.8571 14.0715C83.5845 14.2807 83.3959 14.5137 83.2913 14.7704L81.9554 14.4661C82.1139 14.0224 82.3452 13.6643 82.6495 13.3917C82.9569 13.116 83.3103 12.9163 83.7097 12.7927C84.109 12.6659 84.529 12.6025 84.9695 12.6025C85.2611 12.6025 85.5702 12.6374 85.8966 12.7071C86.2262 12.7737 86.5337 12.8973 86.8189 13.0779C87.1073 13.2586 87.3435 13.5169 87.5273 13.8529C87.7111 14.1856 87.803 14.6183 87.803 15.1507V20H86.4148V19.0016H86.3578C86.2658 19.1855 86.128 19.3661 85.9441 19.5436C85.7603 19.7211 85.5242 19.8685 85.2358 19.9857C84.9474 20.103 84.6019 20.1616 84.1994 20.1616ZM84.5084 19.0206C84.9014 19.0206 85.2374 18.943 85.5163 18.7877C85.7984 18.6324 86.0123 18.4295 86.1581 18.1792C86.307 17.9256 86.3815 17.6546 86.3815 17.3662V16.4249C86.3308 16.4756 86.2326 16.5231 86.0868 16.5675C85.9441 16.6087 85.7809 16.6451 85.5971 16.6768C85.4133 16.7054 85.2342 16.7323 85.0599 16.7577C84.8856 16.7798 84.7398 16.7989 84.6225 16.8147C84.3467 16.8496 84.0948 16.9082 83.8666 16.9906C83.6415 17.073 83.4609 17.1919 83.3246 17.3472C83.1915 17.4993 83.1249 17.7021 83.1249 17.9557C83.1249 18.3075 83.2549 18.5737 83.5148 18.7544C83.7747 18.9319 84.1059 19.0206 84.5084 19.0206ZM90.8501 10.2635V20H89.4286V10.2635H90.8501ZM97.9668 14.4804L96.6784 14.7086C96.6245 14.5438 96.539 14.3869 96.4217 14.2379C96.3076 14.089 96.1523 13.967 95.9558 13.8719C95.7593 13.7768 95.5136 13.7292 95.2189 13.7292C94.8164 13.7292 94.4804 13.8196 94.211 14.0002C93.9416 14.1777 93.8069 14.4075 93.8069 14.6896C93.8069 14.9336 93.8972 15.1301 94.0779 15.2791C94.2585 15.4281 94.5501 15.5501 94.9526 15.6452L96.1127 15.9114C96.7846 16.0667 97.2854 16.306 97.615 16.6293C97.9446 16.9526 98.1094 17.3725 98.1094 17.8891C98.1094 18.3265 97.9826 18.7164 97.7291 19.0587C97.4787 19.3978 97.1285 19.664 96.6784 19.8574C96.2315 20.0507 95.7133 20.1474 95.1238 20.1474C94.3061 20.1474 93.6389 19.9731 93.1223 19.6244C92.6057 19.2726 92.2887 18.7734 92.1715 18.1269L93.5454 17.9177C93.631 18.2758 93.8069 18.5468 94.0731 18.7306C94.3394 18.9113 94.6864 19.0016 95.1143 19.0016C95.5802 19.0016 95.9526 18.905 96.2315 18.7116C96.5104 18.5151 96.6499 18.2758 96.6499 17.9937C96.6499 17.7655 96.5643 17.5738 96.3932 17.4185C96.2252 17.2632 95.9669 17.1459 95.6182 17.0667L94.3821 16.7957C93.7007 16.6404 93.1968 16.3932 92.8703 16.054C92.547 15.7149 92.3854 15.2854 92.3854 14.7657C92.3854 14.3346 92.5058 13.9574 92.7467 13.6342C92.9876 13.3109 93.3204 13.0589 93.7451 12.8782C94.1698 12.6944 94.6563 12.6025 95.2046 12.6025C95.9938 12.6025 96.615 12.7737 97.0683 13.116C97.5215 13.4551 97.821 13.9099 97.9668 14.4804Z" fill="#DDD7F9"/><defs><linearGradient id="paint0_linear_611_91" x1="60" y1="7.08333" x2="60" y2="41.25" gradientUnits="userSpaceOnUse"><stop stop-color="#FF8C00"/><stop offset="1" stop-color="#BE7637"/></linearGradient><radialGradient id="paint1_radial_611_91" cx="0" cy="0" r="1" gradientUnits="userSpaceOnUse" gradientTransform="translate(18.72) scale(32.4 28.1624)"><stop stop-color="#A98A51"/><stop offset="1" stop-opacity="0"/></radialGradient><radialGradient id="paint2_radial_611_91" cx="0" cy="0" r="1" gradientTransform="matrix(124.8 56.6667 5.34219 40.0213 6 -3.75)" gradientUnits="userSpaceOnUse"><stop stop-color="#FF8C00"/><stop offset="1" stop-color="#F3E7B6" stop-opacity="0"/></radialGradient></defs></svg>